<svg width="1440" height="28" viewBox="0 0 1440 28" fill="none" xmlns="http://www.w3.org/2000/svg">
<path d="M399.881 0H-7V2.45133H399.881V0Z" fill="#EA4335"/>
<path d="M399.881 25.1116H-7V27.563H399.881V25.1116Z" fill="#EA4335"/>
<path d="M387.028 20.3648L387.028 11.1066H392.378V12.5482H388.469V18.9232H398.753V4.73161H368.928L368.928 18.9232H379.211V12.5482H375.303V11.1066H380.653V20.3648L368.207 20.3647H355.76V11.1066H361.11V12.5482H357.202V18.9232H367.486V4.73161H337.661V18.9232H347.944V12.5482H344.036V11.1066H349.385V20.3647H336.94H324.493V11.1066H329.843V12.5482H325.935V18.9232H336.219L336.219 4.73161H306.393V18.9232H316.677V12.5482H312.768V11.1066H318.118V20.3647H305.673H293.226V11.1066H298.576V12.5482H294.668V18.9232H304.952V4.73161L275.126 4.73151V18.9232H285.41V12.5482H281.501V11.1066H286.851V20.3647H274.405H261.959V11.1066H267.309V12.5482H263.401V18.9232H273.685V4.73151H243.859L243.859 18.9232H254.142V12.5482H250.234V11.1066H255.584V20.3647H243.138H230.692V11.1065L236.042 11.1066V12.5482H232.133V18.9232H242.418V4.73151H212.592V18.9232H222.875V12.5482H218.967V11.1065H224.317L224.317 20.3647H211.871H199.425L199.425 11.1065H204.775V12.5482H200.866V18.9232H211.15V4.73151H181.325V18.9232H191.608V12.5482L187.7 12.5481V11.1065H193.05V20.3647H180.604H168.157V11.1065H173.507V12.5481H169.599L169.599 18.9232H179.883V4.73151H150.058V18.9232H160.341V12.5481H156.433V11.1065H161.783L161.782 20.3647H149.337H136.89L136.89 11.1065H142.24V12.5481H138.332V18.9232H148.616V4.73151H118.791L118.79 18.923L129.074 18.9232V12.5481H125.165V11.1065H130.515V20.3647H118.07H105.623L105.623 11.1065H110.973V12.5481H107.065V18.923H117.349V4.73151H87.5231V18.923H97.8064V12.5481H93.8981V11.1065H99.2481V20.3647H86.8023H74.3558V11.1065H79.7058V12.5481H75.7975V18.923H86.0815V4.73151H56.2556L56.2555 18.923H66.5392V12.5481H62.6309V11.1065H67.9808V20.3647L55.5347 20.3646H43.0886V11.1065H48.4386V12.5481H44.5303V18.923H54.814V4.73151H24.9882V18.923H35.2717V12.5481H31.3634V11.1065H36.7135L36.7134 20.3646H24.2673H11.8212L11.8213 11.1065H17.1714V12.5481H13.2632L13.2631 18.923H23.5465V4.73151H-6.27912L-6.27923 18.923H4.00425V12.5481H0.0959778L0.0960803 11.1065H5.44611V20.3646H-7V22.8312H7.91273L7.91283 8.63979H-2.37064L-2.37075 15.0147H1.53763V16.4563H-3.8125V7.19825H21.0799V16.4563H15.7298V15.0147H19.6381V8.63979H9.35459V22.8312H24.2673H39.1801V8.63979H28.8967V15.0147H32.8049V16.4563H27.4548L27.4549 7.19825H52.3472V16.4563H46.9969V15.0147H50.9053V8.63979H40.622L40.6219 22.8312H55.5347L70.4475 22.8313L70.4476 8.63979H60.1643V15.0147H64.0726V16.4563H58.7222V7.19825H83.6149V16.4563H78.2641V15.0147H82.1724V8.63979H71.8891V22.8313H86.8023H101.715V8.63979H91.4314V15.0147H95.3398V16.4563H89.9899V7.19825H114.882V16.4563H109.531L109.532 15.0147H113.44V8.63979H103.156L103.156 22.8313H118.07H132.982V8.63979H122.699V15.0147H126.607L126.607 16.4564L121.257 16.4563V7.19825H146.149L146.149 16.4564H140.799V15.0147H144.707V8.63979H134.424L134.424 22.8313H149.337H164.249V8.63979H153.966V15.0147H157.874V16.4564H152.524V7.19825H177.416V16.4564H172.066L172.066 15.0147H175.974V8.63979H165.691V22.8313H180.604H195.516V8.63979H185.233V15.0147L189.141 15.0149V16.4564H183.791V7.19825H208.684V16.4564H203.333V15.0149H207.241V8.63979H196.958V22.8313H211.871H226.784V8.63979H216.5V15.0149H220.409V16.4564H215.059V7.19825H239.951V16.4564H234.6V15.0149H238.508V8.63989L228.225 8.63979V22.8313H243.138H258.051V8.63989H247.767V15.0149H251.676V16.4564H246.326L246.326 7.19825H271.218V16.4564H265.867V15.0149H269.776V8.63989H259.492V22.8313H274.405H289.318V8.63989H279.034V15.0149H282.943V16.4564H277.593V7.19825L302.485 7.19835V16.4564H297.134V15.0149H301.043V8.63989H290.759V22.8313H305.673H320.585V8.63989H310.302V15.0149H314.21V16.4564H308.86V7.19835H333.752L333.752 16.4564H328.402V15.0149H332.31V8.63989H322.027V22.8313H336.94H351.852V8.63989H341.569V15.0149H345.477V16.4564H340.127V7.19835H365.019V16.4564H359.669V15.0149H363.577V8.63989H353.294V22.8313H368.207L383.119 22.8315V8.63989H372.836V15.0149H376.744V16.4564H371.394L371.394 7.19835H396.287V16.4564H390.936V15.0149H394.844V8.63989H384.561L384.561 22.8315H399.474V20.3648H387.028Z" fill="#C37833"/>
<path d="M805.741 0H398.86V2.45133H805.741V0Z" fill="#EA4335"/>
<path d="M805.741 25.1116H398.86V27.563H805.741V25.1116Z" fill="#EA4335"/>
<path d="M792.887 20.3648L792.888 11.1066H798.237V12.5482H794.329V18.9232H804.613V4.73161H774.788L774.788 18.9232H785.071V12.5482H781.163V11.1066H786.513V20.3648L774.067 20.3647H761.62V11.1066H766.97V12.5482H763.062V18.9232H773.346V4.73161H743.521V18.9232H753.804V12.5482H749.896V11.1066H755.245V20.3647H742.8H730.353V11.1066H735.703V12.5482H731.795V18.9232H742.079L742.079 4.73161H712.253V18.9232H722.537V12.5482H718.628V11.1066H723.978V20.3647H711.533H699.086V11.1066H704.436V12.5482H700.528V18.9232H710.812V4.73161L680.986 4.73151V18.9232H691.269V12.5482H687.361V11.1066H692.711V20.3647H680.265H667.819V11.1066H673.169V12.5482H669.261V18.9232H679.545V4.73151H649.719L649.719 18.9232H660.002V12.5482H656.094V11.1066H661.444V20.3647H648.998H636.552V11.1065L641.902 11.1066V12.5482H637.993V18.9232H648.277V4.73151H618.452V18.9232H628.735V12.5482H624.827V11.1065H630.177L630.177 20.3647H617.731H605.284L605.285 11.1065H610.634V12.5482H606.726V18.9232H617.01V4.73151H587.185V18.9232H597.468V12.5482L593.56 12.5481V11.1065H598.91V20.3647H586.464H574.017V11.1065H579.367V12.5481H575.459L575.459 18.9232H585.743V4.73151H555.918V18.9232H566.201V12.5481H562.293V11.1065H567.642L567.642 20.3647H555.197H542.75L542.75 11.1065H548.1V12.5481H544.192V18.9232H554.476V4.73151H524.65L524.65 18.923L534.934 18.9232V12.5481H531.025V11.1065H536.375V20.3647H523.93H511.483L511.483 11.1065H516.833V12.5481H512.925V18.923H523.209V4.73151H493.383V18.923H503.666V12.5481H499.758V11.1065H505.108V20.3647H492.662H480.216V11.1065H485.566V12.5481H481.657V18.923H491.941V4.73151H462.115L462.115 18.923H472.399V12.5481H468.491V11.1065H473.841V20.3647L461.395 20.3646H448.948V11.1065H454.298V12.5481H450.39V18.923H460.674V4.73151H430.848V18.923H441.132V12.5481H437.223V11.1065H442.573L442.573 20.3646H430.127H417.681L417.681 11.1065H423.031V12.5481H419.123L419.123 18.923H429.406V4.73151H399.581L399.581 18.923H409.864V12.5481H405.956L405.956 11.1065H411.306V20.3646H398.86V22.8312H413.773L413.773 8.63979H403.489L403.489 15.0147H407.397V16.4563H402.047V7.19825H426.94V16.4563H421.59V15.0147H425.498V8.63979H415.214V22.8312H430.127H445.04V8.63979H434.757V15.0147H438.665V16.4563H433.315L433.315 7.19825H458.207V16.4563H452.857V15.0147H456.765V8.63979H446.482L446.482 22.8312H461.395L476.307 22.8313L476.307 8.63979H466.024V15.0147H469.932V16.4563H464.582V7.19825H489.475V16.4563H484.124V15.0147H488.032V8.63979H477.749V22.8313H492.662H507.575V8.63979H497.291V15.0147H501.2V16.4563H495.85V7.19825H520.742V16.4563H515.391L515.391 15.0147H519.3V8.63979H509.016L509.016 22.8313H523.93H538.842V8.63979H528.559V15.0147H532.467L532.467 16.4564L527.117 16.4563V7.19825H552.009L552.009 16.4564H546.659V15.0147H550.567V8.63979H540.284L540.284 22.8313H555.197H570.109V8.63979H559.826V15.0147H563.734V16.4564H558.384V7.19825H583.276V16.4564H577.926L577.926 15.0147H581.834V8.63979H571.551V22.8313H586.464H601.376V8.63979H591.093V15.0147L595.001 15.0149V16.4564H589.651V7.19825H614.544V16.4564H609.193V15.0149H613.101V8.63979H602.818V22.8313H617.731H632.643V8.63979H622.36V15.0149H626.268V16.4564H620.918V7.19825H645.811V16.4564H640.46V15.0149H644.368V8.63989L634.085 8.63979V22.8313H648.998H663.91V8.63989H653.627V15.0149H657.536V16.4564H652.186L652.186 7.19825H677.078V16.4564H671.727V15.0149H675.635V8.63989H665.352V22.8313H680.265H695.178V8.63989H684.894V15.0149H688.803V16.4564H683.453V7.19825L708.345 7.19835V16.4564H702.994V15.0149H706.903V8.63989H696.619V22.8313H711.533H726.445V8.63989H716.162V15.0149H720.07V16.4564H714.72V7.19835H739.612L739.612 16.4564H734.261V15.0149H738.17V8.63989H727.886V22.8313H742.8H757.712V8.63989H747.429V15.0149H751.337V16.4564H745.987V7.19835H770.879V16.4564H765.529V15.0149H769.437V8.63989H759.154V22.8313H774.067L788.979 22.8315V8.63989H778.696V15.0149H782.604V16.4564H777.254L777.254 7.19835H802.147V16.4564H796.796V15.0149H800.704V8.63989H790.421L790.421 22.8315H805.334V20.3648H792.887Z" fill="#C37833"/>
<path d="M1211.6 0H804.72V2.45133H1211.6V0Z" fill="#EA4335"/>
<path d="M1211.6 25.1116H804.72V27.563H1211.6V25.1116Z" fill="#EA4335"/>
<path d="M1198.75 20.3648L1198.75 11.1066H1204.1V12.5482H1200.19V18.9232H1210.47V4.73161H1180.65L1180.65 18.9232H1190.93V12.5482H1187.02V11.1066H1192.37V20.3648L1179.93 20.3647H1167.48V11.1066H1172.83V12.5482H1168.92V18.9232H1179.21V4.73161H1149.38V18.9232H1159.66V12.5482H1155.76V11.1066H1161.11V20.3647H1148.66H1136.21V11.1066H1141.56V12.5482H1137.65V18.9232H1147.94L1147.94 4.73161H1118.11V18.9232H1128.4V12.5482H1124.49V11.1066H1129.84V20.3647H1117.39H1104.95V11.1066H1110.3V12.5482H1106.39V18.9232H1116.67V4.73161L1086.85 4.73151V18.9232H1097.13V12.5482H1093.22V11.1066H1098.57V20.3647H1086.13H1073.68V11.1066H1079.03V12.5482H1075.12V18.9232H1085.4V4.73151H1055.58L1055.58 18.9232H1065.86V12.5482H1061.95V11.1066H1067.3V20.3647H1054.86H1042.41V11.1065L1047.76 11.1066V12.5482H1043.85V18.9232H1054.14V4.73151H1024.31V18.9232H1034.59V12.5482H1030.69V11.1065H1036.04L1036.04 20.3647H1023.59H1011.14L1011.14 11.1065H1016.49V12.5482H1012.59V18.9232H1022.87V4.73151H993.045V18.9232H1003.33V12.5482L999.419 12.5481V11.1065H1004.77V20.3647H992.324H979.877V11.1065H985.227V12.5481H981.319L981.319 18.9232H991.603V4.73151H961.777V18.9232H972.061V12.5481H968.152V11.1065H973.502L973.502 20.3647H961.057H948.61L948.61 11.1065H953.96V12.5481H950.052V18.9232H960.336V4.73151H930.51L930.51 18.923L940.793 18.9232V12.5481H936.885V11.1065H942.235V20.3647H929.789H917.343L917.343 11.1065H922.693V12.5481H918.785V18.923H929.069V4.73151H899.243V18.923H909.526V12.5481H905.618V11.1065H910.968V20.3647H898.522H886.076V11.1065H891.425V12.5481H887.517V18.923H897.801V4.73151H867.975L867.975 18.923H878.259V12.5481H874.351V11.1065H879.701V20.3647L867.254 20.3646H854.808V11.1065H860.158V12.5481H856.25V18.923H866.534V4.73151H836.708V18.923H846.991V12.5481H843.083V11.1065H848.433L848.433 20.3646H835.987H823.541L823.541 11.1065H828.891V12.5481H824.983L824.983 18.923H835.266V4.73151H805.441L805.441 18.923H815.724V12.5481H811.816L811.816 11.1065H817.166V20.3646H804.72V22.8312H819.632L819.633 8.63979H809.349L809.349 15.0147H813.257V16.4563H807.907V7.19825H832.8V16.4563H827.45V15.0147H831.358V8.63979H821.074V22.8312H835.987H850.9V8.63979H840.616V15.0147H844.525V16.4563H839.175L839.175 7.19825H864.067V16.4563H858.717V15.0147H862.625V8.63979H852.342L852.342 22.8312H867.254L882.167 22.8313L882.167 8.63979H871.884V15.0147H875.792V16.4563H870.442V7.19825H895.335V16.4563H889.984V15.0147H893.892V8.63979H883.609V22.8313H898.522H913.434V8.63979H903.151V15.0147H907.06V16.4563H901.71V7.19825H926.602V16.4563H921.251L921.251 15.0147H925.16V8.63979H914.876L914.876 22.8313H929.789H944.702V8.63979H934.419V15.0147H938.327L938.327 16.4564L932.977 16.4563V7.19825H957.869L957.869 16.4564H952.518V15.0147H956.427V8.63979H946.143L946.143 22.8313H961.057H975.969V8.63979H965.686V15.0147H969.594V16.4564H964.244V7.19825H989.136V16.4564H983.785L983.786 15.0147H987.694V8.63979H977.411V22.8313H992.324H1007.24V8.63979H996.953V15.0147L1000.86 15.0149V16.4564H995.511V7.19825H1020.4V16.4564H1015.05V15.0149H1018.96V8.63979H1008.68V22.8313H1023.59H1038.5V8.63979H1028.22V15.0149H1032.13V16.4564H1026.78V7.19825H1051.67V16.4564H1046.32V15.0149H1050.23V8.63989L1039.94 8.63979V22.8313H1054.86H1069.77V8.63989H1059.49V15.0149H1063.4V16.4564H1058.05L1058.05 7.19825H1082.94V16.4564H1077.59V15.0149H1081.5V8.63989H1071.21V22.8313H1086.13H1101.04V8.63989H1090.75V15.0149H1094.66V16.4564H1089.31V7.19825L1114.2 7.19835V16.4564H1108.85V15.0149H1112.76V8.63989H1102.48V22.8313H1117.39H1132.3V8.63989H1122.02V15.0149H1125.93V16.4564H1120.58V7.19835H1145.47L1145.47 16.4564H1140.12V15.0149H1144.03V8.63989H1133.75V22.8313H1148.66H1163.57V8.63989H1153.29V15.0149H1157.2V16.4564H1151.85V7.19835H1176.74V16.4564H1171.39V15.0149H1175.3V8.63989H1165.01V22.8313H1179.93L1194.84 22.8315V8.63989H1184.56V15.0149H1188.46V16.4564H1183.11L1183.11 7.19835H1208.01V16.4564H1202.66V15.0149H1206.56V8.63989H1196.28L1196.28 22.8315H1211.19V20.3648H1198.75Z" fill="#C37833"/>
<path d="M1617.46 0H1210.58V2.45133H1617.46V0Z" fill="#EA4335"/>
<path d="M1617.46 25.1116H1210.58V27.563H1617.46V25.1116Z" fill="#EA4335"/>
<path d="M1604.61 20.3648L1604.61 11.1066H1609.96V12.5482H1606.05V18.9232H1616.33V4.73161H1586.51L1586.51 18.9232H1596.79V12.5482H1592.88V11.1066H1598.23V20.3648L1585.79 20.3647H1573.34V11.1066H1578.69V12.5482H1574.78V18.9232H1585.07V4.73161H1555.24V18.9232H1565.52V12.5482H1561.62V11.1066H1566.97V20.3647H1554.52H1542.07V11.1066H1547.42V12.5482H1543.51V18.9232H1553.8L1553.8 4.73161H1523.97V18.9232H1534.26V12.5482H1530.35V11.1066H1535.7V20.3647H1523.25H1510.81V11.1066H1516.16V12.5482H1512.25V18.9232H1522.53V4.73161L1492.71 4.73151V18.9232H1502.99V12.5482H1499.08V11.1066H1504.43V20.3647H1491.99H1479.54V11.1066H1484.89V12.5482H1480.98V18.9232H1491.26V4.73151H1461.44L1461.44 18.9232H1471.72V12.5482H1467.81V11.1066H1473.16V20.3647H1460.72H1448.27V11.1065L1453.62 11.1066V12.5482H1449.71V18.9232H1460V4.73151H1430.17V18.9232H1440.46V12.5482H1436.55V11.1065H1441.9L1441.9 20.3647H1429.45H1417L1417 11.1065H1422.35V12.5482H1418.45V18.9232H1428.73V4.73151H1398.9V18.9232H1409.19V12.5482L1405.28 12.5481V11.1065H1410.63V20.3647H1398.18H1385.74V11.1065H1391.09V12.5481H1387.18L1387.18 18.9232H1397.46V4.73151H1367.64V18.9232H1377.92V12.5481H1374.01V11.1065H1379.36L1379.36 20.3647H1366.92H1354.47L1354.47 11.1065H1359.82V12.5481H1355.91V18.9232H1366.2V4.73151H1336.37L1336.37 18.923L1346.65 18.9232V12.5481H1342.75V11.1065H1348.1V20.3647H1335.65H1323.2L1323.2 11.1065H1328.55V12.5481H1324.64V18.923H1334.93V4.73151H1305.1V18.923H1315.39V12.5481H1311.48V11.1065H1316.83V20.3647H1304.38H1291.94V11.1065H1297.29V12.5481H1293.38V18.923H1303.66V4.73151H1273.84L1273.84 18.923H1284.12V12.5481H1280.21V11.1065H1285.56V20.3647L1273.11 20.3646H1260.67V11.1065H1266.02V12.5481H1262.11V18.923H1272.39V4.73151H1242.57V18.923H1252.85V12.5481H1248.94V11.1065H1254.29L1254.29 20.3646H1241.85H1229.4L1229.4 11.1065H1234.75V12.5481H1230.84L1230.84 18.923H1241.13V4.73151H1211.3L1211.3 18.923H1221.58V12.5481H1217.68L1217.68 11.1065H1223.03V20.3646H1210.58V22.8312H1225.49L1225.49 8.63979H1215.21L1215.21 15.0147H1219.12V16.4563H1213.77V7.19825H1238.66V16.4563H1233.31V15.0147H1237.22V8.63979H1226.93V22.8312H1241.85H1256.76V8.63979H1246.48V15.0147H1250.39V16.4563H1245.03L1245.03 7.19825H1269.93V16.4563H1264.58V15.0147H1268.49V8.63979H1258.2L1258.2 22.8312H1273.11L1288.03 22.8313L1288.03 8.63979H1277.74V15.0147H1281.65V16.4563H1276.3V7.19825H1301.19V16.4563H1295.84V15.0147H1299.75V8.63979H1289.47V22.8313H1304.38H1319.29V8.63979H1309.01V15.0147H1312.92V16.4563H1307.57V7.19825H1332.46V16.4563H1327.11L1327.11 15.0147H1331.02V8.63979H1320.74L1320.74 22.8313H1335.65H1350.56V8.63979H1340.28V15.0147H1344.19L1344.19 16.4564L1338.84 16.4563V7.19825H1363.73L1363.73 16.4564H1358.38V15.0147H1362.29V8.63979H1352L1352 22.8313H1366.92H1381.83V8.63979H1371.55V15.0147H1375.45V16.4564H1370.1V7.19825H1395V16.4564H1389.65L1389.65 15.0147H1393.55V8.63979H1383.27V22.8313H1398.18H1413.1V8.63979H1402.81V15.0147L1406.72 15.0149V16.4564H1401.37V7.19825H1426.26V16.4564H1420.91V15.0149H1424.82V8.63979H1414.54V22.8313H1429.45H1444.36V8.63979H1434.08V15.0149H1437.99V16.4564H1432.64V7.19825H1457.53V16.4564H1452.18V15.0149H1456.09V8.63989L1445.81 8.63979V22.8313H1460.72H1475.63V8.63989H1465.35V15.0149H1469.26V16.4564H1463.91L1463.91 7.19825H1488.8V16.4564H1483.45V15.0149H1487.36V8.63989H1477.07V22.8313H1491.99H1506.9V8.63989H1496.61V15.0149H1500.52V16.4564H1495.17V7.19825L1520.07 7.19835V16.4564H1514.71V15.0149H1518.62V8.63989H1508.34V22.8313H1523.25H1538.17V8.63989H1527.88V15.0149H1531.79V16.4564H1526.44V7.19835H1551.33L1551.33 16.4564H1545.98V15.0149H1549.89V8.63989H1539.61V22.8313H1554.52H1569.43V8.63989H1559.15V15.0149H1563.06V16.4564H1557.71V7.19835H1582.6V16.4564H1577.25V15.0149H1581.16V8.63989H1570.87V22.8313H1585.79L1600.7 22.8315V8.63989H1590.42V15.0149H1594.32V16.4564H1588.97L1588.97 7.19835H1613.87V16.4564H1608.52V15.0149H1612.42V8.63989H1602.14L1602.14 22.8315H1617.05V20.3648H1604.61Z" fill="#C37833"/>
</svg>
