<svg width="434" height="353" viewBox="0 0 434 353" fill="none" xmlns="http://www.w3.org/2000/svg">
<path d="M214.922 22C121.877 22 46.449 97.428 46.449 190.473C46.449 266.73 97.118 331.141 166.622 351.907H263.222C332.726 331.141 383.395 266.73 383.395 190.473C383.395 97.428 307.967 22 214.922 22Z" fill="#FFE6E6"/>
<path d="M122.328 141.222H0V263.549H122.328V141.222Z" fill="#639CFF"/>
<path d="M250.922 205.456C283.94 205.456 310.707 178.689 310.707 145.671C310.707 112.653 283.94 85.886 250.922 85.886C217.904 85.886 191.137 112.653 191.137 145.671C191.137 178.689 217.904 205.456 250.922 205.456Z" fill="#FFA905"/>
<path d="M330.49 14.127L267.357 123.476H393.622L330.49 14.127Z" fill="#FF5221"/>
<path d="M226.686 149.126L217.598 164.865H235.773L226.686 149.126Z" fill="#FF5221"/>
<path d="M88.846 47.273L97.933 31.534H79.759L88.846 47.273Z" fill="#FFA905"/>
<path d="M409.744 147.768L418.831 132.028H400.657L409.744 147.768Z" fill="#639CFF"/>
<path d="M220.929 329.63C220.642 329.63 220.35 329.623 220.051 329.609L220.32 323.875C226.374 324.154 228.271 319.915 228.467 319.429L233.828 321.48C233.698 321.824 230.648 329.63 220.929 329.63Z" fill="#FF5221"/>
<path d="M236.618 12.097L235.303 6.511C241.206 5.122 241.863 0.52 241.918 0L247.636 0.502998C247.605 0.876998 246.767 9.709 236.618 12.097Z" fill="#FF5221"/>
<path d="M166.252 82.513C166.036 82.206 161.031 74.88 167.306 66.553L171.89 70.007C168.241 74.849 170.678 78.807 170.968 79.242L166.252 82.513Z" fill="#639CFF"/>
<path d="M378.703 64.755L374.058 61.386C374.277 61.081 379.538 53.934 389.467 57.102L387.724 62.57C381.944 60.729 379.019 64.338 378.703 64.755Z" fill="#FFA905"/>
<path d="M42.7641 115.259C42.3881 115.251 33.5221 114.937 30.5381 104.947L36.0371 103.305C37.7721 109.113 42.4051 109.497 42.9281 109.523L42.7641 115.259Z" fill="#FFA905"/>
<path d="M248.42 218.423L244.789 239.888L191.749 251.51L174.487 266.077L212.538 293.422C212.538 293.422 231.011 293.136 244.79 291.332C258.569 289.528 270.673 291.204 286.428 274.324C302.183 257.444 299.032 215.805 299.032 215.805L248.42 218.423Z" fill="#936149"/>
<path d="M244.117 240.091C245.392 240.318 246.667 240.546 247.942 240.773" stroke="#150D0D" stroke-width="2" stroke-miterlimit="10" stroke-linecap="round" stroke-linejoin="round"/>
<path d="M313.435 351.991H258.244L266.642 299.11L372.215 307.698L313.435 351.991Z" fill="#FFA905"/>
<path d="M316.313 308.081C315.59 315.586 314.866 323.091 314.143 330.596C317.669 330.562 321.389 330.652 324.916 330.618C325.834 322.809 325.916 314.982 326.835 307.173" stroke="#150D0D" stroke-width="2" stroke-miterlimit="10" stroke-linecap="round" stroke-linejoin="round"/>
<path d="M279.937 307.06C273.965 316.007 267.992 324.955 262.02 333.903" stroke="#150D0D" stroke-width="2" stroke-miterlimit="10" stroke-linecap="round" stroke-linejoin="round"/>
<path d="M234.936 221.161C234.936 221.161 239.586 213.049 248.42 197.744C257.254 182.439 268.827 173.197 283.851 169.361C298.875 165.525 331.323 160.067 331.323 160.067C331.323 160.067 360.194 165.455 378.763 169.361C397.331 173.267 403.379 176.362 416.054 192.793C428.729 209.223 433.5 225.935 433.5 225.935L386.278 231.514L385.149 311.892L260.347 307.393L270.929 228.887L234.936 221.161Z" fill="white"/>
<path d="M366.291 233.589C365.663 223.28 366.379 212.89 368.416 202.765C369.87 195.539 374.019 188.984 380.122 184.851C386.224 180.717 393.942 179.04 401.209 180.269" stroke="#150D0D" stroke-width="2" stroke-miterlimit="10" stroke-linecap="round" stroke-linejoin="round"/>
<path d="M270.418 229.533C271.098 222.556 271.777 215.579 272.457 208.603C273.421 198.71 269.192 188.497 264.885 179.539" stroke="#150D0D" stroke-width="2" stroke-miterlimit="10" stroke-linecap="round" stroke-linejoin="round"/>
<path d="M293.487 169.022C295.571 178.693 302.361 187.235 311.312 191.448C320.263 195.661 331.173 195.449 339.954 190.892C348.735 186.335 355.188 177.536 356.895 167.791" stroke="#150D0D" stroke-width="2" stroke-miterlimit="10" stroke-linecap="round" stroke-linejoin="round"/>
<path d="M262.337 299.766C295.728 300.776 329.12 301.785 362.511 302.795" stroke="#150D0D" stroke-width="2" stroke-miterlimit="10" stroke-linecap="round" stroke-linejoin="round"/>
<path d="M425.232 226.911C425.232 226.911 427.858 265.963 427.815 288.937C427.772 311.911 416.733 321.461 407.353 331.606C397.973 341.751 387.174 351.99 387.174 351.99H313.435C313.435 351.99 344.769 317.792 370.853 290.881L371.601 232.68L425.232 226.911Z" fill="#936149"/>
<path d="M370.603 291.43C372.779 290.08 374.954 288.729 377.13 287.379" stroke="#150D0D" stroke-width="2" stroke-miterlimit="10" stroke-linecap="round" stroke-linejoin="round"/>
<path d="M351.142 166.598C349.007 166.061 346.764 165.487 344.629 164.95C344.242 161.384 343.855 157.817 343.468 154.251C331 154.637 318.409 154.241 306.01 152.876C306.628 157.6 307.012 162.363 307.631 167.087C305.678 167.529 303.469 168.032 301.516 168.473C303.78 175.408 308.873 181.401 315.66 184.076C322.447 186.751 330.345 186.354 336.907 183.166C343.468 179.977 348.691 173.469 351.142 166.598Z" fill="#936149"/>
<path d="M354.05 124.522C357.377 122.136 358.693 117.317 357.042 113.571C355.391 109.825 351.246 107.515 347.24 108.359C347.129 107.301 346.579 106.295 345.748 105.63C344.917 104.965 343.918 104.828 342.861 104.952C343.558 101.133 341.394 96.977 337.866 95.358C334.338 93.739 329.975 94.725 327.535 97.744C326.251 95.997 324.057 94.961 321.893 95.079C319.728 95.197 317.806 96.459 316.721 98.335C313.39 96.963 309.368 97.424 306.434 99.515C303.5 101.605 301.75 105.256 301.958 108.852C302.166 112.448 304.326 115.873 307.481 117.61C305.612 123.961 302.807 129.835 299.641 135.649C298.39 135.572 297.264 135.428 296.013 135.35C294.685 139.965 293.772 144.727 293.803 149.529C293.828 153.431 295.826 157.197 298.394 160.134C300.963 163.071 304.492 165.153 308.304 165.981C316.239 167.705 324.542 168.682 332.225 166.054C339.908 163.426 346.585 157.474 349.24 149.8L353.65 137.874C356.52 136.985 358.683 134.173 358.804 131.171C358.927 128.168 356.839 125.64 354.05 124.522Z" fill="#150D0D"/>
<path d="M356.501 138.048C354.709 134.014 350.249 131.333 345.847 131.643L341.827 152.158C345.788 154.107 350.929 153.307 354.111 150.248C357.292 147.188 358.293 142.082 356.501 138.048Z" fill="#936149"/>
<path d="M344.667 141.053C346.859 140.804 349.05 140.555 351.242 140.306" stroke="#150D0D" stroke-width="2" stroke-miterlimit="10" stroke-linecap="round" stroke-linejoin="round"/>
<path d="M336.627 143.225C338.562 138.717 340.521 134.239 342.456 129.731C341.34 128.692 340.683 127.044 341.007 125.555C339.13 125.506 337.291 124.615 336.089 123.173C334.887 121.731 334.179 119.821 334.467 117.966C332.44 118.505 330.1 117.562 329.37 115.596C327.816 116.899 325.602 117.368 323.653 116.808C321.704 116.247 320.144 114.605 319.52 112.675C316.092 112.165 312.506 112.776 309.44 114.394C306.374 116.012 303.796 118.602 302.237 121.698C299.674 126.789 297.925 132.289 297.076 137.926C310.472 137.298 323.89 139.029 336.627 143.225Z" fill="#936149"/>
<path d="M317.668 141.986C317.596 143.559 318.446 145.141 319.797 145.948C321.149 146.755 322.944 146.754 324.295 145.945C325.646 145.136 326.494 143.553 326.42 141.98L317.668 141.986Z" fill="white"/>
<path d="M305.879 133.042C306.935 133.042 307.792 132.186 307.792 131.129C307.792 130.072 306.935 129.216 305.879 129.216C304.822 129.216 303.966 130.072 303.966 131.129C303.966 132.186 304.822 133.042 305.879 133.042Z" fill="#150D0D"/>
<path d="M328.774 135.17C328.774 134.114 327.917 133.257 326.861 133.257C325.805 133.257 324.948 134.114 324.948 135.17C324.948 136.227 325.805 137.083 326.861 137.083C327.918 137.083 328.774 136.226 328.774 135.17Z" fill="#150D0D"/>
<path d="M315.982 130.904C314.929 133.341 313.876 135.777 312.823 138.214C313.647 138.302 314.471 138.389 315.294 138.477" stroke="#150D0D" stroke-width="2" stroke-miterlimit="10" stroke-linecap="round" stroke-linejoin="round"/>
<path d="M326.585 122.003C328.612 122.675 330.638 123.348 332.665 124.02" stroke="#150D0D" stroke-width="2" stroke-miterlimit="10" stroke-linecap="round" stroke-linejoin="round"/>
<path d="M315.589 120.776C315.236 118.455 313.566 116.381 311.374 115.539C309.182 114.698 306.553 115.123 304.738 116.612" stroke="#150D0D" stroke-width="2" stroke-miterlimit="10" stroke-linecap="round" stroke-linejoin="round"/>
<path d="M178.17 351.991H37.8991L32.9961 302.576L170.407 303.823L178.17 351.991Z" fill="#639CFF"/>
<path d="M60.2122 320.915C60.4622 330.798 61.8402 340.652 64.3122 350.224" stroke="#150D0D" stroke-width="2" stroke-miterlimit="10" stroke-linecap="round" stroke-linejoin="round"/>
<path d="M122.93 337.816C123.947 342.325 124.965 346.834 125.982 351.343" stroke="#150D0D" stroke-width="2" stroke-miterlimit="10" stroke-linecap="round" stroke-linejoin="round"/>
<path d="M96.5531 169.547C96.5531 169.547 89.9581 170.45 75.8811 172.872C61.8041 175.294 55.7221 182.146 46.1591 199.427C36.5961 216.707 15.2721 276.511 20.9831 321.221H177.711L174.485 268.474L193.081 250.201C193.081 250.201 184.023 223.398 178.169 207.449C172.314 191.5 165.087 186.698 153.171 180.996C141.255 175.294 105.146 167.309 105.146 167.309L96.5531 169.547Z" fill="white"/>
<path d="M73.054 173.382C79.314 173.146 85.628 175.684 89.982 180.186C94.337 184.689 96.662 191.084 96.217 197.332C94.98 214.697 92.986 232.263 91.251 249.585C107.605 249.855 124.224 249.796 140.579 250.066" stroke="#150D0D" stroke-width="2" stroke-miterlimit="10" stroke-linecap="round" stroke-linejoin="round"/>
<path d="M48.8311 195.277C41.1951 218.713 37.3361 243.375 37.4461 268.023C37.4901 277.927 39.9481 287.721 45.9371 295.609C52.8921 304.771 64.9351 308.893 76.4371 309.037C94.7461 309.265 112.85 307.779 130.876 304.565" stroke="#150D0D" stroke-width="2" stroke-miterlimit="10" stroke-linecap="round" stroke-linejoin="round"/>
<path d="M91.0631 249.336C87.9121 250.087 84.7611 250.838 81.6111 251.589" stroke="#150D0D" stroke-width="2" stroke-miterlimit="10" stroke-linecap="round" stroke-linejoin="round"/>
<path d="M154.2 182.269C154.486 205.451 154.772 228.634 155.057 251.817" stroke="#150D0D" stroke-width="2" stroke-miterlimit="10" stroke-linecap="round" stroke-linejoin="round"/>
<path d="M47.106 298.406C46.903 305.834 46.701 313.262 46.498 320.69" stroke="#150D0D" stroke-width="2" stroke-miterlimit="10" stroke-linecap="round" stroke-linejoin="round"/>
<path d="M115.178 250.192C112.904 269.254 110.63 288.317 108.356 307.379" stroke="#150D0D" stroke-width="2" stroke-miterlimit="10" stroke-linecap="round" stroke-linejoin="round"/>
<path d="M125.728 258.345C125.408 260.593 125.089 262.841 124.769 265.089" stroke="#150D0D" stroke-width="2" stroke-miterlimit="10" stroke-linecap="round" stroke-linejoin="round"/>
<path d="M94.5171 169.842L107.724 204.161L120.423 182.564L132.696 203.864L139.876 175.741L94.5171 169.842Z" stroke="#150D0D" stroke-width="2" stroke-miterlimit="10" stroke-linecap="round" stroke-linejoin="round"/>
<path d="M142.221 132.14C134.128 123.007 120.792 119.76 109.089 123.219C103.472 124.879 98.461 128.515 95.139 133.339C91.818 138.163 90.89 144.284 91.008 150.14C91.057 152.56 91.106 154.979 91.155 157.399C98.002 161.536 104.813 165.337 111.66 169.474L136.641 149.562C140.217 148.728 143.258 145.9 144.35 142.394C145.442 138.889 144.656 134.888 142.221 132.14Z" fill="#FF5221"/>
<path d="M122.438 185.213C124.604 185.389 126.79 185.169 128.914 184.713C133.561 183.715 138.055 181.492 141.135 177.871C144.215 174.25 145.138 169.09 144.567 164.371C144.022 159.863 143.085 155.407 142.795 150.875C142.561 147.218 139.917 144.196 136.517 142.826C126.738 144.725 117.23 146.708 107.451 148.607C106.43 151.58 105.215 154.332 104.193 157.306C103.453 155.876 102.567 154.62 101.827 153.19C97.811 151.343 92.651 152.407 89.694 155.692C86.736 158.977 86.217 164.22 88.474 168.02C90.731 171.821 95.582 173.875 99.882 172.851C105.16 179.904 113.658 184.499 122.438 185.213Z" fill="#FFB9C4"/>
<path d="M124.337 168.901C124.058 169.847 124.391 170.944 125.15 171.574C125.909 172.204 127.049 172.33 127.927 171.881C128.805 171.432 129.371 170.434 129.305 169.45L124.337 168.901Z" fill="white"/>
<path d="M122.336 164.561C123.393 164.561 124.249 163.705 124.249 162.648C124.249 161.591 123.393 160.735 122.336 160.735C121.28 160.735 120.423 161.591 120.423 162.648C120.423 163.705 121.28 164.561 122.336 164.561Z" fill="#150D0D"/>
<path d="M144.86 158.889C144.86 157.832 144.003 156.976 142.947 156.976C141.89 156.976 141.034 157.833 141.034 158.889C141.034 159.945 141.891 160.802 142.947 160.802C144.004 160.802 144.86 159.946 144.86 158.889Z" fill="#150D0D"/>
<path d="M116.19 156.478C116.63 154.804 117.905 153.372 119.516 152.741C121.127 152.109 123.035 152.294 124.496 153.223" stroke="#150D0D" stroke-width="2" stroke-miterlimit="10" stroke-linecap="round" stroke-linejoin="round"/>
<path d="M123.654 169.175C127.017 165.812 127.017 160.359 123.654 156.996C120.29 153.633 114.838 153.633 111.475 156.996C108.111 160.359 108.111 165.812 111.475 169.175C114.838 172.538 120.29 172.538 123.654 169.175Z" stroke="#150D0D" stroke-width="2" stroke-miterlimit="10" stroke-linecap="round" stroke-linejoin="round"/>
<path d="M143.462 167.211C148.091 166.118 150.957 161.48 149.864 156.851C148.771 152.222 144.133 149.356 139.504 150.449C134.875 151.542 132.009 156.18 133.102 160.809C134.195 165.438 138.833 168.304 143.462 167.211Z" stroke="#150D0D" stroke-width="2" stroke-miterlimit="10" stroke-linecap="round" stroke-linejoin="round"/>
<path d="M126.129 159.329C126.449 157.966 127.677 156.865 129.068 156.695C130.458 156.525 131.915 157.298 132.554 158.545" stroke="#150D0D" stroke-width="2" stroke-miterlimit="10" stroke-linecap="round" stroke-linejoin="round"/>
<path d="M134.042 149.393C136.453 147.846 139.519 147.36 142.29 148.085" stroke="#150D0D" stroke-width="2" stroke-miterlimit="10" stroke-linecap="round" stroke-linejoin="round"/>
<path d="M129.413 160.224C130.24 162.287 131.067 164.349 131.893 166.412C130.956 166.532 129.927 166.856 128.99 166.976" stroke="#150D0D" stroke-width="2" stroke-miterlimit="10" stroke-linecap="round" stroke-linejoin="round"/>
<path d="M93.6699 159.253C95.7529 159.873 97.8369 160.494 99.9199 161.114" stroke="#150D0D" stroke-width="2" stroke-miterlimit="10" stroke-linecap="round" stroke-linejoin="round"/>
<path d="M136.586 302.751C152 308.327 168.499 312.876 184.628 315.794C185.779 316.002 187.015 315.677 187.914 314.929C188.813 314.181 189.526 313.201 189.531 312.031C191.441 312.551 193.505 312.786 195.455 313.124C197.287 313.441 199.27 312.572 200.279 311.01C201.287 309.448 201.545 307.673 200.502 306.134C201.4 306.315 203.05 306.571 203.904 306.902C205.534 307.533 207.495 307.216 208.843 306.102C210.191 304.989 210.98 302.532 210.668 300.812C212.307 301.78 214.116 302.723 216.009 302.526C217.77 302.343 219.374 301.084 219.971 299.418C220.568 297.752 220.536 295.663 219.236 294.462C206.368 282.575 193.527 270.401 180.659 258.514L184.805 246.913C181.09 241.22 175.522 239.777 167.178 243.511C158.835 247.245 147.924 252.64 147.924 252.64L138.722 253.16L130.619 302.578L136.586 302.751Z" fill="#FFB9C4"/>
<path d="M201.282 295.595C204.721 297.64 208.161 299.685 211.6 301.73" stroke="#150D0D" stroke-width="2" stroke-miterlimit="10" stroke-linecap="round" stroke-linejoin="round"/>
<path d="M193.059 303.457C196.113 304.358 199.166 305.259 202.22 306.16" stroke="#150D0D" stroke-width="2" stroke-miterlimit="10" stroke-linecap="round" stroke-linejoin="round"/>
<path d="M185.405 310.889C187.048 311.365 188.691 311.841 190.334 312.316" stroke="#150D0D" stroke-width="2" stroke-miterlimit="10" stroke-linecap="round" stroke-linejoin="round"/>
<path d="M176.533 316.413C175.778 318.486 173.626 319.965 171.42 319.926C169.214 319.888 167.421 318.473 166.738 316.375C165.431 317.744 163.699 318.756 161.82 318.984C159.941 319.212 157.927 318.589 156.665 317.179C155.403 315.768 154.475 313.537 155.391 311.881C153.901 314.081 150.857 315.081 148.352 314.192C145.848 313.304 143.995 310.57 144.224 307.923C142.838 309.825 140.055 310.553 137.915 309.574C135.775 308.595 134.428 305.819 135.295 303.631C137.055 299.192 138.815 294.753 140.575 290.314C141.479 289.655 143.196 289.652 143.862 290.55C144.528 291.448 144.681 292.615 144.812 293.725C145.226 297.233 145.64 300.741 146.054 304.25C148.292 299.393 150.703 294.815 153.747 290.419C154.473 289.371 156.211 290.45 156.766 291.598C157.321 292.746 157.242 294.086 157.151 295.357C156.817 300.015 156.483 304.674 156.15 309.332C158.498 304.514 161.147 299.773 163.495 294.955C164.494 294.352 165.995 295.008 166.569 296.024C167.144 297.04 167.138 298.27 167.117 299.437C167.036 303.913 166.955 308.389 166.875 312.865C168.664 310.1 170.627 307.259 172.416 304.495C173.152 304.156 174.189 304.002 174.747 304.59C175.305 305.178 175.578 305.976 175.787 306.759C176.522 309.509 177.508 313.737 176.533 316.413Z" fill="#936149"/>
<path d="M146.192 301.78C145.573 303.95 144.955 306.121 144.336 308.291" stroke="#150D0D" stroke-width="2" stroke-miterlimit="10" stroke-linecap="round" stroke-linejoin="round"/>
<path d="M156.964 305.372C156.223 308.075 155.482 310.779 154.742 313.482" stroke="#150D0D" stroke-width="2" stroke-miterlimit="10" stroke-linecap="round" stroke-linejoin="round"/>
<path d="M167.361 310.336C167.042 312.509 166.724 314.682 166.405 316.855" stroke="#150D0D" stroke-width="2" stroke-miterlimit="10" stroke-linecap="round" stroke-linejoin="round"/>
<path d="M195.821 245.387C191.184 242.979 185.191 242.291 180.194 243.818C173.726 245.796 167.472 247.989 161.004 249.966C158.596 256.476 156.188 262.987 153.779 269.497C154.894 271.006 156.987 271.118 158.79 270.599C160.593 270.081 162.101 268.865 163.554 267.678C165.76 265.877 167.965 264.076 170.171 262.275C177.189 263.384 183.821 264.091 190.839 265.2L205.826 256.962C204.116 252.027 200.458 247.795 195.821 245.387Z" fill="#936149"/>
<path d="M186.72 264.647C188.296 265.547 189.871 266.448 191.447 267.348" stroke="#150D0D" stroke-width="2" stroke-miterlimit="10" stroke-linecap="round" stroke-linejoin="round"/>
<path d="M169.164 262.396C168.339 261.796 167.514 261.196 166.688 260.595" stroke="#150D0D" stroke-width="2" stroke-miterlimit="10" stroke-linecap="round" stroke-linejoin="round"/>
<path d="M200.414 248.949C201.389 249.549 202.364 250.15 203.339 250.75" stroke="#150D0D" stroke-width="2" stroke-miterlimit="10" stroke-linecap="round" stroke-linejoin="round"/>
<path d="M15.665 351.991H410.775" stroke="#150D0D" stroke-width="2" stroke-miterlimit="10" stroke-linecap="round" stroke-linejoin="round"/>
</svg>
