<svg width="179" height="101" viewBox="0 0 179 101" fill="none" xmlns="http://www.w3.org/2000/svg">
<path d="M9.38889 36.3833L28.8566 50.3742L9.38889 64.3651C0.714752 70.5993 -1.26391 82.6846 4.97022 91.3593C11.2044 100.034 23.2902 102.013 31.9644 95.7785L73.2828 66.0835C73.3404 66.0425 73.3942 65.9982 73.4508 65.9566C73.5873 65.8563 73.7217 65.7539 73.8556 65.6499C73.9873 65.5475 74.1185 65.4446 74.247 65.3395C74.3516 65.2531 74.455 65.1657 74.5585 65.0771C74.7174 64.9417 74.8742 64.8046 75.0273 64.6654C75.0891 64.6094 75.1494 64.5523 75.2102 64.4953C75.4044 64.3139 75.5948 64.1294 75.7804 63.9417C75.7969 63.9246 75.8124 63.9081 75.8289 63.8915C77.2118 62.4793 78.343 60.8899 79.2129 59.1865C79.2284 59.1561 79.2438 59.1262 79.2593 59.0958C79.374 58.8686 79.4833 58.6393 79.5884 58.4078C79.6262 58.3257 79.6641 58.2435 79.7004 58.1609C79.7777 57.9849 79.8513 57.8073 79.9233 57.6291C79.9777 57.4942 80.0321 57.3598 80.0838 57.2238C80.1318 57.0969 80.1766 56.9694 80.222 56.8414C80.287 56.6579 80.351 56.4745 80.4108 56.2899C80.4374 56.2057 80.4625 56.1209 80.4881 56.0366C80.5569 55.8126 80.623 55.5881 80.6828 55.3625C80.6972 55.3097 80.7094 55.2563 80.7233 55.2041C80.7884 54.9507 80.8497 54.6974 80.9046 54.443C80.9121 54.4057 80.919 54.3683 80.927 54.331C80.9825 54.0649 81.0337 53.7982 81.0774 53.531C81.0844 53.4905 81.0897 53.4499 81.0961 53.4089C81.1372 53.1475 81.175 52.8857 81.2054 52.6233C81.2124 52.5625 81.2177 52.5006 81.2241 52.4393C81.2497 52.2003 81.2726 51.9614 81.2892 51.7219C81.2961 51.6217 81.2998 51.5209 81.3052 51.4206C81.3158 51.2211 81.3265 51.0222 81.3308 50.8227C81.3345 50.6734 81.3329 50.5235 81.3334 50.3742C81.3329 50.2243 81.3345 50.075 81.3308 49.9257C81.3265 49.7262 81.3158 49.5273 81.3052 49.3278C81.2998 49.2275 81.2961 49.1267 81.2892 49.0265C81.2726 48.787 81.2497 48.5481 81.2241 48.3086C81.2177 48.2478 81.2124 48.1865 81.2054 48.1251C81.175 47.8627 81.1372 47.6009 81.0961 47.339C81.0897 47.2985 81.0844 47.2579 81.0774 47.2174C81.0337 46.9502 80.9825 46.6835 80.927 46.4174C80.919 46.3801 80.9121 46.3427 80.9046 46.3054C80.8497 46.051 80.7884 45.7977 80.7233 45.5443C80.7094 45.4915 80.6972 45.4387 80.6828 45.3859C80.623 45.1609 80.5569 44.9363 80.4881 44.7123C80.4625 44.6275 80.4374 44.5427 80.4102 44.4579C80.351 44.2739 80.287 44.0905 80.222 43.9075C80.1772 43.7795 80.1318 43.6515 80.0838 43.5246C80.0321 43.3886 79.9777 43.2542 79.9233 43.1193C79.8513 42.9411 79.7777 42.7635 79.7004 42.5875C79.6641 42.5049 79.6262 42.4227 79.5884 42.3401C79.4833 42.1091 79.374 41.8798 79.2593 41.6526C79.2438 41.6222 79.2284 41.5923 79.2129 41.5619C78.343 39.8585 77.2118 38.2691 75.8289 36.8569C75.8124 36.8403 75.7969 36.8238 75.7804 36.8073C75.5948 36.619 75.4044 36.4345 75.2102 36.2531C75.1494 36.1961 75.0891 36.139 75.0273 36.0835C74.8742 35.9433 74.7174 35.8067 74.5585 35.6713C74.455 35.5827 74.3516 35.4947 74.247 35.4089C74.1185 35.3038 73.9873 35.2009 73.8556 35.0985C73.7217 34.9945 73.5873 34.8921 73.4508 34.7918C73.3942 34.7502 73.3404 34.7059 73.2828 34.6649L31.9644 4.96994C23.2902 -1.26366 11.2044 0.714478 4.97022 9.38914C-1.26391 18.0638 0.714752 30.1491 9.38889 36.3833Z" fill="#FF7DAF" stroke="#1E1E1E" stroke-width="2.66667" stroke-miterlimit="10"/>
<path d="M169.278 36.3833L149.81 50.3742L169.278 64.3651C177.952 70.5993 179.931 82.6846 173.697 91.3593C167.462 100.034 155.377 102.013 146.702 95.7785L105.384 66.0835C105.326 66.0425 105.273 65.9982 105.216 65.9566C105.08 65.8563 104.945 65.7539 104.811 65.6499C104.68 65.5475 104.548 65.4446 104.42 65.3395C104.315 65.2531 104.212 65.1657 104.108 65.0771C103.949 64.9417 103.793 64.8046 103.64 64.6654C103.578 64.6094 103.517 64.5523 103.457 64.4953C103.262 64.3139 103.072 64.1294 102.886 63.9417C102.87 63.9246 102.854 63.9081 102.838 63.8915C101.455 62.4793 100.324 60.8899 99.4539 59.1865C99.4384 59.1561 99.423 59.1262 99.4075 59.0958C99.2928 58.8686 99.1835 58.6393 99.0784 58.4078C99.0406 58.3257 99.0027 58.2435 98.9664 58.1609C98.8891 57.9849 98.8155 57.8073 98.744 57.6291C98.6891 57.4942 98.6347 57.3598 98.583 57.2238C98.535 57.0969 98.4902 56.9694 98.4448 56.8414C98.3798 56.6579 98.3158 56.4745 98.256 56.2899C98.2294 56.2057 98.2043 56.1209 98.1787 56.0366C98.1099 55.8126 98.0438 55.5881 97.984 55.3625C97.9696 55.3097 97.9574 55.2563 97.9435 55.2041C97.8784 54.9507 97.8171 54.6974 97.7622 54.443C97.7547 54.4057 97.7478 54.3683 97.7398 54.331C97.6843 54.0649 97.6331 53.7982 97.5894 53.531C97.5824 53.4905 97.5771 53.4499 97.5707 53.4089C97.5296 53.1475 97.4918 52.8857 97.4614 52.6233C97.4544 52.5625 97.4491 52.5006 97.4427 52.4393C97.4171 52.2003 97.3942 51.9614 97.3776 51.7219C97.3707 51.6217 97.367 51.5209 97.3616 51.4206C97.351 51.2211 97.3403 51.0222 97.336 50.8227C97.3323 50.6734 97.3339 50.5235 97.3334 50.3742C97.3339 50.2243 97.3323 50.075 97.336 49.9257C97.3403 49.7262 97.351 49.5273 97.3616 49.3278C97.367 49.2275 97.3707 49.1267 97.3776 49.0265C97.3942 48.787 97.4171 48.5481 97.4427 48.3086C97.4491 48.2478 97.4544 48.1865 97.4614 48.1251C97.4918 47.8627 97.5296 47.6009 97.5707 47.339C97.5771 47.2985 97.5824 47.2579 97.5894 47.2174C97.6331 46.9502 97.6843 46.6835 97.7398 46.4174C97.7478 46.3801 97.7547 46.3427 97.7622 46.3054C97.8171 46.051 97.8784 45.7977 97.9435 45.5443C97.9574 45.4915 97.9696 45.4387 97.984 45.3859C98.0438 45.1609 98.1099 44.9363 98.1787 44.7123C98.2043 44.6275 98.2294 44.5427 98.2566 44.4579C98.3158 44.2739 98.3798 44.0905 98.4448 43.9075C98.4896 43.7795 98.535 43.6515 98.583 43.5246C98.6347 43.3886 98.6891 43.2542 98.744 43.1193C98.8155 42.9411 98.8891 42.7635 98.9664 42.5875C99.0027 42.5049 99.0406 42.4227 99.0784 42.3401C99.1835 42.1091 99.2928 41.8798 99.4075 41.6526C99.423 41.6222 99.4384 41.5923 99.4539 41.5619C100.324 39.8585 101.455 38.2691 102.838 36.8569C102.854 36.8403 102.87 36.8238 102.886 36.8073C103.072 36.619 103.262 36.4345 103.457 36.2531C103.517 36.1961 103.578 36.139 103.64 36.0835C103.793 35.9433 103.949 35.8067 104.108 35.6713C104.212 35.5827 104.315 35.4947 104.42 35.4089C104.548 35.3038 104.68 35.2009 104.811 35.0985C104.945 34.9945 105.08 34.8921 105.216 34.7918C105.273 34.7502 105.326 34.7059 105.384 34.6649L146.702 4.96994C155.377 -1.26366 167.462 0.714478 173.697 9.38914C179.931 18.0638 177.952 30.1491 169.278 36.3833Z" fill="#FF7DAF" stroke="#1E1E1E" stroke-width="2.66667" stroke-miterlimit="10"/>
</svg>
