<svg width="515" height="250" viewBox="0 0 515 250" fill="none" xmlns="http://www.w3.org/2000/svg">
<path d="M57.2188 0.383789H251.531C259.793 0.38383 266.491 7.0815 266.491 15.3438V37.4688C266.491 46.1547 273.533 53.1962 282.219 53.1963H499.031C507.294 53.1963 513.991 59.894 513.991 68.1562V228.094C513.991 236.356 507.293 243.054 499.031 243.054H57.2188C48.9565 243.054 42.2588 236.356 42.2588 228.094V15.3438C42.2588 7.0815 48.9565 0.383829 57.2188 0.383789Z" fill="white" stroke="black" stroke-width="0.767191"/>
<path d="M99.777 22.8096H101.852V37.9375H99.8634L91.1108 26.1809V37.9375H89.0361V22.8096H91.0028L99.777 34.5661V22.8096ZM115.769 33.0749H107.168C107.406 35.1712 108.767 36.4031 110.82 36.4031C112.182 36.4031 113.327 35.8628 114.213 34.7822L115.531 35.9493C114.473 37.4188 112.787 38.2401 110.777 38.2401C107.406 38.2401 105.093 35.8844 105.093 32.4914C105.093 29.1417 107.384 26.678 110.604 26.678C113.651 26.678 115.834 28.8823 115.834 32.1024C115.834 32.4266 115.812 32.7508 115.769 33.0749ZM107.211 31.5189H113.781C113.608 29.6171 112.398 28.5366 110.604 28.5366C108.767 28.5366 107.535 29.6387 107.211 31.5189ZM119.398 35.02V28.7311H117.236V26.9805H119.398V23.7388H121.429V26.9805H124.779V28.7311H121.429V34.8255C121.429 35.8844 121.926 36.3166 123.136 36.3166C123.633 36.3166 124.195 36.2518 124.822 36.1221V37.8294C124.195 38.0239 123.525 38.1104 122.812 38.1104C120.543 38.1104 119.398 37.073 119.398 35.02ZM141.501 26.9805H143.554L140.01 37.9375H137.762L134.952 29.3578L132.143 37.9375H129.917L126.373 26.9805H128.426L131.084 35.517L133.894 26.9805H136.033L138.821 35.4954L141.501 26.9805ZM144.918 32.4698C144.918 29.3146 147.187 26.678 150.602 26.678C153.973 26.678 156.264 29.3146 156.264 32.4698C156.264 35.6467 153.973 38.2401 150.602 38.2401C147.187 38.2401 144.918 35.6467 144.918 32.4698ZM154.146 32.4698C154.146 30.1574 152.741 28.5582 150.602 28.5582C149.543 28.5582 148.678 28.9256 148.008 29.6604C147.36 30.3735 147.036 31.3244 147.036 32.4698C147.036 33.6152 147.36 34.5445 148.008 35.2793C148.678 35.9925 149.543 36.3599 150.602 36.3599C151.661 36.3599 152.525 35.9925 153.174 35.2793C153.822 34.5445 154.146 33.6152 154.146 32.4698ZM165.534 26.9589V28.7959C165.232 28.7311 164.886 28.7095 164.518 28.7095C162.422 28.7095 161.255 29.8981 161.255 32.3834V37.9375H159.224V26.9805H161.255V28.9472C161.774 27.5857 162.984 26.8077 164.562 26.8077C164.929 26.8077 165.253 26.8509 165.534 26.9589ZM175.524 37.9375L171.72 33.0749H170.056V37.9375H168.024V22.118H170.056V31.2812H171.785L175.437 26.9805H177.814L173.384 32.1889L177.901 37.9375H175.524ZM179.73 23.4579C179.73 22.6799 180.292 22.0964 181.092 22.0964C181.891 22.0964 182.453 22.6799 182.453 23.4579C182.453 24.2359 181.891 24.8194 181.092 24.8194C180.292 24.8194 179.73 24.2359 179.73 23.4579ZM180.076 37.9375V26.9805H182.107V37.9375H180.076ZM195.497 30.8922V37.9375H193.466V31.3893C193.466 29.4226 192.709 28.5582 191.067 28.5582C189.187 28.5582 187.868 29.682 187.868 31.4757V37.9375H185.837V26.9805H187.868V28.7743C188.495 27.456 189.878 26.678 191.607 26.678C194.049 26.678 195.497 28.2124 195.497 30.8922ZM207.518 26.9805H209.55V36.684C209.55 40.466 207.453 42.5623 203.801 42.5623C201.726 42.5623 199.911 41.8924 198.787 40.7686L199.889 39.2774C200.905 40.1635 202.288 40.7038 203.758 40.7038C206.178 40.7038 207.518 39.3422 207.518 36.684V35.7331C206.891 37.0947 205.379 37.9159 203.563 37.9159C200.581 37.9159 198.377 35.6035 198.377 32.2969C198.377 29.012 200.581 26.678 203.563 26.678C205.357 26.678 206.891 27.5424 207.518 28.904V26.9805ZM207.605 32.2969C207.605 31.1948 207.28 30.3087 206.632 29.6171C205.984 28.904 205.119 28.5582 204.06 28.5582C203.001 28.5582 202.137 28.904 201.467 29.6171C200.819 30.3087 200.494 31.1948 200.494 32.2969C200.494 34.5229 201.921 36.0573 204.06 36.0573C205.119 36.0573 205.984 35.7115 206.632 34.9984C207.28 34.2852 207.605 33.3991 207.605 32.2969Z" fill="black"/>
<path d="M266.447 113.051H268.949V129.421H266.704V116.536L261.255 125.212H259.384L253.935 116.536V129.421H251.714V113.051H254.216L260.343 122.803L266.447 113.051ZM284.022 124.159H274.714C274.971 126.428 276.445 127.761 278.666 127.761C280.14 127.761 281.379 127.176 282.338 126.007L283.764 127.27C282.619 128.86 280.794 129.749 278.62 129.749C274.971 129.749 272.469 127.199 272.469 123.528C272.469 119.903 274.948 117.237 278.433 117.237C281.73 117.237 284.092 119.622 284.092 123.107C284.092 123.458 284.069 123.809 284.022 124.159ZM274.761 122.476H281.87C281.683 120.418 280.374 119.248 278.433 119.248C276.445 119.248 275.112 120.441 274.761 122.476ZM297.998 124.159H288.691C288.948 126.428 290.421 127.761 292.643 127.761C294.116 127.761 295.356 127.176 296.315 126.007L297.741 127.27C296.595 128.86 294.771 129.749 292.596 129.749C288.948 129.749 286.446 127.199 286.446 123.528C286.446 119.903 288.925 117.237 292.409 117.237C295.707 117.237 298.069 119.622 298.069 123.107C298.069 123.458 298.045 123.809 297.998 124.159ZM288.738 122.476H295.847C295.66 120.418 294.35 119.248 292.409 119.248C290.421 119.248 289.088 120.441 288.738 122.476ZM301.925 126.264V119.459H299.586V117.564H301.925V114.057H304.123V117.564H307.748V119.459H304.123V126.054C304.123 127.199 304.661 127.667 305.97 127.667C306.508 127.667 307.116 127.597 307.795 127.457V129.304C307.116 129.515 306.391 129.608 305.62 129.608C303.164 129.608 301.925 128.486 301.925 126.264ZM325.091 117.564H327.289V129.421H325.091V127.316C324.413 128.813 322.752 129.749 320.811 129.749C317.584 129.749 315.199 127.153 315.199 123.505C315.199 119.833 317.584 117.237 320.811 117.237C322.752 117.237 324.413 118.173 325.091 119.669V117.564ZM325.184 123.505C325.184 121.002 323.664 119.272 321.349 119.272C320.203 119.272 319.268 119.669 318.543 120.464C317.841 121.236 317.49 122.265 317.49 123.505C317.49 124.744 317.841 125.75 318.543 126.545C319.268 127.316 320.203 127.714 321.349 127.714C322.495 127.714 323.43 127.316 324.132 126.545C324.834 125.75 325.184 124.744 325.184 123.505ZM341.772 121.797V129.421H339.574V122.335C339.574 120.207 338.755 119.272 336.978 119.272C334.943 119.272 333.517 120.488 333.517 122.429V129.421H331.318V117.564H333.517V119.506C334.195 118.079 335.692 117.237 337.562 117.237C340.205 117.237 341.772 118.897 341.772 121.797ZM354.78 112.303H356.978V129.421H354.78V127.316C354.102 128.813 352.418 129.749 350.477 129.749C347.273 129.749 344.888 127.153 344.888 123.505C344.888 119.833 347.273 117.237 350.477 117.237C352.418 117.237 354.102 118.173 354.78 119.669V112.303ZM354.874 123.505C354.874 121.002 353.353 119.272 351.038 119.272C349.892 119.272 348.957 119.669 348.232 120.464C347.53 121.236 347.18 122.265 347.18 123.505C347.18 124.744 347.53 125.75 348.232 126.545C348.957 127.316 349.892 127.714 351.038 127.714C352.184 127.714 353.12 127.316 353.821 126.545C354.523 125.75 354.874 124.744 354.874 123.505ZM376.805 121.797V129.421H374.607V122.335C374.607 120.207 373.788 119.272 372.011 119.272C369.976 119.272 368.55 120.488 368.55 122.429V129.421H366.352V117.564H368.55V119.506C369.228 118.079 370.725 117.237 372.596 117.237C375.238 117.237 376.805 118.897 376.805 121.797ZM391.474 124.159H382.166C382.423 126.428 383.896 127.761 386.118 127.761C387.591 127.761 388.831 127.176 389.79 126.007L391.216 127.27C390.07 128.86 388.246 129.749 386.071 129.749C382.423 129.749 379.921 127.199 379.921 123.528C379.921 119.903 382.4 117.237 385.884 117.237C389.182 117.237 391.544 119.622 391.544 123.107C391.544 123.458 391.52 123.809 391.474 124.159ZM382.213 122.476H389.322C389.135 120.418 387.825 119.248 385.884 119.248C383.896 119.248 382.563 120.441 382.213 122.476ZM395.4 126.264V119.459H393.061V117.564H395.4V114.057H397.598V117.564H401.223V119.459H397.598V126.054C397.598 127.199 398.136 127.667 399.446 127.667C399.983 127.667 400.591 127.597 401.27 127.457V129.304C400.591 129.515 399.866 129.608 399.095 129.608C396.639 129.608 395.4 128.486 395.4 126.264ZM419.318 117.564H421.54L417.704 129.421H415.272L412.232 120.137L409.192 129.421H406.783L402.948 117.564H405.169L408.046 126.802L411.086 117.564H413.401L416.418 126.779L419.318 117.564ZM423.016 123.505C423.016 120.09 425.471 117.237 429.166 117.237C432.814 117.237 435.293 120.09 435.293 123.505C435.293 126.942 432.814 129.749 429.166 129.749C425.471 129.749 423.016 126.942 423.016 123.505ZM433.002 123.505C433.002 121.002 431.481 119.272 429.166 119.272C428.02 119.272 427.085 119.669 426.36 120.464C425.658 121.236 425.308 122.265 425.308 123.505C425.308 124.744 425.658 125.75 426.36 126.545C427.085 127.316 428.02 127.714 429.166 127.714C430.312 127.714 431.248 127.316 431.949 126.545C432.651 125.75 433.002 124.744 433.002 123.505ZM445.325 117.541V119.529C444.997 119.459 444.623 119.435 444.226 119.435C441.957 119.435 440.694 120.722 440.694 123.411V129.421H438.496V117.564H440.694V119.693C441.256 118.219 442.565 117.377 444.272 117.377C444.67 117.377 445.021 117.424 445.325 117.541ZM456.134 129.421L452.018 124.159H450.218V129.421H448.02V112.303H450.218V122.218H452.089L456.041 117.564H458.613L453.819 123.2L458.707 129.421H456.134ZM266.236 141.564H268.458L264.623 153.421H262.19L259.15 144.137L256.11 153.421H253.701L249.866 141.564H252.088L254.964 150.802L258.004 141.564H260.32L263.336 150.779L266.236 141.564ZM270.607 137.753C270.607 136.911 271.215 136.279 272.081 136.279C272.946 136.279 273.554 136.911 273.554 137.753C273.554 138.594 272.946 139.226 272.081 139.226C271.215 139.226 270.607 138.594 270.607 137.753ZM270.982 153.421V141.564H273.18V153.421H270.982ZM278.128 150.264V143.459H275.789V141.564H278.128V138.057H280.326V141.564H283.951V143.459H280.326V150.054C280.326 151.199 280.864 151.667 282.174 151.667C282.711 151.667 283.319 151.597 283.998 151.457V153.304C283.319 153.515 282.594 153.608 281.823 153.608C279.367 153.608 278.128 152.486 278.128 150.264ZM297.33 145.797V153.421H295.131V146.335C295.131 144.207 294.313 143.272 292.535 143.272C290.501 143.272 289.074 144.488 289.074 146.429V153.421H286.876V136.303H289.074V143.506C289.753 142.079 291.249 141.237 293.12 141.237C295.763 141.237 297.33 142.897 297.33 145.797ZM306.608 153.421V136.303H308.806V153.421H306.608ZM312.469 137.753C312.469 136.911 313.077 136.279 313.942 136.279C314.808 136.279 315.416 136.911 315.416 137.753C315.416 138.594 314.808 139.226 313.942 139.226C313.077 139.226 312.469 138.594 312.469 137.753ZM312.843 153.421V141.564H315.041V153.421H312.843ZM327.192 153.421L323.076 148.159H321.276V153.421H319.077V136.303H321.276V146.218H323.147L327.099 141.564H329.671L324.877 147.2L329.765 153.421H327.192ZM342.372 148.159H333.065C333.322 150.428 334.795 151.761 337.017 151.761C338.49 151.761 339.73 151.176 340.688 150.007L342.115 151.27C340.969 152.86 339.145 153.749 336.97 153.749C333.322 153.749 330.82 151.199 330.82 147.528C330.82 143.903 333.299 141.237 336.783 141.237C340.08 141.237 342.442 143.622 342.442 147.107C342.442 147.458 342.419 147.809 342.372 148.159ZM333.111 146.476H340.221C340.034 144.418 338.724 143.248 336.783 143.248C334.795 143.248 333.462 144.441 333.111 146.476ZM344.843 147.621V145.634H351.648V147.621H344.843ZM372.754 145.774V153.421H370.556V146.288C370.556 144.207 369.855 143.272 368.171 143.272C366.23 143.272 364.92 144.488 364.92 146.429V153.421H362.722V146.288C362.722 144.207 361.997 143.272 360.313 143.272C358.372 143.272 357.062 144.488 357.062 146.429V153.421H354.864V141.564H357.062V143.506C357.717 142.079 359.144 141.237 360.921 141.237C362.722 141.237 364.008 142.102 364.569 143.669C365.224 142.173 366.768 141.237 368.732 141.237C371.328 141.237 372.754 142.874 372.754 145.774ZM376.346 137.753C376.346 136.911 376.954 136.279 377.82 136.279C378.685 136.279 379.293 136.911 379.293 137.753C379.293 138.594 378.685 139.226 377.82 139.226C376.954 139.226 376.346 138.594 376.346 137.753ZM376.72 153.421V141.564H378.919V153.421H376.72ZM393.408 145.797V153.421H391.21V146.335C391.21 144.207 390.391 143.272 388.614 143.272C386.579 143.272 385.153 144.488 385.153 146.429V153.421H382.955V141.564H385.153V143.506C385.831 142.079 387.328 141.237 389.199 141.237C391.841 141.237 393.408 142.897 393.408 145.797ZM406.416 136.303H408.614V153.421H406.416V151.316C405.738 152.813 404.054 153.749 402.113 153.749C398.909 153.749 396.524 151.153 396.524 147.505C396.524 143.833 398.909 141.237 402.113 141.237C404.054 141.237 405.738 142.173 406.416 143.669V136.303ZM406.51 147.505C406.51 145.002 404.99 143.272 402.674 143.272C401.529 143.272 400.593 143.669 399.868 144.464C399.167 145.236 398.816 146.265 398.816 147.505C398.816 148.744 399.167 149.75 399.868 150.545C400.593 151.316 401.529 151.714 402.674 151.714C403.82 151.714 404.756 151.316 405.457 150.545C406.159 149.75 406.51 148.744 406.51 147.505ZM423.378 148.159H414.07C414.328 150.428 415.801 151.761 418.023 151.761C419.496 151.761 420.735 151.176 421.694 150.007L423.121 151.27C421.975 152.86 420.151 153.749 417.976 153.749C414.328 153.749 411.825 151.199 411.825 147.528C411.825 143.903 414.304 141.237 417.789 141.237C421.086 141.237 423.448 143.622 423.448 147.107C423.448 147.458 423.425 147.809 423.378 148.159ZM414.117 146.476H421.226C421.039 144.418 419.73 143.248 417.789 143.248C415.801 143.248 414.468 144.441 414.117 146.476ZM435.694 136.303H437.892V153.421H435.694V151.316C435.016 152.813 433.332 153.749 431.391 153.749C428.187 153.749 425.802 151.153 425.802 147.505C425.802 143.833 428.187 141.237 431.391 141.237C433.332 141.237 435.016 142.173 435.694 143.669V136.303ZM435.788 147.505C435.788 145.002 434.268 143.272 431.952 143.272C430.807 143.272 429.871 143.669 429.146 144.464C428.445 145.236 428.094 146.265 428.094 147.505C428.094 148.744 428.445 149.75 429.146 150.545C429.871 151.316 430.807 151.714 431.952 151.714C433.098 151.714 434.034 151.316 434.735 150.545C435.437 149.75 435.788 148.744 435.788 147.505ZM263.453 170.505C263.453 174.153 261.115 176.749 257.887 176.749C255.923 176.749 254.263 175.813 253.584 174.316V181.098H251.386V164.564H253.584V166.669C254.263 165.173 255.923 164.237 257.887 164.237C261.115 164.237 263.453 166.833 263.453 170.505ZM261.185 170.505C261.185 169.265 260.834 168.236 260.109 167.464C259.408 166.669 258.472 166.272 257.326 166.272C255.011 166.272 253.491 168.002 253.491 170.505C253.491 171.744 253.842 172.75 254.543 173.545C255.245 174.316 256.18 174.714 257.326 174.714C258.472 174.714 259.408 174.316 260.109 173.545C260.834 172.75 261.185 171.744 261.185 170.505ZM277.422 171.159H268.114C268.371 173.428 269.845 174.761 272.066 174.761C273.54 174.761 274.779 174.176 275.738 173.007L277.164 174.27C276.018 175.86 274.194 176.749 272.019 176.749C268.371 176.749 265.869 174.199 265.869 170.528C265.869 166.903 268.348 164.237 271.832 164.237C275.13 164.237 277.492 166.622 277.492 170.107C277.492 170.458 277.468 170.809 277.422 171.159ZM268.161 169.476H275.27C275.083 167.418 273.773 166.248 271.832 166.248C269.845 166.248 268.512 167.441 268.161 169.476ZM279.846 170.505C279.846 167.09 282.301 164.237 285.996 164.237C289.644 164.237 292.123 167.09 292.123 170.505C292.123 173.942 289.644 176.749 285.996 176.749C282.301 176.749 279.846 173.942 279.846 170.505ZM289.831 170.505C289.831 168.002 288.311 166.272 285.996 166.272C284.85 166.272 283.915 166.669 283.19 167.464C282.488 168.236 282.138 169.265 282.138 170.505C282.138 171.744 282.488 172.75 283.19 173.545C283.915 174.316 284.85 174.714 285.996 174.714C287.142 174.714 288.078 174.316 288.779 173.545C289.481 172.75 289.831 171.744 289.831 170.505ZM307.393 170.505C307.393 174.153 305.055 176.749 301.827 176.749C299.863 176.749 298.203 175.813 297.524 174.316V181.098H295.326V164.564H297.524V166.669C298.203 165.173 299.863 164.237 301.827 164.237C305.055 164.237 307.393 166.833 307.393 170.505ZM305.125 170.505C305.125 169.265 304.774 168.236 304.049 167.464C303.347 166.669 302.412 166.272 301.266 166.272C298.951 166.272 297.431 168.002 297.431 170.505C297.431 171.744 297.782 172.75 298.483 173.545C299.185 174.316 300.12 174.714 301.266 174.714C302.412 174.714 303.347 174.316 304.049 173.545C304.774 172.75 305.125 171.744 305.125 170.505ZM310.627 176.421V159.303H312.826V176.421H310.627ZM327.573 171.159H318.266C318.523 173.428 319.996 174.761 322.218 174.761C323.691 174.761 324.931 174.176 325.89 173.007L327.316 174.27C326.17 175.86 324.346 176.749 322.171 176.749C318.523 176.749 316.021 174.199 316.021 170.528C316.021 166.903 318.5 164.237 321.984 164.237C325.282 164.237 327.644 166.622 327.644 170.107C327.644 170.458 327.62 170.809 327.573 171.159ZM318.313 169.476H325.422C325.235 167.418 323.925 166.248 321.984 166.248C319.996 166.248 318.663 167.441 318.313 169.476ZM336.8 176.421V166.459H334.391V164.564H336.8V162.834C336.8 160.285 337.992 159.092 340.588 159.092C341.22 159.092 341.828 159.162 342.436 159.303V161.15C341.828 161.057 341.313 161.01 340.916 161.01C339.583 161.01 338.998 161.594 338.998 162.927V164.564H342.389V166.459H338.998V176.421H336.8ZM351.667 164.541V166.529C351.34 166.459 350.965 166.435 350.568 166.435C348.3 166.435 347.037 167.722 347.037 170.411V176.421H344.838V164.564H347.037V166.693C347.598 165.219 348.908 164.377 350.615 164.377C351.012 164.377 351.363 164.424 351.667 164.541ZM352.972 170.505C352.972 167.09 355.428 164.237 359.123 164.237C362.771 164.237 365.25 167.09 365.25 170.505C365.25 173.942 362.771 176.749 359.123 176.749C355.428 176.749 352.972 173.942 352.972 170.505ZM362.958 170.505C362.958 168.002 361.438 166.272 359.123 166.272C357.977 166.272 357.041 166.669 356.316 167.464C355.615 168.236 355.264 169.265 355.264 170.505C355.264 171.744 355.615 172.75 356.316 173.545C357.041 174.316 357.977 174.714 359.123 174.714C360.269 174.714 361.204 174.316 361.906 173.545C362.607 172.75 362.958 171.744 362.958 170.505ZM386.343 168.774V176.421H384.145V169.288C384.145 167.207 383.443 166.272 381.759 166.272C379.818 166.272 378.509 167.488 378.509 169.429V176.421H376.31V169.288C376.31 167.207 375.585 166.272 373.902 166.272C371.961 166.272 370.651 167.488 370.651 169.429V176.421H368.453V164.564H370.651V166.506C371.306 165.079 372.732 164.237 374.51 164.237C376.31 164.237 377.597 165.102 378.158 166.669C378.813 165.173 380.356 164.237 382.32 164.237C384.916 164.237 386.343 165.874 386.343 168.774ZM396.199 173.264V166.459H393.861V164.564H396.199V161.057H398.397V164.564H402.022V166.459H398.397V173.054C398.397 174.199 398.935 174.667 400.245 174.667C400.783 174.667 401.391 174.597 402.069 174.457V176.304C401.391 176.515 400.666 176.608 399.894 176.608C397.439 176.608 396.199 175.486 396.199 173.264ZM415.401 168.797V176.421H413.203V169.335C413.203 167.207 412.384 166.272 410.607 166.272C408.572 166.272 407.146 167.488 407.146 169.429V176.421H404.947V159.303H407.146V166.506C407.824 165.079 409.321 164.237 411.191 164.237C413.834 164.237 415.401 165.897 415.401 168.797ZM430.069 171.159H420.762C421.019 173.428 422.492 174.761 424.714 174.761C426.187 174.761 427.427 174.176 428.386 173.007L429.812 174.27C428.666 175.86 426.842 176.749 424.667 176.749C421.019 176.749 418.517 174.199 418.517 170.528C418.517 166.903 420.996 164.237 424.48 164.237C427.778 164.237 430.14 166.622 430.14 170.107C430.14 170.458 430.116 170.809 430.069 171.159ZM420.809 169.476H427.918C427.731 167.418 426.421 166.248 424.48 166.248C422.492 166.248 421.159 167.441 420.809 169.476ZM439.225 173.264V166.459H436.887V164.564H439.225V161.057H441.424V164.564H445.049V166.459H441.424V173.054C441.424 174.199 441.962 174.667 443.271 174.667C443.809 174.667 444.417 174.597 445.095 174.457V176.304C444.417 176.515 443.692 176.608 442.92 176.608C440.465 176.608 439.225 175.486 439.225 173.264ZM458.48 171.159H449.172C449.429 173.428 450.903 174.761 453.124 174.761C454.598 174.761 455.837 174.176 456.796 173.007L458.222 174.27C457.076 175.86 455.252 176.749 453.077 176.749C449.429 176.749 446.927 174.199 446.927 170.528C446.927 166.903 449.406 164.237 452.89 164.237C456.188 164.237 458.55 166.622 458.55 170.107C458.55 170.458 458.526 170.809 458.48 171.159ZM449.219 169.476H456.328C456.141 167.418 454.831 166.248 452.89 166.248C450.903 166.248 449.57 167.441 449.219 169.476ZM460.904 170.505C460.904 166.88 463.406 164.237 467.031 164.237C469.206 164.237 471.03 165.196 472.035 166.856L470.328 168.026C469.603 166.903 468.457 166.272 467.054 166.272C464.739 166.272 463.195 167.979 463.195 170.505C463.195 173.03 464.739 174.714 467.054 174.714C468.457 174.714 469.603 174.106 470.328 172.96L472.035 174.153C471.03 175.813 469.206 176.749 467.031 176.749C463.406 176.749 460.904 174.106 460.904 170.505ZM485.262 168.797V176.421H483.063V169.335C483.063 167.207 482.245 166.272 480.468 166.272C478.433 166.272 477.006 167.488 477.006 169.429V176.421H474.808V159.303H477.006V166.506C477.685 165.079 479.181 164.237 481.052 164.237C483.695 164.237 485.262 165.897 485.262 168.797ZM250.568 193.505C250.568 189.88 253.07 187.237 256.695 187.237C258.87 187.237 260.694 188.196 261.699 189.856L259.992 191.026C259.267 189.903 258.121 189.272 256.718 189.272C254.403 189.272 252.859 190.979 252.859 193.505C252.859 196.03 254.403 197.714 256.718 197.714C258.121 197.714 259.267 197.106 259.992 195.96L261.699 197.153C260.694 198.813 258.87 199.749 256.695 199.749C253.07 199.749 250.568 197.106 250.568 193.505ZM263.608 193.505C263.608 190.09 266.064 187.237 269.759 187.237C273.407 187.237 275.886 190.09 275.886 193.505C275.886 196.942 273.407 199.749 269.759 199.749C266.064 199.749 263.608 196.942 263.608 193.505ZM273.594 193.505C273.594 191.002 272.074 189.272 269.759 189.272C268.613 189.272 267.677 189.669 266.952 190.464C266.251 191.236 265.9 192.265 265.9 193.505C265.9 194.744 266.251 195.75 266.952 196.545C267.677 197.316 268.613 197.714 269.759 197.714C270.904 197.714 271.84 197.316 272.541 196.545C273.243 195.75 273.594 194.744 273.594 193.505ZM296.979 191.774V199.421H294.78V192.288C294.78 190.207 294.079 189.272 292.395 189.272C290.454 189.272 289.144 190.488 289.144 192.429V199.421H286.946V192.288C286.946 190.207 286.221 189.272 284.537 189.272C282.596 189.272 281.287 190.488 281.287 192.429V199.421H279.088V187.564H281.287V189.506C281.941 188.079 283.368 187.237 285.145 187.237C286.946 187.237 288.232 188.102 288.794 189.669C289.448 188.173 290.992 187.237 292.956 187.237C295.552 187.237 296.979 188.874 296.979 191.774ZM318.812 191.774V199.421H316.613V192.288C316.613 190.207 315.912 189.272 314.228 189.272C312.287 189.272 310.977 190.488 310.977 192.429V199.421H308.779V192.288C308.779 190.207 308.054 189.272 306.37 189.272C304.429 189.272 303.12 190.488 303.12 192.429V199.421H300.921V187.564H303.12V189.506C303.774 188.079 305.201 187.237 306.978 187.237C308.779 187.237 310.065 188.102 310.626 189.669C311.281 188.173 312.825 187.237 314.789 187.237C317.385 187.237 318.812 188.874 318.812 191.774ZM322.52 194.978V187.564H324.719V194.814C324.719 196.708 325.794 197.714 327.689 197.714C329.583 197.714 330.659 196.708 330.659 194.814V187.564H332.857V194.978C332.857 196.428 332.389 197.597 331.454 198.462C330.518 199.328 329.256 199.749 327.689 199.749C324.602 199.749 322.52 197.831 322.52 194.978ZM347.116 191.797V199.421H344.918V192.335C344.918 190.207 344.099 189.272 342.322 189.272C340.287 189.272 338.861 190.488 338.861 192.429V199.421H336.662V187.564H338.861V189.506C339.539 188.079 341.036 187.237 342.907 187.237C345.549 187.237 347.116 188.897 347.116 191.797ZM350.699 183.753C350.699 182.911 351.308 182.279 352.173 182.279C353.038 182.279 353.646 182.911 353.646 183.753C353.646 184.594 353.038 185.226 352.173 185.226C351.308 185.226 350.699 184.594 350.699 183.753ZM351.074 199.421V187.564H353.272V199.421H351.074ZM358.22 196.264V189.459H355.881V187.564H358.22V184.057H360.418V187.564H364.043V189.459H360.418V196.054C360.418 197.199 360.956 197.667 362.266 197.667C362.804 197.667 363.412 197.597 364.09 197.457V199.304C363.412 199.515 362.687 199.608 361.915 199.608C359.459 199.608 358.22 198.486 358.22 196.264ZM374.943 187.564H377.141V198.252C377.141 202.251 375.013 204.426 371.271 204.426C369.237 204.426 367.436 203.794 366.313 202.672L367.506 201.105C368.465 201.947 369.798 202.415 371.178 202.415C373.61 202.415 374.943 201.035 374.943 198.252V197.129C374.265 198.556 372.745 199.398 370.85 199.398C368.231 199.398 366.688 197.761 366.688 194.838V187.564H368.886V194.3C368.886 196.451 369.704 197.363 371.458 197.363C373.516 197.363 374.943 196.1 374.943 194.206V187.564ZM380.612 198.065C380.612 197.153 381.22 196.568 382.156 196.568C383.091 196.568 383.676 197.153 383.676 198.065C383.676 199 383.091 199.632 382.156 199.632C381.22 199.632 380.612 199 380.612 198.065Z" fill="#303030"/>
<path d="M144.709 124.001H136.78L137.532 119.038C134.749 118.394 132.281 116.931 130.394 114.915L126.471 118.05L122.506 111.182L127.177 109.354C126.781 108.048 126.566 106.664 126.566 105.229C126.566 103.795 126.781 102.412 127.177 101.107L122.506 99.2781L126.471 92.4111L130.395 95.5459C132.282 93.5309 134.749 92.0686 137.532 91.4238L136.78 86.4593H144.709L143.957 91.4238C146.739 92.0686 149.207 93.5309 151.093 95.5466L155.019 92.4111L158.983 99.2781L154.31 101.108C154.706 102.412 154.921 103.796 154.921 105.229C154.921 106.664 154.706 108.048 154.31 109.353L158.983 111.182L155.019 118.05L151.094 114.914C149.207 116.931 146.74 118.393 143.957 119.038L144.709 124.001ZM140.745 95.9383C135.613 95.9383 131.454 100.1 131.454 105.229C131.454 110.362 135.613 114.52 140.745 114.52C145.878 114.52 150.036 110.362 150.036 105.229C150.036 100.1 145.878 95.9383 140.745 95.9383Z" fill="#E3DEF2"/>
<path d="M75.6268 177.048C73.6879 177.048 72.1173 175.477 72.1173 173.538C72.1173 171.601 73.6879 170.029 75.6268 170.029C77.5657 170.029 79.1367 171.601 79.1367 173.538C79.1367 175.477 77.5657 177.048 75.6268 177.048ZM80.9819 173.538C80.9819 172.997 80.9009 172.474 80.7512 171.982L82.5169 171.29L81.0188 168.696L79.5361 169.881C78.8234 169.119 77.8914 168.567 76.8403 168.323L77.1245 166.448H74.1288L74.4133 168.323C73.3619 168.567 72.4295 169.119 71.7168 169.88L70.2345 168.696L68.7368 171.29L70.5014 171.981C70.3516 172.474 70.2706 172.997 70.2706 173.538C70.2706 174.08 70.3516 174.603 70.5014 175.096L68.7368 175.787L70.2345 178.382L71.7168 177.198C72.4295 177.959 73.3619 178.512 74.413 178.755L74.1288 180.63H77.1245L76.8403 178.755C77.8914 178.512 78.8238 177.959 79.5365 177.197L81.0188 178.382L82.5169 175.787L80.7512 175.096C80.9009 174.603 80.9819 174.08 80.9819 173.538Z" fill="#4D7DC8"/>
<path d="M140.021 217.148H90.0463C87.4595 217.148 85.3628 215.051 85.3628 212.464V115.432C85.3628 112.845 87.4595 110.749 90.0463 110.749H140.021C142.608 110.749 144.704 112.845 144.704 115.432V212.464C144.704 215.051 142.608 217.148 140.021 217.148Z" fill="white"/>
<path d="M146.879 135.917H144.753V125.064H146.879C147.25 125.064 147.551 125.365 147.551 125.735V135.246C147.551 135.617 147.25 135.917 146.879 135.917Z" fill="#141927"/>
<path d="M83.1883 135.917H85.3143V125.064H83.1883C82.8174 125.064 82.5171 125.365 82.5171 125.735V135.246C82.5171 135.617 82.8174 135.917 83.1883 135.917Z" fill="#141927"/>
<path d="M146.879 148.505H144.753V137.652H146.879C147.25 137.652 147.551 137.952 147.551 138.323V147.834C147.551 148.205 147.25 148.505 146.879 148.505Z" fill="#141927"/>
<path d="M86.8102 212.231V115.51C86.8102 113.742 88.243 112.31 90.0106 112.31H140.057C141.824 112.31 143.257 113.742 143.257 115.51V212.23C143.257 213.998 141.824 215.431 140.057 215.431H90.0106C88.243 215.431 86.8102 213.998 86.8102 212.231ZM139.099 104.252H90.9676C87.0729 104.252 83.9155 107.41 83.9155 111.304V219.825C83.9155 223.721 87.0733 226.879 90.9688 226.879H139.099C142.995 226.879 146.152 223.721 146.152 219.826V111.305C146.152 107.41 142.995 104.252 139.099 104.252Z" fill="#8D89CC"/>
<path d="M124.687 109.007H107.229C106.858 109.007 106.558 108.706 106.558 108.336C106.558 107.965 106.858 107.665 107.229 107.665H124.687C125.057 107.665 125.358 107.965 125.358 108.336C125.358 108.706 125.057 109.007 124.687 109.007Z" fill="#141927"/>
<path d="M120.868 222.671H109.2C107.977 222.671 106.986 221.68 106.986 220.457C106.986 219.234 107.977 218.243 109.2 218.243H120.868C122.091 218.243 123.082 219.234 123.082 220.457C123.082 221.68 122.091 222.671 120.868 222.671Z" fill="#141927"/>
<path d="M162.848 117.352H126.659C125.315 117.352 124.226 118.442 124.226 119.786V128.235C124.226 129.579 125.315 130.668 126.659 130.668H128.197V133.554C128.197 133.908 128.625 134.085 128.875 133.835L132.042 130.668H162.848C164.192 130.668 165.282 129.579 165.282 128.235V119.786C165.282 118.442 164.192 117.352 162.848 117.352Z" fill="#4D7DC8"/>
<path d="M162.169 122.086H137.367C137.013 122.086 136.726 121.799 136.726 121.445C136.726 121.091 137.013 120.804 137.367 120.804H162.169C162.524 120.804 162.811 121.091 162.811 121.445C162.811 121.799 162.524 122.086 162.169 122.086Z" fill="white"/>
<path d="M152.817 124.766H137.367C137.013 124.766 136.726 124.479 136.726 124.125C136.726 123.771 137.013 123.483 137.367 123.483H152.817C153.171 123.483 153.458 123.771 153.458 124.125C153.458 124.479 153.171 124.766 152.817 124.766Z" fill="white"/>
<path d="M162.169 124.766H155.553C155.199 124.766 154.912 124.479 154.912 124.125C154.912 123.771 155.199 123.483 155.553 123.483H162.169C162.524 123.483 162.811 123.771 162.811 124.125C162.811 124.479 162.524 124.766 162.169 124.766Z" fill="white"/>
<path d="M149.127 127.446H137.368C137.013 127.446 136.726 127.159 136.726 126.804C136.726 126.45 137.013 126.163 137.368 126.163H149.127C149.481 126.163 149.768 126.45 149.768 126.804C149.768 127.159 149.481 127.446 149.127 127.446Z" fill="white"/>
<path d="M130.132 123.693C128.382 123.693 126.963 125.112 126.963 126.862V127.181C126.963 127.327 127.082 127.446 127.228 127.446H133.035C133.181 127.446 133.3 127.327 133.3 127.181V126.862C133.3 125.112 131.882 123.693 130.132 123.693Z" fill="#141927"/>
<path d="M131.481 121.619C131.481 122.364 130.877 123.31 130.132 123.31C129.386 123.31 128.782 122.364 128.782 121.619C128.782 120.874 129.386 120.27 130.132 120.27C130.877 120.27 131.481 120.874 131.481 121.619Z" fill="#141927"/>
<path d="M58.4297 145.195C58.4297 147.105 58.4297 150.132 58.4297 152.041C58.4297 153.018 59.2181 153.806 60.195 153.806C65.5739 153.806 81.7153 153.806 87.0942 153.806C88.0711 153.806 88.8595 153.018 88.8595 152.041C88.8595 150.132 88.8595 147.105 88.8595 145.195C88.8595 144.218 88.0673 143.43 87.0904 143.43H60.1988C59.2215 143.43 58.4297 144.218 58.4297 145.195Z" fill="white"/>
<path d="M58.4299 145.195H58.2859C58.2855 147.105 58.2855 150.132 58.2859 152.041C58.2855 152.569 58.4991 153.047 58.8443 153.392C59.1895 153.737 59.6676 153.95 60.1953 153.95C65.5738 153.95 81.7155 153.95 87.0945 153.95C87.6221 153.95 88.1002 153.737 88.4454 153.392C88.7906 153.047 89.0042 152.569 89.0038 152.041C89.0038 150.132 89.0038 147.105 89.0038 145.195C89.0038 144.138 88.1467 143.288 87.0906 143.286H60.1991C59.1427 143.288 58.2859 144.138 58.2859 145.195H58.4299H58.5736C58.5755 144.298 59.3009 143.574 60.1991 143.574H87.0906C87.9884 143.574 88.7142 144.298 88.7158 145.195C88.7158 147.105 88.7158 150.132 88.7158 152.041C88.7158 152.939 87.9923 153.662 87.0945 153.662C81.7155 153.662 65.5738 153.662 60.1953 153.662C59.2974 153.662 58.5739 152.939 58.5739 152.041C58.5736 150.132 58.5736 147.105 58.5736 145.195H58.4299Z" fill="#100F0D"/>
<path d="M84.7097 146.93H70.3264C70.0326 146.93 69.7949 146.692 69.7949 146.398C69.7949 146.105 70.0326 145.867 70.3264 145.867H84.7097C85.0031 145.867 85.2408 146.105 85.2408 146.398C85.2408 146.692 85.0031 146.93 84.7097 146.93Z" fill="#141927"/>
<path d="M76.9634 149.149H70.3264C70.0326 149.149 69.7949 148.911 69.7949 148.618C69.7949 148.325 70.0326 148.087 70.3264 148.087H76.9634C77.2567 148.087 77.4948 148.325 77.4948 148.618C77.4948 148.911 77.2567 149.149 76.9634 149.149Z" fill="#141927"/>
<path d="M84.7097 149.149H79.2302C78.9368 149.149 78.6987 148.911 78.6987 148.618C78.6987 148.325 78.9368 148.087 79.2302 148.087H84.7097C85.0031 148.087 85.2408 148.325 85.2408 148.618C85.2408 148.911 85.0031 149.149 84.7097 149.149Z" fill="#141927"/>
<path d="M73.9073 151.369H70.3264C70.0326 151.369 69.7949 151.131 69.7949 150.838C69.7949 150.544 70.0326 150.306 70.3264 150.306H73.9073C74.2007 150.306 74.4384 150.544 74.4384 150.838C74.4384 151.131 74.2007 151.369 73.9073 151.369Z" fill="#141927"/>
<path d="M64.3334 148.261C62.8841 148.261 61.709 149.436 61.709 150.885V151.149C61.709 151.27 61.8073 151.369 61.9286 151.369H66.7381C66.859 151.369 66.9577 151.27 66.9577 151.149V150.885C66.9577 149.436 65.7826 148.261 64.3334 148.261Z" fill="#141927"/>
<path d="M65.4508 146.687C65.4508 147.304 64.9504 148.088 64.3333 148.088C63.7162 148.088 63.2158 147.304 63.2158 146.687C63.2158 146.07 63.7162 145.57 64.3333 145.57C64.9504 145.57 65.4508 146.07 65.4508 146.687Z" fill="#141927"/>
<path d="M123.748 176.887C123.748 181.36 120.122 184.986 115.649 184.986C111.175 184.986 107.549 181.36 107.549 176.887C107.549 172.413 111.175 168.787 115.649 168.787C120.122 168.787 123.748 172.413 123.748 176.887Z" fill="#4D7DC8"/>
<path d="M115.648 157.556C110.773 157.556 106.311 159.372 102.909 162.362C101.535 163.569 101.46 165.682 102.753 166.975C103.94 168.162 105.833 168.194 107.097 167.089C109.385 165.088 112.378 163.876 115.648 163.876C118.919 163.876 121.912 165.088 124.2 167.089C125.464 168.194 127.357 168.162 128.544 166.975C129.837 165.682 129.762 163.569 128.388 162.362C124.986 159.372 120.524 157.556 115.648 157.556Z" fill="#4D7DC8"/>
<path d="M115.648 146.686C107.736 146.686 100.526 149.743 95.1363 154.738C93.8257 155.953 93.7953 158.018 95.0587 159.281L95.0614 159.283C96.2584 160.48 98.1896 160.525 99.4308 159.374C103.691 155.424 109.393 153.006 115.648 153.006C121.904 153.006 127.606 155.424 131.866 159.374C133.107 160.525 135.038 160.48 136.235 159.283L136.238 159.281C137.501 158.018 137.471 155.953 136.16 154.738C130.77 149.743 123.56 146.686 115.648 146.686Z" fill="#4D7DC8"/>
<path d="M115.744 142.656V141.888C115.744 141.835 115.701 141.792 115.648 141.792C115.595 141.792 115.552 141.835 115.552 141.888V142.656C115.552 142.709 115.595 142.752 115.648 142.752C115.701 142.752 115.744 142.709 115.744 142.656Z" fill="#141927"/>
<path d="M115.744 140.365V138.841C115.744 138.788 115.701 138.745 115.648 138.745C115.595 138.745 115.552 138.788 115.552 138.841V140.365C115.552 140.418 115.595 140.461 115.648 140.461C115.701 140.461 115.744 140.418 115.744 140.365ZM115.744 137.318V135.794C115.744 135.741 115.701 135.698 115.648 135.698C115.595 135.698 115.552 135.741 115.552 135.794V137.318C115.552 137.371 115.595 137.414 115.648 137.414C115.701 137.414 115.744 137.371 115.744 137.318ZM115.744 134.27V132.747C115.744 132.694 115.701 132.651 115.648 132.651C115.595 132.651 115.552 132.694 115.552 132.747V134.27C115.552 134.323 115.595 134.366 115.648 134.366C115.701 134.366 115.744 134.323 115.744 134.27ZM115.744 131.224V130.115C115.744 129.972 115.736 129.83 115.722 129.691C115.716 129.638 115.669 129.6 115.616 129.605C115.564 129.611 115.525 129.658 115.531 129.711C115.545 129.844 115.552 129.979 115.552 130.115V131.224C115.552 131.277 115.595 131.32 115.648 131.32C115.701 131.32 115.744 131.277 115.744 131.224ZM115.258 128.211C115.007 127.752 114.668 127.348 114.263 127.022C114.222 126.988 114.161 126.995 114.128 127.036C114.094 127.077 114.101 127.138 114.142 127.171C114.528 127.481 114.851 127.866 115.09 128.303C115.116 128.349 115.174 128.366 115.22 128.341C115.267 128.315 115.284 128.257 115.258 128.211ZM112.888 126.303C112.535 126.2 112.161 126.145 111.774 126.145H111.353C111.3 126.145 111.257 126.188 111.257 126.241C111.257 126.294 111.3 126.337 111.353 126.337H111.774C112.142 126.337 112.498 126.389 112.834 126.487C112.885 126.502 112.939 126.473 112.953 126.422C112.968 126.371 112.939 126.318 112.888 126.303ZM109.829 126.145H108.306C108.253 126.145 108.21 126.188 108.21 126.241C108.21 126.294 108.253 126.337 108.306 126.337H109.829C109.882 126.337 109.925 126.294 109.925 126.241C109.925 126.188 109.882 126.145 109.829 126.145ZM106.782 126.145H105.259C105.206 126.145 105.163 126.188 105.163 126.241C105.163 126.294 105.206 126.337 105.259 126.337H106.782C106.835 126.337 106.878 126.294 106.878 126.241C106.878 126.188 106.835 126.145 106.782 126.145ZM103.735 126.145H102.211C102.158 126.145 102.115 126.188 102.115 126.241C102.115 126.294 102.158 126.337 102.211 126.337H103.735C103.788 126.337 103.831 126.294 103.831 126.241C103.831 126.188 103.788 126.145 103.735 126.145ZM100.688 126.145H99.1646C99.1116 126.145 99.0686 126.188 99.0686 126.241C99.0686 126.294 99.1116 126.337 99.1646 126.337H100.688C100.741 126.337 100.784 126.294 100.784 126.241C100.784 126.188 100.741 126.145 100.688 126.145ZM97.6497 126.134C97.1435 126.089 96.6766 125.91 96.2841 125.631C96.2407 125.6 96.1808 125.611 96.1505 125.654C96.1198 125.697 96.1297 125.757 96.1731 125.788C96.5925 126.085 97.0921 126.277 97.6332 126.325C97.6858 126.33 97.7322 126.29 97.7372 126.238C97.7418 126.185 97.7027 126.138 97.6497 126.134ZM95.3559 124.51C95.195 124.157 95.1052 123.765 95.1052 123.351V123.064C95.1052 123.011 95.0622 122.968 95.0092 122.968C94.9562 122.968 94.9132 123.011 94.9132 123.064V123.351C94.9132 123.793 95.0092 124.212 95.1812 124.589C95.2031 124.638 95.2603 124.659 95.3083 124.637C95.3567 124.615 95.3778 124.558 95.3559 124.51ZM95.1052 121.54V120.016C95.1052 119.963 95.0622 119.92 95.0092 119.92C94.9562 119.92 94.9132 119.963 94.9132 120.016V121.54C94.9132 121.593 94.9562 121.636 95.0092 121.636C95.0622 121.636 95.1052 121.593 95.1052 121.54ZM95.1052 118.493V118.354C95.1052 117.857 94.9815 117.389 94.7638 116.979C94.7388 116.932 94.6805 116.914 94.634 116.939C94.5871 116.964 94.5691 117.022 94.5941 117.069C94.798 117.452 94.9132 117.889 94.9132 118.354V118.493C94.9132 118.546 94.9562 118.589 95.0092 118.589C95.0622 118.589 95.1052 118.546 95.1052 118.493ZM93.6962 115.847C93.2596 115.581 92.7473 115.426 92.2001 115.42C92.1471 115.42 92.1037 115.462 92.1033 115.515C92.1026 115.568 92.1452 115.612 92.1982 115.612C92.7105 115.617 93.1882 115.762 93.5964 116.011C93.6417 116.039 93.7005 116.024 93.7281 115.979C93.7558 115.934 93.7415 115.875 93.6962 115.847ZM90.6756 115.42H89.1522C89.0992 115.42 89.0562 115.463 89.0562 115.516C89.0562 115.569 89.0992 115.612 89.1522 115.612H90.6756C90.7289 115.612 90.7716 115.569 90.7716 115.516C90.7716 115.463 90.7289 115.42 90.6756 115.42ZM87.6288 115.42H86.105C86.052 115.42 86.009 115.463 86.009 115.516C86.009 115.569 86.052 115.612 86.105 115.612H87.6288C87.6818 115.612 87.7248 115.569 87.7248 115.516C87.7248 115.463 87.6818 115.42 87.6288 115.42ZM84.5816 115.42H83.0582C83.0052 115.42 82.9622 115.463 82.9622 115.516C82.9622 115.569 83.0052 115.612 83.0582 115.612H84.5816C84.6346 115.612 84.6776 115.569 84.6776 115.516C84.6776 115.463 84.6346 115.42 84.5816 115.42ZM81.5344 115.42H80.011C79.958 115.42 79.915 115.463 79.915 115.516C79.915 115.569 79.958 115.612 80.011 115.612H81.5344C81.5874 115.612 81.6304 115.569 81.6304 115.516C81.6304 115.463 81.5874 115.42 81.5344 115.42Z" fill="#141927"/>
<path d="M78.47 115.42H77.702C77.649 115.42 77.606 115.463 77.606 115.516C77.606 115.569 77.649 115.612 77.702 115.612H78.47C78.523 115.612 78.566 115.569 78.566 115.516C78.566 115.463 78.523 115.42 78.47 115.42Z" fill="#141927"/>
<path d="M78.4057 115.516C78.4057 115.905 78.0905 116.22 77.7018 116.22C77.3128 116.22 76.9976 115.905 76.9976 115.516C76.9976 115.127 77.3128 114.812 77.7018 114.812C78.0905 114.812 78.4057 115.127 78.4057 115.516Z" fill="#141927"/>
<path d="M70.0418 123.13H26.5162C26.5162 123.13 20.1496 114.988 24.8019 111.009C26.1349 109.869 27.6755 109.467 29.1843 109.467C32.7768 109.467 36.1884 111.743 36.1884 111.743C36.1884 111.743 35.8824 99.561 45.0649 98.4589C45.5822 98.3971 46.0814 98.3671 46.5611 98.3671C57.0251 98.3671 58.7167 112.478 58.7167 112.478C58.7167 112.478 62.4636 106.752 67.4082 106.752C68.4266 106.752 69.4949 106.995 70.5928 107.58C79.3015 112.225 70.0418 123.13 70.0418 123.13Z" fill="#CDC7E8"/>
<path d="M66.9575 173.443H65.4214C65.3684 173.443 65.3254 173.486 65.3254 173.539C65.3254 173.592 65.3684 173.635 65.4214 173.635H66.9575C67.0105 173.635 67.0535 173.592 67.0535 173.539C67.0535 173.486 67.0105 173.443 66.9575 173.443ZM63.8854 173.443H62.3493C62.2963 173.443 62.2533 173.486 62.2533 173.539C62.2533 173.592 62.2963 173.635 62.3493 173.635H63.8854C63.9384 173.635 63.9814 173.592 63.9814 173.539C63.9814 173.486 63.9384 173.443 63.8854 173.443ZM60.8132 173.443H59.2772C59.2242 173.443 59.1812 173.486 59.1812 173.539C59.1812 173.592 59.2242 173.635 59.2772 173.635H60.8132C60.8662 173.635 60.9093 173.592 60.9093 173.539C60.9093 173.486 60.8662 173.443 60.8132 173.443ZM57.7411 173.443H56.2051C56.1521 173.443 56.109 173.486 56.109 173.539C56.109 173.592 56.1521 173.635 56.2051 173.635H57.7411C57.7941 173.635 57.8371 173.592 57.8371 173.539C57.8371 173.486 57.7941 173.443 57.7411 173.443ZM54.669 173.443H53.1329C53.0799 173.443 53.0369 173.486 53.0369 173.539C53.0369 173.592 53.0799 173.635 53.1329 173.635H54.669C54.722 173.635 54.765 173.592 54.765 173.539C54.765 173.486 54.722 173.443 54.669 173.443ZM51.5969 173.443H50.0608C50.0078 173.443 49.9648 173.486 49.9648 173.539C49.9648 173.592 50.0078 173.635 50.0608 173.635H51.5969C51.6498 173.635 51.6929 173.592 51.6929 173.539C51.6929 173.486 51.6498 173.443 51.5969 173.443ZM48.5247 173.443H46.9887C46.9357 173.443 46.8927 173.486 46.8927 173.539C46.8927 173.592 46.9357 173.635 46.9887 173.635H48.5247C48.5777 173.635 48.6207 173.592 48.6207 173.539C48.6207 173.486 48.5777 173.443 48.5247 173.443ZM45.4526 173.443H43.9165C43.8635 173.443 43.8205 173.486 43.8205 173.539C43.8205 173.592 43.8635 173.635 43.9165 173.635H45.4526C45.5056 173.635 45.5486 173.592 45.5486 173.539C45.5486 173.486 45.5056 173.443 45.4526 173.443ZM42.4288 173.295C41.9546 173.13 41.5402 172.837 41.2276 172.457C41.1942 172.416 41.1336 172.41 41.0925 172.444C41.0518 172.477 41.0456 172.538 41.0794 172.579C41.4143 172.985 41.8578 173.3 42.3663 173.476C42.4162 173.493 42.4707 173.467 42.4884 173.417C42.5057 173.366 42.4792 173.312 42.4288 173.295ZM40.6397 171.116C40.6232 170.994 40.6144 170.869 40.6144 170.743V169.594C40.6144 169.541 40.5714 169.498 40.5184 169.498C40.4654 169.498 40.4224 169.541 40.4224 169.594V170.743C40.4224 170.878 40.4316 171.012 40.4496 171.142C40.4569 171.195 40.5053 171.231 40.5579 171.224C40.6105 171.217 40.647 171.168 40.6397 171.116ZM40.6144 168.058V166.522C40.6144 166.469 40.5714 166.426 40.5184 166.426C40.4654 166.426 40.4224 166.469 40.4224 166.522V168.058C40.4224 168.111 40.4654 168.154 40.5184 168.154C40.5714 168.154 40.6144 168.111 40.6144 168.058ZM40.6144 164.986V163.45C40.6144 163.397 40.5714 163.354 40.5184 163.354C40.4654 163.354 40.4224 163.397 40.4224 163.45V164.986C40.4224 165.039 40.4654 165.082 40.5184 165.082C40.5714 165.082 40.6144 165.039 40.6144 164.986ZM40.6144 161.914V160.378C40.6144 160.325 40.5714 160.282 40.5184 160.282C40.4654 160.282 40.4224 160.325 40.4224 160.378V161.914C40.4224 161.967 40.4654 162.01 40.5184 162.01C40.5714 162.01 40.6144 161.967 40.6144 161.914ZM40.6144 158.842V157.306C40.6144 157.253 40.5714 157.21 40.5184 157.21C40.4654 157.21 40.4224 157.253 40.4224 157.306V158.842C40.4224 158.895 40.4654 158.938 40.5184 158.938C40.5714 158.938 40.6144 158.895 40.6144 158.842ZM40.6144 155.77V154.233C40.6144 154.181 40.5714 154.137 40.5184 154.137C40.4654 154.137 40.4224 154.181 40.4224 154.233V155.77C40.4224 155.823 40.4654 155.866 40.5184 155.866C40.5714 155.866 40.6144 155.823 40.6144 155.77Z" fill="#141927"/>
<path d="M39.8149 153.558C39.8149 153.947 40.1298 154.262 40.5188 154.262C40.9079 154.262 41.2231 153.947 41.2231 153.558C41.2231 153.169 40.9079 152.854 40.5188 152.854C40.1298 152.854 39.8149 153.169 39.8149 153.558Z" fill="#141927"/>
<path d="M31.3193 136.26C31.3193 136.26 42.3302 134.536 52.2329 132.085L50.5182 141.187H31.3193V136.26Z" fill="#100F0D"/>
<path d="M53.9006 136.449L52.0596 152.015H28.2453L25.728 133.983H34.8607L35.7075 136.449H53.9006Z" fill="#F79817"/>
<path d="M216.77 161.296H201.732C200.518 161.296 199.535 160.313 199.535 159.1V152.549C199.535 151.336 200.518 150.352 201.732 150.352H216.77C217.983 150.352 218.967 151.336 218.967 152.549V159.1C218.967 160.313 217.983 161.296 216.77 161.296Z" fill="#4D7DC8"/>
<path d="M206.681 159.662C206.534 159.662 206.386 159.606 206.274 159.493L203.012 156.231C202.904 156.124 202.843 155.977 202.843 155.824C202.843 155.672 202.904 155.525 203.012 155.417L206.274 152.155C206.499 151.93 206.863 151.93 207.088 152.155C207.313 152.38 207.313 152.745 207.088 152.97L204.234 155.824L207.088 158.679C207.313 158.903 207.313 159.268 207.088 159.493C206.976 159.606 206.829 159.662 206.681 159.662Z" fill="white"/>
<path d="M211.821 159.662C211.673 159.662 211.526 159.606 211.413 159.493C211.188 159.268 211.188 158.903 211.413 158.679L214.268 155.824L211.413 152.97C211.188 152.745 211.188 152.38 211.413 152.155C211.638 151.93 212.003 151.93 212.228 152.155L215.49 155.417C215.598 155.525 215.659 155.672 215.659 155.824C215.659 155.977 215.598 156.124 215.49 156.231L212.228 159.493C212.115 159.606 211.968 159.662 211.821 159.662Z" fill="white"/>
<path d="M115.553 197.8V199.336C115.553 199.39 115.596 199.432 115.649 199.432C115.702 199.432 115.745 199.39 115.745 199.336V197.8C115.745 197.747 115.702 197.704 115.649 197.704C115.596 197.704 115.553 197.747 115.553 197.8ZM115.553 200.872V202.408C115.553 202.462 115.596 202.504 115.649 202.504C115.702 202.504 115.745 202.462 115.745 202.408V200.872C115.745 200.819 115.702 200.776 115.649 200.776C115.596 200.776 115.553 200.819 115.553 200.872ZM115.553 203.944V204.611C115.553 204.899 115.509 205.177 115.429 205.439C115.413 205.49 115.442 205.544 115.492 205.559C115.543 205.575 115.597 205.546 115.612 205.496C115.699 205.216 115.745 204.919 115.745 204.611V203.944C115.745 203.891 115.702 203.848 115.649 203.848C115.596 203.848 115.553 203.891 115.553 203.944ZM114.644 206.68C114.285 207.011 113.838 207.25 113.343 207.357C113.291 207.369 113.258 207.42 113.269 207.472C113.281 207.524 113.332 207.556 113.384 207.545C113.913 207.43 114.39 207.175 114.775 206.821C114.814 206.785 114.816 206.725 114.78 206.686C114.744 206.647 114.684 206.644 114.644 206.68ZM111.832 207.422H110.296C110.243 207.422 110.2 207.465 110.2 207.518C110.2 207.571 110.243 207.614 110.296 207.614H111.832C111.885 207.614 111.928 207.571 111.928 207.518C111.928 207.465 111.885 207.422 111.832 207.422ZM108.76 207.422H107.224C107.171 207.422 107.128 207.465 107.128 207.518C107.128 207.571 107.171 207.614 107.224 207.614H108.76C108.813 207.614 108.856 207.571 108.856 207.518C108.856 207.465 108.813 207.422 108.76 207.422ZM105.688 207.422H104.152C104.099 207.422 104.056 207.465 104.056 207.518C104.056 207.571 104.099 207.614 104.152 207.614H105.688C105.741 207.614 105.784 207.571 105.784 207.518C105.784 207.465 105.741 207.422 105.688 207.422ZM102.615 207.422H101.079C101.026 207.422 100.983 207.465 100.983 207.518C100.983 207.571 101.026 207.614 101.079 207.614H102.615C102.668 207.614 102.711 207.571 102.711 207.518C102.711 207.465 102.668 207.422 102.615 207.422Z" fill="#141927"/>
<path d="M99.6132 207.518C99.6132 207.907 99.2979 208.222 98.9089 208.222C98.5199 208.222 98.2046 207.907 98.2046 207.518C98.2046 207.129 98.5199 206.814 98.9089 206.814C99.2979 206.814 99.6132 207.129 99.6132 207.518Z" fill="#141927"/>
<path d="M94.4531 216.702H76.2722C75.2339 216.702 74.3921 215.86 74.3921 214.822V200.336C74.3921 199.298 75.2339 198.457 76.2722 198.457H94.4531C95.4915 198.457 96.3332 199.298 96.3332 200.336V214.822C96.3332 215.86 95.4915 216.702 94.4531 216.702Z" fill="#F79817"/>
<path d="M93.8795 198.457H91.5754V194.922C91.5754 191.497 88.7886 188.709 85.3628 188.709C81.937 188.709 79.1498 191.497 79.1498 194.922V198.457H76.8457V194.922C76.8457 190.226 80.6663 186.405 85.3628 186.405C90.0589 186.405 93.8795 190.226 93.8795 194.922V198.457Z" fill="#141212"/>
<path d="M88.8599 204.582C88.8599 202.65 87.2943 201.085 85.3631 201.085C83.4318 201.085 81.8662 202.65 81.8662 204.582C81.8662 206.055 82.7802 207.31 84.0701 207.825V213.682H86.656V207.825C87.946 207.31 88.8599 206.055 88.8599 204.582Z" fill="#141212"/>
<path d="M132.746 196.516H98.5513C97.7598 196.516 97.1182 195.874 97.1182 195.083V190.448C97.1182 189.657 97.7598 189.015 98.5513 189.015H132.746C133.538 189.015 134.18 189.657 134.18 190.448V195.083C134.18 195.874 133.538 196.516 132.746 196.516Z" fill="white"/>
<path d="M132.746 196.516V196.372H98.5513C97.8393 196.37 97.2633 195.795 97.2621 195.083V190.448C97.2633 189.736 97.8393 189.16 98.5513 189.159H132.746C133.458 189.16 134.034 189.736 134.036 190.448V195.083C134.034 195.795 133.458 196.37 132.746 196.372V196.516V196.66C133.618 196.66 134.324 195.954 134.324 195.083V190.448C134.324 189.577 133.618 188.871 132.746 188.871H98.5513C97.6799 188.871 96.9741 189.577 96.9741 190.448V195.083C96.9741 195.954 97.6799 196.66 98.5513 196.66H132.746V196.516Z" fill="#100F0D"/>
<path d="M105.187 192.766C105.187 192.522 104.989 192.324 104.745 192.324H104.726L104.74 192.311C104.912 192.138 104.912 191.859 104.74 191.686C104.568 191.514 104.288 191.514 104.116 191.686L104.102 191.7V191.681C104.102 191.437 103.904 191.24 103.661 191.24C103.417 191.24 103.22 191.437 103.22 191.681V191.701L103.206 191.686C103.033 191.514 102.754 191.514 102.582 191.686C102.41 191.859 102.41 192.138 102.582 192.311L102.596 192.324H102.576C102.333 192.324 102.135 192.522 102.135 192.766C102.135 193.009 102.333 193.207 102.576 193.207H102.596L102.582 193.221C102.41 193.393 102.41 193.672 102.582 193.844C102.754 194.017 103.033 194.017 103.206 193.844L103.22 193.83V193.85C103.22 194.094 103.417 194.291 103.661 194.291C103.904 194.291 104.102 194.094 104.102 193.85V193.83L104.116 193.844C104.288 194.017 104.568 194.017 104.74 193.844C104.912 193.672 104.912 193.393 104.74 193.221L104.726 193.207H104.745C104.989 193.207 105.187 193.009 105.187 192.766Z" fill="#100F0D"/>
<path d="M109.935 192.766C109.935 192.522 109.737 192.324 109.493 192.324H109.474L109.488 192.311C109.66 192.138 109.66 191.859 109.488 191.686C109.315 191.514 109.036 191.514 108.864 191.686L108.85 191.7V191.681C108.85 191.437 108.652 191.24 108.409 191.24C108.165 191.24 107.968 191.437 107.968 191.681V191.701L107.954 191.686C107.781 191.514 107.502 191.514 107.33 191.686C107.157 191.859 107.157 192.138 107.33 192.311L107.344 192.324H107.324C107.081 192.324 106.883 192.522 106.883 192.766C106.883 193.009 107.081 193.207 107.324 193.207H107.344L107.33 193.221C107.157 193.393 107.157 193.672 107.33 193.844C107.502 194.017 107.781 194.017 107.954 193.844L107.968 193.83V193.85C107.968 194.094 108.165 194.291 108.409 194.291C108.652 194.291 108.85 194.094 108.85 193.85V193.83L108.864 193.844C109.036 194.017 109.315 194.017 109.488 193.844C109.66 193.672 109.66 193.393 109.488 193.221L109.474 193.207H109.493C109.737 193.207 109.935 193.009 109.935 192.766Z" fill="#100F0D"/>
<path d="M114.683 192.766C114.683 192.522 114.485 192.324 114.241 192.324H114.222L114.236 192.311C114.408 192.138 114.408 191.859 114.236 191.686C114.063 191.514 113.784 191.514 113.612 191.686L113.598 191.7V191.681C113.598 191.437 113.4 191.24 113.157 191.24C112.913 191.24 112.716 191.437 112.716 191.681V191.701L112.702 191.686C112.529 191.514 112.25 191.514 112.078 191.686C111.905 191.859 111.905 192.138 112.078 192.311L112.092 192.324H112.072C111.829 192.324 111.631 192.522 111.631 192.766C111.631 193.009 111.829 193.207 112.072 193.207H112.092L112.078 193.221C111.905 193.393 111.905 193.672 112.078 193.844C112.25 194.017 112.529 194.017 112.702 193.844L112.716 193.83V193.85C112.716 194.094 112.913 194.291 113.157 194.291C113.4 194.291 113.598 194.094 113.598 193.85V193.83L113.612 193.844C113.784 194.017 114.063 194.017 114.236 193.844C114.408 193.672 114.408 193.393 114.236 193.221L114.222 193.207H114.241C114.485 193.207 114.683 193.009 114.683 192.766Z" fill="#100F0D"/>
<path d="M119.431 192.766C119.431 192.522 119.233 192.324 118.989 192.324H118.97L118.984 192.311C119.156 192.138 119.156 191.859 118.984 191.686C118.811 191.514 118.532 191.514 118.36 191.686L118.346 191.7V191.681C118.346 191.437 118.148 191.24 117.905 191.24C117.661 191.24 117.464 191.437 117.464 191.681V191.701L117.45 191.686C117.278 191.514 116.998 191.514 116.826 191.686C116.653 191.859 116.653 192.138 116.826 192.311L116.84 192.324H116.82C116.576 192.324 116.379 192.522 116.379 192.766C116.379 193.009 116.576 193.207 116.82 193.207H116.84L116.826 193.221C116.653 193.393 116.653 193.672 116.826 193.844C116.998 194.017 117.278 194.017 117.45 193.844L117.464 193.83V193.85C117.464 194.094 117.661 194.291 117.905 194.291C118.148 194.291 118.346 194.094 118.346 193.85V193.83L118.36 193.844C118.532 194.017 118.811 194.017 118.984 193.844C119.156 193.672 119.156 193.393 118.984 193.221L118.97 193.207H118.989C119.233 193.207 119.431 193.009 119.431 192.766Z" fill="#100F0D"/>
<path d="M124.179 192.766C124.179 192.522 123.981 192.324 123.737 192.324H123.718L123.732 192.311C123.904 192.138 123.904 191.859 123.732 191.686C123.559 191.514 123.28 191.514 123.108 191.686L123.094 191.7V191.681C123.094 191.437 122.896 191.24 122.653 191.24C122.409 191.24 122.211 191.437 122.211 191.681V191.701L122.198 191.686C122.026 191.514 121.746 191.514 121.574 191.686C121.402 191.859 121.402 192.138 121.574 192.311L121.588 192.324H121.568C121.324 192.324 121.127 192.522 121.127 192.766C121.127 193.009 121.324 193.207 121.568 193.207H121.588L121.574 193.221C121.402 193.393 121.402 193.672 121.574 193.844C121.746 194.017 122.026 194.017 122.198 193.844L122.211 193.83V193.85C122.211 194.094 122.409 194.291 122.653 194.291C122.896 194.291 123.094 194.094 123.094 193.85V193.83L123.108 193.844C123.28 194.017 123.559 194.017 123.732 193.844C123.904 193.672 123.904 193.393 123.732 193.221L123.718 193.207H123.737C123.981 193.207 124.179 193.009 124.179 192.766Z" fill="#100F0D"/>
<path d="M128.926 192.766C128.926 192.522 128.729 192.324 128.485 192.324H128.465L128.479 192.311C128.651 192.138 128.651 191.859 128.479 191.686C128.307 191.514 128.028 191.514 127.855 191.686L127.841 191.7V191.681C127.841 191.437 127.644 191.24 127.4 191.24C127.157 191.24 126.959 191.437 126.959 191.681V191.701L126.945 191.686C126.773 191.514 126.494 191.514 126.322 191.686C126.149 191.859 126.149 192.138 126.322 192.311L126.335 192.324H126.316C126.072 192.324 125.875 192.522 125.875 192.766C125.875 193.009 126.072 193.207 126.316 193.207H126.335L126.322 193.221C126.149 193.393 126.149 193.672 126.322 193.844C126.494 194.017 126.773 194.017 126.945 193.844L126.959 193.83V193.85C126.959 194.094 127.157 194.291 127.4 194.291C127.644 194.291 127.841 194.094 127.841 193.85V193.83L127.855 193.844C128.028 194.017 128.307 194.017 128.479 193.844C128.651 193.672 128.651 193.393 128.479 193.221L128.465 193.207H128.485C128.729 193.207 128.926 193.009 128.926 192.766Z" fill="#100F0D"/>
<path d="M156.695 149.149L156.534 149.044C156.151 149.637 155.249 150.179 154.136 150.551C153.024 150.926 151.707 151.141 150.499 151.141C150.192 151.141 149.892 151.127 149.605 151.098C149.551 151.093 149.498 151.11 149.458 151.146C149.417 151.183 149.395 151.233 149.394 151.287V151.296C149.394 151.463 149.405 154.456 150.308 157.51C150.761 159.038 151.436 160.583 152.458 161.798C153.478 163.013 154.858 163.895 156.677 164.061H156.712C158.531 163.895 159.91 163.013 160.931 161.798C162.463 159.975 163.219 157.412 163.605 155.274C163.988 153.136 163.995 151.421 163.995 151.296V151.289C163.995 151.235 163.972 151.184 163.932 151.147C163.892 151.111 163.838 151.093 163.784 151.098C163.497 151.127 163.197 151.141 162.89 151.141C161.682 151.141 160.365 150.926 159.253 150.551C158.14 150.179 157.238 149.637 156.855 149.044C156.809 148.973 156.721 148.941 156.64 148.965C156.558 148.989 156.503 149.065 156.503 149.149H156.695L156.534 149.254C157.01 149.973 157.975 150.523 159.13 150.915C160.286 151.304 161.637 151.524 162.89 151.525C163.208 151.525 163.52 151.51 163.822 151.481L163.803 151.289H163.611V151.296C163.611 151.443 163.598 154.411 162.712 157.401C162.27 158.897 161.61 160.396 160.637 161.551C159.663 162.706 158.388 163.519 156.677 163.679L156.695 163.87L156.712 163.679C155.001 163.519 153.727 162.706 152.752 161.551C151.292 159.819 150.539 157.31 150.162 155.206C149.785 153.103 149.778 151.406 149.778 151.296V151.292L149.586 151.289L149.567 151.481C149.868 151.51 150.181 151.525 150.499 151.525C151.752 151.524 153.102 151.304 154.258 150.915C155.413 150.523 156.379 149.974 156.855 149.254C156.875 149.223 156.887 149.187 156.887 149.149H156.695Z" fill="#141212"/>
<path d="M52.6284 197.8V230.131C52.6284 230.238 52.7144 230.323 52.8204 230.323C52.9264 230.323 53.0124 230.238 53.0124 230.131V197.8C53.0124 197.694 52.9264 197.608 52.8204 197.608C52.7144 197.608 52.6284 197.694 52.6284 197.8Z" fill="#141212"/>
<path d="M51.0922 204.804C51.0922 204.804 50.5895 194.436 40.142 193.333C36.2081 205.466 51.0922 204.804 51.0922 204.804Z" fill="#3CBEC1"/>
<path d="M42.166 195.119C42.1668 195.119 42.3154 195.234 42.5804 195.451C43.5074 196.211 45.8407 198.206 48.0434 200.764C50.2469 203.321 52.3156 206.442 52.7249 209.432C52.7322 209.485 52.7806 209.521 52.8332 209.514C52.8858 209.507 52.9223 209.459 52.9154 209.406C52.4327 205.912 49.7715 202.311 47.237 199.574C44.7009 196.838 42.2862 194.969 42.2835 194.967C42.2417 194.934 42.1814 194.942 42.1491 194.984C42.1165 195.026 42.1242 195.086 42.1664 195.119" fill="#141212"/>
<path d="M51.6068 217.794C51.6068 217.794 51.2539 210.512 43.9165 209.738C41.1539 218.259 51.6068 217.794 51.6068 217.794Z" fill="#3CBEC1"/>
<path d="M45.3209 211.015C45.3213 211.015 45.4254 211.095 45.6112 211.247C46.2614 211.78 47.8988 213.181 49.4441 214.975C50.9901 216.768 52.4394 218.958 52.7251 221.048C52.7324 221.1 52.7808 221.137 52.8334 221.13C52.886 221.122 52.9225 221.074 52.9156 221.021C52.5742 218.556 50.7017 216.025 48.9203 214.101C47.1377 212.178 45.4407 210.865 45.4384 210.863C45.3966 210.83 45.3363 210.838 45.3036 210.88C45.2714 210.922 45.2791 210.982 45.3209 211.015Z" fill="#141212"/>
<path d="M66.0693 205.159C64.9288 205.078 62.7937 205.109 62.4711 206.357C62.21 207.375 63.6385 207.839 64.8443 208.054C61.8029 211.99 54.5488 211.668 54.5488 211.668C54.5488 211.668 55.0519 201.299 65.4971 200.194C66.1384 202.167 66.2805 203.803 66.0693 205.159Z" fill="#3CBEC1"/>
<path d="M63.3565 201.829C63.3542 201.831 60.9395 203.7 58.4035 206.436C55.8686 209.173 53.2078 212.774 52.725 216.268C52.7177 216.321 52.7546 216.369 52.8072 216.376C52.8598 216.384 52.9082 216.347 52.9155 216.294C53.3829 212.876 56.0191 209.289 58.5444 206.567C59.8067 205.204 61.0398 204.058 61.9568 203.252C62.4153 202.849 62.7951 202.531 63.0601 202.314C63.3247 202.097 63.4737 201.981 63.474 201.981C63.5159 201.949 63.5236 201.888 63.4913 201.847C63.4591 201.804 63.3988 201.797 63.3565 201.829Z" fill="#141212"/>
<path d="M53.5246 214.003L53.5331 213.985C53.6294 213.79 54.4954 212.116 57.3771 212.113C57.8786 212.113 58.4408 212.164 59.0713 212.283C59.1236 212.293 59.1735 212.259 59.1835 212.207C59.1935 212.154 59.1589 212.105 59.107 212.095C58.4657 211.973 57.8913 211.921 57.3771 211.921C55.798 211.921 54.7876 212.416 54.1767 212.917C53.5649 213.418 53.3522 213.919 53.348 213.929C53.3272 213.977 53.3503 214.034 53.399 214.055C53.4478 214.075 53.5043 214.052 53.5246 214.003Z" fill="#141212"/>
<path d="M60.132 244.897H45.5079L42.7441 223.17H62.8958L60.132 244.897Z" fill="#4D7DC8"/>
<mask id="mask0_66_2804" style="mask-type:luminance" maskUnits="userSpaceOnUse" x="42" y="223" width="21" height="22">
<path d="M60.132 244.897H45.5079L42.7441 223.17H62.8958L60.132 244.897Z" fill="white"/>
</mask>
<g mask="url(#mask0_66_2804)">
<path d="M40.1534 229.244C42.4275 229.933 44.9559 230.084 47.2124 229.242C49.21 228.496 50.8294 226.938 51.4177 224.858C51.7319 223.746 51.7092 222.572 51.2849 221.494C51.1954 221.266 50.8605 221.448 50.9492 221.674C51.6712 223.509 51.0475 225.645 49.7784 227.083C48.3729 228.675 46.222 229.375 44.146 229.432C42.8315 229.469 41.5239 229.261 40.2674 228.88C40.0328 228.809 39.9187 229.172 40.1534 229.244Z" fill="white"/>
<path d="M57.1654 222.77C55.6953 223.468 54.5322 224.684 53.7119 226.074C52.8863 227.472 52.3701 229.06 52.1931 230.673C52.0407 232.064 52.1301 233.572 52.7603 234.845C53.3156 235.967 54.3313 236.733 55.5955 236.824C56.3612 236.88 57.1331 236.707 57.8474 236.442C58.8804 236.059 59.9533 235.526 60.5931 234.595C61.1234 233.821 61.3104 232.746 60.7962 231.915C60.4717 231.391 59.8896 231.013 59.2686 230.968C58.3408 230.901 57.6446 231.666 57.2683 232.43C56.7552 233.472 56.6074 234.683 56.7268 235.83C56.8585 237.094 57.3593 238.341 58.2744 239.243C59.4065 240.358 60.9963 240.773 62.5512 240.751C63.0673 240.743 63.5823 240.691 64.0919 240.611C64.3338 240.573 64.2451 240.203 64.0035 240.24C62.4164 240.489 60.6691 240.443 59.274 239.555C58.2506 238.904 57.5705 237.856 57.2675 236.693C56.9883 235.621 56.9949 234.456 57.304 233.392C57.5248 232.63 57.971 231.716 58.7129 231.43C59.0616 231.295 59.4042 231.325 59.7486 231.481C60.4852 231.815 60.8266 232.615 60.6906 233.396C60.4944 234.524 59.5417 235.238 58.5778 235.714C57.8581 236.069 57.0813 236.357 56.2775 236.435C55.1239 236.547 54.0352 236.121 53.3755 235.147C52.6647 234.099 52.4811 232.757 52.5161 231.517C52.5587 230.017 52.9316 228.516 53.5683 227.159C54.2092 225.792 55.1477 224.515 56.4004 223.651C56.7003 223.444 57.0167 223.262 57.3462 223.106C57.5678 223.001 57.3869 222.665 57.1654 222.77Z" fill="white"/>
<path d="M43.2503 238.221C45.4872 237.091 48.16 236.93 50.5286 237.739C52.7866 238.51 54.6372 240.191 55.7163 242.309C56.3057 243.465 56.6571 244.74 56.7216 246.037C56.7339 246.28 57.1149 246.296 57.1026 246.05C56.9816 243.624 55.9179 241.285 54.191 239.578C52.3661 237.773 49.8562 236.81 47.2956 236.853C45.8294 236.877 44.379 237.224 43.0695 237.886C42.8506 237.996 43.0311 238.332 43.2503 238.221Z" fill="white"/>
<path d="M44.0341 239.212C45.5444 238.782 47.1915 239.04 48.5328 239.845C49.8869 240.658 50.8304 242.01 51.2325 243.528C51.4621 244.395 51.5132 245.295 51.3915 246.183C51.3581 246.425 51.739 246.437 51.772 246.196C51.9997 244.537 51.6223 242.792 50.6895 241.397C49.7705 240.022 48.3282 239.055 46.7034 238.739C45.7875 238.561 44.8444 238.585 43.9458 238.841C43.7108 238.909 43.7975 239.28 44.0341 239.212Z" fill="white"/>
</g>
<path d="M56.8389 244.897L59.6026 223.17H61.3388L58.5754 244.897H56.8389Z" fill="#100F0D"/>
<path d="M167.564 244.897H194.006V206.101H167.564V244.897Z" fill="#8D89CC"/>
<path d="M138.4 228.465L136.941 236.534C136.941 236.534 140.365 237.84 145.437 237.682L148.311 230.737L138.4 228.465Z" fill="#F6848F"/>
<path d="M172.907 230.934L171.357 237.122C171.357 237.122 168.059 238.897 163.657 237.456L164.403 229.052" fill="#F6848F"/>
<path d="M173.757 244.897H157.503C157.503 244.897 156.97 240.491 159.678 238.505C160.126 238.18 161.856 237.156 162.468 236.977C162.65 235.584 162.728 234.522 162.798 234.378C162.934 234.112 167.378 234.594 168.896 234.917C169.306 235.004 169.926 236.863 169.926 236.863L171.358 237.122C174.443 239.983 173.757 244.897 173.757 244.897Z" fill="#4D7DC8"/>
<path d="M177.07 206.101H164.453C161.53 206.714 158.968 209.18 155.054 209.448C153.618 219.654 151.153 228.987 149.914 232.706C145.247 232.706 139.784 231.645 136.604 230.5C138.872 219.077 141.7 204.055 142.625 200.415C143.947 195.214 176.854 190.647 176.854 190.647C176.854 190.647 177.056 191.9 177.233 193.609C178.387 198.573 178.244 204.17 177.07 206.101Z" fill="#1B2045"/>
<path d="M191.097 206.101H185.299C185.299 206.101 183.012 208.663 179.766 209.248C181.108 213.512 177.931 232.141 177.931 232.141C169.18 232.695 163.776 231.184 163.776 231.184C163.776 231.184 165.131 213.955 165.516 210.341C165.66 208.945 166.404 203.942 166.678 202.702C167.441 199.258 170.07 197.842 170.363 197.679C170.383 197.673 171.877 195.227 173.404 194.887L181.623 193.015L190.664 190.06C190.664 190.06 191.5 191.9 191.676 193.609C193.119 197.286 193.155 201.881 191.097 206.101Z" fill="#1B2045"/>
<path d="M167.774 166.989L164.489 179.427L158.536 187.68C158.536 187.68 154.985 188.808 154.573 189.297C153.414 190.672 151.106 193.693 151.075 193.879C151.044 194.064 151.354 194.445 151.818 194.394C152.282 194.343 155.471 191.04 155.471 191.04C155.471 191.04 154.635 193.677 154.635 193.894C154.635 194.111 154.48 194.346 154.93 194.399C155.379 194.451 155.843 193.956 155.843 193.956L157.128 191.185C157.128 191.185 157.557 191.304 158.29 191.361C157.905 191.757 157.512 192.218 157.329 192.625C157.18 192.955 157.004 193.639 157.747 193.584C158.223 193.55 159.666 192.569 160.208 192.074C160.75 191.578 161.044 190.535 161.044 190.535C161.044 190.535 168.639 186.193 171.002 182.137C173.731 177.453 175.448 169.457 175.448 169.457L167.774 166.989Z" fill="#F89BA5"/>
<path d="M177.031 168.815L173.989 177.993C169.761 177.133 166.674 175.885 164.973 175.078C166.271 169.533 167.473 165.309 168.751 163.896C169.957 162.786 177.031 168.815 177.031 168.815Z" fill="#EE255F"/>
<path d="M191.802 164.079C191.713 166.354 192.723 176.248 192.312 184.768C192.167 187.773 191.514 191.697 191.514 192.179C191.514 192.515 191.079 192.866 190.906 192.96C190.283 193.321 189.056 193.573 187.568 193.757H187.563C184.634 194.113 180.684 194.181 178.3 194.181C175.099 194.181 170.294 193.672 169.686 192.866C169.131 192.127 169.64 191.052 169.906 189.57C172.549 174.877 168.405 166.196 168.751 163.897C170.504 161.833 177.422 160.241 177.511 160.215C178.365 160.163 178.536 159.747 179.537 159.773C180.406 159.799 182.322 159.914 183.768 160.103C183.774 160.103 189.05 161.397 191.802 164.079Z" fill="#EE255F"/>
<path d="M187.874 171.57L189.617 182.609L193.303 180.696L190.031 171.879" fill="#100F0D"/>
<path d="M184.27 149.606C184.27 149.606 185.498 149.163 185.9 150.672C186.267 152.048 184.452 153.227 184.452 153.227C184.452 153.227 185.173 153.697 184.954 154.594C184.552 156.244 182.541 155.399 182.541 155.399L182.199 151.436L184.27 149.606Z" fill="#100F0D"/>
<path d="M170.531 147.638C170.531 147.638 170.935 152.52 172.554 152.848C174.173 153.176 173.775 151.102 173.775 151.102L173.549 148.783L170.531 147.638Z" fill="#100F0D"/>
<path d="M183.397 153.698C184.071 152.654 184.392 150.954 183.642 150.428C183.812 148.517 183.437 146.806 182.985 145.709C181.747 142.698 172.098 140.046 171.98 147.378C171.98 147.378 171.471 157.848 175.242 158.553C175.242 158.553 176.265 158.754 177.64 158.389C177.601 158.788 177.574 159.66 177.513 160.212C176.502 161.138 175.393 163.943 178.583 164.073C181.832 164.211 184.259 161.418 183.769 160.101C183.606 158.024 183.481 155.285 183.397 153.698Z" fill="#F6848F"/>
<path d="M183.03 144.731C184.074 142.478 181.819 140.921 180.3 141.399C179.993 139.836 178.564 138.973 177.677 138.972C176.244 138.972 175.901 140.144 175.877 140.232L175.864 140.236C175.744 140.183 172.893 138.956 171.261 140.627C170.549 141.355 170.465 141.991 170.578 142.468C166.896 142.135 167.233 145.335 168.234 145.98C166.604 147.053 169.268 149.517 173.129 149.168C176.059 148.903 179.506 147.176 179.829 147.215C179.221 149.886 180.321 152.188 181.291 152.318C181.343 152.123 181.899 150.112 183.231 150.267C183.962 150.351 184.162 151.089 184.046 151.923C185.686 149.612 186.827 145.307 183.03 144.731Z" fill="#100F0D"/>
<path d="M181.85 155.352C180.692 157.044 178.767 158.092 177.641 158.391L177.563 159.6C177.563 159.6 181.335 158.918 181.85 155.352Z" fill="#100F0D"/>
<path d="M195.801 168.701L188.451 172.306C188.451 172.306 190.538 176.034 191.923 179.688C191.923 179.688 185.489 187.194 184.469 187.996C183.23 188.076 181.329 188.242 180.192 188.552C179.496 188.743 175.689 192.61 175.72 192.84C175.752 193.07 176.049 193.331 176.545 193.229C176.732 193.191 177.083 192.974 177.447 192.667C177.447 192.667 177.043 193.096 177.051 193.275C177.058 193.444 177.289 193.599 177.674 193.539C178.028 193.484 178.364 193.205 178.755 192.808C178.692 192.912 178.643 192.994 178.629 193.02C178.557 193.15 178.791 193.505 179.438 193.365C179.9 193.266 180.901 192.041 181.13 191.864C181.22 191.794 181.478 191.77 181.804 191.775C181.804 191.775 180.887 193.133 180.93 193.372C180.964 193.561 181.485 193.849 181.963 193.641C182.374 193.462 182.922 192.777 183.46 191.955C185.71 192.271 186.782 190.838 186.782 190.838L186.78 190.831C199.051 186.5 199.712 182.433 199.758 182.15C200.38 178.368 195.801 168.701 195.801 168.701Z" fill="#F6848F"/>
<path d="M191.956 179.758C191.957 179.758 192.021 179.726 192.14 179.678C192.497 179.532 193.329 179.241 194.238 179.241C194.845 179.241 195.484 179.37 196.045 179.752C196.081 179.776 196.128 179.767 196.152 179.732C196.176 179.696 196.167 179.649 196.132 179.625C195.538 179.221 194.866 179.088 194.238 179.088C192.982 179.089 191.895 179.617 191.89 179.619C191.852 179.638 191.835 179.684 191.854 179.722C191.872 179.76 191.918 179.776 191.956 179.758Z" fill="#100F0D"/>
<path d="M178.965 192.654C178.966 192.653 179.387 192.167 179.848 191.645C180.307 191.124 180.81 190.563 180.955 190.43C181.015 190.374 181.145 190.312 181.302 190.261C181.538 190.184 181.834 190.125 182.071 190.085C182.308 190.046 182.483 190.027 182.483 190.027C182.526 190.022 182.556 189.984 182.551 189.942C182.546 189.9 182.508 189.869 182.466 189.874C182.465 189.874 182.147 189.91 181.789 189.981C181.609 190.016 181.42 190.061 181.254 190.115C181.088 190.17 180.945 190.232 180.851 190.317C180.69 190.465 180.195 191.019 179.732 191.543C179.272 192.066 178.849 192.553 178.849 192.554L178.857 192.662L178.965 192.654Z" fill="#100F0D"/>
<path d="M181.997 191.68C181.997 191.68 182.071 191.553 182.182 191.377C182.293 191.2 182.441 190.976 182.588 190.784L182.573 190.677L182.465 190.691C182.163 191.086 181.865 191.602 181.864 191.603C181.843 191.64 181.856 191.687 181.892 191.708C181.929 191.73 181.976 191.717 181.997 191.68Z" fill="#100F0D"/>
<path d="M177.624 192.397C177.624 192.397 177.764 192.236 177.979 191.991C178.302 191.624 178.794 191.066 179.234 190.579C179.454 190.335 179.662 190.108 179.829 189.932C179.995 189.756 180.124 189.627 180.175 189.589C180.312 189.48 180.693 189.341 181.029 189.24C181.367 189.136 181.665 189.063 181.666 189.063C181.707 189.053 181.732 189.011 181.722 188.97C181.712 188.929 181.67 188.904 181.629 188.914C181.628 188.914 181.327 188.988 180.984 189.093C180.64 189.199 180.262 189.329 180.081 189.467C179.99 189.538 179.794 189.742 179.537 190.019C178.77 190.848 177.509 192.296 177.508 192.296L177.516 192.404L177.624 192.397Z" fill="#100F0D"/>
<path d="M198.818 174.269C196.477 175.593 191.24 177.199 189.711 177.407C188.043 173.233 184.074 160.184 184.074 160.184C185.836 160.512 191.712 161.767 193.633 163.76C194.933 165.109 196.906 168.779 198.818 174.269Z" fill="#EE255F"/>
<path d="M199.014 174.281C196.671 175.606 191.239 177.322 189.711 177.529C189.553 177.137 189.377 176.546 189.185 176.016C190.955 175.524 195.198 174.035 198.523 172.798C198.703 173.327 198.85 173.75 199.014 174.281Z" fill="#F79817"/>
<path d="M184.82 194.719H173.772V193.638H184.82C185.118 193.638 185.36 193.88 185.36 194.178C185.36 194.477 185.118 194.719 184.82 194.719Z" fill="white"/>
<path d="M178.892 193.684L173.251 173.377C173.084 172.776 172.538 172.361 171.914 172.361H145.166C144.974 172.361 144.807 172.438 144.681 172.557L144.033 173.069L144.524 173.404L150.145 193.639C150.234 193.958 150.524 194.178 150.856 194.178H178.516C178.774 194.178 178.961 193.932 178.892 193.684Z" fill="white"/>
<path d="M177.841 194.719H150.181C149.849 194.719 149.559 194.498 149.47 194.179L143.809 173.799C143.684 173.348 144.023 172.901 144.491 172.901H171.24C171.863 172.901 172.409 173.317 172.576 173.918L178.217 194.225C178.286 194.473 178.099 194.719 177.841 194.719Z" fill="#F79817"/>
<path d="M125.362 244.897H148.681C148.681 244.897 149.073 239.638 146.18 235.89L141.908 236.817C141.908 236.817 140.487 234.844 139.842 234.684C139.197 234.524 136.136 234.363 136.136 234.363L135.575 236.573L135.102 237.812L133.285 238.387C130.973 237.529 128.989 237.521 128.238 237.812C125.439 238.917 125.362 244.897 125.362 244.897Z" fill="#4D7DC8"/>
<path d="M166.263 205.83C166.401 204.909 166.535 204.032 166.637 203.417C166.803 202.413 167.059 201.674 167.273 201.188C167.38 200.944 167.477 200.764 167.546 200.645C167.58 200.586 167.608 200.542 167.627 200.513L167.655 200.472L167.578 200.415L167.646 200.483C167.646 200.483 167.832 200.297 168.159 199.984C169.139 199.045 171.381 196.97 173.614 195.403C173.657 195.373 173.667 195.313 173.637 195.269C173.607 195.226 173.547 195.216 173.503 195.246C170.507 197.349 167.512 200.345 167.51 200.347L167.5 200.358C167.493 200.368 166.785 201.345 166.447 203.386C166.345 204.003 166.211 204.88 166.074 205.801C166.066 205.854 166.102 205.903 166.154 205.911C166.207 205.918 166.256 205.882 166.264 205.83" fill="white"/>
<path d="M182.569 194.161V227.141C182.57 227.153 182.568 228.072 183.04 229.008C183.276 229.475 183.634 229.947 184.172 230.301C184.709 230.656 185.424 230.889 186.359 230.888C187.192 230.888 187.823 231.01 188.299 231.227C189.011 231.554 189.393 232.084 189.614 232.805C189.832 233.525 189.872 234.432 189.871 235.45C189.871 238.535 189.871 244.897 189.871 244.897H190.159C190.159 244.897 190.159 238.535 190.159 235.45C190.157 234.083 190.098 232.886 189.581 232.002C189.323 231.561 188.945 231.204 188.419 230.965C187.892 230.725 187.219 230.6 186.359 230.6C185.47 230.6 184.818 230.382 184.33 230.061C183.599 229.58 183.229 228.853 183.043 228.239C182.95 227.933 182.903 227.656 182.88 227.457C182.868 227.357 182.862 227.277 182.86 227.222C182.856 227.168 182.857 227.141 182.857 227.141V194.161H182.569Z" fill="white"/>
<path d="M26.1107 183.883H24.4556V181.892H26.1107V183.883Z" fill="#8D89CC"/>
<path d="M29.5912 183.883H27.9365V181.892H29.5912V183.883Z" fill="#8D89CC"/>
<path d="M33.0717 183.883H31.417V181.892H33.0717V183.883Z" fill="#8D89CC"/>
<path d="M36.5526 183.883H34.8975V181.892H36.5526V183.883Z" fill="#8D89CC"/>
<path d="M40.033 183.883H38.3779V181.892H40.033V183.883Z" fill="#8D89CC"/>
<path d="M43.514 183.883H41.8589V181.892H43.514V183.883Z" fill="#8D89CC"/>
<path d="M46.9945 183.883H45.3394V181.892H46.9945V183.883Z" fill="#8D89CC"/>
<path d="M50.475 183.883H48.8203V181.892H50.475V183.883Z" fill="#8D89CC"/>
<path d="M176.347 117.544C174.386 117.544 172.796 115.954 172.796 113.993C172.796 112.032 174.386 110.442 176.347 110.441C178.309 110.442 179.899 112.032 179.899 113.993C179.899 115.954 178.309 117.544 176.347 117.544ZM176.347 110.825C175.472 110.826 174.681 111.18 174.108 111.753C173.534 112.327 173.18 113.118 173.18 113.993C173.18 114.868 173.534 115.659 174.108 116.233C174.681 116.806 175.472 117.16 176.347 117.16C177.222 117.16 178.013 116.806 178.587 116.233C179.161 115.659 179.515 114.868 179.515 113.993C179.515 113.118 179.161 112.327 178.587 111.753C178.013 111.18 177.222 110.826 176.347 110.825Z" fill="#E3DEF2"/>
<path d="M189.796 95.7117H189.604C189.604 96.8526 189.142 97.8841 188.394 98.6322C187.646 99.3798 186.614 99.8418 185.473 99.8418C184.332 99.8418 183.301 99.3798 182.553 98.6322C181.805 97.8841 181.343 96.8526 181.343 95.7117C181.343 94.5704 181.805 93.539 182.553 92.7909C183.301 92.0432 184.332 91.5812 185.473 91.5812C186.614 91.5812 187.646 92.0432 188.394 92.7909C189.142 93.539 189.604 94.5704 189.604 95.7117H189.796H189.988C189.988 93.2183 187.967 91.1972 185.473 91.1972C182.98 91.1972 180.959 93.2183 180.959 95.7117C180.959 98.2048 182.98 100.226 185.473 100.226C187.967 100.226 189.988 98.2048 189.988 95.7117H189.796Z" fill="#8D89CC"/>
<path d="M18.2875 170.601C18.2875 172.692 16.5924 174.387 14.5015 174.387C12.4109 174.387 10.7158 172.692 10.7158 170.601C10.7158 168.511 12.4109 166.816 14.5015 166.816C16.5924 166.816 18.2875 168.511 18.2875 170.601Z" fill="#8D89CC"/>
<path d="M189.529 101.262C188.553 101.262 187.719 100.659 187.377 99.8062C188.643 99.2163 189.591 98.0562 189.889 96.6557C190.997 96.8289 191.845 97.7878 191.845 98.9448C191.845 100.224 190.808 101.262 189.529 101.262ZM187.263 99.4352C187.229 99.277 187.211 99.113 187.211 98.9448C187.211 97.6741 188.234 96.6423 189.502 96.628C189.327 97.4007 188.936 98.0904 188.394 98.6322C188.067 98.9594 187.685 99.2321 187.263 99.4352Z" fill="#E3DEF2"/>
<path d="M187.377 99.8062C187.329 99.6871 187.291 99.5631 187.263 99.4352C187.685 99.232 188.067 98.9594 188.394 98.6322C188.936 98.0904 189.327 97.4007 189.502 96.628C189.511 96.6276 189.52 96.6276 189.529 96.6276C189.651 96.6276 189.772 96.6372 189.889 96.6557C189.591 98.0562 188.643 99.2163 187.377 99.8062Z" fill="#8D89CC"/>
<path d="M18.7714 122.598H18.5794C18.5794 123.725 18.1232 124.743 17.3851 125.481C16.6467 126.219 15.6282 126.675 14.5015 126.675C13.3748 126.675 12.3568 126.219 11.6183 125.481C10.8803 124.743 10.4241 123.725 10.4241 122.598C10.4241 121.471 10.8803 120.453 11.6183 119.714C12.3568 118.976 13.3748 118.52 14.5015 118.52C15.6282 118.52 16.6467 118.976 17.3851 119.714C18.1232 120.453 18.5794 121.471 18.5794 122.598H18.7714H18.9634C18.9634 120.134 16.9658 118.136 14.5015 118.136C12.0373 118.136 10.04 120.134 10.04 122.598C10.04 125.062 12.0373 127.059 14.5015 127.059C16.9658 127.059 18.9634 125.062 18.9634 122.598H18.7714Z" fill="#8D89CC"/>
<path d="M201.104 189.11C201.104 190.511 199.968 191.647 198.566 191.647C197.165 191.647 196.029 190.511 196.029 189.11C196.029 187.709 197.165 186.573 198.566 186.573C199.968 186.573 201.104 187.709 201.104 189.11Z" fill="#8D89CC"/>
<path d="M23.0745 168.289C23.0745 169.085 22.4294 169.73 21.6337 169.73C20.838 169.73 20.1929 169.085 20.1929 168.289C20.1929 167.494 20.838 166.849 21.6337 166.849C22.4294 166.849 23.0745 167.494 23.0745 168.289Z" fill="#8D89CC"/>
<path d="M205.044 193.088C205.044 193.884 204.399 194.529 203.603 194.529C202.807 194.529 202.162 193.884 202.162 193.088C202.162 192.292 202.807 191.647 203.603 191.647C204.399 191.647 205.044 192.292 205.044 193.088Z" fill="#8D89CC"/>
<path d="M2.87936 222.289C1.2893 222.289 0 221 0 219.41C0 217.819 1.2893 216.53 2.87936 216.53C4.46972 216.53 5.75902 217.819 5.75902 219.41C5.75902 221 4.46972 222.289 2.87936 222.289Z" fill="#E3DEF2"/>
<path d="M60.3545 192.964C56.8246 192.964 53.9629 190.102 53.9629 186.573C53.9629 183.043 56.8246 180.181 60.3545 180.181C63.884 180.181 66.7456 183.043 66.7456 186.573C66.7456 190.102 63.884 192.964 60.3545 192.964Z" fill="#E3DEF2"/>
<path d="M88.2236 230.303C88.2236 232.21 86.6776 233.756 84.7709 233.756C82.8639 233.756 81.3179 232.21 81.3179 230.303C81.3179 228.396 82.8639 226.85 84.7709 226.85C86.6776 226.85 88.2236 228.396 88.2236 230.303Z" fill="white"/>
<path d="M116.92 99.0762C116.425 99.0762 116.023 98.6745 116.023 98.1791C116.023 97.6837 116.425 97.2821 116.92 97.2821C117.415 97.2821 117.817 97.6837 117.817 98.1791C117.817 98.6745 117.415 99.0762 116.92 99.0762Z" fill="#E3DEF2"/>
<path d="M114.178 233.734H92.336C91.5238 233.734 90.8652 233.076 90.8652 232.263C90.8652 231.451 91.5238 230.793 92.336 230.793H114.178C114.99 230.793 115.649 231.451 115.649 232.263C115.649 233.076 114.99 233.734 114.178 233.734Z" fill="#E3DEF2"/>
<path d="M209.488 132.322V132.226H187.646C186.887 132.225 186.272 131.611 186.271 130.852C186.272 130.092 186.887 129.478 187.646 129.477H209.488C210.247 129.478 210.861 130.092 210.862 130.852C210.861 131.611 210.247 132.225 209.488 132.226V132.322V132.418C210.353 132.418 211.054 131.717 211.054 130.852C211.054 129.986 210.353 129.285 209.488 129.285H187.646C186.78 129.285 186.079 129.986 186.079 130.852C186.079 131.717 186.78 132.418 187.646 132.418H209.488V132.322Z" fill="#141212"/>
<path d="M107.349 102.732V102.636H77.3021C76.5429 102.635 75.9289 102.021 75.9274 101.262C75.9289 100.503 76.5429 99.8887 77.3021 99.8872H107.349C108.108 99.8887 108.722 100.503 108.724 101.262C108.722 102.021 108.108 102.635 107.349 102.636V102.732V102.828C108.214 102.828 108.916 102.127 108.916 101.262C108.916 100.396 108.214 99.6952 107.349 99.6952H77.3021C76.437 99.6952 75.7357 100.396 75.7354 101.262C75.7357 102.127 76.437 102.828 77.3021 102.828H107.349V102.732Z" fill="#141212"/>
<path d="M112.644 102.732V102.636H111.564C110.804 102.635 110.19 102.021 110.189 101.262C110.19 100.503 110.804 99.8887 111.564 99.8872H112.644C113.403 99.8887 114.017 100.503 114.018 101.262C114.017 102.021 113.403 102.635 112.644 102.636V102.732V102.828C113.509 102.828 114.21 102.127 114.21 101.262C114.21 100.396 113.509 99.6952 112.644 99.6952H111.564C110.698 99.6952 109.997 100.396 109.997 101.262C109.997 102.127 110.698 102.828 111.564 102.828H112.644V102.732Z" fill="#141212"/>
<path d="M193.689 121.054H192.034V113.651H193.689V121.054Z" fill="#8D89CC"/>
<path d="M197.17 121.054H195.515V113.651H197.17V121.054Z" fill="#8D89CC"/>
<path d="M200.651 121.054H198.996V113.651H200.651V121.054Z" fill="#8D89CC"/>
<path d="M204.132 121.054H202.477V113.651H204.132V121.054Z" fill="#8D89CC"/>
<path d="M207.612 121.054H205.957V113.651H207.612V121.054Z" fill="#8D89CC"/>
<path d="M211.093 121.054H209.438V113.651H211.093V121.054Z" fill="#8D89CC"/>
<path d="M214.573 121.054H212.918V113.651H214.573V121.054Z" fill="#8D89CC"/>
<path d="M218.054 121.054H216.399V113.651H218.054V121.054Z" fill="#8D89CC"/>
<path d="M225.551 246.417H0.533691V244.898H225.551V246.417Z" fill="#100F0D"/>
<path d="M151.566 249.459H202.843V249.075H151.566V249.459Z" fill="#141212"/>
<path d="M125.362 249.459H148.291V249.075H125.362V249.459Z" fill="#141212"/>
<path d="M37.4653 249.459H65.451V249.075H37.4653V249.459Z" fill="#141212"/>
</svg>
