<svg width="510" height="252" viewBox="0 0 510 252" fill="none" xmlns="http://www.w3.org/2000/svg">
<path d="M52.5938 0.383789H246.906C255.168 0.38383 261.866 7.0815 261.866 15.3438V37.4688C261.866 46.1547 268.908 53.1962 277.594 53.1963H494.406C502.669 53.1963 509.366 59.894 509.366 68.1562V228.094C509.366 236.356 502.668 243.054 494.406 243.054H52.5938C44.3315 243.054 37.6338 236.356 37.6338 228.094V15.3438C37.6338 7.0815 44.3315 0.383829 52.5938 0.383789Z" fill="white" stroke="black" stroke-width="0.767191"/>
<path d="M75.6133 34.9375L70.8402 29.2544H68.9273V34.9375H67.1072V21.9369H68.9273V27.5643H70.9145L75.4647 21.9369H77.6377L72.326 28.4372L77.8234 34.9375H75.6133ZM88.0625 28.8829V34.9375H86.3167V29.3101C86.3167 27.62 85.6667 26.8771 84.2552 26.8771C82.6394 26.8771 81.5065 27.8429 81.5065 29.3844V34.9375H79.7607V25.5214H81.5065V27.0629C82.0451 25.93 83.2337 25.2614 84.7195 25.2614C86.8182 25.2614 88.0625 26.58 88.0625 28.8829ZM90.537 30.2387C90.537 27.5272 92.4871 25.2614 95.4215 25.2614C98.3188 25.2614 100.287 27.5272 100.287 30.2387C100.287 32.9688 98.3188 35.1975 95.4215 35.1975C92.4871 35.1975 90.537 32.9688 90.537 30.2387ZM98.4673 30.2387C98.4673 28.2515 97.2601 26.8771 95.4215 26.8771C94.5114 26.8771 93.7686 27.1929 93.1928 27.8243C92.6357 28.4372 92.3571 29.2544 92.3571 30.2387C92.3571 31.2231 92.6357 32.0217 93.1928 32.6531C93.7686 33.266 94.5114 33.5817 95.4215 33.5817C96.3315 33.5817 97.0744 33.266 97.6316 32.6531C98.1888 32.0217 98.4673 31.2231 98.4673 30.2387ZM114.461 25.5214H116.225L113.18 34.9375H111.248L108.834 27.5643L106.419 34.9375H104.506L101.461 25.5214H103.225L105.509 32.8574L107.924 25.5214H109.762L112.158 32.8388L114.461 25.5214ZM118.211 34.9375V21.3426H119.957V34.9375H118.211ZM131.669 30.7587H124.277C124.482 32.5603 125.652 33.6189 127.416 33.6189C128.586 33.6189 129.57 33.1546 130.332 32.226L131.465 33.2289C130.555 34.4918 129.106 35.1975 127.379 35.1975C124.482 35.1975 122.494 33.1731 122.494 30.2573C122.494 27.3786 124.463 25.2614 127.23 25.2614C129.849 25.2614 131.725 27.1557 131.725 29.923C131.725 30.2016 131.706 30.4802 131.669 30.7587ZM124.314 29.4215H129.96C129.812 27.7872 128.772 26.8586 127.23 26.8586C125.652 26.8586 124.593 27.8058 124.314 29.4215ZM141.45 21.3426H143.196V34.9375H141.45V33.266C140.912 34.4546 139.574 35.1975 138.033 35.1975C135.489 35.1975 133.594 33.136 133.594 30.2387C133.594 27.3229 135.489 25.2614 138.033 25.2614C139.574 25.2614 140.912 26.0042 141.45 27.1929V21.3426ZM141.524 30.2387C141.524 28.2515 140.317 26.8771 138.479 26.8771C137.569 26.8771 136.826 27.1929 136.25 27.8243C135.693 28.4372 135.414 29.2544 135.414 30.2387C135.414 31.2231 135.693 32.0217 136.25 32.6531C136.826 33.266 137.569 33.5817 138.479 33.5817C139.389 33.5817 140.132 33.266 140.689 32.6531C141.246 32.0217 141.524 31.2231 141.524 30.2387ZM153.602 25.5214H155.348V33.8603C155.348 37.1105 153.546 38.912 150.408 38.912C148.625 38.912 147.065 38.3362 146.099 37.3705L147.046 36.089C147.919 36.8504 149.107 37.3147 150.37 37.3147C152.45 37.3147 153.602 36.1447 153.602 33.8603V33.0431C153.063 34.2132 151.763 34.9189 150.203 34.9189C147.64 34.9189 145.746 32.9317 145.746 30.0901C145.746 27.2672 147.64 25.2614 150.203 25.2614C151.745 25.2614 153.063 26.0042 153.602 27.1743V25.5214ZM153.676 30.0901C153.676 29.143 153.398 28.3815 152.84 27.7872C152.283 27.1743 151.54 26.8771 150.63 26.8771C149.72 26.8771 148.977 27.1743 148.402 27.7872C147.845 28.3815 147.566 29.143 147.566 30.0901C147.566 32.0031 148.792 33.3217 150.63 33.3217C151.54 33.3217 152.283 33.0246 152.84 32.4117C153.398 31.7988 153.676 31.0373 153.676 30.0901ZM167.072 30.7587H159.681C159.885 32.5603 161.055 33.6189 162.819 33.6189C163.989 33.6189 164.974 33.1546 165.735 32.226L166.868 33.2289C165.958 34.4918 164.509 35.1975 162.782 35.1975C159.885 35.1975 157.898 33.1731 157.898 30.2573C157.898 27.3786 159.866 25.2614 162.634 25.2614C165.252 25.2614 167.128 27.1557 167.128 29.923C167.128 30.2016 167.109 30.4802 167.072 30.7587ZM159.718 29.4215H165.364C165.215 27.7872 164.175 26.8586 162.634 26.8586C161.055 26.8586 159.996 27.8058 159.718 29.4215ZM173.093 32.1888L174.523 31.3159C175.21 32.746 176.64 33.5446 178.442 33.5446C180.299 33.5446 181.432 32.7088 181.432 31.3902C181.432 30.4059 180.763 29.7744 179.203 29.3844L177.105 28.8829C174.69 28.3072 173.483 27.1372 173.483 25.3728C173.483 23.2184 175.284 21.6769 178.2 21.6769C180.522 21.6769 182.305 22.6241 182.992 24.0542L181.599 24.9642C180.949 23.9056 179.723 23.3298 178.182 23.3298C176.399 23.3298 175.34 24.0913 175.34 25.3542C175.34 26.32 175.972 26.8957 177.606 27.2672L179.705 27.7872C182.175 28.3815 183.308 29.533 183.308 31.3159C183.308 33.6374 181.506 35.1975 178.405 35.1975C175.786 35.1975 173.892 34.0646 173.093 32.1888ZM194.037 28.8829V34.9375H192.291V29.3101C192.291 27.62 191.641 26.8771 190.229 26.8771C188.614 26.8771 187.481 27.8429 187.481 29.3844V34.9375H185.735V21.3426H187.481V27.0629C188.019 25.93 189.208 25.2614 190.694 25.2614C192.792 25.2614 194.037 26.58 194.037 28.8829ZM204.367 25.5214H206.113V34.9375H204.367V33.266C203.829 34.4546 202.51 35.1975 200.969 35.1975C198.406 35.1975 196.511 33.136 196.511 30.2387C196.511 27.3229 198.406 25.2614 200.969 25.2614C202.51 25.2614 203.829 26.0042 204.367 27.1929V25.5214ZM204.442 30.2387C204.442 28.2515 203.234 26.8771 201.396 26.8771C200.486 26.8771 199.743 27.1929 199.167 27.8243C198.61 28.4372 198.331 29.2544 198.331 30.2387C198.331 31.2231 198.61 32.0217 199.167 32.6531C199.743 33.266 200.486 33.5817 201.396 33.5817C202.306 33.5817 203.049 33.266 203.606 32.6531C204.163 32.0217 204.442 31.2231 204.442 30.2387ZM214.736 25.5028V27.0814C214.476 27.0257 214.179 27.0071 213.863 27.0071C212.062 27.0071 211.059 28.0286 211.059 30.1644V34.9375H209.313V25.5214H211.059V27.2114C211.505 26.0414 212.545 25.3728 213.9 25.3728C214.216 25.3728 214.495 25.4099 214.736 25.5028ZM216.598 22.4941C216.598 21.8255 217.08 21.324 217.768 21.324C218.455 21.324 218.938 21.8255 218.938 22.4941C218.938 23.1627 218.455 23.6641 217.768 23.6641C217.08 23.6641 216.598 23.1627 216.598 22.4941ZM216.895 34.9375V25.5214H218.641V34.9375H216.895ZM230.147 28.8829V34.9375H228.402V29.3101C228.402 27.62 227.752 26.8771 226.34 26.8771C224.724 26.8771 223.591 27.8429 223.591 29.3844V34.9375H221.846V25.5214H223.591V27.0629C224.13 25.93 225.319 25.2614 226.804 25.2614C228.903 25.2614 230.147 26.58 230.147 28.8829ZM240.478 25.5214H242.224V33.8603C242.224 37.1105 240.422 38.912 237.284 38.912C235.501 38.912 233.941 38.3362 232.975 37.3705L233.922 36.089C234.795 36.8504 235.984 37.3147 237.246 37.3147C239.327 37.3147 240.478 36.1447 240.478 33.8603V33.0431C239.939 34.2132 238.639 34.9189 237.079 34.9189C234.516 34.9189 232.622 32.9317 232.622 30.0901C232.622 27.2672 234.516 25.2614 237.079 25.2614C238.621 25.2614 239.939 26.0042 240.478 27.1743V25.5214ZM240.552 30.0901C240.552 29.143 240.274 28.3815 239.717 27.7872C239.159 27.1743 238.416 26.8771 237.506 26.8771C236.596 26.8771 235.854 27.1743 235.278 27.7872C234.721 28.3815 234.442 29.143 234.442 30.0901C234.442 32.0031 235.668 33.3217 237.506 33.3217C238.416 33.3217 239.159 33.0246 239.717 32.4117C240.274 31.7988 240.552 31.0373 240.552 30.0901Z" fill="black"/>
<path d="M256.38 127.293H264.94V129.421H254.089V113.051H256.38V127.293ZM278.129 124.159H268.822C269.079 126.428 270.552 127.761 272.774 127.761C274.247 127.761 275.487 127.176 276.446 126.007L277.872 127.27C276.726 128.86 274.902 129.749 272.727 129.749C269.079 129.749 266.577 127.199 266.577 123.528C266.577 119.903 269.056 117.237 272.54 117.237C275.838 117.237 278.2 119.622 278.2 123.107C278.2 123.458 278.176 123.809 278.129 124.159ZM268.869 122.476H275.978C275.791 120.418 274.481 119.248 272.54 119.248C270.552 119.248 269.219 120.441 268.869 122.476ZM290.446 117.564H292.644V129.421H290.446V127.316C289.768 128.813 288.107 129.749 286.166 129.749C282.939 129.749 280.554 127.153 280.554 123.505C280.554 119.833 282.939 117.237 286.166 117.237C288.107 117.237 289.768 118.173 290.446 119.669V117.564ZM290.539 123.505C290.539 121.002 289.019 119.272 286.704 119.272C285.558 119.272 284.623 119.669 283.898 120.464C283.196 121.236 282.845 122.265 282.845 123.505C282.845 124.744 283.196 125.75 283.898 126.545C284.623 127.316 285.558 127.714 286.704 127.714C287.85 127.714 288.785 127.316 289.487 126.545C290.189 125.75 290.539 124.744 290.539 123.505ZM303.502 117.541V119.529C303.175 119.459 302.8 119.435 302.403 119.435C300.134 119.435 298.872 120.722 298.872 123.411V129.421H296.673V117.564H298.872V119.693C299.433 118.219 300.743 117.377 302.45 117.377C302.847 117.377 303.198 117.424 303.502 117.541ZM316.65 121.797V129.421H314.452V122.335C314.452 120.207 313.633 119.272 311.856 119.272C309.822 119.272 308.395 120.488 308.395 122.429V129.421H306.197V117.564H308.395V119.506C309.073 118.079 310.57 117.237 312.441 117.237C315.083 117.237 316.65 118.897 316.65 121.797ZM326.568 129.421V119.459H324.159V117.564H326.568V115.834C326.568 113.285 327.761 112.092 330.357 112.092C330.988 112.092 331.596 112.162 332.204 112.303V114.15C331.596 114.057 331.082 114.01 330.684 114.01C329.351 114.01 328.766 114.594 328.766 115.927V117.564H332.157V119.459H328.766V129.421H326.568ZM341.436 117.541V119.529C341.108 119.459 340.734 119.435 340.336 119.435C338.068 119.435 336.805 120.722 336.805 123.411V129.421H334.607V117.564H336.805V119.693C337.366 118.219 338.676 117.377 340.383 117.377C340.781 117.377 341.132 117.424 341.436 117.541ZM342.741 123.505C342.741 120.09 345.196 117.237 348.891 117.237C352.54 117.237 355.018 120.09 355.018 123.505C355.018 126.942 352.54 129.749 348.891 129.749C345.196 129.749 342.741 126.942 342.741 123.505ZM352.727 123.505C352.727 121.002 351.207 119.272 348.891 119.272C347.745 119.272 346.81 119.669 346.085 120.464C345.383 121.236 345.033 122.265 345.033 123.505C345.033 124.744 345.383 125.75 346.085 126.545C346.81 127.316 347.745 127.714 348.891 127.714C350.037 127.714 350.973 127.316 351.674 126.545C352.376 125.75 352.727 124.744 352.727 123.505ZM376.111 121.774V129.421H373.913V122.288C373.913 120.207 373.212 119.272 371.528 119.272C369.587 119.272 368.277 120.488 368.277 122.429V129.421H366.079V122.288C366.079 120.207 365.354 119.272 363.67 119.272C361.729 119.272 360.419 120.488 360.419 122.429V129.421H358.221V117.564H360.419V119.506C361.074 118.079 362.501 117.237 364.278 117.237C366.079 117.237 367.365 118.102 367.926 119.669C368.581 118.173 370.125 117.237 372.089 117.237C374.685 117.237 376.111 118.874 376.111 121.774ZM252.943 147.505C252.943 143.88 255.445 141.237 259.07 141.237C261.245 141.237 263.069 142.196 264.074 143.856L262.367 145.026C261.642 143.903 260.496 143.272 259.093 143.272C256.778 143.272 255.234 144.979 255.234 147.505C255.234 150.03 256.778 151.714 259.093 151.714C260.496 151.714 261.642 151.106 262.367 149.96L264.074 151.153C263.069 152.813 261.245 153.749 259.07 153.749C255.445 153.749 252.943 151.106 252.943 147.505ZM265.983 147.505C265.983 144.09 268.439 141.237 272.134 141.237C275.782 141.237 278.261 144.09 278.261 147.505C278.261 150.942 275.782 153.749 272.134 153.749C268.439 153.749 265.983 150.942 265.983 147.505ZM275.969 147.505C275.969 145.002 274.449 143.272 272.134 143.272C270.988 143.272 270.052 143.669 269.327 144.464C268.626 145.236 268.275 146.265 268.275 147.505C268.275 148.744 268.626 149.75 269.327 150.545C270.052 151.316 270.988 151.714 272.134 151.714C273.279 151.714 274.215 151.316 274.916 150.545C275.618 149.75 275.969 148.744 275.969 147.505ZM299.354 145.774V153.421H297.155V146.288C297.155 144.207 296.454 143.272 294.77 143.272C292.829 143.272 291.519 144.488 291.519 146.429V153.421H289.321V146.288C289.321 144.207 288.596 143.272 286.912 143.272C284.971 143.272 283.662 144.488 283.662 146.429V153.421H281.463V141.564H283.662V143.506C284.316 142.079 285.743 141.237 287.52 141.237C289.321 141.237 290.607 142.102 291.169 143.669C291.823 142.173 293.367 141.237 295.331 141.237C297.927 141.237 299.354 142.874 299.354 145.774ZM321.187 145.774V153.421H318.988V146.288C318.988 144.207 318.287 143.272 316.603 143.272C314.662 143.272 313.352 144.488 313.352 146.429V153.421H311.154V146.288C311.154 144.207 310.429 143.272 308.745 143.272C306.804 143.272 305.495 144.488 305.495 146.429V153.421H303.296V141.564H305.495V143.506C306.149 142.079 307.576 141.237 309.353 141.237C311.154 141.237 312.44 142.102 313.001 143.669C313.656 142.173 315.2 141.237 317.164 141.237C319.76 141.237 321.187 142.874 321.187 145.774ZM324.895 148.978V141.564H327.094V148.814C327.094 150.708 328.169 151.714 330.064 151.714C331.958 151.714 333.034 150.708 333.034 148.814V141.564H335.232V148.978C335.232 150.428 334.764 151.597 333.829 152.462C332.893 153.328 331.631 153.749 330.064 153.749C326.977 153.749 324.895 151.831 324.895 148.978ZM349.491 145.797V153.421H347.293V146.335C347.293 144.207 346.474 143.272 344.697 143.272C342.662 143.272 341.236 144.488 341.236 146.429V153.421H339.037V141.564H341.236V143.506C341.914 142.079 343.411 141.237 345.282 141.237C347.924 141.237 349.491 142.897 349.491 145.797ZM353.074 137.753C353.074 136.911 353.683 136.279 354.548 136.279C355.413 136.279 356.021 136.911 356.021 137.753C356.021 138.594 355.413 139.226 354.548 139.226C353.683 139.226 353.074 138.594 353.074 137.753ZM353.449 153.421V141.564H355.647V153.421H353.449ZM360.595 150.264V143.459H358.256V141.564H360.595V138.057H362.793V141.564H366.418V143.459H362.793V150.054C362.793 151.199 363.331 151.667 364.641 151.667C365.179 151.667 365.787 151.597 366.465 151.457V153.304C365.787 153.515 365.062 153.608 364.29 153.608C361.834 153.608 360.595 152.486 360.595 150.264ZM377.318 141.564H379.516V152.252C379.516 156.251 377.388 158.426 373.646 158.426C371.612 158.426 369.811 157.794 368.688 156.672L369.881 155.105C370.84 155.947 372.173 156.415 373.553 156.415C375.985 156.415 377.318 155.035 377.318 152.252V151.129C376.64 152.556 375.12 153.398 373.225 153.398C370.606 153.398 369.063 151.761 369.063 148.838V141.564H371.261V148.3C371.261 150.451 372.079 151.363 373.833 151.363C375.891 151.363 377.318 150.1 377.318 148.206V141.564ZM382.753 147.621V145.634H389.558V147.621H382.753ZM392.775 153.421V136.303H394.973V153.421H392.775ZM409.721 148.159H400.413C400.67 150.428 402.144 151.761 404.365 151.761C405.839 151.761 407.078 151.176 408.037 150.007L409.464 151.27C408.318 152.86 406.494 153.749 404.319 153.749C400.67 153.749 398.168 151.199 398.168 147.528C398.168 143.903 400.647 141.237 404.132 141.237C407.429 141.237 409.791 143.622 409.791 147.107C409.791 147.458 409.768 147.809 409.721 148.159ZM400.46 146.476H407.569C407.382 144.418 406.073 143.248 404.132 143.248C402.144 143.248 400.811 144.441 400.46 146.476ZM422.037 136.303H424.235V153.421H422.037V151.316C421.359 152.813 419.675 153.749 417.734 153.749C414.53 153.749 412.145 151.153 412.145 147.505C412.145 143.833 414.53 141.237 417.734 141.237C419.675 141.237 421.359 142.173 422.037 143.669V136.303ZM422.131 147.505C422.131 145.002 420.611 143.272 418.295 143.272C417.149 143.272 416.214 143.669 415.489 144.464C414.787 145.236 414.437 146.265 414.437 147.505C414.437 148.744 414.787 149.75 415.489 150.545C416.214 151.316 417.149 151.714 418.295 151.714C419.441 151.714 420.377 151.316 421.078 150.545C421.78 149.75 422.131 148.744 422.131 147.505ZM252.685 174.246L254.135 173.007C255.001 174.199 256.38 174.808 257.994 174.808C259.584 174.808 260.543 174.153 260.543 173.147C260.543 172.375 259.982 171.861 258.579 171.557L256.684 171.136C254.252 170.551 253.106 169.499 253.106 167.815C253.106 165.687 254.907 164.237 257.807 164.237C259.888 164.237 261.549 164.985 262.554 166.225L261.151 167.558C260.286 166.646 259.14 166.202 257.713 166.202C256.123 166.202 255.305 166.786 255.305 167.745C255.305 168.47 255.796 168.891 257.292 169.242L259.374 169.709C261.736 170.247 262.741 171.3 262.741 172.983C262.741 175.299 260.987 176.749 257.994 176.749C255.585 176.749 253.621 175.766 252.685 174.246ZM276.508 171.159H267.2C267.458 173.428 268.931 174.761 271.153 174.761C272.626 174.761 273.865 174.176 274.824 173.007L276.251 174.27C275.105 175.86 273.281 176.749 271.106 176.749C267.458 176.749 264.955 174.199 264.955 170.528C264.955 166.903 267.434 164.237 270.919 164.237C274.216 164.237 276.578 166.622 276.578 170.107C276.578 170.458 276.555 170.809 276.508 171.159ZM267.247 169.476H274.356C274.169 167.418 272.86 166.248 270.919 166.248C268.931 166.248 267.598 167.441 267.247 169.476ZM278.675 174.246L280.125 173.007C280.99 174.199 282.37 174.808 283.983 174.808C285.574 174.808 286.532 174.153 286.532 173.147C286.532 172.375 285.971 171.861 284.568 171.557L282.674 171.136C280.242 170.551 279.096 169.499 279.096 167.815C279.096 165.687 280.896 164.237 283.796 164.237C285.878 164.237 287.538 164.985 288.544 166.225L287.141 167.558C286.275 166.646 285.129 166.202 283.703 166.202C282.113 166.202 281.294 166.786 281.294 167.745C281.294 168.47 281.785 168.891 283.282 169.242L285.363 169.709C287.725 170.247 288.731 171.3 288.731 172.983C288.731 175.299 286.977 176.749 283.983 176.749C281.575 176.749 279.61 175.766 278.675 174.246ZM290.665 174.246L292.115 173.007C292.98 174.199 294.36 174.808 295.973 174.808C297.564 174.808 298.522 174.153 298.522 173.147C298.522 172.375 297.961 171.861 296.558 171.557L294.664 171.136C292.232 170.551 291.086 169.499 291.086 167.815C291.086 165.687 292.886 164.237 295.786 164.237C297.868 164.237 299.528 164.985 300.534 166.225L299.13 167.558C298.265 166.646 297.119 166.202 295.693 166.202C294.102 166.202 293.284 166.786 293.284 167.745C293.284 168.47 293.775 168.891 295.272 169.242L297.353 169.709C299.715 170.247 300.721 171.3 300.721 172.983C300.721 175.299 298.967 176.749 295.973 176.749C293.565 176.749 291.6 175.766 290.665 174.246ZM303.402 160.753C303.402 159.911 304.01 159.279 304.876 159.279C305.741 159.279 306.349 159.911 306.349 160.753C306.349 161.594 305.741 162.226 304.876 162.226C304.01 162.226 303.402 161.594 303.402 160.753ZM303.776 176.421V164.564H305.975V176.421H303.776ZM309.192 170.505C309.192 167.09 311.648 164.237 315.343 164.237C318.991 164.237 321.47 167.09 321.47 170.505C321.47 173.942 318.991 176.749 315.343 176.749C311.648 176.749 309.192 173.942 309.192 170.505ZM319.178 170.505C319.178 168.002 317.658 166.272 315.343 166.272C314.197 166.272 313.261 166.669 312.536 167.464C311.835 168.236 311.484 169.265 311.484 170.505C311.484 171.744 311.835 172.75 312.536 173.545C313.261 174.316 314.197 174.714 315.343 174.714C316.489 174.714 317.424 174.316 318.126 173.545C318.827 172.75 319.178 171.744 319.178 170.505ZM335.126 168.797V176.421H332.928V169.335C332.928 167.207 332.109 166.272 330.332 166.272C328.297 166.272 326.871 167.488 326.871 169.429V176.421H324.673V164.564H326.871V166.506C327.549 165.079 329.046 164.237 330.917 164.237C333.559 164.237 335.126 165.897 335.126 168.797ZM337.985 174.246L339.434 173.007C340.3 174.199 341.68 174.808 343.293 174.808C344.883 174.808 345.842 174.153 345.842 173.147C345.842 172.375 345.281 171.861 343.878 171.557L341.984 171.136C339.551 170.551 338.405 169.499 338.405 167.815C338.405 165.687 340.206 164.237 343.106 164.237C345.187 164.237 346.848 164.985 347.853 166.225L346.45 167.558C345.585 166.646 344.439 166.202 343.013 166.202C341.422 166.202 340.604 166.786 340.604 167.745C340.604 168.47 341.095 168.891 342.592 169.242L344.673 169.709C347.035 170.247 348.04 171.3 348.04 172.983C348.04 175.299 346.287 176.749 343.293 176.749C340.884 176.749 338.92 175.766 337.985 174.246ZM365.491 164.564H367.689V176.421H365.491V174.316C364.813 175.813 363.152 176.749 361.211 176.749C357.984 176.749 355.599 174.153 355.599 170.505C355.599 166.833 357.984 164.237 361.211 164.237C363.152 164.237 364.813 165.173 365.491 166.669V164.564ZM365.584 170.505C365.584 168.002 364.064 166.272 361.749 166.272C360.603 166.272 359.668 166.669 358.943 167.464C358.241 168.236 357.89 169.265 357.89 170.505C357.89 171.744 358.241 172.75 358.943 173.545C359.668 174.316 360.603 174.714 361.749 174.714C362.895 174.714 363.83 174.316 364.532 173.545C365.233 172.75 365.584 171.744 365.584 170.505ZM382.172 168.797V176.421H379.974V169.335C379.974 167.207 379.155 166.272 377.378 166.272C375.343 166.272 373.917 167.488 373.917 169.429V176.421H371.718V164.564H373.917V166.506C374.595 165.079 376.091 164.237 377.962 164.237C380.605 164.237 382.172 165.897 382.172 168.797ZM395.18 159.303H397.378V176.421H395.18V174.316C394.502 175.813 392.818 176.749 390.877 176.749C387.673 176.749 385.288 174.153 385.288 170.505C385.288 166.833 387.673 164.237 390.877 164.237C392.818 164.237 394.502 165.173 395.18 166.669V159.303ZM395.273 170.505C395.273 168.002 393.753 166.272 391.438 166.272C390.292 166.272 389.357 166.669 388.632 167.464C387.93 168.236 387.579 169.265 387.579 170.505C387.579 171.744 387.93 172.75 388.632 173.545C389.357 174.316 390.292 174.714 391.438 174.714C392.584 174.714 393.519 174.316 394.221 173.545C394.923 172.75 395.273 171.744 395.273 170.505ZM417.486 171.159H408.178C408.435 173.428 409.909 174.761 412.13 174.761C413.604 174.761 414.843 174.176 415.802 173.007L417.228 174.27C416.082 175.86 414.258 176.749 412.083 176.749C408.435 176.749 405.933 174.199 405.933 170.528C405.933 166.903 408.412 164.237 411.896 164.237C415.194 164.237 417.556 166.622 417.556 170.107C417.556 170.458 417.532 170.809 417.486 171.159ZM408.225 169.476H415.334C415.147 167.418 413.837 166.248 411.896 166.248C409.909 166.248 408.576 167.441 408.225 169.476ZM430.207 176.421H427.728L424.524 171.791L421.321 176.421H418.842L423.074 170.341L419.075 164.564H421.531L424.524 168.961L427.518 164.564H429.973L425.974 170.341L430.207 176.421ZM444.717 170.505C444.717 174.153 442.378 176.749 439.151 176.749C437.186 176.749 435.526 175.813 434.848 174.316V181.098H432.65V164.564H434.848V166.669C435.526 165.173 437.186 164.237 439.151 164.237C442.378 164.237 444.717 166.833 444.717 170.505ZM442.448 170.505C442.448 169.265 442.097 168.236 441.372 167.464C440.671 166.669 439.735 166.272 438.59 166.272C436.274 166.272 434.754 168.002 434.754 170.505C434.754 171.744 435.105 172.75 435.807 173.545C436.508 174.316 437.444 174.714 438.59 174.714C439.735 174.714 440.671 174.316 441.372 173.545C442.097 172.75 442.448 171.744 442.448 170.505ZM457.025 164.564H459.223V176.421H457.025V174.316C456.346 175.813 454.686 176.749 452.745 176.749C449.518 176.749 447.132 174.153 447.132 170.505C447.132 166.833 449.518 164.237 452.745 164.237C454.686 164.237 456.346 165.173 457.025 166.669V164.564ZM457.118 170.505C457.118 168.002 455.598 166.272 453.283 166.272C452.137 166.272 451.201 166.669 450.477 167.464C449.775 168.236 449.424 169.265 449.424 170.505C449.424 171.744 449.775 172.75 450.477 173.545C451.201 174.316 452.137 174.714 453.283 174.714C454.429 174.714 455.364 174.316 456.066 173.545C456.767 172.75 457.118 171.744 457.118 170.505ZM473.706 168.797V176.421H471.507V169.335C471.507 167.207 470.689 166.272 468.912 166.272C466.877 166.272 465.45 167.488 465.45 169.429V176.421H463.252V164.564H465.45V166.506C466.129 165.079 467.625 164.237 469.496 164.237C472.139 164.237 473.706 165.897 473.706 168.797ZM486.714 159.303H488.912V176.421H486.714V174.316C486.036 175.813 484.352 176.749 482.411 176.749C479.207 176.749 476.821 174.153 476.821 170.505C476.821 166.833 479.207 164.237 482.411 164.237C484.352 164.237 486.036 165.173 486.714 166.669V159.303ZM486.807 170.505C486.807 168.002 485.287 166.272 482.972 166.272C481.826 166.272 480.891 166.669 480.166 167.464C479.464 168.236 479.113 169.265 479.113 170.505C479.113 171.744 479.464 172.75 480.166 173.545C480.891 174.316 481.826 174.714 482.972 174.714C484.118 174.714 485.053 174.316 485.755 173.545C486.456 172.75 486.807 171.744 486.807 170.505ZM261.736 187.564H263.934V198.252C263.934 202.251 261.806 204.426 258.064 204.426C256.03 204.426 254.229 203.794 253.106 202.672L254.299 201.105C255.258 201.947 256.591 202.415 257.971 202.415C260.403 202.415 261.736 201.035 261.736 198.252V197.129C261.058 198.556 259.538 199.398 257.643 199.398C255.024 199.398 253.481 197.761 253.481 194.838V187.564H255.679V194.3C255.679 196.451 256.497 197.363 258.251 197.363C260.309 197.363 261.736 196.1 261.736 194.206V187.564ZM267.148 193.505C267.148 190.09 269.603 187.237 273.298 187.237C276.946 187.237 279.425 190.09 279.425 193.505C279.425 196.942 276.946 199.749 273.298 199.749C269.603 199.749 267.148 196.942 267.148 193.505ZM277.134 193.505C277.134 191.002 275.613 189.272 273.298 189.272C272.152 189.272 271.217 189.669 270.492 190.464C269.79 191.236 269.44 192.265 269.44 193.505C269.44 194.744 269.79 195.75 270.492 196.545C271.217 197.316 272.152 197.714 273.298 197.714C274.444 197.714 275.38 197.316 276.081 196.545C276.783 195.75 277.134 194.744 277.134 193.505ZM282.394 194.978V187.564H284.593V194.814C284.593 196.708 285.668 197.714 287.563 197.714C289.457 197.714 290.533 196.708 290.533 194.814V187.564H292.731V194.978C292.731 196.428 292.263 197.597 291.328 198.462C290.392 199.328 289.129 199.749 287.563 199.749C284.476 199.749 282.394 197.831 282.394 194.978ZM303.365 187.541V189.529C303.038 189.459 302.663 189.435 302.266 189.435C299.997 189.435 298.735 190.722 298.735 193.411V199.421H296.536V187.564H298.735V189.693C299.296 188.219 300.606 187.377 302.313 187.377C302.71 187.377 303.061 187.424 303.365 187.541ZM319.519 199.421L315.403 194.159H313.602V199.421H311.404V182.303H313.602V192.218H315.473L319.425 187.564H321.998L317.203 193.2L322.091 199.421H319.519ZM334.875 191.797V199.421H332.677V192.335C332.677 190.207 331.858 189.272 330.081 189.272C328.046 189.272 326.62 190.488 326.62 192.429V199.421H324.421V187.564H326.62V189.506C327.298 188.079 328.794 187.237 330.665 187.237C333.308 187.237 334.875 188.897 334.875 191.797ZM337.991 193.505C337.991 190.09 340.446 187.237 344.141 187.237C347.789 187.237 350.268 190.09 350.268 193.505C350.268 196.942 347.789 199.749 344.141 199.749C340.446 199.749 337.991 196.942 337.991 193.505ZM347.976 193.505C347.976 191.002 346.456 189.272 344.141 189.272C342.995 189.272 342.06 189.669 341.335 190.464C340.633 191.236 340.282 192.265 340.282 193.505C340.282 194.744 340.633 195.75 341.335 196.545C342.06 197.316 342.995 197.714 344.141 197.714C345.287 197.714 346.222 197.316 346.924 196.545C347.626 195.75 347.976 194.744 347.976 193.505ZM368.115 187.564H370.337L366.502 199.421H364.07L361.03 190.137L357.989 199.421H355.581L351.745 187.564H353.967L356.843 196.802L359.884 187.564H362.199L365.216 196.779L368.115 187.564ZM372.837 199.421V182.303H375.036V199.421H372.837ZM389.783 194.159H380.476C380.733 196.428 382.206 197.761 384.428 197.761C385.901 197.761 387.141 197.176 388.1 196.007L389.526 197.27C388.38 198.86 386.556 199.749 384.381 199.749C380.733 199.749 378.231 197.199 378.231 193.528C378.231 189.903 380.71 187.237 384.194 187.237C387.492 187.237 389.854 189.622 389.854 193.107C389.854 193.458 389.83 193.809 389.783 194.159ZM380.523 192.476H387.632C387.445 190.418 386.135 189.248 384.194 189.248C382.206 189.248 380.873 190.441 380.523 192.476ZM402.1 182.303H404.298V199.421H402.1V197.316C401.422 198.813 399.738 199.749 397.797 199.749C394.593 199.749 392.207 197.153 392.207 193.505C392.207 189.833 394.593 187.237 397.797 187.237C399.738 187.237 401.422 188.173 402.1 189.669V182.303ZM402.193 193.505C402.193 191.002 400.673 189.272 398.358 189.272C397.212 189.272 396.277 189.669 395.552 190.464C394.85 191.236 394.499 192.265 394.499 193.505C394.499 194.744 394.85 195.75 395.552 196.545C396.277 197.316 397.212 197.714 398.358 197.714C399.504 197.714 400.439 197.316 401.141 196.545C401.842 195.75 402.193 194.744 402.193 193.505ZM417.401 187.564H419.599V198.065C419.599 202.157 417.331 204.426 413.379 204.426C411.134 204.426 409.169 203.701 407.953 202.485L409.146 200.871C410.245 201.83 411.742 202.415 413.332 202.415C415.951 202.415 417.401 200.941 417.401 198.065V197.036C416.723 198.509 415.086 199.398 413.121 199.398C409.894 199.398 407.509 196.895 407.509 193.317C407.509 189.763 409.894 187.237 413.121 187.237C415.062 187.237 416.723 188.173 417.401 189.646V187.564ZM417.495 193.317C417.495 192.125 417.144 191.166 416.442 190.418C415.741 189.646 414.805 189.272 413.659 189.272C412.513 189.272 411.578 189.646 410.853 190.418C410.151 191.166 409.801 192.125 409.801 193.317C409.801 195.726 411.344 197.387 413.659 197.387C414.805 197.387 415.741 197.012 416.442 196.241C417.144 195.469 417.495 194.51 417.495 193.317ZM434.363 194.159H425.055C425.312 196.428 426.786 197.761 429.007 197.761C430.481 197.761 431.72 197.176 432.679 196.007L434.105 197.27C432.96 198.86 431.135 199.749 428.961 199.749C425.312 199.749 422.81 197.199 422.81 193.528C422.81 189.903 425.289 187.237 428.774 187.237C432.071 187.237 434.433 189.622 434.433 193.107C434.433 193.458 434.41 193.809 434.363 194.159ZM425.102 192.476H432.211C432.024 190.418 430.715 189.248 428.774 189.248C426.786 189.248 425.453 190.441 425.102 192.476ZM436.473 198.065C436.473 197.153 437.081 196.568 438.017 196.568C438.952 196.568 439.537 197.153 439.537 198.065C439.537 199 438.952 199.632 438.017 199.632C437.081 199.632 436.473 199 436.473 198.065Z" fill="#303030"/>
<g clip-path="url(#clip0_66_4204)">
<path d="M105.163 240.014C133.003 221.588 137.756 227.69 162.738 239.038C189.802 251.331 206.217 239.958 207.983 220.491C211.595 180.667 158.201 198.202 163.859 155.944C168.027 124.808 153.475 111.055 133.855 107.795C114.44 104.569 87.2283 110.978 88.6495 140.496C89.4355 156.825 65.1497 163.374 49.3775 171.087C25.6606 182.684 29.0845 212.935 38.6998 226.644C54.8609 249.685 79.1358 257.24 105.163 240.014Z" fill="#E7F4FA"/>
<path d="M103.367 247.076H124.942V177.642H103.367V247.076Z" fill="#C9E1F9"/>
<path d="M94.5407 185.487H133.769L114.155 153.713L94.5407 185.487Z" fill="#C9E1F9"/>
<path d="M137.525 247.076H164.974V237.269H137.525V247.076Z" fill="#C9E1F9"/>
<path d="M137.525 247.076H148.879V168.416H137.525V247.076Z" fill="#C9E1F9"/>
<path d="M132.88 172.545H153.524L143.202 155.824L132.88 172.545Z" fill="#C9E1F9"/>
<path d="M202.011 199.936C209.298 201.317 215.568 195.048 214.187 187.76C213.415 183.688 210.132 180.404 206.06 179.633C198.773 178.252 192.503 184.522 193.884 191.809C194.656 195.88 197.939 199.164 202.011 199.936ZM181.619 192.851L181.489 187.101L188.357 185.39C188.87 185.263 189.268 184.879 189.455 184.385C189.559 184.109 189.672 183.836 189.792 183.568C190.008 183.082 189.978 182.521 189.68 182.08L185.755 176.281L189.692 172.089L195.72 175.642C196.251 175.955 196.895 175.958 197.453 175.697C197.824 175.525 198.203 175.365 198.59 175.222C199.182 175.001 199.639 174.521 199.778 173.906L201.322 167.052H207.073L208.62 173.918C208.765 174.562 209.204 175.111 209.817 175.353C210.072 175.455 210.325 175.562 210.573 175.676C211.166 175.948 211.859 175.889 212.421 175.558L218.306 172.089L222.244 176.281L218.623 181.631C218.179 182.287 218.095 183.121 218.403 183.85C218.431 183.914 218.458 183.98 218.484 184.045C218.778 184.771 219.419 185.299 220.188 185.455L226.453 186.719L226.582 192.467L219.889 194.135C219.267 194.29 218.786 194.755 218.549 195.352L218.538 195.381C218.295 195.991 218.34 196.675 218.707 197.219L222.408 202.688L218.472 206.879L212.915 203.604C212.378 203.287 211.722 203.298 211.168 203.584C210.843 203.753 210.51 203.911 210.171 204.056C209.64 204.285 209.236 204.732 209.109 205.297L207.662 211.72H201.911L200.594 205.876C200.456 205.263 199.986 204.796 199.387 204.609C198.866 204.446 198.358 204.257 197.863 204.043C197.349 203.821 196.767 203.834 196.285 204.118L190.582 207.48L186.644 203.289L189.955 198.395C190.324 197.85 190.342 197.158 190.052 196.568C189.854 196.165 189.672 195.751 189.508 195.328C189.283 194.746 188.802 194.3 188.189 194.177L181.619 192.851Z" fill="#C9E1F9"/>
<path d="M19.4101 235.506C25.3713 236.637 30.5017 231.508 29.3712 225.546C28.7395 222.215 26.0538 219.528 22.7227 218.898C16.7614 217.767 11.6316 222.897 12.761 228.858C13.3932 232.189 16.0789 234.876 19.4101 235.506ZM2.72747 229.71L2.6216 225.007L8.24008 223.607C8.65939 223.503 8.98479 223.189 9.13852 222.785C9.22285 222.559 9.31617 222.336 9.41367 222.117C9.59133 221.718 9.5662 221.26 9.32155 220.899L6.11065 216.155L9.33232 212.726L14.2635 215.633C14.6978 215.888 15.2248 215.891 15.6806 215.678C15.985 215.536 16.2955 215.406 16.6119 215.289C17.0958 215.108 17.4696 214.716 17.5833 214.212L18.8466 208.605H23.5511L24.8174 214.222C24.9352 214.748 25.2947 215.197 25.7966 215.396C26.0053 215.479 26.2117 215.566 26.4151 215.66C26.9002 215.883 27.466 215.835 27.9266 215.563L32.7412 212.726L35.9623 216.155L32.9996 220.532C32.6371 221.069 32.5689 221.75 32.8207 222.347L32.8859 222.506C33.127 223.101 33.6516 223.533 34.2808 223.659L39.4052 224.694L39.5117 229.397L34.0368 230.761C33.5266 230.888 33.1336 231.269 32.9398 231.757L32.9302 231.781C32.7316 232.279 32.7687 232.839 33.0696 233.283L36.0968 237.758L32.8764 241.187L28.3304 238.507C27.8907 238.248 27.3548 238.257 26.902 238.492C26.6352 238.63 26.3636 238.759 26.0861 238.878C25.6512 239.065 25.3205 239.432 25.217 239.893L24.0326 245.147H19.3281L18.2508 240.366C18.1378 239.865 17.7538 239.483 17.2633 239.33C16.838 239.197 16.4217 239.042 16.0167 238.866C15.5968 238.685 15.1201 238.696 14.7259 238.929L10.0597 241.679L6.8386 238.25L9.54766 234.246C9.84853 233.801 9.86407 233.234 9.62661 232.752C9.46451 232.421 9.31557 232.084 9.18158 231.738C8.99735 231.261 8.60376 230.896 8.10191 230.795L2.72747 229.71Z" fill="#C9E1F9"/>
<path d="M72.4564 212.507C73.5074 213.643 80.9634 228.973 86.092 229.222C89.8096 229.402 93.4912 217.884 93.4912 217.884C93.4912 217.884 88.4661 218.683 83.7305 205.524C79.7408 194.437 72.4564 212.507 72.4564 212.507Z" fill="#FBB99D"/>
<path d="M87.5236 229.253C96.0461 228.944 119.392 218.193 119.392 218.193L114.733 214.99L85.7016 218.945C85.7016 218.945 79.0023 229.557 87.5236 229.253Z" fill="#FBB99D"/>
<path d="M113.336 214.444C113.654 213.926 113.684 213.17 113.863 212.597C114.218 211.456 114.916 210.487 115.619 209.547C116.011 209.024 116.231 207.454 117.062 207.446C118.42 207.435 117.357 209.947 117.319 210.566C117.284 211.137 117.518 211.785 118.045 211.974C118.392 212.099 118.776 211.997 119.126 211.875C120.242 211.488 121.284 210.921 122.352 210.419C122.909 210.158 123.473 209.94 124.042 209.714C124.467 209.547 124.973 209.151 125.417 209.102C125.77 209.063 126.181 209.334 126.135 209.736C126.094 210.097 125.747 210.141 125.49 210.301C124.912 210.659 124.344 211.033 123.779 211.413C123.654 211.497 123.037 211.794 123.022 211.962C122.945 212.777 124.609 212.002 124.877 211.891C125.553 211.614 126.27 211.349 127.01 211.518C127.107 211.54 127.212 211.579 127.254 211.671C127.321 211.816 127.189 211.973 127.065 212.071C126.329 212.647 125.406 212.938 124.684 213.531C124.566 213.628 124.443 213.763 124.472 213.914C124.583 214.52 125.767 214.246 126.162 214.191C126.411 214.156 126.726 214.137 126.85 214.36C126.931 214.505 126.882 214.698 126.777 214.828C126.672 214.958 126.52 215.038 126.374 215.114C125.942 215.34 125.51 215.616 125.054 215.786C124.834 215.867 124.163 216.05 124.205 216.375C124.213 216.438 124.261 216.489 124.313 216.525C124.503 216.655 124.751 216.633 124.979 216.641C125.208 216.65 125.472 216.721 125.557 216.938C125.662 217.207 125.421 217.482 125.186 217.647C124.347 218.238 123.297 218.523 122.334 218.832C121.305 219.165 120.261 219.45 119.207 219.685C117.225 220.128 115.142 220.144 113.208 220.769C112.918 220.863 112.626 220.97 112.321 220.987C111.743 221.019 111.194 220.721 110.75 220.345C109.917 219.64 109.333 218.531 109.371 217.408C109.384 217.052 109.354 216.325 109.644 216.115C109.855 215.962 110.354 215.977 110.607 215.928C110.972 215.856 111.335 215.777 111.688 215.653C112.289 215.441 112.884 215.069 113.336 214.444Z" fill="#FBB99D"/>
<path d="M68.9156 184.683C65.0623 180.083 59.7369 177.196 55.6814 180.383C53.3809 182.192 52.6111 188.08 53.918 191.723C56.4279 198.725 65.3751 213.704 75.6856 221.044C79.4623 223.733 90.1903 218.411 86.9746 211.057C82.754 201.404 74.3421 191.161 68.9156 184.683Z" fill="#ED3748"/>
<path d="M1.65636 247.808C-7.63242 249.781 21.1748 252.424 114.462 251.757C241.045 250.852 220.34 247.603 226.007 247.348C255.27 246.041 187.712 244.773 115.748 244.773C43.7852 244.773 5.33443 247.029 1.65636 247.808Z" fill="#D3E5F2"/>
<path d="M119.284 211.371C119.284 212.546 118.329 213.502 117.154 213.502C115.979 213.502 115.023 212.546 115.023 211.371C115.023 210.196 115.979 209.241 117.154 209.241C118.329 209.241 119.284 210.196 119.284 211.371ZM119.791 211.371C119.791 209.918 118.607 208.735 117.154 208.735C115.701 208.735 114.518 209.918 114.518 211.371C114.518 212.824 115.701 214.008 117.154 214.008C118.607 214.008 119.791 212.824 119.791 211.371Z" fill="#2C4A7E"/>
<path d="M154.73 182.857C154.73 182.857 108.311 216.934 116.637 222.863C132.711 234.31 163.507 203.912 163.507 203.912L154.73 182.857Z" fill="#FDD95F"/>
<path d="M104.71 188.947C104.824 188.336 105.332 187.676 105.595 187.094C106.116 185.933 106.246 184.733 106.352 183.555C106.41 182.9 107.342 181.447 106.689 180.994C105.619 180.252 104.692 182.96 104.286 183.506C103.911 184.009 103.269 184.434 102.718 184.312C102.354 184.231 102.122 183.936 101.93 183.645C101.318 182.714 100.892 181.671 100.398 180.67C100.141 180.148 99.8478 179.658 99.5553 179.16C99.3364 178.789 99.2144 178.18 98.8955 177.899C98.6443 177.676 98.1275 177.684 97.8805 178.051C97.658 178.38 97.9026 178.603 97.9941 178.878C98.1999 179.494 98.3859 180.119 98.5672 180.745C98.6066 180.883 98.8866 181.468 98.7801 181.619C98.2663 182.354 97.4935 180.798 97.3583 180.56C97.0185 179.959 96.6369 179.349 95.9305 179.093C95.8384 179.06 95.7271 179.038 95.629 179.093C95.4735 179.179 95.4675 179.384 95.4974 179.535C95.6751 180.421 96.2014 181.165 96.3558 182.058C96.3803 182.204 96.3833 182.384 96.2553 182.497C95.7397 182.952 94.9932 182.082 94.7186 181.821C94.5457 181.658 94.3095 181.472 94.0547 181.594C93.8872 181.674 93.7897 181.865 93.7831 182.031C93.7747 182.199 93.8381 182.348 93.9003 182.491C94.0828 182.917 94.2323 183.384 94.4734 183.774C94.5894 183.962 94.9938 184.479 94.7318 184.731C94.6809 184.782 94.6068 184.799 94.5398 184.801C94.2981 184.809 94.1163 184.658 93.9302 184.541C93.7424 184.425 93.4822 184.344 93.2615 184.483C92.9893 184.654 92.9869 185.018 93.0569 185.285C93.307 186.239 93.9374 187.046 94.4817 187.828C95.0637 188.665 95.6918 189.469 96.3611 190.237C97.2506 191.259 98.2154 192.217 99.2478 193.104C100.147 193.879 101.246 194.7 102.638 194.629C103.031 194.609 103.429 194.512 103.823 194.406C104.339 194.266 104.863 194.105 105.339 193.829C105.817 193.552 106.249 193.145 106.451 192.658C106.479 192.592 106.502 192.522 106.495 192.457C106.487 192.372 106.43 192.31 106.375 192.251C105.955 191.801 105.501 191.379 105.165 190.863C104.838 190.359 104.628 189.722 104.71 188.947Z" fill="#CC8B6E"/>
<path d="M126.598 213.679C127.986 215.733 130.332 221.439 127.504 224.042C124.675 226.644 116.64 225.063 110.612 217.529C104.584 209.995 99.8029 193.875 99.8029 193.875L105.512 190.629C105.512 190.629 122.226 207.208 126.598 213.679Z" fill="#FDD95F"/>
<path d="M149.824 189.486C153.725 176.993 172.525 176.349 187.816 178.664C198.124 180.225 204.757 183.572 205.902 196.448C206.633 204.658 205.035 238.939 200.004 248.447H142.574C142.574 248.447 141.487 216.188 149.824 189.486Z" fill="#FEB824"/>
<path d="M186.179 162.049C186.179 162.049 170.432 165.432 171.309 166.718C172.19 168.004 170.653 170.597 170.613 173.106C170.563 175.829 168.755 178.711 166.33 181.461C164.632 183.385 167.649 185.685 170.332 186.19C181.892 188.364 189.19 184.044 186.747 180.302C181.254 171.895 186.179 162.049 186.179 162.049Z" fill="#CC8B6E"/>
<path d="M170.614 173.106C170.653 170.597 172.19 168.004 171.309 166.718C170.432 165.432 187.422 161.785 187.422 161.785C187.422 161.785 184.843 164.424 184.403 168.388C179.684 174.77 172.952 176.743 168.688 178.403C169.773 176.907 170.595 174.09 170.614 173.106Z" fill="#8B482A"/>
<path d="M170.332 143.898C164.136 148.58 158.85 164.751 165.335 172.453C168.896 176.684 181.853 172.191 187.93 162.983C188.721 161.786 190.658 154.938 187.422 147.467C185.968 144.083 176.773 139.031 170.332 143.898Z" fill="#CC8B6E"/>
<path d="M163.177 156.631C163.185 157.624 166.349 141.622 175.8 148.194C177.058 149.069 186.254 146.361 182.337 158.439C182.118 159.117 182.864 159.96 183.185 160.588C183.585 161.36 182.342 163.129 182.361 163.997C182.378 164.836 184.897 162.265 184.847 163.1C184.772 164.368 182.579 167.902 184.402 168.388C185.285 168.624 186.362 167.201 187.01 166.722C188.839 165.371 189.446 164.806 190.993 163.077C192.699 161.169 193.664 158.586 194.635 156.218C196.484 151.709 198.044 147.056 195.727 145.004C189.23 139.249 176.944 135.687 172.156 136.251C168.941 136.63 163.486 153.081 163.419 154.038C163.358 154.907 163.169 155.747 163.177 156.631Z" fill="#53424D"/>
<path d="M180.824 162.048C180.824 162.048 185.297 158.112 187.763 159.245C190.234 160.385 186.767 167.102 181.673 166.172C176.591 165.245 179.448 163.112 180.824 162.048Z" fill="#CC8B6E"/>
<path d="M176.1 160.271C176.216 160.212 175.972 160.325 175.929 160.34C175.737 160.404 175.549 160.461 175.345 160.479C174.566 160.548 174.214 160.034 174.032 159.373C173.917 158.958 173.265 159.187 173.379 159.599C173.782 161.064 175.159 161.5 176.5 160.819C176.894 160.619 176.491 160.072 176.1 160.271Z" fill="#1E100C"/>
<path d="M168.888 157.661C168.704 157.832 168.469 157.985 168.236 158.086C167.472 158.414 167.046 157.941 166.773 157.262C166.611 156.861 165.959 157.087 166.12 157.489C166.444 158.29 167.026 159.011 168.014 158.848C168.546 158.761 169.039 158.451 169.419 158.095C169.739 157.796 169.205 157.366 168.888 157.661Z" fill="#1E100C"/>
<path d="M167.66 154.128C168.796 153.901 169.697 154.477 170.101 155.552C170.289 156.055 171.046 155.706 170.859 155.206C170.326 153.787 169.038 153.003 167.519 153.307C166.993 153.412 167.133 154.234 167.66 154.128Z" fill="#552B19"/>
<path d="M174.316 156.962C175.347 156.436 176.372 156.747 177.051 157.673C177.369 158.106 178.003 157.564 177.687 157.134C176.789 155.912 175.338 155.507 173.957 156.211C173.48 156.455 173.837 157.207 174.316 156.962Z" fill="#552B19"/>
<path d="M171.484 157.064C171.623 157.815 171.634 158.668 171.337 159.374C170.903 160.403 169.647 160.741 168.889 161.544C167.848 162.647 168.666 163.469 170.085 164.048C170.428 164.187 170.648 163.759 170.305 163.619C167.126 162.321 171.143 161.058 171.797 159.743C172.206 158.923 172.224 157.92 172.058 157.023C172.001 156.718 171.427 156.757 171.484 157.064Z" fill="#8B482A"/>
<path d="M172.692 165.745C172.692 165.745 172.596 168.61 170.236 168.368C167.877 168.125 167.892 165.55 167.892 165.55L172.692 165.745Z" fill="#FAFFFF"/>
<path d="M177.223 165.509C176.847 166.318 175.885 166.669 175.076 166.292C174.266 165.916 173.915 164.954 174.291 164.145C174.668 163.335 175.63 162.984 176.44 163.361C177.25 163.737 177.6 164.699 177.223 165.509Z" fill="#C1775D"/>
<path d="M164.18 160.059C164.942 159.574 165.954 159.799 166.438 160.562C166.923 161.325 166.699 162.336 165.936 162.822C165.173 163.306 164.161 163.082 163.676 162.318C163.191 161.556 163.416 160.544 164.18 160.059Z" fill="#C1775D"/>
<path d="M68.3812 184.324C64.6499 172.114 44.5232 176.188 30.7823 178.704C21.5205 180.401 15.8649 185.155 17.1449 203.623C18.2784 219.969 19.1649 232.705 20.8224 244.232C22.0008 252.425 78.8292 253.696 76.8751 242.4C76.8751 242.4 76.3553 210.42 68.3812 184.324Z" fill="#FF4650"/>
<path d="M34.4402 178.47C34.4402 178.47 44.025 192.296 55.7752 188.828C61.234 187.216 61.6952 182.397 57.4082 179.142C53.1894 175.938 34.4402 178.47 34.4402 178.47Z" fill="#FBB99D"/>
<path d="M57.1928 142.363C56.0025 140.651 54.4706 139.126 52.6109 137.859C49.9336 136.034 46.9123 135.516 43.7241 135.737C40.0317 135.992 31.3907 139.547 29.5981 149.379C28.7457 154.052 30.6413 158.975 33.2815 162.765C36.0659 166.764 40.7202 167.97 45.3912 168.414C47.3065 168.595 49.2822 168.579 51.0976 167.943C53.434 167.125 55.3266 165.337 56.749 163.311C58.294 161.113 59.3653 158.585 59.8714 155.946C60.8177 151.011 59.8696 146.215 57.1928 142.363Z" fill="#53424D"/>
<path d="M59.4019 181.259C59.4019 181.259 53.9323 174.242 53.7391 165.787C53.6907 163.659 50.4068 163.386 51.1198 162.325C51.8292 161.263 40.7256 159.02 40.7256 159.02C40.7256 159.02 42.2886 171.945 34.4402 178.47L59.4019 181.259Z" fill="#FBB99D"/>
<path d="M53.7887 167.191C53.8605 164.587 51.1527 161.805 52.0248 160.506C52.8927 159.207 39.3062 156.462 39.3062 156.462C39.3062 156.462 41.1844 159.202 41.4224 163.329C45.9971 168.221 50.731 169.934 54.479 170.834L53.7887 167.191Z" fill="#DC8162"/>
<path d="M50.0407 138.876C54.9025 142.419 65.4133 157.554 58.1068 166.068C54.9851 169.706 44.4396 166.218 38.2427 158.88C35.6927 155.87 34.6483 148.618 37.0212 141.946C38.0854 138.925 44.4366 134.702 50.0407 138.876Z" fill="#FBB99D"/>
<path d="M36.163 137.377C37.4077 137.977 38.479 138.924 39.259 140.063C40.0193 141.171 41.0296 143.156 40.4524 144.493C40.0181 145.501 39.1352 146.236 38.4946 147.127C37.9299 147.911 37.5513 148.819 36.9681 149.592C35.9476 150.942 34.4355 151.858 33.0962 152.853C31.7928 153.822 30.4039 153.554 28.9229 152.998C26.5327 152.101 24.3195 150.381 23.4635 147.976C22.5346 145.366 24.3883 142.666 25.9985 140.741C26.3885 140.275 26.8048 139.828 27.1284 139.313C28.7745 136.698 32.8241 136.092 35.5648 137.121C35.7682 137.198 35.968 137.283 36.163 137.377Z" fill="#53424D"/>
<path d="M57.6761 145.114C56.981 146.814 56.5408 144.316 52.5307 143.223C52.042 143.089 51.5061 143.045 50.9959 143.013C50.5658 142.986 50.1172 143.001 49.705 143.137C48.8102 143.43 48.4483 144.261 48.4118 145.148C48.3395 147.076 47.4805 148.6 46.3721 150.127C45.1596 151.795 44.144 153.466 43.809 155.539C43.7121 156.153 43.7235 156.73 43.4812 157.293C43.1798 157.985 43.038 158.741 43.0679 159.5C43.0978 160.233 43.2886 160.949 43.3766 161.675C43.5075 162.778 43.3036 163.524 42.5313 164.269C42.2239 164.57 41.8782 164.828 41.5103 165.05C40.7524 165.511 39.8893 165.804 39.0064 165.893C36.9506 166.1 35.052 165.133 33.8276 163.503C31.737 160.711 31.5205 156.795 31.6616 153.449C31.7645 151.08 32.1013 148.719 32.5631 146.397C32.9937 144.238 34.0902 142.332 35.6813 140.783C37.7688 138.753 40.573 137.466 43.4208 136.97C44.8713 136.718 46.3619 136.665 47.8292 136.834C54.7888 137.652 58.2276 143.774 57.6761 145.114Z" fill="#53424D"/>
<path d="M44.2815 157.726C44.2815 157.726 40.2385 154.505 38.1857 155.61C36.1304 156.722 39.4585 162.418 43.7736 161.365C48.078 160.314 45.5155 158.589 44.2815 157.726Z" fill="#FBB99D"/>
<path d="M48.4186 155.505C48.3223 155.437 48.5275 155.569 48.5658 155.588C48.7303 155.67 48.8942 155.746 49.0748 155.786C49.7699 155.946 50.1521 155.525 50.3991 154.951C50.5541 154.591 51.1145 154.878 50.9602 155.237C50.4135 156.509 49.1167 156.732 47.9898 155.95C47.659 155.72 48.0908 155.277 48.4186 155.505Z" fill="#1E100C"/>
<path d="M55.2567 154.045C55.4021 154.224 55.5953 154.391 55.7927 154.51C56.4417 154.901 56.8843 154.527 57.2163 153.948C57.4119 153.607 57.9736 153.891 57.7774 154.234C57.3862 154.918 56.7701 155.496 55.8986 155.226C55.4284 155.081 55.0229 154.74 54.7232 154.372C54.4714 154.062 55.0073 153.739 55.2567 154.045Z" fill="#1E100C"/>
<path d="M56.8054 151.008C55.8083 150.662 54.9224 151.07 54.4248 151.99C54.1915 152.421 53.5514 152.012 53.7823 151.584C54.4403 150.367 55.7012 149.821 57.0351 150.285C57.4963 150.445 57.2678 151.169 56.8054 151.008Z" fill="#513D38"/>
<path d="M50.4422 152.74C49.5761 152.136 48.6131 152.289 47.8839 153.04C47.543 153.392 47.0375 152.824 47.3767 152.475C48.3391 151.483 49.7005 151.297 50.8598 152.105C51.2605 152.385 50.8436 153.019 50.4422 152.74Z" fill="#513D38"/>
<path d="M52.9867 153.183C52.7678 153.844 52.6517 154.614 52.8324 155.288C53.0961 156.27 54.1878 156.732 54.7722 157.552C55.5755 158.677 54.7339 159.317 53.3815 159.663C53.0549 159.747 52.9089 159.333 53.2349 159.249C56.2682 158.473 52.7989 156.833 52.3706 155.564C52.1032 154.771 52.2121 153.865 52.4735 153.075C52.562 152.807 53.0764 152.914 52.9867 153.183Z" fill="#DC8162"/>
<path d="M50.816 160.873C50.816 160.873 50.5463 163.471 52.7074 163.546C54.8674 163.621 55.1748 161.293 55.1748 161.293L50.816 160.873Z" fill="#FAFFFF"/>
<path d="M46.6816 159.862C46.9215 160.641 47.7463 161.077 48.5239 160.838C49.3021 160.598 49.7394 159.773 49.4989 158.995C49.2597 158.217 48.4348 157.78 47.6566 158.02C46.8784 158.26 46.4424 159.084 46.6816 159.862Z" fill="#F3A498"/>
<path d="M58.6249 157.629C57.9969 157.095 57.0554 157.173 56.5224 157.802C55.99 158.43 56.0672 159.371 56.6959 159.904C57.3239 160.437 58.2654 160.359 58.7984 159.731C59.3313 159.103 59.2536 158.162 58.6249 157.629Z" fill="#F3A498"/>
<path d="M42.7155 160.655C41.5084 162.341 39.3771 166.686 43.3112 166.299C46.1106 166.023 44.48 162.924 43.508 161.534C43.2747 161.201 43.8077 160.864 44.0392 161.195C45.4825 163.258 46.6914 167.05 42.853 166.936C38.6743 166.812 40.8079 162.243 42.2507 160.228C42.487 159.898 42.9481 160.329 42.7155 160.655Z" fill="#FB8245"/>
<path d="M149.423 235.304C158.094 237.93 166.526 231.131 165.796 222.101C165.389 217.055 161.828 212.639 156.984 211.172C148.312 208.546 139.881 215.345 140.61 224.376C141.017 229.421 144.578 233.836 149.423 235.304ZM125.577 224.044L126.169 217.044L134.732 215.861C135.371 215.772 135.905 215.358 136.197 214.782C136.359 214.46 136.532 214.144 136.712 213.834C137.038 213.271 137.074 212.586 136.769 212.011L132.758 204.457L138.085 199.879L144.944 204.979C145.548 205.427 146.33 205.515 147.041 205.271C147.515 205.11 147.997 204.966 148.485 204.842C149.232 204.651 149.85 204.128 150.099 203.399L152.866 195.275L159.851 196.023L160.837 204.564C160.929 205.365 161.391 206.088 162.104 206.463C162.401 206.619 162.693 206.782 162.98 206.953C163.665 207.361 164.513 207.38 165.24 207.05L172.839 203.604L177.076 209.207L171.981 215.234C171.357 215.972 171.147 216.974 171.426 217.901C171.45 217.982 171.475 218.065 171.498 218.147C171.762 219.068 172.472 219.793 173.385 220.081L180.829 222.432L180.238 229.432L171.893 230.586C171.116 230.693 170.472 231.195 170.106 231.889L170.088 231.923C169.714 232.632 169.68 233.47 170.055 234.177L173.839 241.301L168.512 245.879L162.188 241.179C161.578 240.724 160.78 240.651 160.07 240.928C159.652 241.09 159.228 241.238 158.797 241.371C158.123 241.579 157.574 242.071 157.346 242.739L154.752 250.352L147.767 249.603L146.928 242.334C146.84 241.572 146.331 240.944 145.627 240.638C145.016 240.373 144.424 240.078 143.85 239.753C143.255 239.415 142.546 239.356 141.923 239.639L134.558 242.979L130.322 237.376L134.981 231.863C135.499 231.25 135.612 230.412 135.336 229.657C135.148 229.141 134.981 228.616 134.837 228.081C134.639 227.343 134.113 226.74 133.384 226.509L125.577 224.044Z" fill="#3CA8B2"/>
<path d="M81.2144 235.121C88.3564 236.474 94.5024 230.329 93.1482 223.186C92.3915 219.196 89.1734 215.977 85.1831 215.22C78.0406 213.867 71.8951 220.012 73.2487 227.154C74.0054 231.145 77.2235 234.363 81.2144 235.121ZM61.227 228.175L61.1002 222.541L67.8312 220.864C68.3343 220.738 68.7237 220.362 68.9079 219.878C69.0102 219.607 69.1202 219.341 69.2375 219.077C69.4504 218.601 69.4199 218.052 69.128 217.618L65.2807 211.935L69.1394 207.827L75.0486 211.309C75.5684 211.615 76.1994 211.618 76.7461 211.363C77.1104 211.194 77.4825 211.037 77.8611 210.897C78.4413 210.681 78.8893 210.211 79.0257 209.607L80.539 202.89H86.1755L87.6918 209.619C87.8336 210.25 88.2649 210.788 88.866 211.026C89.116 211.126 89.3631 211.23 89.6065 211.343C90.1879 211.609 90.8668 211.551 91.4171 211.226L97.1858 207.827L101.046 211.935L97.4962 217.179C97.0607 217.822 96.9788 218.638 97.2809 219.353C97.3072 219.417 97.3341 219.481 97.3592 219.545C97.6481 220.256 98.2768 220.774 99.0305 220.926L105.171 222.166L105.297 227.8L98.738 229.435C98.1267 229.586 97.6559 230.043 97.4238 230.627L97.4125 230.656C97.1738 231.253 97.2193 231.925 97.5787 232.457L101.207 237.817L97.3479 241.925L91.9016 238.716C91.3747 238.405 90.7322 238.415 90.1897 238.696C89.8703 238.862 89.5449 239.016 89.2123 239.159C88.6919 239.382 88.2959 239.821 88.1715 240.375L86.7527 246.669H81.1163L79.8255 240.942C79.6897 240.341 79.2297 239.884 78.6417 239.7C78.1321 239.54 77.6338 239.356 77.1487 239.145C76.6451 238.928 76.0744 238.94 75.6019 239.219L70.0115 242.514L66.1528 238.406L69.3984 233.61C69.7591 233.076 69.777 232.397 69.4929 231.819C69.2985 231.423 69.1202 231.018 68.9599 230.604C68.7386 230.033 68.2667 229.596 67.6661 229.475L61.227 228.175Z" fill="#5969B2"/>
<path d="M30.2106 223.347C31.0343 224.874 34.8027 243.509 40.3314 245.294C44.3379 246.588 51.6426 235.335 51.6426 235.335C51.6426 235.335 45.9284 234.704 44.5102 219.202C43.3144 206.141 30.2106 223.347 30.2106 223.347Z" fill="#FBB99D"/>
<path d="M41.8848 245.751C51.2771 247.942 79.8301 243.333 79.8301 243.333L75.6579 238.521L42.8347 234.166C42.8347 234.166 32.4955 243.553 41.8848 245.751Z" fill="#FBB99D"/>
<path d="M74.2881 237.524C74.7828 237.062 75.0316 236.26 75.3899 235.7C76.1023 234.583 77.1413 233.751 78.1779 232.952C78.7539 232.507 79.4424 230.89 80.3498 231.128C81.8374 231.518 79.9598 233.894 79.7421 234.548C79.5411 235.147 79.6123 235.912 80.1327 236.272C80.4766 236.508 80.9252 236.511 81.3422 236.485C82.6707 236.399 83.9698 236.1 85.2792 235.879C85.9605 235.764 86.6388 235.697 87.3255 235.625C87.8369 235.57 88.5015 235.297 89.001 235.375C89.3969 235.438 89.769 235.85 89.6039 236.267C89.4561 236.642 89.065 236.587 88.7384 236.681C88.005 236.894 87.2783 237.127 86.5533 237.367C86.3936 237.419 85.6351 237.555 85.5699 237.73C85.2541 238.582 87.292 238.243 87.6162 238.205C88.4333 238.107 89.2911 238.035 90.0513 238.435C90.1506 238.488 90.2541 238.562 90.2738 238.672C90.3055 238.847 90.1171 238.976 89.9526 239.045C88.9848 239.444 87.895 239.482 86.9373 239.905C86.7806 239.973 86.6083 240.081 86.5964 240.252C86.5455 240.933 87.9159 240.991 88.3627 241.049C88.6456 241.084 88.9938 241.158 89.0661 241.433C89.1134 241.614 89.0051 241.806 88.8526 241.913C88.7007 242.02 88.5134 242.062 88.331 242.101C87.7957 242.215 87.2448 242.383 86.6986 242.43C86.4349 242.452 85.6507 242.449 85.604 242.809C85.5945 242.879 85.6321 242.949 85.6788 243.002C85.8493 243.198 86.1262 243.248 86.3738 243.324C86.6209 243.402 86.8883 243.556 86.9194 243.814C86.9577 244.132 86.6155 244.356 86.3122 244.463C85.2272 244.847 84.0004 244.842 82.8609 244.89C81.6424 244.941 80.4216 244.937 79.2031 244.877C76.9134 244.766 74.635 244.166 72.3459 244.263C72.0007 244.277 71.652 244.306 71.3146 244.233C70.6746 244.096 70.1596 243.615 69.7828 243.08C69.074 242.079 68.7527 240.718 69.1146 239.525C69.2295 239.147 69.4041 238.36 69.781 238.221C70.0549 238.12 70.5945 238.284 70.8858 238.305C71.3045 238.336 71.7244 238.359 72.1437 238.33C72.8609 238.282 73.617 238.06 74.2881 237.524Z" fill="#FBB99D"/>
<path d="M34.2774 192.484C31.3817 186.414 26.3907 181.745 21.0552 183.96C18.0267 185.216 15.5091 191.298 15.8967 195.588C16.6408 203.834 22.1372 222.533 31.301 233.45C34.6579 237.449 47.8873 234.923 46.4738 226.091C44.6178 214.497 38.3545 201.032 34.2774 192.484Z" fill="#ED3748"/>
<path d="M191.678 186.861C177.756 195.226 196.966 225.021 196.966 225.021L214.551 214.08C214.551 214.08 208.177 176.949 191.678 186.861Z" fill="#FDD95F"/>
<path d="M188.034 201.887C188.034 201.887 205.264 256.833 213.566 250.874C229.597 239.365 210.796 200.392 210.796 200.392L188.034 201.887Z" fill="#FDD95F"/>
<path d="M180.14 230.453C179.88 229.888 179.916 229.056 179.795 228.429C179.552 227.179 178.967 226.125 178.374 225.101C178.043 224.532 177.967 222.808 177.172 222.814C175.871 222.824 176.674 225.571 176.657 226.252C176.641 226.878 176.36 227.597 175.84 227.814C175.496 227.958 175.137 227.85 174.811 227.723C173.775 227.315 172.826 226.708 171.845 226.175C171.334 225.896 170.812 225.665 170.286 225.427C169.893 225.249 169.442 224.823 169.02 224.777C168.686 224.739 168.268 225.044 168.278 225.486C168.286 225.883 168.615 225.925 168.848 226.096C169.371 226.48 169.883 226.884 170.392 227.293C170.504 227.382 171.07 227.698 171.071 227.884C171.073 228.78 169.545 227.954 169.298 227.837C168.674 227.542 168.01 227.263 167.285 227.461C167.191 227.488 167.087 227.533 167.038 227.634C166.962 227.796 167.075 227.966 167.186 228.072C167.842 228.694 168.701 228.997 169.343 229.64C169.446 229.744 169.552 229.889 169.513 230.056C169.353 230.724 168.242 230.444 167.868 230.39C167.632 230.355 167.333 230.34 167.195 230.587C167.104 230.749 167.134 230.961 167.224 231.1C167.314 231.242 167.452 231.327 167.586 231.41C167.98 231.651 168.371 231.947 168.792 232.126C168.996 232.213 169.624 232.403 169.556 232.76C169.543 232.83 169.493 232.887 169.439 232.927C169.246 233.074 169.011 233.054 168.791 233.067C168.571 233.08 168.311 233.164 168.211 233.404C168.088 233.701 168.295 234 168.506 234.178C169.26 234.813 170.241 235.109 171.137 235.435C172.095 235.783 173.071 236.078 174.061 236.32C175.377 236.641 176.717 236.869 178.073 236.998C179.254 237.113 180.625 237.15 181.722 236.29C182.031 236.047 182.301 235.739 182.562 235.426C182.903 235.013 183.238 234.58 183.468 234.08C183.698 233.579 183.817 232.995 183.702 232.482C183.687 232.412 183.665 232.34 183.622 232.291C183.566 232.229 183.483 232.21 183.405 232.193C182.802 232.067 182.188 231.984 181.617 231.756C181.057 231.533 180.519 231.134 180.14 230.453Z" fill="#CC8B6E"/>
<path d="M212.282 238.045C214.599 238.924 219.805 242.235 218.995 245.992C218.184 249.749 210.707 253.088 201.438 250.407C192.17 247.725 178.97 237.308 178.97 237.308L181.764 231.365C181.764 231.365 204.979 235.277 212.282 238.045Z" fill="#FDD95F"/>
<path d="M70.4506 155.276C71.1157 155.276 71.7354 155.523 72.266 155.943C73.293 153.759 75.1288 152.299 77.2295 152.299C77.9168 152.299 78.5735 152.463 79.1854 152.749C80.295 148.118 83.5963 144.758 87.4974 144.758C91.3514 144.758 94.6155 148.04 95.7634 152.586C96.2616 152.404 96.785 152.299 97.3275 152.299C99.6933 152.299 101.726 154.148 102.64 156.8C103.192 156.399 103.826 156.17 104.501 156.17C106.276 156.17 107.766 157.749 108.208 159.891H66.928C66.928 157.342 68.5054 155.276 70.4506 155.276Z" fill="#B5D6FC"/>
<path d="M158.682 119.745C159.347 119.745 159.967 119.991 160.498 120.41C161.525 118.228 163.36 116.768 165.461 116.768C166.148 116.768 166.805 116.931 167.418 117.217C168.527 112.586 171.828 109.226 175.729 109.226C179.583 109.226 182.847 112.508 183.995 117.054C184.493 116.872 185.017 116.768 185.559 116.768C187.925 116.768 189.957 118.616 190.872 121.268C191.424 120.867 192.057 120.638 192.733 120.638C194.508 120.638 195.998 122.216 196.439 124.359H155.16C155.16 121.811 156.737 119.745 158.682 119.745Z" fill="#B5D6FC"/>
<path d="M106.354 112.302C106.526 99.9772 117.144 90.1328 130.069 90.3134C142.994 90.494 153.332 100.632 153.16 112.957C153.054 120.535 148.985 127.157 142.871 131.103C142.07 131.62 141.612 132.533 141.599 133.486L141.505 140.148C141.453 143.926 138.318 146.973 134.54 146.92L123.102 146.76C119.323 146.708 116.276 143.573 116.328 139.795L116.43 132.527C116.443 131.613 116.048 130.722 115.317 130.174C109.776 126.019 106.253 119.538 106.354 112.302Z" fill="#FEB801"/>
<path d="M137.209 146.117L120.133 145.879C120.133 145.879 118.437 162.497 127.379 165.03C136.321 167.564 137.088 149.838 137.209 146.117Z" fill="#5969B2"/>
<path d="M119.709 149.814L137.66 150.065C138.022 150.07 138.321 149.779 138.327 149.417C138.332 149.057 138.04 148.756 137.679 148.752L119.728 148.501C119.366 148.496 119.067 148.787 119.061 149.148C119.056 149.509 119.348 149.809 119.709 149.814Z" fill="#4B5C9B"/>
<path d="M119.672 152.442L137.624 152.693C137.985 152.698 138.285 152.406 138.29 152.045C138.295 151.684 138.004 151.384 137.643 151.379L119.691 151.128C119.33 151.123 119.03 151.415 119.025 151.775C119.02 152.137 119.312 152.436 119.672 152.442Z" fill="#4B5C9B"/>
<path d="M119.636 155.068L137.587 155.32C137.948 155.324 138.249 155.034 138.253 154.672C138.259 154.31 137.967 154.011 137.606 154.006L119.654 153.755C119.293 153.75 118.993 154.041 118.989 154.403C118.983 154.764 119.274 155.064 119.636 155.068Z" fill="#4B5C9B"/>
<path d="M120.536 157.708L136.675 157.935C137.037 157.939 137.336 157.648 137.341 157.287C137.347 156.925 137.055 156.626 136.693 156.62L120.555 156.395C120.193 156.39 119.894 156.681 119.889 157.043C119.883 157.404 120.175 157.704 120.536 157.708Z" fill="#4B5C9B"/>
<path d="M121.204 160.346L135.708 160.549C136.069 160.554 136.369 160.262 136.374 159.901C136.379 159.54 136.087 159.24 135.727 159.235L121.223 159.032C120.862 159.027 120.562 159.319 120.557 159.68C120.552 160.041 120.843 160.341 121.204 160.346Z" fill="#4B5C9B"/>
<path d="M122.754 162.995L134.358 163.157C134.719 163.162 135.018 162.871 135.024 162.509C135.029 162.149 134.737 161.849 134.376 161.844L122.773 161.682C122.412 161.677 122.112 161.968 122.107 162.329C122.102 162.69 122.394 162.99 122.754 162.995Z" fill="#4B5C9B"/>
<path d="M141.599 133.477C141.605 133.109 141.696 132.755 141.829 132.42C141.822 132.421 141.814 132.421 141.807 132.421C141.677 132.754 141.605 133.112 141.599 133.477ZM106.355 112.259C106.355 112.253 106.355 112.247 106.355 112.241C106.355 112.247 106.355 112.253 106.355 112.259Z" fill="#E2F2F9"/>
<path d="M137.198 146.422C139.684 145.414 141.466 142.987 141.505 140.148L141.598 133.486C141.598 133.482 141.598 133.479 141.598 133.476C141.605 133.112 141.676 132.754 141.807 132.421C141.149 132.453 140.488 132.474 139.821 132.474C139.677 132.474 139.533 132.473 139.389 132.471C122.021 132.228 108.103 120.498 108.301 106.271C108.316 105.201 108.42 104.149 108.589 103.116C107.218 105.891 106.41 108.974 106.355 112.241C106.355 112.247 106.354 112.253 106.354 112.259C106.354 112.263 106.354 112.268 106.354 112.272C106.354 112.283 106.354 112.292 106.354 112.302C106.353 112.401 106.352 112.5 106.352 112.598C106.35 119.715 109.851 126.075 115.317 130.174C116.037 130.714 116.43 131.585 116.43 132.484C116.43 132.498 116.43 132.512 116.43 132.527L116.328 139.795C116.328 139.829 116.328 139.862 116.328 139.895C116.329 142.561 117.873 144.893 120.119 146.028C120.127 145.931 120.132 145.879 120.132 145.879L137.209 146.117C137.206 146.211 137.202 146.312 137.198 146.422Z" fill="#FEA901"/>
<path d="M134.638 146.921C135.541 146.921 136.405 146.744 137.198 146.423C137.202 146.312 137.206 146.211 137.209 146.117L120.133 145.879C120.133 145.879 120.127 145.931 120.119 146.028C121.019 146.484 122.031 146.746 123.102 146.76L134.541 146.92C134.573 146.921 134.605 146.921 134.638 146.921Z" fill="#4653A2"/>
</g>
<defs>
<clipPath id="clip0_66_4204">
<rect width="233" height="161.55" fill="white" transform="matrix(-1 0 0 1 233 90.3125)"/>
</clipPath>
</defs>
</svg>
