<svg width="355" height="345" viewBox="0 0 355 345" fill="none" xmlns="http://www.w3.org/2000/svg">
<path d="M208.604 94.1427C208.604 94.1427 213.699 83.0225 227.131 77.9267C240.569 72.8286 249.831 83.0225 267.902 83.4868C285.969 83.9499 324.661 82.0578 332.073 58.4292C339.485 34.8053 328.76 22.8775 321.809 21.0255C314.862 19.1706 301.72 32.9893 302.183 39.0137C302.646 45.034 300.33 45.034 297.549 42.7177C294.771 40.4044 296.622 36.2308 294.771 33.9145C292.917 31.5987 288.285 31.1368 288.285 31.1368C288.285 31.1368 285.043 28.3561 291.991 22.8001C298.941 17.2389 300.836 -4.99679 329.978 1.02527C359.12 7.04732 362.056 59.8517 339.244 80.7097C329.791 89.3577 301.696 120.06 301.696 120.06L336.002 111.747C336.002 111.747 331.37 121.473 317.009 126.105C302.647 130.741 295.698 132.591 295.698 132.591L304.964 138.151C304.964 138.151 299.403 145.563 292.455 145.102C285.506 144.638 277.631 147.417 270.681 154.83C263.732 162.246 242.423 174.289 243.349 188.185C244.273 202.087 243.813 233.588 248.909 249.337C254.005 265.089 264.657 304.927 266.975 317.438C269.293 329.946 270.215 333.187 275.776 339.678C281.336 346.16 285.968 350.334 281.801 354.5C277.631 358.668 254.93 359.596 246.591 358.206C238.253 356.816 231.766 353.111 230.841 349.869C229.914 346.628 233.157 338.282 232.694 332.727C232.231 327.169 227.135 311.881 222.039 301.69C216.941 291.494 217.867 286.863 214.164 286.398C210.456 285.938 209.07 300.299 204.896 310.952C200.727 321.609 195.17 331.796 195.17 334.581C195.17 337.361 200.727 346.159 204.896 351.72C209.067 357.28 211.845 363.302 207.213 365.621C202.581 367.932 184.976 371.177 175.711 368.862C166.444 366.545 157.18 362.836 154.865 359.13C152.547 355.424 157.18 337.822 158.571 334.116C159.959 330.409 168.3 283.156 168.3 283.156C168.3 283.156 177.564 261.382 171.542 259.067C165.52 256.751 127.531 266.482 120.582 272.039C113.633 277.595 114.094 300.759 114.094 310.49C114.094 320.218 114.092 325.779 119.19 333.189C124.288 340.602 128.92 345.232 124.751 347.549C120.581 349.869 94.1742 348.01 85.3727 345.694C76.5706 343.381 79.3506 335.967 79.8138 329.02C80.2763 322.068 77.4992 294.743 77.0343 292.884C76.5706 291.029 43.2147 306.316 41.8247 315.582C40.4359 324.849 50.6256 333.651 53.4057 338.751C56.1869 343.842 55.2606 348.482 46.9199 349.868C38.5809 351.259 5.6882 352.647 1.05737 341.991C-3.57703 331.335 8.46884 303.075 9.39572 299.369C10.3203 295.665 42.7504 258.606 44.1398 246.095C45.5316 233.587 42.289 203.011 36.2646 199.766C30.2426 196.522 15.4166 206.253 11.2489 215.054C7.07944 223.852 4.30234 235.438 2.44739 235.438C0.592468 235.438 4.76547 205.327 25.6099 183.085C46.4561 160.854 55.2588 149.733 71.4748 140.002C87.6884 130.274 114.092 129.349 133.087 133.059C152.083 136.765 149.766 131.204 149.766 131.204C149.766 131.204 129.845 133.984 132.163 117.306C134.481 100.624 169.227 87.6522 208.604 94.1427Z" fill="#692E02"/>
<mask id="mask0_42_15570" style="mask-type:luminance" maskUnits="userSpaceOnUse" x="0" y="0" width="355" height="370">
<path d="M208.604 94.1427C208.604 94.1427 213.699 83.0225 227.131 77.9267C240.569 72.8286 249.831 83.0225 267.902 83.4868C285.969 83.9499 324.661 82.0578 332.073 58.4292C339.485 34.8053 328.76 22.8775 321.809 21.0255C314.862 19.1706 301.72 32.9893 302.183 39.0137C302.646 45.034 300.33 45.034 297.549 42.7177C294.771 40.4044 296.622 36.2308 294.771 33.9145C292.917 31.5987 288.285 31.1368 288.285 31.1368C288.285 31.1368 285.043 28.3561 291.991 22.8001C298.941 17.2389 300.836 -4.99679 329.978 1.02527C359.12 7.04732 362.056 59.8517 339.244 80.7097C329.791 89.3577 301.696 120.06 301.696 120.06L336.002 111.747C336.002 111.747 331.37 121.473 317.009 126.105C302.647 130.741 295.698 132.591 295.698 132.591L304.964 138.151C304.964 138.151 299.403 145.563 292.455 145.102C285.506 144.638 277.631 147.417 270.681 154.83C263.732 162.246 242.423 174.289 243.349 188.185C244.273 202.087 243.813 233.588 248.909 249.337C254.005 265.089 264.657 304.927 266.975 317.438C269.293 329.946 270.215 333.187 275.776 339.678C281.336 346.16 285.968 350.334 281.801 354.5C277.631 358.668 254.93 359.596 246.591 358.206C238.253 356.816 231.766 353.111 230.841 349.869C229.914 346.628 233.157 338.282 232.694 332.727C232.231 327.169 227.135 311.881 222.039 301.69C216.941 291.494 217.867 286.863 214.164 286.398C210.456 285.938 209.07 300.299 204.896 310.952C200.727 321.609 195.17 331.796 195.17 334.581C195.17 337.361 200.727 346.159 204.896 351.72C209.067 357.28 211.845 363.302 207.213 365.621C202.581 367.932 184.976 371.177 175.711 368.862C166.444 366.545 157.18 362.836 154.865 359.13C152.547 355.424 157.18 337.822 158.571 334.116C159.959 330.409 168.3 283.156 168.3 283.156C168.3 283.156 177.564 261.382 171.542 259.067C165.52 256.751 127.531 266.482 120.582 272.039C113.633 277.595 114.094 300.759 114.094 310.49C114.094 320.218 114.092 325.779 119.19 333.189C124.288 340.602 128.92 345.232 124.751 347.549C120.581 349.869 94.1742 348.01 85.3727 345.694C76.5706 343.381 79.3506 335.967 79.8138 329.02C80.2763 322.068 77.4992 294.743 77.0343 292.884C76.5706 291.029 43.2147 306.316 41.8247 315.582C40.4359 324.849 50.6256 333.651 53.4057 338.751C56.1869 343.842 55.2606 348.482 46.9199 349.868C38.5809 351.259 5.6882 352.647 1.05737 341.991C-3.57703 331.335 8.46884 303.075 9.39572 299.369C10.3203 295.665 42.7504 258.606 44.1398 246.095C45.5316 233.587 42.289 203.011 36.2646 199.766C30.2426 196.522 15.4166 206.253 11.2489 215.054C7.07944 223.852 4.30234 235.438 2.44739 235.438C0.592468 235.438 4.76547 205.327 25.6099 183.085C46.4561 160.854 55.2588 149.733 71.4748 140.002C87.6884 130.274 114.092 129.349 133.087 133.059C152.083 136.765 149.766 131.204 149.766 131.204C149.766 131.204 129.845 133.984 132.163 117.306C134.481 100.624 169.227 87.6522 208.604 94.1427Z" fill="white"/>
</mask>
<g mask="url(#mask0_42_15570)">
<path d="M310.129 1.45646C322.326 -3.96895 337.965 -0.148004 346.288 10.2899C352.581 18.1793 354.568 28.7253 354.52 38.8181C354.443 54.4162 349.903 69.967 341.575 83.1577C333.248 96.3467 321.16 107.135 307.11 113.907C306.633 114.139 306.096 114.367 305.596 114.201C304.264 113.752 305.065 111.734 306.048 110.735C321.373 95.1262 335.258 77.4393 342.409 56.7709C345.29 48.4455 347.01 39.2039 344.056 30.9057C341.935 24.9504 337.41 19.8907 331.73 17.1183C326.049 14.3478 319.278 13.8964 313.28 15.8908C309.702 17.0799 305.579 19.0435 302.473 16.908C299.481 14.8557 299.764 10.04 302.089 7.25581C304.414 4.47163 308.043 3.20925 311.487 2.06675" fill="#D26000"/>
</g>
<mask id="mask1_42_15570" style="mask-type:luminance" maskUnits="userSpaceOnUse" x="0" y="0" width="355" height="370">
<path d="M208.604 94.1427C208.604 94.1427 213.699 83.0225 227.131 77.9267C240.569 72.8286 249.831 83.0225 267.902 83.4868C285.969 83.9499 324.661 82.0578 332.073 58.4292C339.485 34.8053 328.76 22.8775 321.809 21.0255C314.862 19.1706 301.72 32.9893 302.183 39.0137C302.646 45.034 300.33 45.034 297.549 42.7177C294.771 40.4044 296.622 36.2308 294.771 33.9145C292.917 31.5987 288.285 31.1368 288.285 31.1368C288.285 31.1368 285.043 28.3561 291.991 22.8001C298.941 17.2389 300.836 -4.99679 329.978 1.02527C359.12 7.04732 362.056 59.8517 339.244 80.7097C329.791 89.3577 301.696 120.06 301.696 120.06L336.002 111.747C336.002 111.747 331.37 121.473 317.009 126.105C302.647 130.741 295.698 132.591 295.698 132.591L304.964 138.151C304.964 138.151 299.403 145.563 292.455 145.102C285.506 144.638 277.631 147.417 270.681 154.83C263.732 162.246 242.423 174.289 243.349 188.185C244.273 202.087 243.813 233.588 248.909 249.337C254.005 265.089 264.657 304.927 266.975 317.438C269.293 329.946 270.215 333.187 275.776 339.678C281.336 346.16 285.968 350.334 281.801 354.5C277.631 358.668 254.93 359.596 246.591 358.206C238.253 356.816 231.766 353.111 230.841 349.869C229.914 346.628 233.157 338.282 232.694 332.727C232.231 327.169 227.135 311.881 222.039 301.69C216.941 291.494 217.867 286.863 214.164 286.398C210.456 285.938 209.07 300.299 204.896 310.952C200.727 321.609 195.17 331.796 195.17 334.581C195.17 337.361 200.727 346.159 204.896 351.72C209.067 357.28 211.845 363.302 207.213 365.621C202.581 367.932 184.976 371.177 175.711 368.862C166.444 366.545 157.18 362.836 154.865 359.13C152.547 355.424 157.18 337.822 158.571 334.116C159.959 330.409 168.3 283.156 168.3 283.156C168.3 283.156 177.564 261.382 171.542 259.067C165.52 256.751 127.531 266.482 120.582 272.039C113.633 277.595 114.094 300.759 114.094 310.49C114.094 320.218 114.092 325.779 119.19 333.189C124.288 340.602 128.92 345.232 124.751 347.549C120.581 349.869 94.1742 348.01 85.3727 345.694C76.5706 343.381 79.3506 335.967 79.8138 329.02C80.2763 322.068 77.4992 294.743 77.0343 292.884C76.5706 291.029 43.2147 306.316 41.8247 315.582C40.4359 324.849 50.6256 333.651 53.4057 338.751C56.1869 343.842 55.2606 348.482 46.9199 349.868C38.5809 351.259 5.6882 352.647 1.05737 341.991C-3.57703 331.335 8.46884 303.075 9.39572 299.369C10.3203 295.665 42.7504 258.606 44.1398 246.095C45.5316 233.587 42.289 203.011 36.2646 199.766C30.2426 196.522 15.4166 206.253 11.2489 215.054C7.07944 223.852 4.30234 235.438 2.44739 235.438C0.592468 235.438 4.76547 205.327 25.6099 183.085C46.4561 160.854 55.2588 149.733 71.4748 140.002C87.6884 130.274 114.092 129.349 133.087 133.059C152.083 136.765 149.766 131.204 149.766 131.204C149.766 131.204 129.845 133.984 132.163 117.306C134.481 100.624 169.227 87.6522 208.604 94.1427Z" fill="white"/>
</mask>
<g mask="url(#mask1_42_15570)">
<g opacity="0.43">
<path d="M211.871 284.02C209.085 291.756 207.338 299.758 205.078 307.644C203.001 314.889 200.638 322.139 200.29 329.729C199.997 336.199 200.775 342.635 203.379 348.616C204.408 350.983 205.758 353.446 207.288 355.509C210.677 360.082 213.066 363.054 211.792 369.21C210.933 373.368 206.452 376.393 202.366 376.389C191.762 376.374 187.354 363.862 185.474 355.079C183.807 347.301 183.617 339.098 184.599 331.219C185.704 322.335 188.046 313.999 191.621 305.793C195.424 297.058 201.728 289.821 206.991 281.963C208.573 279.597 212.955 281.007 211.871 284.02Z" fill="#D26000"/>
</g>
</g>
<mask id="mask2_42_15570" style="mask-type:luminance" maskUnits="userSpaceOnUse" x="0" y="0" width="355" height="370">
<path d="M208.604 94.1427C208.604 94.1427 213.699 83.0225 227.131 77.9267C240.569 72.8286 249.831 83.0225 267.902 83.4868C285.969 83.9499 324.661 82.0578 332.073 58.4292C339.485 34.8053 328.76 22.8775 321.809 21.0255C314.862 19.1706 301.72 32.9893 302.183 39.0137C302.646 45.034 300.33 45.034 297.549 42.7177C294.771 40.4044 296.622 36.2308 294.771 33.9145C292.917 31.5987 288.285 31.1368 288.285 31.1368C288.285 31.1368 285.043 28.3561 291.991 22.8001C298.941 17.2389 300.836 -4.99679 329.978 1.02527C359.12 7.04732 362.056 59.8517 339.244 80.7097C329.791 89.3577 301.696 120.06 301.696 120.06L336.002 111.747C336.002 111.747 331.37 121.473 317.009 126.105C302.647 130.741 295.698 132.591 295.698 132.591L304.964 138.151C304.964 138.151 299.403 145.563 292.455 145.102C285.506 144.638 277.631 147.417 270.681 154.83C263.732 162.246 242.423 174.289 243.349 188.185C244.273 202.087 243.813 233.588 248.909 249.337C254.005 265.089 264.657 304.927 266.975 317.438C269.293 329.946 270.215 333.187 275.776 339.678C281.336 346.16 285.968 350.334 281.801 354.5C277.631 358.668 254.93 359.596 246.591 358.206C238.253 356.816 231.766 353.111 230.841 349.869C229.914 346.628 233.157 338.282 232.694 332.727C232.231 327.169 227.135 311.881 222.039 301.69C216.941 291.494 217.867 286.863 214.164 286.398C210.456 285.938 209.07 300.299 204.896 310.952C200.727 321.609 195.17 331.796 195.17 334.581C195.17 337.361 200.727 346.159 204.896 351.72C209.067 357.28 211.845 363.302 207.213 365.621C202.581 367.932 184.976 371.177 175.711 368.862C166.444 366.545 157.18 362.836 154.865 359.13C152.547 355.424 157.18 337.822 158.571 334.116C159.959 330.409 168.3 283.156 168.3 283.156C168.3 283.156 177.564 261.382 171.542 259.067C165.52 256.751 127.531 266.482 120.582 272.039C113.633 277.595 114.094 300.759 114.094 310.49C114.094 320.218 114.092 325.779 119.19 333.189C124.288 340.602 128.92 345.232 124.751 347.549C120.581 349.869 94.1742 348.01 85.3727 345.694C76.5706 343.381 79.3506 335.967 79.8138 329.02C80.2763 322.068 77.4992 294.743 77.0343 292.884C76.5706 291.029 43.2147 306.316 41.8247 315.582C40.4359 324.849 50.6256 333.651 53.4057 338.751C56.1869 343.842 55.2606 348.482 46.9199 349.868C38.5809 351.259 5.6882 352.647 1.05737 341.991C-3.57703 331.335 8.46884 303.075 9.39572 299.369C10.3203 295.665 42.7504 258.606 44.1398 246.095C45.5316 233.587 42.289 203.011 36.2646 199.766C30.2426 196.522 15.4166 206.253 11.2489 215.054C7.07944 223.852 4.30234 235.438 2.44739 235.438C0.592468 235.438 4.76547 205.327 25.6099 183.085C46.4561 160.854 55.2588 149.733 71.4748 140.002C87.6884 130.274 114.092 129.349 133.087 133.059C152.083 136.765 149.766 131.204 149.766 131.204C149.766 131.204 129.845 133.984 132.163 117.306C134.481 100.624 169.227 87.6522 208.604 94.1427Z" fill="white"/>
</mask>
<g mask="url(#mask2_42_15570)">
<path d="M278.278 363.13C272.776 355.781 271.224 346.711 268.893 337.948C266.758 329.93 264.639 321.902 262.521 313.876C258.037 296.891 253.301 279.993 248.525 263.09C243.869 246.609 238.369 229.885 236.204 212.855C235.191 204.89 235.149 196.417 237.912 188.769C240.759 180.893 246.297 172.274 255.616 172.053C260.119 171.944 263.313 175.798 263.581 180.018C263.995 186.542 259.721 192.862 258.812 199.317C257.924 205.637 258.957 212.127 260.359 218.342C263.924 234.152 268.051 249.847 271.677 265.645C275.25 281.22 278.948 296.751 282.791 312.259C284.787 320.322 286.776 328.383 288.757 336.451C289.673 340.175 290.542 343.903 291.349 347.656C292.415 352.601 292.249 356.376 291.536 361.399C290.55 368.35 281.491 367.426 278.278 363.13Z" fill="#D26000"/>
</g>
<mask id="mask3_42_15570" style="mask-type:luminance" maskUnits="userSpaceOnUse" x="0" y="0" width="355" height="370">
<path d="M208.604 94.1427C208.604 94.1427 213.699 83.0225 227.131 77.9267C240.569 72.8286 249.831 83.0225 267.902 83.4868C285.969 83.9499 324.661 82.0578 332.073 58.4292C339.485 34.8053 328.76 22.8775 321.809 21.0255C314.862 19.1706 301.72 32.9893 302.183 39.0137C302.646 45.034 300.33 45.034 297.549 42.7177C294.771 40.4044 296.622 36.2308 294.771 33.9145C292.917 31.5987 288.285 31.1368 288.285 31.1368C288.285 31.1368 285.043 28.3561 291.991 22.8001C298.941 17.2389 300.836 -4.99679 329.978 1.02527C359.12 7.04732 362.056 59.8517 339.244 80.7097C329.791 89.3577 301.696 120.06 301.696 120.06L336.002 111.747C336.002 111.747 331.37 121.473 317.009 126.105C302.647 130.741 295.698 132.591 295.698 132.591L304.964 138.151C304.964 138.151 299.403 145.563 292.455 145.102C285.506 144.638 277.631 147.417 270.681 154.83C263.732 162.246 242.423 174.289 243.349 188.185C244.273 202.087 243.813 233.588 248.909 249.337C254.005 265.089 264.657 304.927 266.975 317.438C269.293 329.946 270.215 333.187 275.776 339.678C281.336 346.16 285.968 350.334 281.801 354.5C277.631 358.668 254.93 359.596 246.591 358.206C238.253 356.816 231.766 353.111 230.841 349.869C229.914 346.628 233.157 338.282 232.694 332.727C232.231 327.169 227.135 311.881 222.039 301.69C216.941 291.494 217.867 286.863 214.164 286.398C210.456 285.938 209.07 300.299 204.896 310.952C200.727 321.609 195.17 331.796 195.17 334.581C195.17 337.361 200.727 346.159 204.896 351.72C209.067 357.28 211.845 363.302 207.213 365.621C202.581 367.932 184.976 371.177 175.711 368.862C166.444 366.545 157.18 362.836 154.865 359.13C152.547 355.424 157.18 337.822 158.571 334.116C159.959 330.409 168.3 283.156 168.3 283.156C168.3 283.156 177.564 261.382 171.542 259.067C165.52 256.751 127.531 266.482 120.582 272.039C113.633 277.595 114.094 300.759 114.094 310.49C114.094 320.218 114.092 325.779 119.19 333.189C124.288 340.602 128.92 345.232 124.751 347.549C120.581 349.869 94.1742 348.01 85.3727 345.694C76.5706 343.381 79.3506 335.967 79.8138 329.02C80.2763 322.068 77.4992 294.743 77.0343 292.884C76.5706 291.029 43.2147 306.316 41.8247 315.582C40.4359 324.849 50.6256 333.651 53.4057 338.751C56.1869 343.842 55.2606 348.482 46.9199 349.868C38.5809 351.259 5.6882 352.647 1.05737 341.991C-3.57703 331.335 8.46884 303.075 9.39572 299.369C10.3203 295.665 42.7504 258.606 44.1398 246.095C45.5316 233.587 42.289 203.011 36.2646 199.766C30.2426 196.522 15.4166 206.253 11.2489 215.054C7.07944 223.852 4.30234 235.438 2.44739 235.438C0.592468 235.438 4.76547 205.327 25.6099 183.085C46.4561 160.854 55.2588 149.733 71.4748 140.002C87.6884 130.274 114.092 129.349 133.087 133.059C152.083 136.765 149.766 131.204 149.766 131.204C149.766 131.204 129.845 133.984 132.163 117.306C134.481 100.624 169.227 87.6522 208.604 94.1427Z" fill="white"/>
</mask>
<g mask="url(#mask3_42_15570)">
<g opacity="0.43">
<path d="M173.294 259.001C168.543 259.249 163.874 258.962 159.139 259.706C154.571 260.426 150.121 261.622 145.715 262.997C137.202 265.657 129.109 269.038 121.226 273.212C106.092 281.231 92.5381 291.698 77.1108 299.262C69.8068 302.843 62.1957 305.17 54.6773 308.155C52.7626 308.915 49.2412 310.045 48.3126 312.094C47.2723 314.394 49.2873 316.946 50.6105 318.731C55.3495 325.119 61.3172 330.441 62.1106 338.843C62.9808 348.028 57.2334 356.811 47.632 357.335C43.7006 357.547 39.9169 354.367 38.9043 350.685C37.7719 346.56 39.7828 342.846 43.0644 340.465C46.6721 337.843 44.0119 338.928 43.8719 340.036C44.1064 338.162 44.559 339.444 43.9245 337.395C42.9515 334.247 39.6215 331.28 37.6957 328.694C32.6294 321.883 29.9185 313.065 34.0325 305.1C37.5521 298.285 44.8472 294.927 51.7229 292.511C59.5615 289.754 67.1573 286.97 74.6019 283.225C90.4563 275.252 105.698 265.931 121.947 258.748C137.547 251.852 157.333 245.679 174.352 251.178C178.665 252.569 177.816 258.764 173.294 259.001Z" fill="#D26000"/>
</g>
</g>
<path d="M336.002 111.746C336.002 111.746 335.199 121.299 313.29 127.297C291.379 133.291 281.479 136.152 280.38 134.833C279.279 133.512 292.061 122.767 296.878 121.414C301.696 120.06 336.002 111.746 336.002 111.746Z" fill="#DCBEA2"/>
<path d="M302.84 109.365C297.771 114.593 292.302 119.368 286.621 123.917C281.576 127.96 276.352 132.792 270.624 135.817C267.463 137.486 263.582 138.473 260.445 136.188C257.696 134.186 256.41 130.221 257.708 127.05C259.921 121.628 270.37 120.513 271.587 127.321C272.694 133.512 263.562 132.126 266.401 127.587C266.683 127.135 267.402 127.549 267.119 128.006C268.804 125.261 268.321 123.49 265.074 123.313C263.808 123.243 261.845 123.646 260.822 124.435C256.866 127.487 257.212 133.349 261.464 135.773C267.406 139.157 274.109 132.73 278.633 129.287C286.953 122.952 295.013 116.327 302.571 109.093C302.748 108.927 303.011 109.187 302.84 109.365Z" fill="#FFA401"/>
<path d="M277.039 137.451C270.257 145.868 259.058 149.277 248.669 146.52C248.284 146.415 248.446 145.818 248.832 145.92C259.206 148.634 269.737 145.194 276.829 137.242C276.959 137.098 277.154 137.303 277.039 137.451Z" fill="#FFA401"/>
<path d="M305.245 92.2571C311.173 88.78 316.704 84.337 321.571 79.4947C326.575 74.5147 330.133 68.765 334.362 63.2061C334.857 62.5556 335.787 63.0914 335.458 63.8452C329.908 76.5379 317.475 86.5109 305.776 93.1633C305.187 93.4994 304.663 92.6009 305.245 92.2571Z" fill="#FFA401"/>
<path d="M322.58 79.9181C318.258 83.5937 310.845 85.2407 305.282 84.8461C304.611 84.7995 304.627 83.8862 305.282 83.8141C308.423 83.4762 311.515 83.2842 314.575 82.4341C317.262 81.688 319.733 80.3931 322.386 79.5855C322.57 79.5294 322.735 79.787 322.58 79.9181Z" fill="#FFA401"/>
<path d="M312.875 88.195C313.149 91.0678 312.183 94.0387 310.273 96.1985C310.178 96.3036 310.069 96.4159 309.928 96.4318C309.583 96.4702 309.465 95.9858 309.498 95.642C309.764 92.869 311.096 90.213 313.159 88.3421" fill="#FFA401"/>
<path d="M306.346 88.0314C303.833 90.0606 300.462 92.2913 297.029 91.378C296.288 91.1843 296.082 90.0494 296.806 89.6856C299.495 88.3304 302.745 88.2181 305.495 86.9327C306.158 86.6219 307.014 87.4944 306.346 88.0314Z" fill="#F27300"/>
<path d="M306.087 88.191C305.224 88.8379 303.8 88.614 302.78 88.4852C301.588 88.3381 300.372 88.0717 299.348 87.4207C298.35 86.788 298.648 84.894 300 85.0187C301.148 85.1233 302.242 85.4671 303.355 85.7565C304.337 86.0094 305.52 86.072 306.266 86.8039C306.71 87.2387 306.529 87.8584 306.087 88.191Z" fill="#F27300"/>
<path d="M306.906 95.915C306.717 97.3529 306.411 98.7582 305.837 100.094C305.397 101.113 304.602 103.022 303.271 102.871C302.971 102.838 302.654 102.677 302.583 102.348C302.33 101.159 303.445 100.45 304.058 99.5315C304.845 98.3547 305.364 97.1354 305.597 95.7372C305.718 95.0058 307.006 95.1689 306.906 95.915Z" fill="#602855"/>
<path d="M307.001 96.1251C306.523 97.2907 305.945 98.3445 305.168 99.3388C304.443 100.268 303.35 101.752 302.039 101.636C301.22 101.562 300.487 100.846 300.762 99.9585C301.129 98.7782 302.393 98.3629 303.312 97.6587C304.183 96.9923 304.974 96.1948 305.676 95.3542C306.168 94.7699 307.3 95.3973 307.001 96.1251Z" fill="#F27300"/>
<path d="M262.49 141.152C257.292 142.553 251.69 142.418 246.566 140.772C245.912 140.563 245.235 140.311 244.769 139.804C244.302 139.296 244.119 138.467 244.538 137.918C244.834 137.531 245.349 137.38 245.835 137.321C247.844 137.085 249.768 138.069 251.641 138.832C254.705 140.075 257.982 140.791 261.288 140.931" fill="#F27300"/>
<path d="M261.608 141.931C257.062 140.834 252.866 138.534 250.622 134.216C249.63 132.312 252.384 130.681 253.514 132.528C255.506 135.785 258.374 138.754 262.227 139.684C263.684 140.036 263.066 142.283 261.608 141.931Z" fill="#F27300"/>
<path d="M264.466 82.9623C264.466 82.9623 246.198 92.1052 228.247 93.6311C210.295 95.1576 201.645 93.6311 201.645 93.6311C201.645 93.6311 221.76 73.4164 236.597 76.5208C251.437 79.6245 264.466 82.9623 264.466 82.9623Z" fill="#D03C30"/>
<path d="M264.806 83.0496C265.81 84.224 268.624 86.0447 265.991 87.2462C264.589 87.889 262.377 87.8004 260.884 87.8423C258.771 87.9014 256.667 87.7313 254.587 87.3585C254.219 87.2971 254.382 86.756 254.74 86.805C257.237 87.1571 259.704 87.3354 262.221 87.1694C263.422 87.0879 267.008 87.3703 265.903 84.7923C265.718 84.3611 264.782 83.8052 264.469 83.3096C264.34 83.1075 264.644 82.8617 264.806 83.0496Z" fill="#F9AB00"/>
<path d="M254.523 86.5782C254.368 89.747 253.777 96.2416 250.049 97.3753C245.99 98.6111 240.839 93.6541 238.533 90.9084C238.295 90.6254 238.702 90.2154 238.941 90.5019C240.877 92.7899 243.653 95.5599 246.658 96.3178C248.412 96.7597 251.274 95.8375 252.227 94.2195C252.622 93.5454 252.866 92.7208 253.107 91.9776C253.68 90.2119 254.014 88.4267 254.192 86.5776C254.213 86.3721 254.533 86.3638 254.523 86.5782Z" fill="#F9AB00"/>
<path d="M239.072 90.9089C237.877 93.7091 235.054 99.5869 231.406 99.8652C227.762 100.148 224.157 94.9791 222.813 92.1873C222.637 91.824 223.132 91.5251 223.361 91.8689C225.235 94.6767 228.942 100.838 233.286 98.1119C235.682 96.6096 237.453 93.1667 238.84 90.773C238.929 90.6224 239.137 90.7548 239.072 90.9089Z" fill="#F9AB00"/>
<path d="M223.063 92.5158C221.807 95.7271 218.957 98.3713 215.608 99.3041C210.821 100.64 210.609 96.4384 208.164 93.5337C207.819 93.1237 208.336 92.6204 208.747 92.9536C211.258 94.9905 210.86 99.7536 215.788 98.3789C218.88 97.5117 221.091 94.9875 222.702 92.3652C222.815 92.1832 223.145 92.3002 223.063 92.5158Z" fill="#F9AB00"/>
<path d="M250.039 96.8921C250.039 96.8921 253.934 104.431 251.48 107.017C251.48 107.017 245.074 109.74 245.212 107.017C245.348 104.297 248.823 95.9705 249.431 96.4313" fill="#F9AB00"/>
<path d="M231.641 99.4872C231.641 99.4872 235.135 106.251 232.933 108.574C232.933 108.574 227.184 111.019 227.307 108.574C227.43 106.131 230.547 98.6619 231.095 99.0719" fill="#F9AB00"/>
<path d="M214.416 99.7418C214.416 99.7418 217.268 106.801 214.856 108.907C214.856 108.907 208.909 110.809 209.258 108.384C209.606 105.965 213.406 98.8167 213.91 99.2816" fill="#F9AB00"/>
<g opacity="0.7">
<path d="M243.558 78.7112C244.152 80.3174 243.785 81.3401 242.439 82.4323C241.18 83.4537 239.304 83.7502 237.92 84.5424C235.322 86.0311 233.366 88.0355 231.773 90.5562C231.664 90.7352 231.415 90.7352 231.303 90.5562C227.775 85.044 217.805 90.2668 216.096 82.8169C216.001 82.4069 216.629 82.2297 216.728 82.6426C218.072 88.2411 224.018 86.3017 227.783 87.4158C228.863 87.7372 230.676 89.3257 231.56 89.2206C232.6 89.0971 235.026 85.8516 235.913 85.2118C237.946 83.7479 244.36 82.2427 243.307 78.7804C243.256 78.6161 243.501 78.5541 243.558 78.7112Z" fill="#F9AB00"/>
<path d="M241.098 77.7354C235.89 85.3146 225.975 87.0993 218.346 81.9627C218.101 81.7967 218.324 81.4003 218.581 81.5598C226.301 86.3833 235.271 84.7723 240.824 77.5758C240.945 77.4193 241.215 77.5623 241.098 77.7354Z" fill="#F9AB00"/>
<path d="M232.908 76.5183C234.219 79.3073 233.364 82.6196 231.032 84.582C230.761 84.8112 230.363 84.422 230.639 84.1898C232.866 82.2841 233.549 79.3799 232.656 76.6247C232.607 76.4788 232.839 76.3754 232.908 76.5183Z" fill="#F9AB00"/>
<path d="M230.596 84.439C227.866 83.6102 225.742 80.3245 227.113 77.5314C227.211 77.3324 227.575 77.4192 227.546 77.649C227.381 79.0083 227.205 80.2027 227.849 81.4929C228.444 82.675 229.503 83.5222 230.714 84.0078C230.976 84.1129 230.879 84.5264 230.596 84.439Z" fill="#F9AB00"/>
<path d="M227.168 77.6822C226.187 81.2828 222.099 83.6132 218.691 81.3453C218.466 81.1982 218.605 80.7652 218.884 80.8834C222.125 82.2445 225.857 81.3306 226.958 77.6266C226.996 77.4902 227.204 77.5469 227.168 77.6822Z" fill="#F9AB00"/>
<path d="M233.082 76.6294C233.711 77.6047 234.668 78.3047 235.79 78.6043C236.844 78.8872 237.685 78.4537 238.695 78.4944C238.918 78.5039 239.018 78.759 238.873 78.9239C238.114 79.7698 236.436 79.5583 235.464 79.234C234.247 78.8246 233.294 77.987 232.771 76.8114C232.678 76.6023 232.954 76.4303 233.082 76.6294Z" fill="#F9AB00"/>
<path d="M231.37 87.1991C230.647 87.1991 230.644 86.0719 231.37 86.0719C232.097 86.0719 232.097 87.1991 231.37 87.1991Z" fill="#F9AB00"/>
<path d="M219.175 85.1586C219.074 85.034 219.003 84.9294 218.949 84.7788C218.873 84.5454 219.041 84.3055 219.258 84.2382C219.365 84.2022 219.46 84.1934 219.571 84.1993C220.737 84.2672 219.79 85.9053 219.175 85.1586Z" fill="#F9AB00"/>
<path d="M241.083 80.8774C240.457 80.8774 240.457 79.905 241.083 79.905C241.71 79.9056 241.712 80.8774 241.083 80.8774Z" fill="#F9AB00"/>
<path d="M230.06 79.5549C230.07 79.5241 230.077 79.4929 230.086 79.4639C230.224 78.9801 230.931 78.9783 231.068 79.4639C231.078 79.4929 231.085 79.5247 231.095 79.5549C231.342 80.4185 229.813 80.4221 230.06 79.5549Z" fill="#F9AB00"/>
<path d="M234.941 80.536C234.951 80.5053 234.962 80.4764 234.974 80.4463C235.032 80.2856 235.243 80.2856 235.302 80.4463C235.312 80.477 235.322 80.5059 235.335 80.536C235.452 80.8615 234.821 80.8639 234.941 80.536Z" fill="#F9AB00"/>
<path d="M237.02 77.2544C236.593 77.2544 236.59 76.591 237.02 76.591C237.449 76.591 237.449 77.2544 237.02 77.2544Z" fill="#F9AB00"/>
<path d="M225.324 82.7093C225.022 82.7093 225.022 82.2385 225.324 82.2385C225.627 82.2385 225.627 82.7093 225.324 82.7093Z" fill="#F9AB00"/>
<path d="M223.556 80.1278C223.548 80.0871 223.543 80.0469 223.536 80.0061C223.481 79.6788 223.719 79.439 224.048 79.4951C224.087 79.501 224.129 79.5081 224.168 79.514C224.549 79.5796 224.633 80.1024 224.389 80.3464C224.143 80.5927 223.621 80.5071 223.556 80.1278Z" fill="#F9AB00"/>
<path d="M234.239 89.9725C233.772 87.2852 237.5 85.5514 239.465 84.6197C242.246 83.2988 245.219 83.0496 247.913 84.6759C248.089 84.7828 248.122 85.0304 247.976 85.1775C244.492 88.7213 239.558 91.1617 234.499 90.8864C234.193 90.8704 234.2 90.4451 234.499 90.4185C238.533 90.0576 243.481 89.0858 246.345 85.8751C248.272 83.7165 243.138 84.0657 241.787 84.3806C239.608 84.891 234.553 87.1806 234.6 89.9264C234.604 90.1267 234.276 90.1816 234.239 89.9725Z" fill="#F9AB00"/>
<path d="M229.121 90.9744C229.003 90.9744 229.003 90.7961 229.121 90.7961C229.237 90.7961 229.237 90.9744 229.121 90.9744Z" fill="#F9AB00"/>
<path d="M229.488 91.261C224.758 92.9109 219.748 92.7904 215.012 91.2492C214.758 91.1682 214.73 90.8504 214.941 90.7039C219.452 87.6013 225.37 87.4312 229.696 91.0017C229.915 91.1842 229.629 91.5516 229.39 91.3968C227.225 89.9861 224.973 88.9464 222.342 88.9027C221.837 88.8903 215.459 89.972 216.103 90.8238C216.996 92.0041 220.794 91.8186 222.249 91.8299C224.677 91.8458 227.016 91.3809 229.348 90.7541C229.677 90.6655 229.802 91.1493 229.488 91.261Z" fill="#F9AB00"/>
<path d="M251.194 84.5791C250.468 84.2695 249.733 83.9736 249.006 83.6617C248.356 83.384 247.648 83.1654 247.094 82.7236C246.814 82.4997 247.127 82.108 247.42 82.1689C248.106 82.3083 248.74 82.7348 249.361 83.0532C250.061 83.4112 250.752 83.7822 251.451 84.1396C251.746 84.2926 251.486 84.7026 251.194 84.5791Z" fill="#F9AB00"/>
<path d="M253.853 84.3193C252.833 83.6316 251.811 82.9445 250.786 82.2599C249.855 81.6366 248.828 81.1038 247.97 80.3855C247.662 80.1273 248.056 79.7286 248.365 79.8704C250.424 80.7919 252.384 82.5789 254.013 84.1148C254.118 84.2153 253.979 84.4049 253.853 84.3193Z" fill="#F9AB00"/>
<path d="M255.303 84.1194C255.059 83.8117 254.966 83.4519 254.86 83.0762C254.747 82.6804 254.572 82.2805 254.701 81.8758C254.791 81.5881 255.201 81.4268 255.423 81.6843C255.705 82.011 255.712 82.3832 255.768 82.7991C255.82 83.1943 255.904 83.599 255.796 83.9901C255.742 84.1862 255.446 84.2978 255.303 84.1194Z" fill="#F9AB00"/>
<path d="M215.608 89.4368C214.808 89.5726 214.038 89.7859 213.271 90.0571C212.518 90.3282 211.807 90.7819 211.033 90.9715C210.754 91.0407 210.471 90.6578 210.729 90.4523C211.972 89.4533 213.937 89.1857 215.468 88.9269C215.801 88.8673 215.944 89.3801 215.608 89.4368Z" fill="#F9AB00"/>
<path d="M215.988 86.7454C213.157 87.4678 211.203 88.9973 208.995 90.7896C208.686 91.0413 208.096 90.7004 208.387 90.3206C210.137 88.048 213.117 86.7938 215.864 86.2964C216.154 86.2438 216.282 86.6721 215.988 86.7454Z" fill="#F9AB00"/>
<path d="M211.869 85.5881C210.201 87.0992 208.725 89.0705 206.82 90.2898C206.47 90.5149 206.181 90.0334 206.406 89.7517C207.803 88.009 209.898 86.7631 211.558 85.2786C211.767 85.0907 212.079 85.3979 211.869 85.5881Z" fill="#F9AB00"/>
</g>
<path d="M65.3332 147.843C65.0597 147.843 65.0597 147.417 65.3332 147.417C65.6079 147.417 65.6079 147.843 65.3332 147.843Z" fill="#D0854B"/>
<path d="M138.623 215.013C139.49 216.836 139.796 218.916 139.493 220.909C139.466 221.087 139.43 221.277 139.306 221.408C139.148 221.575 138.891 221.603 138.659 221.618C137.953 221.668 137.248 221.715 136.541 221.766C136.227 221.785 135.893 221.804 135.62 221.65C134.998 221.305 135.082 220.399 135.276 219.718C135.602 218.568 136.001 217.433 136.469 216.33C136.831 215.478 137.463 214.502 138.387 214.588" fill="#D03C30"/>
<path d="M95.9302 216.461C96.7974 218.28 97.1023 220.364 96.7992 222.357C96.7756 222.532 96.736 222.722 96.6131 222.853C96.4554 223.02 96.199 223.047 95.968 223.062C95.2609 223.113 94.5544 223.159 93.8484 223.209C93.5342 223.228 93.201 223.248 92.9275 223.093C92.3078 222.749 92.3899 221.847 92.5813 221.161C92.9086 220.011 93.3091 218.876 93.7776 217.773C94.1379 216.921 94.7688 215.945 95.6921 216.034" fill="#D03C30"/>
<path d="M146.636 213.877C147.501 215.698 147.809 217.781 147.506 219.775C147.479 219.953 147.441 220.142 147.318 220.271C147.159 220.441 146.906 220.468 146.673 220.484C145.966 220.534 145.259 220.581 144.554 220.63C144.241 220.65 143.908 220.668 143.633 220.514C143.013 220.169 143.098 219.263 143.289 218.583C143.614 217.428 144.015 216.298 144.483 215.194C144.844 214.342 145.477 213.367 146.397 213.451" fill="#D03C30"/>
<path d="M106.176 216.034C107.044 217.858 107.35 219.937 107.047 221.931C107.021 222.109 106.984 222.299 106.859 222.431C106.701 222.597 106.447 222.625 106.214 222.64C105.507 222.69 104.802 222.736 104.095 222.786C103.782 222.806 103.449 222.826 103.174 222.671C102.554 222.326 102.638 221.42 102.829 220.738C103.156 219.589 103.554 218.453 104.024 217.35C104.384 216.499 105.017 215.522 105.938 215.609" fill="#D03C30"/>
<path d="M129.878 215.226C130.745 217.045 131.054 219.128 130.75 221.122C130.723 221.301 130.686 221.486 130.562 221.617C130.403 221.788 130.149 221.811 129.916 221.831C129.209 221.877 128.504 221.928 127.797 221.974C127.484 221.997 127.151 222.013 126.875 221.861C126.256 221.518 126.34 220.611 126.533 219.929C126.859 218.776 127.257 217.645 127.727 216.542C128.086 215.686 128.72 214.713 129.642 214.8" fill="#D03C30"/>
<path d="M86.494 216.483C87.3594 218.307 87.6654 220.386 87.3635 222.381C87.3352 222.559 87.2986 222.749 87.1775 222.876C87.0174 223.047 86.7604 223.074 86.53 223.089C85.8229 223.14 85.1175 223.186 84.411 223.236C84.0985 223.256 83.7629 223.275 83.4894 223.12C82.8697 222.776 82.9518 221.87 83.145 221.188C83.4729 220.035 83.8711 218.903 84.3383 217.8C84.7005 216.948 85.332 215.972 86.2559 216.058" fill="#D03C30"/>
<path d="M76.6529 215.922C77.5196 217.741 77.8262 219.825 77.5231 221.82C77.4977 221.997 77.4605 222.183 77.3358 222.316C77.1775 222.486 76.9211 222.512 76.6901 222.527C75.983 222.574 75.2777 222.625 74.5712 222.671C74.2563 222.695 73.9231 222.709 73.6502 222.558C73.0317 222.213 73.112 221.308 73.3076 220.626C73.6313 219.472 74.0318 218.342 74.4997 217.238C74.8606 216.386 75.4909 215.41 76.416 215.495" fill="#D03C30"/>
<path d="M118.039 216.132C118.908 217.951 119.212 220.035 118.911 222.029C118.883 222.206 118.844 222.392 118.724 222.524C118.564 222.695 118.309 222.722 118.076 222.736C117.369 222.783 116.662 222.833 115.959 222.879C115.644 222.903 115.311 222.918 115.036 222.768C114.416 222.423 114.5 221.518 114.691 220.836C115.019 219.682 115.417 218.551 115.886 217.448C116.249 216.595 116.879 215.62 117.8 215.706" fill="#D03C30"/>
<path d="M151.704 208.22C150.882 210.064 149.119 213.692 146.765 213.921C144.277 214.16 143.513 210.869 142.716 209.205C142.55 208.86 143.018 208.58 143.231 208.906C144.243 210.436 144.774 214.331 147.56 212.953C149.263 212.112 150.601 209.658 151.439 208.066C151.534 207.887 151.784 208.046 151.704 208.22Z" fill="#D03C30"/>
<path d="M143.338 209.555C142.61 211.453 140.597 215.12 138.275 215.392C135.848 215.67 134.212 211.484 133.907 209.657C133.837 209.238 134.417 209.064 134.553 209.478C135.178 211.422 136.6 215.879 139.58 213.78C141.052 212.747 142.056 210.903 142.947 209.388C143.066 209.192 143.427 209.324 143.338 209.555Z" fill="#D03C30"/>
<path d="M134.245 209.75C133.567 212.414 132.022 215.767 128.828 215.844C125.527 215.925 123.527 212.487 122.634 209.764C122.536 209.458 123.003 209.261 123.157 209.544C124.411 211.868 125.613 215.21 128.834 215.007C131.831 214.822 132.826 211.956 133.894 209.602C133.987 209.397 134.297 209.544 134.245 209.75Z" fill="#D03C30"/>
<path d="M123.007 210.037C121.589 212.812 119.654 216.309 115.999 216.065C112.984 215.863 111.204 212.816 110.324 210.265C110.199 209.9 110.759 209.672 110.945 210.005C112.167 212.209 113.299 215.26 116.345 215.291C119.438 215.326 121.325 212.169 122.631 209.815C122.768 209.571 123.131 209.788 123.007 210.037Z" fill="#D03C30"/>
<path d="M110.64 210.411C110.249 212.809 108.301 216.077 105.709 216.619C102.867 217.216 101.244 212.558 100.928 210.49C100.859 210.056 101.41 209.908 101.577 210.311C102.402 212.287 103.36 216.988 106.64 215.283C108.439 214.35 109.581 212.093 110.325 210.323C110.405 210.133 110.675 210.203 110.64 210.411Z" fill="#D03C30"/>
<path d="M100.651 210.469C100.649 210.466 100.647 210.462 100.647 210.458C100.56 210.168 101.082 210.136 101.008 210.458C100.526 212.561 98.0874 216.638 95.6328 216.847C94.6557 216.932 94.0254 216.262 93.5434 215.508C92.522 213.901 91.6423 211.998 91.1367 210.163C91.025 209.761 91.6406 209.475 91.8355 209.869C92.6673 211.574 93.909 217.021 96.874 215.213C97.7577 214.674 98.5168 213.505 99.1064 212.692C99.2222 212.534 100.684 210.578 100.651 210.469Z" fill="#D03C30"/>
<path d="M91.2595 210.373C90.3291 212.321 89.1252 214.292 87.845 216.031C87.2176 216.882 86.4574 217.424 85.3621 217.115C82.7575 216.375 80.9298 212.115 80.9262 209.684C80.9262 209.285 81.4715 209.238 81.5979 209.591C81.9866 210.703 82.2495 211.84 82.7888 212.901C83.0606 213.44 83.3808 213.967 83.7393 214.454C84.4967 215.488 84.8765 216.089 86.2104 215.67C88.3029 215.013 89.544 211.86 91.0421 210.207C91.1538 210.087 91.3222 210.241 91.2595 210.373Z" fill="#D03C30"/>
<path d="M81.8637 210.001C81.0213 211.913 79.6513 214.091 78.2548 215.651C77.5684 216.421 76.7791 216.793 75.7654 216.367C74.4876 215.832 73.5885 214.129 72.9434 213.014C71.9516 211.309 71.1482 209.451 70.7925 207.503C70.6921 206.945 71.44 206.741 71.6391 207.27C72.4744 209.498 73.299 212.703 75.1351 214.349C75.3749 214.891 75.8162 215.077 76.4637 214.915C77.312 215.305 77.8826 215.034 78.1762 214.101C78.5714 213.586 78.9542 213.067 79.3489 212.552C80.0772 211.607 80.8015 210.67 81.6906 209.869C81.7875 209.78 81.9127 209.889 81.8637 210.001Z" fill="#D03C30"/>
<path d="M149.767 131.204C149.767 131.204 166.996 205.765 149.767 208.557C132.537 211.349 72.5131 215.882 67.9767 204.719C63.4386 193.552 63.3092 145.466 63.3092 145.466C63.3092 145.466 76.9626 126.088 149.767 131.204Z" fill="#D03C30"/>
<g opacity="0.8">
<path d="M145.233 131.614C150.127 145.744 152.396 160.913 152.399 175.848C152.399 182.415 152.45 189.621 150.798 196.026C149.668 200.41 147.002 203.167 142.519 204.088C136.068 205.408 128.946 205.036 122.39 205.227C114.299 205.459 106.203 205.54 98.1087 205.436C91.2201 205.351 83.3484 206.029 76.5737 204.642C71.6475 203.636 71.7202 198.728 71.0414 194.523C68.2259 177.13 66.9611 159.553 67.2275 141.935C67.237 141.291 68.2318 141.291 68.223 141.935C67.9571 159.147 69.0021 176.386 71.644 193.406C71.9127 195.137 72.0468 197.2 72.5425 198.881C73.7263 202.869 75.7833 203.93 79.4359 204.178C83.4713 204.453 87.5285 204.522 91.5692 204.627C99.9737 204.844 108.383 204.883 116.787 204.693C125.019 204.507 134.234 205.065 142.308 203.327C151.985 201.239 151.254 189.064 151.57 181.235C152.251 164.345 149.605 147.888 144.86 131.721C144.788 131.476 145.153 131.382 145.233 131.614Z" fill="#FFA401"/>
<path d="M151.176 204.127C151.179 204.062 151.181 203.995 151.187 203.933C151.205 203.496 151.843 203.496 151.864 203.933C151.867 203.995 151.87 204.062 151.874 204.127C151.893 204.572 151.154 204.576 151.176 204.127Z" fill="#FFA401"/>
<path d="M152.952 198.032C152.98 197.998 153.01 197.962 153.036 197.924C153.138 197.805 153.384 197.805 153.483 197.924C153.51 197.962 153.541 197.998 153.57 198.032C153.798 198.315 153.668 198.776 153.26 198.776C152.855 198.775 152.723 198.315 152.952 198.032Z" fill="#FFA401"/>
<path d="M154.399 191.48C154.427 191.274 154.446 191.233 154.552 191.062C154.669 190.872 154.935 190.872 155.053 191.062C155.159 191.233 155.177 191.274 155.207 191.48C155.301 192.153 154.302 192.162 154.399 191.48Z" fill="#FFA401"/>
<path d="M154.777 185.808C154.77 185.679 154.779 185.548 154.805 185.42C154.868 184.929 155.507 184.929 155.574 185.42C155.598 185.548 155.607 185.679 155.6 185.808C155.603 186.338 154.771 186.338 154.777 185.808Z" fill="#FFA401"/>
<path d="M154.854 179.635C154.886 179.588 154.917 179.542 154.951 179.499C155.077 179.322 155.3 179.322 155.427 179.499C155.459 179.542 155.492 179.588 155.526 179.635C155.702 179.878 155.462 180.22 155.189 180.22C154.915 180.22 154.675 179.878 154.854 179.635Z" fill="#FFA401"/>
<path d="M155.188 173.543C155.123 173.543 155.06 173.54 154.997 173.54C154.655 173.532 154.653 173.017 154.997 173.01C155.06 173.01 155.123 173.006 155.188 173.006C155.535 172.998 155.537 173.552 155.188 173.543Z" fill="#FFA401"/>
<path d="M154.341 165.873C154.36 165.814 154.38 165.756 154.399 165.694C154.47 165.489 154.749 165.489 154.82 165.694C154.838 165.756 154.858 165.814 154.877 165.873C155.027 166.319 154.191 166.322 154.341 165.873Z" fill="#FFA401"/>
<path d="M153.646 159.608C153.369 159.608 153.367 159.178 153.646 159.178C153.921 159.178 153.923 159.608 153.646 159.608Z" fill="#FFA401"/>
<path d="M153.067 151.685C152.81 151.685 152.81 151.286 153.067 151.286C153.322 151.286 153.322 151.685 153.067 151.685Z" fill="#FFA401"/>
<path d="M150.943 145.461C151.008 145.276 151.086 145.136 151.216 144.985C151.333 144.853 151.603 144.954 151.583 145.136C151.561 145.337 151.516 145.489 151.419 145.663C151.277 145.92 150.847 145.748 150.943 145.461Z" fill="#FFA401"/>
<path d="M148.825 137.415C148.572 137.415 148.572 137.021 148.825 137.021C149.079 137.021 149.079 137.415 148.825 137.415Z" fill="#FFA401"/>
<path d="M147.088 206.57C146.671 206.57 146.671 205.92 147.088 205.92C147.508 205.92 147.508 206.57 147.088 206.57Z" fill="#FFA401"/>
<path d="M140.375 207.063C140.396 207 140.416 206.943 140.438 206.884C140.6 206.411 141.238 206.411 141.402 206.884C141.421 206.943 141.443 207 141.462 207.063C141.776 207.965 140.061 207.969 140.375 207.063Z" fill="#FFA401"/>
<path d="M133.013 207.891C132.631 207.891 132.631 207.298 133.013 207.298C133.395 207.298 133.396 207.891 133.013 207.891Z" fill="#FFA401"/>
<path d="M126.65 208.645C126.293 208.645 126.293 208.089 126.65 208.089C127.01 208.089 127.01 208.645 126.65 208.645Z" fill="#FFA401"/>
<path d="M118.36 208.406C118.062 208.406 118.062 207.946 118.36 207.946C118.656 207.946 118.656 208.406 118.36 208.406Z" fill="#FFA401"/>
<path d="M112.962 208.23C112.889 208.23 112.889 208.119 112.962 208.119C113.034 208.119 113.034 208.23 112.962 208.23Z" fill="#FFA401"/>
<path d="M110.825 208.502C110.845 208.444 110.87 208.386 110.89 208.329C110.942 208.189 111.121 208.189 111.173 208.329C111.197 208.386 111.218 208.444 111.238 208.502C111.368 208.848 110.695 208.851 110.825 208.502Z" fill="#FFA401"/>
<path d="M105.634 208.692C105.218 208.692 105.216 208.042 105.634 208.042C106.049 208.042 106.049 208.692 105.634 208.692Z" fill="#FFA401"/>
<path d="M97.7988 208.108C97.8602 208.122 97.9211 208.135 97.9807 208.15C98.1952 208.196 98.197 208.538 97.9807 208.584C97.9211 208.599 97.8602 208.614 97.7988 208.626C97.3652 208.728 97.3628 208.007 97.7988 208.108Z" fill="#FFA401"/>
<path d="M91.1643 208.518C91.1194 208.486 91.0733 208.452 91.0279 208.421C90.8453 208.289 90.8453 208.061 91.0279 207.929C91.0728 207.894 91.1188 207.864 91.1643 207.829C91.4154 207.65 91.7633 207.894 91.7633 208.173C91.7633 208.455 91.4154 208.701 91.1643 208.518Z" fill="#FFA401"/>
<path d="M84.5344 208.452C84.4859 208.425 84.4369 208.398 84.3885 208.367C84.099 208.2 84.099 207.762 84.3885 207.596C84.4369 207.565 84.4859 207.538 84.5344 207.511C84.8912 207.302 85.3561 207.569 85.3561 207.979C85.3555 208.395 84.8906 208.662 84.5344 208.452Z" fill="#FFA401"/>
<path d="M77.8671 207.643C77.8022 207.651 77.739 207.655 77.674 207.662C77.0957 207.716 77.0933 206.706 77.674 206.76C77.739 206.768 77.8022 206.772 77.8671 206.78C78.4219 206.83 78.4236 207.589 77.8671 207.643Z" fill="#FFA401"/>
<path d="M71.0471 205.157C70.9201 205.114 70.8551 205.088 70.7452 205.014C70.2638 204.689 70.9071 204.038 71.2344 204.522C71.3088 204.635 71.3372 204.7 71.3773 204.825C71.4394 205.018 71.2391 205.219 71.0471 205.157Z" fill="#FFA401"/>
<path d="M68.4196 198.904C67.6942 198.904 67.6942 197.776 68.4196 197.776C69.1433 197.776 69.1451 198.904 68.4196 198.904Z" fill="#FFA401"/>
<path d="M66.4618 193.095C66.5304 193.036 66.6007 192.983 66.6751 192.932C66.603 193.06 66.5304 193.184 66.4577 193.312C66.4961 193.013 66.5747 192.813 66.8387 192.642C67.0479 192.507 67.3751 192.592 67.4892 192.813C67.5033 192.836 67.5151 192.859 67.5264 192.882C67.6286 193.079 67.6309 193.386 67.4395 193.544C67.143 193.792 66.6279 193.892 66.4146 193.482C66.3496 193.362 66.3514 193.188 66.4618 193.095Z" fill="#FFA401"/>
<path d="M66.0333 185.539C66.0912 185.516 66.1485 185.498 66.2058 185.474C66.7605 185.258 66.7641 186.358 66.2058 186.141C66.1485 186.118 66.0912 186.098 66.0333 186.075C65.7711 185.974 65.7711 185.641 66.0333 185.539Z" fill="#FFA401"/>
<path d="M66.61 178.481C66.6141 178.543 66.6159 178.609 66.6177 178.675C66.6301 179.085 65.9649 179.085 65.9796 178.675C65.9832 178.609 65.985 178.543 65.9873 178.481C65.9997 178.078 66.597 178.078 66.61 178.481Z" fill="#FFA401"/>
<path d="M66.4909 170.458C66.1471 170.458 66.1471 169.923 66.4909 169.923C66.8347 169.923 66.8359 170.458 66.4909 170.458Z" fill="#FFA401"/>
<path d="M66.1054 163.275C65.8189 163.275 65.8189 162.833 66.1054 162.833C66.3902 162.833 66.3902 163.275 66.1054 163.275Z" fill="#FFA401"/>
<path d="M66.2969 156.126C66.0334 156.126 66.0334 155.716 66.2969 155.716C66.5633 155.716 66.5633 156.126 66.2969 156.126Z" fill="#FFA401"/>
<path d="M65.527 151.502C65.2577 151.502 65.2577 151.085 65.527 151.085C65.7952 151.085 65.7952 151.502 65.527 151.502Z" fill="#FFA401"/>
<path d="M109.744 177.436C113.635 171.341 120.781 168.982 127.685 170.601C127.924 170.659 128.055 170.972 127.921 171.178C124.151 177.017 117.709 179.67 110.914 178.14C110.424 178.028 110.633 177.284 111.121 177.389C114.548 178.117 118.022 177.946 121.203 176.354C122.68 175.615 127.413 172.696 126.252 171.081C125.67 170.272 120.74 171.026 120.226 171.128C118.708 171.429 117.244 171.963 115.88 172.695C113.556 173.946 111.776 175.708 110.131 177.732C109.955 177.955 109.595 177.672 109.744 177.436Z" fill="#FFA401"/>
<path d="M110.18 177.412C111.663 174.489 112.75 171.457 113.021 168.165C113.107 167.131 113.111 166.093 113.043 165.056C113.001 164.06 112.869 163.073 112.647 162.097C112.742 160.754 112.145 160.413 110.854 161.074C107.747 161.28 107.338 166.299 107.319 168.877C107.295 172.011 108.311 174.969 109.342 177.88C109.476 178.26 108.847 178.535 108.681 178.159C106.975 174.299 105.963 170.047 106.711 165.83C107.033 164.014 108.627 158.031 111.524 158.608C113.704 159.039 113.784 162.79 113.929 164.436C114.339 169.117 113.205 173.749 110.653 177.687C110.461 177.985 110.02 177.726 110.18 177.412Z" fill="#FFA401"/>
<path d="M109.279 178.302C107.015 178.601 90.2182 177.935 93.4 173.39C94.8916 171.259 98.6429 170.899 100.914 171.302C104.409 171.921 107.436 174.385 109.381 177.261C109.612 177.603 109.096 177.993 108.818 177.699C107.238 176.034 105.755 174.326 103.687 173.231C101.525 172.088 95.9544 170.826 94.7971 173.97C93.8596 174.775 93.9984 175.263 95.2177 175.426C96.0383 175.802 96.8771 176.128 97.7355 176.406C98.8012 176.766 99.8858 177.06 100.987 177.301C103.733 177.897 106.481 178.013 109.279 177.967C109.504 177.962 109.49 178.276 109.279 178.302Z" fill="#FFA401"/>
<path d="M103.962 169.052C102.405 166.516 100.351 163.984 99.2511 161.211C99.1454 160.948 99.5494 160.723 99.7278 160.931C101.646 163.212 102.904 166.226 104.402 168.793C104.565 169.075 104.133 169.327 103.962 169.052Z" fill="#FFA401"/>
<path d="M103.662 163.728C103.53 162.782 103.126 161.729 103.219 160.777C103.253 160.444 103.682 160.378 103.801 160.7C104.132 161.598 104.012 162.721 104.121 163.665C104.151 163.925 103.7 163.987 103.662 163.728Z" fill="#FFA401"/>
<path d="M99.6032 168.317C98.4536 167.789 97.1664 167.333 96.1072 166.643C95.8118 166.449 95.9902 165.919 96.357 166.047C97.5787 166.469 98.749 167.221 99.895 167.817C100.231 167.991 99.9364 168.47 99.6032 168.317Z" fill="#FFA401"/>
<path d="M123.168 162.771C121.252 164.977 118.964 167.526 116.26 168.781C115.989 168.905 115.648 168.561 115.916 168.331C117.067 167.352 118.389 166.573 119.555 165.602C120.723 164.622 121.822 163.572 122.824 162.422C123.03 162.186 123.373 162.535 123.168 162.771Z" fill="#FFA401"/>
<path d="M119.255 161.467C118.575 162.725 117.987 164.231 117.081 165.339C116.893 165.571 116.483 165.324 116.582 165.048C116.82 164.39 117.247 163.801 117.605 163.202C118.003 162.532 118.401 161.866 118.797 161.199C118.974 160.904 119.417 161.164 119.255 161.467Z" fill="#FFA401"/>
<path d="M127.397 167.751C126.113 168.002 124.833 168.402 123.531 168.534C123.154 168.571 123.097 167.987 123.444 167.89C124.675 167.541 125.99 167.452 127.249 167.216C127.596 167.154 127.744 167.681 127.397 167.751Z" fill="#FFA401"/>
<path d="M130.387 162.818C124.755 162.267 120.251 157.044 122.509 151.363C124.404 146.604 130.978 144.901 134.632 148.765C138.251 152.594 134.859 159.192 129.512 157.175C127.618 156.458 125.949 154.36 126.857 152.269C127.672 150.39 129.908 150.128 131.156 151.696C131.445 152.055 130.93 152.574 130.643 152.207C127.936 155.239 128.206 156.757 131.451 156.768C133.036 156.694 134.234 155.991 135.045 154.655C136.418 152.218 134.9 149.35 132.678 148.129C130.161 146.747 126.775 147.199 124.725 149.206C119.642 154.182 124.06 161.918 130.386 162.549C130.554 162.569 130.556 162.836 130.387 162.818Z" fill="#FFA401"/>
<path d="M93.9698 163.743C97.9272 159.073 91.198 150.86 86.2174 150.536C82.6729 150.303 80.323 152.924 80.2243 156.339C80.1871 157.594 80.5144 159.628 81.573 160.409C82.8053 160.739 84.0346 161.064 85.2663 161.389C87.4302 161.11 87.9873 159.789 86.9405 157.42C86.3846 157.505 86.1329 156.719 86.7024 156.556C88.0735 156.169 89.4712 156.921 89.5209 158.516C89.5823 160.521 87.2211 161.981 85.5322 162.353C80.6319 163.433 78.3729 158.23 79.5863 154.167C83.2194 142.023 101.753 156.502 94.3006 164.072C94.085 164.289 93.7801 163.967 93.9698 163.743Z" fill="#FFA401"/>
<path d="M133.76 168.603C136.398 171.662 141.373 174.423 144.863 170.957C146.497 169.33 146.965 166.729 145.665 164.715C144.967 163.642 143.805 162.809 142.567 162.496C142.143 162.449 141.717 162.399 141.291 162.348C138.515 162.426 138.45 163.58 141.095 165.818C141.285 165.404 141.981 165.699 141.831 166.128C140.854 168.893 137.088 167.844 137.116 165.036C137.153 161.055 142.435 160.846 144.895 162.666C147.914 164.9 148.054 169.469 145.157 171.886C141.158 175.227 136.229 172.145 133.469 168.893C133.3 168.691 133.589 168.401 133.76 168.603Z" fill="#FFA401"/>
<path d="M90.4385 170.934C89.0337 175.461 84.0944 177.16 79.8298 175.523C76.1241 174.099 74.7246 169.626 77.4556 166.524C79.3596 164.359 85.2157 162.687 85.9606 166.829C86.572 170.226 82.0812 171.558 80.4986 168.691C80.2912 168.32 80.8182 167.864 81.1065 168.22C81.5436 169.033 82.2501 169.056 83.2361 168.29C86.0758 168.177 85.7592 167.151 82.2933 165.206C81.0952 165.11 79.4854 165.899 78.6218 166.666C76.5943 168.467 76.345 171.425 78.1941 173.404C81.6009 177.049 88.388 175.43 89.9576 170.803C90.0586 170.5 90.533 170.624 90.4385 170.934Z" fill="#FFA401"/>
<path d="M117.202 151.429C118.338 146.24 114.51 141.586 109.143 141.701C106.931 141.748 104.414 142.403 102.763 143.959C100.263 146.326 100.812 149.458 101.866 152.409C101.552 152.409 101.236 152.409 100.922 152.409C103.012 144.393 113.635 143.526 116.882 151.213C117.187 151.937 116.184 152.371 115.881 151.635C113.038 144.796 103.733 145.621 101.866 152.669C101.736 153.161 101.076 153.106 100.922 152.669C99.8585 149.66 99.1408 146.539 101.448 143.926C103.32 141.803 106.378 140.776 109.143 140.785C114.707 140.805 119.784 145.877 117.628 151.55C117.53 151.812 117.14 151.716 117.202 151.429Z" fill="#FFA401"/>
<path d="M108.728 183.375C113.154 183.039 117.361 185.946 117.871 190.528C118.372 195.05 115.11 199.155 110.58 199.593C106.166 200.014 102.332 196.82 101.845 192.433C101.316 187.67 105.277 183.778 109.92 183.767C110.472 183.767 110.466 184.599 109.92 184.623C105.938 184.789 102.379 187.806 102.634 192.022C102.892 196.363 107.023 199.565 111.283 198.659C115.079 197.85 117.386 194.367 117.036 190.585C116.651 186.383 112.742 183.743 108.728 183.863C108.41 183.875 108.418 183.398 108.728 183.375Z" fill="#FFA401"/>
<path d="M132.758 191.271C129.365 191.89 125.785 192.545 122.325 192.273C122.042 192.254 122.051 191.87 122.325 191.84C125.766 191.444 129.225 191.45 132.662 190.922C132.888 190.888 132.989 191.228 132.758 191.271Z" fill="#FFA401"/>
<path d="M125.44 183.162C124.195 184.135 122.907 185.312 121.374 185.808C121.062 185.909 120.925 185.479 121.164 185.308C122.428 184.41 123.91 183.833 125.146 182.868C125.352 182.706 125.649 182.996 125.44 183.162Z" fill="#FFA401"/>
<path d="M99.4897 191.708C95.6622 191.596 91.6853 191.739 87.8916 191.213C87.5253 191.163 87.6405 190.613 87.9755 190.594C91.7692 190.391 95.6965 190.883 99.4897 191.097C99.8825 191.117 99.8878 191.724 99.4897 191.708Z" fill="#FFA401"/>
<path d="M100.432 185.482C99.546 185.067 98.6906 184.599 97.8399 184.115C97.0896 183.69 96.2254 183.305 95.6204 182.682C95.4113 182.469 95.6181 182.086 95.9176 182.175C96.7511 182.419 97.4937 183 98.2209 183.465C99.0486 183.987 99.862 184.526 100.645 185.119C100.859 185.281 100.683 185.599 100.432 185.482Z" fill="#FFA401"/>
<path d="M98.7105 195.584C98.0388 196.107 97.3618 196.615 96.6624 197.103C95.983 197.579 95.2812 198.195 94.476 198.426C94.0802 198.539 93.864 198.059 94.1003 197.78C94.6065 197.176 95.4005 196.811 96.0663 196.405C96.8106 195.949 97.5697 195.519 98.34 195.103C98.6325 194.95 98.9946 195.364 98.7105 195.584Z" fill="#FFA401"/>
<path d="M120.176 195.953C120.829 196.522 121.512 197.033 122.245 197.498C122.861 197.888 123.538 198.191 124.109 198.647C124.39 198.868 124.087 199.375 123.756 199.251C122.291 198.701 120.946 197.368 119.783 196.346C119.512 196.111 119.908 195.72 120.176 195.953Z" fill="#FFA401"/>
<path d="M86.1287 193.444C85.2851 195.736 83.6683 197.475 81.4305 198.488C80.1787 199.054 76.5149 200.212 75.5597 198.558C74.5566 196.831 77.6911 194.454 78.908 193.796C80.8988 192.719 83.4384 192.362 85.5438 193.292C85.9237 193.458 85.6407 194.008 85.2762 193.931C83.5182 193.559 81.9149 193.412 80.1882 194.047C79.2377 194.399 78.3444 194.933 77.6072 195.63C77.2356 195.98 76.9054 196.362 76.6195 196.788C76.1587 197.207 76.2568 197.585 76.9137 197.915C77.7283 198.86 78.4295 198.623 79.6317 198.334C80.5213 198.117 81.3732 197.764 82.1559 197.295C83.7468 196.355 85.0027 194.956 85.8694 193.334C85.9438 193.2 86.1819 193.292 86.1287 193.444Z" fill="#FFA401"/>
<path d="M85.7585 188.638C83.6147 189.811 81.4248 189.548 79.2048 188.673C77.7314 188.096 74.3086 186.829 75.1534 184.545C75.7914 182.826 78.259 183.108 79.6389 183.384C82.2347 183.903 84.4695 185.366 86.1153 187.418C86.4432 187.828 85.8642 188.417 85.5316 188.003C83.913 185.985 80.8186 183.666 78.0244 184.006C77.859 184.01 77.693 184.01 77.5258 184.01C76.4318 185.61 76.4838 186.62 77.6877 187.042C78.2714 187.547 79.5497 187.944 80.1936 188.166C81.9381 188.762 83.7452 188.905 85.4785 188.161C85.7969 188.026 86.0781 188.463 85.7585 188.638Z" fill="#FFA401"/>
<path d="M88.5744 184.142C87.2736 183.596 86.0643 182.891 85.0671 181.877C84.4215 181.223 83.7031 179.878 84.8291 179.271C85.8712 178.701 87.0633 179.771 87.7031 180.483C88.5815 181.466 89.3441 182.811 89.4298 184.142C89.4593 184.579 88.8349 184.614 88.7062 184.243C88.432 183.449 88.2371 182.682 87.7881 181.958C87.4278 181.374 86.6013 180.146 85.8499 180.027C85.6384 179.875 85.47 179.957 85.3495 180.27C85.0181 180.39 84.9402 180.557 85.1186 180.767C85.1788 180.999 85.4045 181.212 85.5575 181.386C85.8351 181.7 86.1494 181.982 86.4714 182.249C87.1655 182.827 87.95 183.306 88.7782 183.667C89.047 183.781 88.8497 184.257 88.5744 184.142Z" fill="#FFA401"/>
<path d="M89.8599 196.088C89.5787 197.118 89.9887 198.327 89.3022 199.248C88.8391 199.867 87.8844 200.12 87.263 199.562C86.5074 198.887 87.1088 197.819 87.6133 197.195C88.0912 196.606 89.1847 195.534 90.0259 195.782C90.186 195.828 90.3201 196.052 90.199 196.208C89.8752 196.629 89.2874 196.739 88.8591 197.056C88.5094 197.319 87.2854 198.461 87.7598 198.969C88.3511 199.603 88.962 198.434 89.0642 198.017C89.2278 197.335 89.2071 196.638 89.4641 195.976C89.5563 195.736 89.9326 195.824 89.8599 196.088Z" fill="#FFA401"/>
<path d="M132.02 184.526C134.01 182.805 136.314 181.676 138.954 181.392C140.393 181.238 143.309 181.099 143.808 182.988C144.269 184.749 142.029 185.536 140.758 185.927C137.788 186.837 134.716 186.779 131.735 185.955C131.28 185.826 131.471 185.129 131.929 185.246C133.661 185.687 135.432 185.896 137.218 185.768C138.085 185.706 138.954 185.559 139.794 185.346C141.1 185.016 141.958 184.989 142.263 183.561C142.587 182.056 141.72 182.179 140.446 182.137C139.489 182.106 138.514 182.199 137.583 182.399C135.651 182.822 133.931 183.681 132.376 184.882C132.128 185.079 131.769 184.742 132.02 184.526Z" fill="#FFA401"/>
<path d="M131.026 194.834C134.893 194.484 138.546 195.956 140.683 199.294C140.813 199.5 140.695 199.852 140.44 199.89C137.665 200.329 134.723 200.2 132.149 198.962C130.496 198.164 128.984 196.468 130.118 194.617C130.31 194.307 130.885 194.509 130.739 194.881C128.922 199.47 137.805 199.59 140.225 199.108C140.144 199.31 140.064 199.508 139.981 199.705C137.924 196.839 134.616 195.001 131.027 195.28C130.742 195.298 130.745 194.861 131.026 194.834Z" fill="#FFA401"/>
<path d="M137.749 190.075C139.532 189.412 141.417 189.772 142.845 191.016C143.019 191.167 142.99 191.531 142.768 191.631C141.254 192.286 138.504 193.014 137.064 191.783C136.599 191.387 136.47 190.807 136.746 190.265C137.15 189.471 138.109 189.363 138.898 189.425C139.356 189.46 139.363 190.114 138.898 190.136C138.614 190.148 138.331 190.172 138.051 190.202C137.944 190.582 137.84 190.965 137.736 191.345C137.957 191.658 138.962 191.597 139.316 191.6C140.387 191.616 141.397 191.384 142.373 190.954C142.348 191.159 142.32 191.365 142.294 191.57C141.059 190.501 139.47 190.168 137.906 190.645C137.538 190.752 137.401 190.206 137.749 190.075Z" fill="#FFA401"/>
<path d="M128.491 181.988C128.687 180.974 130.149 173.598 132.483 176.401C133.313 177.4 132.824 179.05 132.29 180.068C131.672 181.253 130.64 182.31 129.325 182.662C129.01 182.745 128.85 182.323 129.11 182.148C129.916 181.602 130.703 181.079 131.265 180.266C131.728 179.591 132.329 178.442 132.111 177.609C132.16 177.044 131.78 176.781 130.975 176.812C130.793 177.029 130.648 177.265 130.543 177.524C130.285 178.027 130.088 178.582 129.899 179.108C129.543 180.096 129.242 181.11 129.027 182.136C128.952 182.489 128.421 182.338 128.491 181.988Z" fill="#FFA401"/>
<path d="M135.998 159.008C139.077 158.116 141.776 157.129 143.936 154.632C145.349 152.998 143.436 152.665 142.109 153.094C141.227 153.38 140.397 153.907 139.706 154.512C138.359 155.688 137.447 157.26 136.608 158.818C136.353 159.289 135.635 158.871 135.886 158.395C137.13 156.025 138.655 153.621 141.199 152.49C142.243 152.025 145 151.208 145.68 152.699C146.357 154.194 143.848 156.138 142.89 156.896C141.009 158.383 138.509 159.571 136.068 159.518C135.776 159.511 135.712 159.089 135.998 159.008Z" fill="#FFA401"/>
<path d="M78.0456 161.246C75.7742 159.313 72.9924 158.263 70.0073 158.272C70.1538 158.129 70.2991 157.981 70.4462 157.834C70.3015 161.141 76.5374 160.808 78.5672 160.68C79.0823 160.645 79.2076 161.493 78.6913 161.59C76.1074 162.067 69.2281 161.823 69.5702 157.834C69.5885 157.606 69.7539 157.388 70.0073 157.397C73.2133 157.485 76.0796 158.675 78.3422 160.948C78.5353 161.14 78.2494 161.42 78.0456 161.246Z" fill="#FFA401"/>
<path d="M125.938 136.835C122.657 135.077 126.417 131.757 129.096 132.595C133.469 133.958 133.057 139.394 130.399 142.143C127.12 145.535 121.414 145.621 118.307 141.973C115.496 138.674 116.135 133.392 120.025 131.235C120.415 131.022 120.695 131.561 120.364 131.816C115.618 135.478 116.989 142.872 123.221 143.816C125.995 144.239 128.982 143.034 130.591 140.683C131.462 139.413 132.007 137.752 131.587 136.199C131.257 135.607 130.926 135.01 130.597 134.417C129.041 132.636 127.56 133.322 126.153 136.471C126.371 136.625 126.18 136.962 125.938 136.835Z" fill="#FFA401"/>
<path d="M93.084 133.477C96.4737 135.263 97.5081 139.565 95.486 142.797C93.6641 145.71 88.5199 148.152 85.3068 146.055C81.9502 143.87 83.8944 138.597 87.3367 137.701C90.0813 136.988 93.0297 140.614 89.8184 141.903C89.5023 142.03 89.2365 141.547 89.4858 141.33C88.8029 138.34 87.5712 137.744 85.7889 139.545C85.5077 139.904 85.2271 140.265 84.9441 140.621C83.8276 142.647 84.559 145.187 86.8363 145.81C88.8832 146.371 91.3909 145.461 93.009 144.265C96.5044 141.678 96.9865 136.141 92.8808 133.825C92.6545 133.698 92.8548 133.358 93.084 133.477Z" fill="#FFA401"/>
<path d="M107.781 137.068C107.876 136.463 108.103 135.893 108.191 135.285C108.241 134.937 108.444 133.294 107.936 133.159C107.628 133.348 107.32 133.535 107.013 133.72C107.002 133.887 107.013 134.05 107.045 134.212C107.08 134.484 107.145 134.746 107.231 135.006C107.437 135.642 107.757 136.218 108.035 136.818C108.235 137.248 107.634 137.624 107.388 137.197C106.836 136.242 106.285 135.107 106.242 133.984C106.211 133.144 106.668 132.16 107.649 132.226C109.818 132.381 109.042 136.252 108.037 137.213C107.921 137.33 107.758 137.211 107.781 137.068Z" fill="#FFA401"/>
<path d="M107.983 137.106C108.347 136.211 108.991 135.556 109.907 135.204C110.712 134.894 111.924 134.771 112.424 135.646C113.695 137.872 108.767 137.954 107.788 137.849C107.287 137.798 107.282 137.008 107.788 137.063C108.522 137.141 109.261 137.152 109.996 137.044C110.269 137.001 110.541 136.948 110.807 136.873C111.345 136.73 111.549 136.792 111.257 136.173C110.989 135.607 110.876 135.685 110.342 135.836C110.05 135.917 109.77 136.041 109.508 136.193C109.04 136.459 108.611 136.858 108.264 137.269C108.159 137.392 107.921 137.261 107.983 137.106Z" fill="#FFA401"/>
<path d="M107.886 137.539C106.803 138.031 105.692 138.67 104.473 138.224C103.585 137.899 102.935 137.085 103.034 136.122C103.051 135.948 103.142 135.804 103.317 135.75C104.742 135.328 106.815 135.726 107.551 137.17C107.743 137.543 107.3 137.871 106.988 137.608C105.929 136.718 104.975 136.097 103.52 136.489C103.612 136.369 103.708 136.245 103.801 136.121C103.524 138.286 106.549 137.662 107.67 137.167C107.919 137.055 108.139 137.424 107.886 137.539Z" fill="#FFA401"/>
<path d="M78.0537 148.389C78.7567 146.326 80.2583 142.797 77.5958 141.411C76.513 140.85 75.6558 141.973 75.813 142.945C75.9063 143.506 76.3789 144.196 76.6565 144.722C77.2479 145.841 78.0235 146.856 78.6025 147.975C78.772 148.308 78.3455 148.676 78.069 148.385C76.8746 147.15 72.2585 140.072 76.8799 140.292C78.3585 140.366 79.4301 141.64 79.7899 142.99C80.3009 144.932 79.4159 146.913 78.4052 148.537C78.2929 148.715 77.981 148.602 78.0537 148.389Z" fill="#FFA401"/>
<path d="M78.4538 148.738C77.0473 149.675 75.6484 150.317 73.9417 150.45C72.7531 150.542 71.0246 150.484 70.5874 149.105C69.6056 145.984 76.4535 146.74 77.7874 147.158C78.208 147.29 78.1578 147.995 77.6781 147.959C76.7513 147.898 75.838 147.727 74.9075 147.7C74.3517 147.688 73.7893 147.696 73.2334 147.746C72.1789 147.835 71.8865 147.635 72.5263 148.816C73.0645 149.807 72.9788 149.741 73.9423 149.687C74.458 149.656 74.9672 149.571 75.4682 149.447C76.4317 149.214 77.3739 148.858 78.2086 148.325C78.4721 148.153 78.7067 148.568 78.4538 148.738Z" fill="#FFA401"/>
<path d="M136.721 143.638C138.766 142.887 141.06 143.1 142.837 144.412C143.872 145.175 144.827 146.683 143.067 147.169C141.013 147.739 137.376 146.96 135.639 145.772C134.193 144.784 135.624 144.119 136.591 143.572C136.863 143.417 137.184 143.797 136.935 144.014C136.954 143.998 136.38 144.37 136.364 144.393C135.706 145.268 136.541 145.563 137.221 145.768C138.596 146.186 140.014 146.446 141.452 146.48C142.078 146.5 143.535 146.76 142.756 145.295C142.496 144.807 141.406 144.363 140.888 144.173C139.566 143.682 138.193 143.7 136.859 144.138C136.541 144.242 136.414 143.755 136.721 143.638Z" fill="#FFA401"/>
<path d="M135.302 143.448C135.04 141.632 135.564 132.609 139.457 135.313C140.932 136.339 140.686 138.531 140.108 139.976C139.354 141.858 137.81 143.256 135.875 143.832C135.438 143.964 135.288 143.324 135.691 143.166C136.915 142.678 138.01 141.915 138.758 140.812C139.273 140.057 140.554 137.23 139.46 136.479C138.637 136.516 137.814 136.557 136.989 136.591C136.753 136.994 136.569 137.418 136.434 137.869C136.245 138.407 136.088 138.961 135.963 139.519C135.673 140.799 135.585 142.105 135.538 143.417C135.533 143.546 135.322 143.588 135.302 143.448Z" fill="#FFA401"/>
</g>
<g opacity="0.43">
<path d="M195.314 144.292C194.278 148.42 191.902 152.278 188.398 154.686C184.894 157.094 180.23 157.911 176.249 156.413C171.478 154.62 168.45 150.058 165.233 146.105C159.523 139.093 152.3 133.315 144.204 129.28C142.625 128.494 140.944 127.758 139.18 127.797C137.417 127.836 135.556 128.863 135.097 130.566C134.629 132.297 135.679 134.039 136.682 135.526C140.029 140.494 143.376 145.462 146.726 150.431C151.15 156.997 155.645 163.646 161.614 168.851C167.581 174.059 175.292 177.742 183.195 177.234C188.246 176.909 193.375 174.675 196.212 170.481C200.693 163.851 198.317 154.956 195.79 147.363" fill="#0D0D19"/>
</g>
<path d="M202.976 93.1012C203.039 100.803 202.835 108.579 202.343 116.27C202.325 116.564 201.875 116.571 201.878 116.27C201.89 108.563 202.191 100.787 202.758 93.1012C202.767 92.9606 202.976 92.957 202.976 93.1012Z" fill="#D0854B"/>
<path d="M202.063 116.308C202.253 116.288 202.441 116.288 202.633 116.266C203.173 116.211 203.206 116.996 202.753 117.16C202.262 117.338 201.741 117.117 201.488 116.667C201.361 116.443 201.442 116.173 201.654 116.034C202.073 115.762 202.624 115.801 202.957 116.188C203.264 116.544 202.852 117.203 202.417 116.886C202.308 116.808 202.249 116.761 202.125 116.839C202.181 116.627 202.235 116.413 202.291 116.201C202.353 116.316 202.388 116.324 202.51 116.285C202.51 116.576 202.51 116.871 202.51 117.161C202.33 117.103 202.149 117.06 201.97 116.998C201.581 116.862 201.674 116.35 202.063 116.308Z" fill="#D0854B"/>
<path d="M202.82 116.846C203.39 118.968 203.773 121.442 203.037 123.568C202.94 123.843 202.498 123.816 202.507 123.499C202.576 121.252 202.859 119.204 202.392 116.965C202.334 116.687 202.746 116.567 202.82 116.846Z" fill="#D0854B"/>
<path d="M202.274 116.547C202.549 118.798 202.847 121.315 202 123.49C201.919 123.697 201.583 123.688 201.589 123.432C201.631 121.125 202.166 118.878 201.988 116.547C201.974 116.362 202.253 116.37 202.274 116.547Z" fill="#D0854B"/>
<path d="M201.912 117.093C201.585 119.034 201.73 120.982 201.515 122.917C201.486 123.188 201.05 123.309 200.994 122.987C200.656 121.02 201.165 118.921 201.676 117.028C201.718 116.873 201.938 116.939 201.912 117.093Z" fill="#D0854B"/>
<path d="M201.835 117.029C200.539 119.254 200.477 121.532 200.291 124.013C200.267 124.366 199.727 124.49 199.644 124.102C199.088 121.562 200.148 118.93 201.417 116.784C201.575 116.512 201.992 116.756 201.835 117.029Z" fill="#D0854B"/>
<path d="M287.431 89.9295C286.936 89.9295 286.936 89.1592 287.431 89.1592C287.927 89.1598 287.927 89.9295 287.431 89.9295Z" fill="#D0854B"/>
<path d="M282.711 89.4303C282.705 89.5166 282.697 89.604 282.69 89.6896C282.765 89.7895 282.84 89.887 282.914 89.9833C282.902 89.9756 282.892 89.9721 282.882 89.9644C282.612 89.8132 282.597 89.4604 282.788 89.2472C282.799 89.2365 282.806 89.2247 282.816 89.2164C282.925 89.093 283.135 89.0386 283.292 89.0895C283.511 89.1668 283.689 89.3258 283.731 89.5615C283.914 90.626 282.235 90.3088 282.711 89.4303Z" fill="#D0854B"/>
<path d="M278.935 90.1622C278.883 90.073 278.833 89.979 278.784 89.8869C278.674 89.6819 278.895 89.4604 279.104 89.5691C279.197 89.6158 279.287 89.666 279.377 89.7203C279.844 89.9832 279.201 90.6301 278.935 90.1622Z" fill="#D0854B"/>
<path d="M336.609 59.7283C336.702 59.7655 336.793 59.8021 336.883 59.8453C337.074 59.9362 337.074 60.2594 336.883 60.3497C336.793 60.3929 336.702 60.4289 336.609 60.4661C335.996 60.7024 335.993 59.4908 336.609 59.7283Z" fill="#D0854B"/>
<path d="M338.334 55.8505C337.922 55.8505 337.922 55.2131 338.334 55.2131C338.745 55.2131 338.745 55.8505 338.334 55.8505Z" fill="#D0854B"/>
<path d="M338.692 51.1955C338.687 51.1181 338.68 51.0425 338.669 50.9674C338.618 50.5179 339.418 50.5179 339.366 50.9674C339.356 51.0425 339.349 51.1181 339.346 51.1955C339.308 51.6143 338.728 51.6143 338.692 51.1955Z" fill="#D0854B"/>
<path d="M348.962 48.3197C345.059 46.7832 341.378 46.2031 337.213 46.8925C336.904 46.9445 336.764 46.4831 337.081 46.4146C341.093 45.5196 345.488 45.9957 349.073 48.0539C349.212 48.133 349.118 48.3811 348.962 48.3197Z" fill="#FD6A1D"/>
<path d="M341.163 43.8993C339.883 43.8993 339.881 41.9085 341.163 41.9085C342.445 41.9085 342.447 43.8993 341.163 43.8993Z" fill="#1A1830"/>
<path d="M207.224 93.3062C207.068 109.859 206.573 126.395 206.594 142.952C206.594 143.293 206.068 143.293 206.065 142.952C205.933 126.425 205.98 109.806 207.041 93.3062C207.048 93.1898 207.227 93.1863 207.224 93.3062Z" fill="#FD6A1D"/>
<path d="M206.924 143.696C206.669 143.661 206.421 143.622 206.166 143.634C205.888 143.649 205.775 143.343 205.873 143.126C206.367 142.05 208.432 143.084 207.495 143.948C206.693 144.684 205.385 143.483 206.298 142.72C206.648 142.427 207.221 142.388 207.564 142.716C207.973 143.108 207.845 143.755 207.447 144.096C206.472 144.936 205.311 143.317 206.263 142.573C206.692 142.237 207.259 142.763 206.872 143.186C206.753 143.317 206.905 143.492 206.964 143.406C206.832 143.596 206.921 143.069 206.855 143.305C206.87 143.421 206.885 143.538 206.899 143.653C206.76 143.417 206.544 143.502 206.335 143.593C206.309 143.382 206.282 143.178 206.254 142.973C206.497 143.065 206.745 143.104 206.996 143.154C207.298 143.213 207.234 143.735 206.924 143.696Z" fill="#FD6A1D"/>
<path d="M207.947 143.596C208.393 146.539 208.49 149.52 207.995 152.468C207.947 152.745 207.463 152.684 207.492 152.398C207.798 149.462 207.924 146.586 207.631 143.638C207.613 143.46 207.921 143.417 207.947 143.596Z" fill="#FD6A1D"/>
<path d="M207.033 144.122C207.519 146.837 207.64 149.807 206.824 152.471C206.75 152.707 206.331 152.68 206.366 152.409C206.711 149.61 207.037 146.987 206.762 144.158C206.747 144.005 207.006 143.967 207.033 144.122Z" fill="#FD6A1D"/>
<path d="M206.315 143.293C206.032 145.992 205.995 148.745 205.545 151.425C205.502 151.669 205.1 151.611 205.113 151.366C205.236 148.668 205.784 145.977 206.075 143.293C206.09 143.142 206.33 143.139 206.315 143.293Z" fill="#FD6A1D"/>
<path d="M205.676 143.852C204.729 146.516 204.471 149.21 203.844 151.941C203.792 152.161 203.448 152.111 203.448 151.886C203.46 149.152 204.484 146.313 205.409 143.778C205.468 143.611 205.735 143.682 205.676 143.852Z" fill="#FD6A1D"/>
<path d="M209.057 300.268C195.717 292.654 181.774 288.558 166.312 289.6C165.773 289.634 165.774 288.795 166.312 288.76C181.199 287.772 196.946 291.238 209.294 299.865C209.535 300.032 209.322 300.419 209.057 300.268Z" fill="#FFA401"/>
<path d="M201.207 318.544C188.442 315.11 175.93 312.844 162.795 311.357C162.327 311.304 162.3 310.579 162.795 310.598C175.715 311.152 189.146 313.785 201.372 317.941C201.749 318.072 201.599 318.649 201.207 318.544Z" fill="#FFA401"/>
<path d="M263.657 294.421C252.879 301.143 239.835 306.25 227.387 308.736C226.995 308.814 226.829 308.245 227.221 308.128C239.925 304.454 251.561 299.881 263.429 294.03C263.689 293.902 263.908 294.267 263.657 294.421Z" fill="#FFA401"/>
<path d="M260.759 270.867C246.746 277.925 232.024 283.71 217.048 288.373C216.575 288.52 216.374 287.78 216.843 287.629C231.787 282.808 246.257 277.015 260.53 270.478C260.791 270.358 261.022 270.734 260.759 270.867Z" fill="#FFA401"/>
<path d="M162.01 260.763C147.42 245.336 125.939 242.42 105.662 244.325C100.709 244.793 95.0388 245.63 91.3963 249.386C87.5984 253.305 87.5948 259.791 90.916 264.003C94.3742 268.391 100.313 268.937 105.014 266.102C107.195 264.79 109.053 262.575 109.745 260.104C110.331 258.006 110.177 255.779 108.995 253.952C107.254 251.257 101.617 249.49 100.372 254.506C100.235 255.059 99.3767 254.824 99.5161 254.27C100.208 251.505 102.757 249.821 105.654 250.25C109.201 250.781 110.99 254.475 110.948 257.766C110.849 265.442 101.881 270.68 94.9396 268.086C87.6539 265.367 85.3754 255.095 90.3908 249.34C93.6635 245.585 98.7871 244.345 103.533 243.765C110.611 242.893 117.937 242.797 125.04 243.412C138.911 244.625 153.118 249.53 162.365 260.407C162.573 260.65 162.237 260.999 162.01 260.763Z" fill="#FFA401"/>
<path d="M165.121 255.082C157.236 250.905 150.806 244.836 146.159 237.216C146.001 236.956 146.263 236.623 146.554 236.705C155.026 239.062 161.848 244.93 165.434 252.964C165.634 253.414 164.967 253.809 164.766 253.353C163.127 249.643 160.825 246.297 157.795 243.574C156.307 242.239 154.673 241.057 152.933 240.066C152.246 239.672 148.109 237.221 147.408 237.781C146.716 238.336 153.918 246.134 154.852 247.022C158.016 250.034 161.567 252.531 165.4 254.607C165.715 254.772 165.435 255.248 165.121 255.082Z" fill="#FFA401"/>
<path d="M168.293 253.158C166.763 245.266 170.079 237.263 176.205 232.228C176.425 232.045 176.827 232.077 176.894 232.411C178.404 239.833 175.352 247.191 169.037 251.369C168.585 251.664 168.165 250.939 168.613 250.645C171.696 248.608 174.059 245.801 175.379 242.338C175.991 240.736 177.633 233.374 175.391 233.989C172.869 234.683 170.355 240.79 169.629 242.961C168.514 246.296 168.4 249.633 168.753 253.095C168.776 253.356 168.343 253.417 168.293 253.158Z" fill="#FFA401"/>
<path d="M54.628 152.195C69.171 168.917 42.1662 199.317 24.051 184.529C23.5465 184.12 24.2589 183.437 24.7599 183.824C42.3558 197.459 67.1299 168.974 54.3167 152.505C54.1477 152.289 54.4384 151.979 54.628 152.195Z" fill="#FFA401"/>
<path d="M244.15 186.512C240.131 201.022 249.201 218.853 239.21 231.809C230.602 242.974 215.905 236.318 205.77 230.939C183.21 218.965 164.776 195.372 161.444 169.664C161.38 169.18 162.195 169.075 162.297 169.551C167.52 193.672 180.68 214.653 202.005 227.749C212.989 234.494 231.598 243.858 240.13 229.065C247.521 216.252 239.964 200.178 243.815 186.42C243.874 186.202 244.209 186.295 244.15 186.512Z" fill="#D0854B"/>
<path d="M141.407 242.962C137.657 240.952 133.526 240 129.554 238.602C127.578 237.909 128.367 235.105 130.414 235.481C134.853 236.294 138.764 238.738 142.47 241.146C143.604 241.882 142.608 243.604 141.407 242.962Z" fill="#F27300"/>
<path d="M161.885 239.451C161.215 237.107 162.364 234.667 162.953 232.387C163.683 229.556 164.254 226.717 164.738 223.837C165.209 221.029 169.278 221.936 169.449 224.475C169.471 224.805 169.494 225.133 169.518 225.463C169.668 227.697 166.604 228.205 165.531 226.54C165.346 226.257 165.162 225.97 164.978 225.683C166.441 225.494 167.903 225.303 169.364 225.11C168.811 228.142 168.056 231.167 167.043 234.079C166.271 236.287 165.579 238.834 163.499 240.104C162.886 240.48 162.077 240.12 161.885 239.451Z" fill="#F27300"/>
<path d="M161.369 237.982C161.058 236.097 160.803 234.202 160.302 232.351C159.792 230.477 158.921 228.766 158.298 226.934C157.545 224.727 160.763 223.562 161.937 225.401C164.076 228.755 164.946 233.641 164.497 237.56C164.315 239.167 161.689 239.918 161.369 237.982Z" fill="#F27300"/>
<path d="M119.332 249.854C118.481 252.054 118.338 254.741 116.852 256.67C115.674 258.199 113.346 257.348 113.707 255.341C114.143 252.929 116.028 251.035 117.099 248.913C117.711 247.697 119.836 248.553 119.332 249.854Z" fill="#F27300"/>
<path d="M125.19 250.88C125.061 251.271 124.933 251.667 124.805 252.057C124.626 252.599 124.382 252.963 123.945 253.339C123.583 253.652 123.116 253.784 122.656 253.583C122.252 253.405 121.899 252.976 121.93 252.503C121.969 251.933 122.028 251.496 122.357 251.024C122.597 250.678 122.838 250.335 123.079 249.993C123.408 249.521 123.968 249.277 124.521 249.521C125.022 249.743 125.37 250.323 125.19 250.88Z" fill="#F27300"/>
<path d="M98.2981 242.958C93.19 242.788 86.8489 243.228 82.1755 240.847C80.8452 240.17 81.4726 237.99 82.9346 238.044C85.2823 238.126 87.5655 238.982 89.8664 239.451C92.6553 240.015 95.4496 240.542 98.2976 240.674C99.7591 240.74 99.7732 243.009 98.2981 242.958Z" fill="#F27300"/>
<path d="M89.2377 245.956C87.8796 246.118 86.3336 247.055 84.9814 246.54C83.7308 246.059 83.3568 244.383 84.6015 243.624C85.9218 242.815 87.7626 243.438 89.2377 243.348C89.9395 243.311 90.5397 243.98 90.5397 244.654C90.5397 245.425 89.9395 245.866 89.2377 245.956Z" fill="#F27300"/>
<path d="M198.601 325.526C186.584 323.742 174.615 320.76 162.745 318.17C160.594 317.697 161.508 314.429 163.652 314.875C175.537 317.333 187.682 319.474 199.372 322.735C201.214 323.25 200.398 325.794 198.601 325.526Z" fill="#F27300"/>
<path d="M265.504 306.945C259.908 309.201 253.962 310.762 248.186 312.516C242.488 314.243 236.579 316.563 230.695 317.461C229.447 317.65 228.362 315.854 229.744 315.208C234.985 312.749 240.896 311.429 246.431 309.743C252.498 307.892 258.612 305.771 264.825 304.478C266.466 304.133 267.009 306.335 265.504 306.945Z" fill="#F27300"/>
<path d="M267.655 315.118C263.29 318.572 255.64 318.801 250.301 319.897C243.952 321.197 237.035 323.355 230.557 323.358C228.89 323.362 228.827 321.205 230.189 320.647C236.315 318.139 243.762 317.499 250.266 316.264C255.401 315.288 262.267 312.682 267.406 314.173C267.775 314.278 268.005 314.839 267.655 315.118Z" fill="#F27300"/>
<path d="M240.426 349.356C238.592 347.129 236.964 342.998 238.331 340.19C238.497 339.846 238.954 340.056 238.983 340.365C239.134 341.879 238.809 343.308 239.137 344.845C239.454 346.344 240.103 347.688 240.923 348.973C241.113 349.271 240.655 349.639 240.426 349.356Z" fill="#D0854B"/>
<path d="M243.115 349.578C241.736 347.839 241.061 345.093 242.55 343.191C242.791 342.883 243.317 343.219 243.201 343.567C242.54 345.557 242.2 347.405 243.592 349.21C243.797 349.482 243.328 349.848 243.115 349.578Z" fill="#D0854B"/>
<path d="M120.458 334.603C115.137 332.915 109.964 332.566 106.09 337.26C103.577 340.303 101.588 344.132 100.238 347.812C100.105 348.179 99.5359 348.035 99.644 347.649C100.898 343.219 103.878 337.712 107.581 334.847C111.508 331.803 116.188 332.767 120.567 334.213C120.816 334.295 120.71 334.685 120.458 334.603Z" fill="#D0854B"/>
<path d="M103.478 345.41C103.778 343.044 106.446 340.626 108.84 340.601C109.176 340.597 109.22 341.07 108.918 341.17C107.745 341.564 106.692 341.89 105.75 342.739C104.868 343.533 104.432 344.493 103.921 345.527C103.823 345.733 103.448 345.643 103.478 345.41Z" fill="#D0854B"/>
<path d="M99.6361 345.915C95.2788 338.914 90.7968 330.607 81.4347 330.425C80.8652 330.413 80.8634 329.526 81.4347 329.539C90.7874 329.712 96.4532 337.991 100.062 345.665C100.194 345.948 99.8057 346.188 99.6361 345.915Z" fill="#D0854B"/>
<path d="M46.1141 331.405C35.8198 333.783 27.7644 340.476 24.4119 350.62C24.2873 351.006 23.6847 350.846 23.8023 350.452C26.8145 340.462 35.6048 332.422 46.0752 331.118C46.2412 331.098 46.2742 331.37 46.1141 331.405Z" fill="#D0854B"/>
<path d="M23.1134 348.365C18.3933 337.821 13.1174 328 1.28298 324.651C0.922628 324.55 0.974035 323.916 1.37633 323.97C13.4169 325.584 19.2859 338.278 23.5547 348.106C23.6852 348.403 23.2492 348.668 23.1134 348.365Z" fill="#D0854B"/>
<path d="M203.048 349.023C194.126 352.264 187.772 360.385 186.926 369.86C186.896 370.209 186.464 370.255 186.334 369.936C181 356.988 169.681 347.094 155.945 344.039C155.513 343.942 155.696 343.265 156.126 343.373C168.286 346.452 178.869 354.119 184.839 365.274C186.552 368.478 185.996 369.682 187.001 365.818C187.679 363.196 188.806 360.693 190.295 358.433C193.363 353.786 197.75 350.564 202.958 348.694C203.167 348.616 203.255 348.949 203.048 349.023Z" fill="#D0854B"/>
<path d="M274.403 337.439C269.272 343.197 266.449 349.926 266.416 357.682C266.415 358.008 266.019 358.065 265.849 357.833C257.836 346.998 245.954 339.255 232.12 339.885C231.741 339.9 231.745 339.323 232.12 339.301C242.805 338.585 252.815 343.362 260.432 350.65C261.308 351.491 264.439 356.203 265.487 356.326C265.683 356.346 266.533 350.731 266.678 350.159C267.938 345.202 270.501 340.749 274.088 337.121C274.29 336.912 274.594 337.221 274.403 337.439Z" fill="#D0854B"/>
<path d="M197.763 306.982C191.139 311.374 184.923 301.996 190.894 297.158C197.72 291.629 205.528 299.954 203.628 307.141C201.41 315.521 191.073 317.343 184.597 312.593C179.118 308.569 172.778 292.82 183.57 291.288C183.988 291.225 184.182 291.853 183.748 291.938C176.082 293.416 178.186 303.298 181.171 307.981C184.238 312.782 189.878 315.627 195.56 314.199C200.615 312.929 204.076 308.143 203.184 302.935C202.572 299.352 199.75 296.197 195.845 296.093C192.682 296.101 190.491 297.637 189.273 300.697C189.895 307.136 192.652 309.104 197.541 306.598C197.783 306.448 197.999 306.828 197.763 306.982Z" fill="#FFA401"/>
<path d="M174.228 289.495C181.809 298.123 172.898 311.931 161.907 308.404C161.532 308.284 161.687 307.754 162.065 307.823C172.991 309.807 180.071 298.99 173.941 289.717C173.824 289.541 174.088 289.337 174.228 289.495Z" fill="#FFA401"/>
<path d="M71.0316 293.906C56.1183 290.366 41.8388 279.962 34.4155 266.444C34.2359 266.111 34.7191 265.827 34.9253 266.145C43.8054 279.745 55.4578 288.91 71.1114 293.611C71.301 293.666 71.223 293.953 71.0316 293.906Z" fill="#FFA401"/>
<path d="M46.5745 308.945C34.4867 306.049 23.3931 294.998 21.075 282.66C21.0006 282.261 21.5588 282.099 21.6912 282.494C25.9528 295.241 33.9273 303.93 46.7122 308.45C47.0211 308.558 46.9012 309.023 46.5745 308.945Z" fill="#FFA401"/>
<path d="M29.7513 298.862C29.6308 293.836 31.5206 289.015 35.3965 285.711C37.0949 284.263 39.0685 283.184 41.1964 282.521C42.6479 282.068 45.7309 281.177 47.186 281.932C50.412 283.609 45.113 288.612 43.7331 290.011C39.9529 293.844 35.1832 296.516 29.9764 297.836C29.4796 297.964 29.2698 297.201 29.7666 297.069C33.151 296.147 36.3316 294.777 39.221 292.778C41.4055 291.265 47.9096 286.312 46.561 283.566C44.9086 280.206 36.9968 285.151 35.1153 286.955C31.8561 290.083 30.3095 294.409 30.2711 298.862C30.2688 299.199 29.7607 299.196 29.7513 298.862Z" fill="#FFA401"/>
<path d="M29.3554 297.127C25.5026 290.026 25.6845 281.886 29.8723 274.97C30.0401 274.695 30.4016 274.784 30.5068 275.052C33.0895 281.561 33.099 288.695 29.9751 295.017C29.8227 295.332 29.2703 295.106 29.4056 294.777C30.6911 291.633 31.6073 288.482 31.7036 285.054C31.7615 283.103 31.8637 276.825 29.7689 276.477C28.2058 276.217 27.1661 285.82 27.1679 286.664C27.172 290.293 28.1095 293.673 29.7932 296.872C29.9473 297.158 29.512 297.414 29.3554 297.127Z" fill="#FFA401"/>
<path d="M30.4917 297.747C37.3869 295.288 44.8663 295.931 51.5506 298.723C51.82 298.835 51.9369 299.218 51.638 299.385C45.4015 302.877 37.3089 303.137 31.3648 298.827C31.1267 298.653 31.3311 298.282 31.6005 298.425C34.5253 299.958 37.4465 301.12 40.786 301.305C41.8352 301.363 50.7395 300.461 50.1168 299.118C49.3684 297.494 42.3155 297.011 41.1044 296.944C37.5139 296.739 34.0917 297.309 30.6022 298.142C30.3416 298.204 30.2442 297.832 30.4917 297.747Z" fill="#FFA401"/>
<path d="M37.3403 278.753C37.3586 278.777 37.3799 278.796 37.3988 278.819C37.7598 279.067 37.6404 279.671 37.1673 279.671C36.6929 279.671 36.5741 279.067 36.9351 278.819C36.9552 278.796 36.9741 278.777 36.9947 278.753C37.0727 278.657 37.2606 278.657 37.3403 278.753Z" fill="#D0854B"/>
<path d="M50.2598 293.093C49.8244 293.201 49.4322 292.837 49.5414 292.391C49.571 292.272 49.6862 292.135 49.8167 292.116C50.2297 292.054 50.5256 292.237 50.5428 292.674C50.5587 293.061 50.0436 293.151 49.8522 292.86C49.8746 292.871 49.8989 292.878 49.9207 292.891C50.0341 292.825 50.1481 292.759 50.2598 292.693C50.2072 292.638 50.1552 292.581 50.1027 292.527C50.4677 292.477 50.6396 293.003 50.2598 293.093Z" fill="#D0854B"/>
<path d="M241.937 305.093C241.169 293.247 245.694 281.789 253.772 273.189C253.951 272.999 254.267 273.104 254.337 273.34C258.053 285.797 250.06 296.597 242.246 305.491C241.99 305.786 241.582 305.364 241.823 305.069C245.247 300.926 248.854 296.844 251.364 292.051C253.092 288.755 254.383 285.112 254.661 281.375C254.802 279.462 255.206 273.941 252.722 275.343C250.886 276.379 249.033 280.194 247.978 282.049C246.622 284.431 245.495 286.956 244.619 289.55C242.921 294.584 242.293 299.796 242.317 305.094C242.319 305.341 241.953 305.336 241.937 305.093Z" fill="#FFA401"/>
<path d="M241.032 304.059C238.792 301.754 224.855 285.364 231.146 283.149C234.051 282.127 237.354 286.576 238.602 288.492C241.495 292.918 242.505 298.347 243.196 303.497C243.242 303.834 242.666 303.915 242.6 303.578C241.992 300.485 241.536 297.356 240.551 294.35C239.758 291.926 237.613 286.374 234.912 285.317C230.751 285.506 229.686 286.924 231.721 289.564C231.908 289.967 232.097 290.37 232.283 290.773C233.056 292.371 233.918 293.92 234.847 295.435C236.704 298.444 238.852 301.24 241.253 303.834C241.391 303.981 241.173 304.202 241.032 304.059Z" fill="#FFA401"/>
<path d="M242.485 305.252C233.268 304.915 225.019 300.388 219.595 292.965C219.321 292.593 219.941 292.24 220.211 292.605C225.595 299.862 233.5 304.11 242.485 304.822C242.755 304.845 242.762 305.263 242.485 305.252Z" fill="#FFA401"/>
<path d="M304.131 117.682C294.198 123.091 285.218 129.658 276.371 136.656C275.555 137.303 274.397 136.226 275.199 135.487C283.56 127.753 293.441 121.771 303.725 116.992C304.187 116.776 304.591 117.435 304.131 117.682Z" fill="#0D0D19"/>
<path d="M237.378 113.605C239.052 116.28 238.193 120.063 235.341 121.566C232.994 122.801 227.876 121.999 227.725 118.697C227.688 117.869 228.631 117.446 229.3 117.795C230.082 118.205 230.507 118.991 231.332 119.382C232.162 119.774 233.19 119.894 234.073 119.595C236.129 118.902 236.873 116.254 235.996 114.414C235.557 113.492 236.824 112.718 237.378 113.605Z" fill="#0D0D19"/>
<path d="M207.213 112.21C204.63 122.193 202.125 132.296 198.023 141.783C195.063 148.629 190.951 158.5 183.085 160.974C175.073 163.491 169.688 156.149 165.773 150.414C159.323 140.954 150.588 134.918 139.749 131.444C138.555 131.061 139.04 129.256 140.268 129.558C147.165 131.263 153.574 134.821 158.912 139.487C161.585 141.827 163.963 144.482 166.041 147.363C169.293 151.871 172.015 157.714 177.864 159.14C188.262 161.677 193.901 146.876 197.042 139.391C200.784 130.476 203.528 121.211 206.192 111.934C206.38 111.277 207.383 111.553 207.213 112.21Z" fill="#0D0D19"/>
<path d="M122.962 271.264C113.62 275.666 103.949 279.393 94.4453 283.419C85.4707 287.223 76.6166 291.829 67.4264 295.045C66.5409 295.353 65.9897 293.994 66.7943 293.545C75.2703 288.818 84.76 285.417 93.7004 281.654C103.209 277.65 112.77 273.557 122.601 270.409C123.098 270.25 123.447 271.037 122.962 271.264Z" fill="#0D0D19"/>
<path d="M211.042 286.091C214.305 275.856 218.253 265.325 224.214 256.318C224.897 255.287 226.41 256.178 225.868 257.286C221.12 266.958 215.913 276.283 211.921 286.332C211.708 286.862 210.86 286.661 211.042 286.091Z" fill="#0D0D19"/>
</svg>
