<svg width="187" height="175" viewBox="0 0 187 175" fill="none" xmlns="http://www.w3.org/2000/svg">
<path fill-rule="evenodd" clip-rule="evenodd" d="M191.078 164.082C191.964 169.331 189.978 175.131 183.329 174.374L191.005 163.808C191.037 163.893 191.063 163.984 191.078 164.082Z" fill="white"/>
<path fill-rule="evenodd" clip-rule="evenodd" d="M180.575 42.5751C181.37 42.1221 182.281 41.5111 183.317 40.7161C191.365 34.6721 207.676 10.3701 210.06 4.26611C192.589 24.5501 184.899 29.8891 180.575 33.8441V42.5751Z" fill="white"/>
<path fill-rule="evenodd" clip-rule="evenodd" d="M180.575 28.0811C190.371 20.2161 202.444 7.9441 205.079 3.8811C193.796 12.5921 186.081 17.7071 180.575 21.0421V28.0811Z" fill="white"/>
<path fill-rule="evenodd" clip-rule="evenodd" d="M180.575 12.4843C189.004 8.58826 196.819 4.33826 199.372 2.29126C191.776 4.96026 185.624 6.89926 180.575 8.33826V12.4843Z" fill="white"/>
<path d="M219.822 3.27212C212.525 18.5171 204.542 31.1061 191.888 42.4621C188.199 45.7731 184.398 48.9511 180.575 52.1001V55.4531C186.191 50.8211 191.805 46.1841 197.168 41.2491C208.562 30.7571 215.695 18.0341 222.31 4.20912C223.049 2.66312 220.553 1.73512 219.822 3.27212Z" fill="white"/>
<path d="M215.852 0.394203C208.506 15.7562 200.47 28.4282 187.714 39.8672C185.369 41.9702 182.986 44.0192 180.575 46.0412V47.6802C184.508 44.4042 188.397 41.0842 192.167 37.6152C203.47 27.2122 210.542 14.5742 217.103 0.864204C217.469 0.0872043 216.225 -0.373797 215.852 0.394203Z" fill="white"/>
<path d="M185.19 157.481C188.226 157.545 190.821 159.012 193.37 160.553L193.752 160.027C191.107 158.431 188.419 156.888 185.253 156.82C184.828 156.811 184.759 157.476 185.19 157.481Z" fill="white"/>
<path d="M204.742 144.898C200.577 143.676 196.116 143.274 192.335 141.026C191.294 140.403 187.798 137.381 190.022 136.345C190.879 135.949 193.784 135.908 193.138 137.381C192.448 138.954 194.937 139.886 195.626 138.318C197.815 133.323 189.611 132.164 187.119 135.33C185.16 137.821 188.289 141.117 189.99 142.611C193.43 145.641 198.592 146.074 203.062 147.206L204.742 144.898Z" fill="white"/>
<path fill-rule="evenodd" clip-rule="evenodd" d="M190.721 163.822C185.461 164.603 180.553 168.28 183.326 174.374L191.005 163.808C190.915 163.802 190.82 163.807 190.721 163.822Z" fill="white"/>
<path fill-rule="evenodd" clip-rule="evenodd" d="M180.575 42.5771C179.781 42.1241 178.869 41.5131 177.829 40.7171C169.784 34.6731 153.475 10.3711 151.087 4.26611C168.559 24.5501 176.25 29.8891 180.575 33.8441V42.5771Z" fill="white"/>
<path fill-rule="evenodd" clip-rule="evenodd" d="M180.575 28.0821C170.778 20.2151 158.705 7.94713 156.071 3.88013C167.353 12.5911 175.068 17.7061 180.575 21.0431V28.0821Z" fill="white"/>
<path fill-rule="evenodd" clip-rule="evenodd" d="M180.575 12.4842C172.143 8.58824 164.327 4.33824 161.779 2.29224C169.373 4.95924 175.527 6.89923 180.575 8.33823V12.4842Z" fill="white"/>
<path d="M141.33 3.27227C148.623 18.5173 156.607 31.1063 169.261 42.4623C172.952 45.7733 176.753 48.9513 180.575 52.1003V55.4533C174.956 50.8223 169.341 46.1843 163.981 41.2493C152.585 30.7603 145.453 18.0353 138.838 4.21127C138.102 2.66327 140.595 1.73527 141.33 3.27227Z" fill="white"/>
<path d="M145.296 0.394234C152.644 15.7562 160.684 28.4282 173.438 39.8702C175.778 41.9712 178.167 44.0202 180.576 46.0412V47.6822C176.644 44.4062 172.751 41.0842 168.984 37.6172C157.682 27.2112 150.608 14.5762 144.048 0.863236C143.678 0.0902358 144.924 -0.373766 145.296 0.394234Z" fill="white"/>
<path d="M125.402 102.224C134.313 87.2842 142.959 66.3322 137.902 49.7422C131.64 29.2042 102.885 38.4872 84.839 46.3942L83.228 44.1742C101.615 35.9422 129.454 26.8342 139.505 46.5872C144.176 55.7622 141.538 68.2582 138.754 77.5382C135.94 86.9192 132.081 96.0831 127.073 104.525L125.402 102.224Z" fill="white"/>
<path fill-rule="evenodd" clip-rule="evenodd" d="M132.184 103.73C133.192 105.118 131.039 106.679 130.032 105.294C129.023 103.905 131.176 102.343 132.184 103.73Z" fill="white"/>
<path fill-rule="evenodd" clip-rule="evenodd" d="M135.383 97.5723C136.392 98.9593 134.24 100.523 133.23 99.1343C132.222 97.7473 134.375 96.1833 135.383 97.5723Z" fill="white"/>
<path fill-rule="evenodd" clip-rule="evenodd" d="M138.383 92.6482C139.392 94.0362 137.238 95.6012 136.23 94.2122C135.224 92.8242 137.374 91.2622 138.383 92.6482Z" fill="white"/>
<path fill-rule="evenodd" clip-rule="evenodd" d="M140.342 86.2962C141.35 87.6822 139.198 89.2472 138.189 87.8592C137.182 86.4712 139.332 84.9072 140.342 86.2962Z" fill="white"/>
<path fill-rule="evenodd" clip-rule="evenodd" d="M142.462 80.9201C143.472 82.3091 141.32 83.8731 140.31 82.4851C139.302 81.0961 141.454 79.5341 142.462 80.9201Z" fill="white"/>
<path fill-rule="evenodd" clip-rule="evenodd" d="M144.322 75.1842C145.33 76.5712 143.179 78.1362 142.17 76.7452C141.159 75.3612 143.314 73.7972 144.322 75.1842Z" fill="white"/>
<path fill-rule="evenodd" clip-rule="evenodd" d="M144.749 70.4921C145.756 71.8811 143.604 73.4441 142.596 72.0551C141.587 70.6661 143.74 69.1031 144.749 70.4921Z" fill="white"/>
<path fill-rule="evenodd" clip-rule="evenodd" d="M145.272 65.1803C146.281 66.5693 144.129 68.1323 143.122 66.7433C142.111 65.3533 144.263 63.7913 145.272 65.1803Z" fill="white"/>
<path fill-rule="evenodd" clip-rule="evenodd" d="M145.7 60.4863C146.706 61.8753 144.556 63.4383 143.546 62.0493C142.538 60.6633 144.69 59.0983 145.7 60.4863Z" fill="white"/>
<path fill-rule="evenodd" clip-rule="evenodd" d="M145.245 55.3361C146.25 56.7231 144.1 58.2872 143.093 56.8992C142.084 55.5122 144.236 53.9491 145.245 55.3361Z" fill="white"/>
<path fill-rule="evenodd" clip-rule="evenodd" d="M144.791 50.1842C145.799 51.5742 143.647 53.1362 142.639 51.7472C141.63 50.3612 143.782 48.7992 144.791 50.1842Z" fill="white"/>
<path fill-rule="evenodd" clip-rule="evenodd" d="M143.36 45.2003C144.37 46.5873 142.216 48.1503 141.21 46.7623C140.2 45.3743 142.352 43.8093 143.36 45.2003Z" fill="white"/>
<path fill-rule="evenodd" clip-rule="evenodd" d="M141.571 40.4722C142.58 41.8582 140.426 43.4242 139.419 42.0362C138.41 40.6472 140.562 39.0842 141.571 40.4722Z" fill="white"/>
<path fill-rule="evenodd" clip-rule="evenodd" d="M101.294 24.2531C101.666 24.7691 101.945 25.2851 102.198 25.8031C100.242 16.1361 114.275 7.80809 121.324 17.5091C129.389 28.6111 112.174 41.1181 104.107 30.0171C103.643 29.3751 103.278 28.7321 102.978 28.0851C104.522 36.4791 92.3598 43.6411 86.2278 35.1991C79.1718 25.4841 94.2348 14.5391 101.294 24.2531ZM118.667 19.3321C116.247 16.0001 111.583 15.2631 108.253 17.6831C104.921 20.1031 104.181 24.7671 106.602 28.1001C109.025 31.4321 113.686 32.1691 117.018 29.7481C120.35 27.3271 121.089 22.6641 118.667 19.3321ZM98.8728 26.0031C96.8448 23.2151 92.9458 22.5951 90.1558 24.6231C87.3688 26.6481 86.7488 30.5491 88.7748 33.3391C90.8008 36.1261 94.7028 36.7461 97.4918 34.7181C100.279 32.6941 100.899 28.7901 98.8728 26.0031Z" fill="white"/>
<path fill-rule="evenodd" clip-rule="evenodd" d="M83.9328 31.6621C87.1108 36.0361 85.8019 40.6581 82.7599 43.5331L81.2108 41.4001C83.3648 39.6721 83.5339 36.1621 81.5569 33.4431C79.5809 30.7211 76.1909 29.8001 73.8799 31.3151L72.2769 29.1091C75.9539 27.1011 80.7548 27.2851 83.9328 31.6621Z" fill="white"/>
<path fill-rule="evenodd" clip-rule="evenodd" d="M139.825 22.4242C146.883 32.1382 131.822 43.0812 124.765 33.3672C117.705 23.6532 132.768 12.7092 139.825 22.4242ZM137.342 24.2272C135.316 21.4372 131.415 20.8202 128.627 22.8462C125.837 24.8722 125.218 28.7742 127.246 31.5632C129.27 34.3502 133.173 34.9672 135.961 32.9442C138.749 30.9182 139.369 27.0172 137.342 24.2272Z" fill="white"/>
<path d="M175.96 157.486C172.922 157.545 170.327 159.012 167.781 160.553L167.399 160.027C170.044 158.433 172.729 156.888 175.895 156.823C176.32 156.814 176.391 157.476 175.96 157.486Z" fill="white"/>
<path fill-rule="evenodd" clip-rule="evenodd" d="M142.19 109.679C144.711 113.147 139.332 117.057 136.811 113.588C134.291 110.118 139.671 106.209 142.19 109.679Z" fill="white"/>
<path fill-rule="evenodd" clip-rule="evenodd" d="M147.794 102.116C150.313 105.586 144.933 109.494 142.412 106.025C139.891 102.555 145.272 98.6453 147.794 102.116Z" fill="white"/>
<path fill-rule="evenodd" clip-rule="evenodd" d="M154.593 92.2452C157.867 96.7522 150.874 101.833 147.6 97.3252C144.323 92.8162 151.317 87.7352 154.593 92.2452Z" fill="white"/>
<path fill-rule="evenodd" clip-rule="evenodd" d="M161.466 79.6452C165.753 85.5442 156.607 92.1892 152.32 86.2922C148.037 80.3932 157.182 73.7472 161.466 79.6452Z" fill="white"/>
<path fill-rule="evenodd" clip-rule="evenodd" d="M165.13 64.0411C170.421 71.3251 159.123 79.5331 153.835 72.2491C148.54 64.9611 159.835 56.7551 165.13 64.0411Z" fill="white"/>
<path fill-rule="evenodd" clip-rule="evenodd" d="M166.52 47.0041C172.317 54.9821 159.944 63.9721 154.146 55.9921C148.349 48.0141 160.722 39.0241 166.52 47.0041Z" fill="white"/>
<path fill-rule="evenodd" clip-rule="evenodd" d="M157.724 37.1603C161.25 42.0163 153.72 47.4883 150.191 42.6313C146.662 37.7753 154.195 32.3033 157.724 37.1603Z" fill="white"/>
<path fill-rule="evenodd" clip-rule="evenodd" d="M152.225 31.2913C153.987 33.7183 150.223 36.4553 148.459 34.0263C146.696 31.6003 150.464 28.8623 152.225 31.2913Z" fill="white"/>
<path fill-rule="evenodd" clip-rule="evenodd" d="M149.504 26.6951C150.764 28.4281 148.076 30.3821 146.815 28.6481C145.554 26.9131 148.243 24.9591 149.504 26.6951Z" fill="white"/>
<path fill-rule="evenodd" clip-rule="evenodd" d="M147.344 22.3063C148.35 23.6933 146.199 25.2573 145.19 23.8713C144.181 22.4813 146.333 20.9203 147.344 22.3063Z" fill="white"/>
<path fill-rule="evenodd" clip-rule="evenodd" d="M145.694 19.1882C146.45 20.2262 144.835 21.3982 144.08 20.3602C143.323 19.3202 144.939 18.1492 145.694 19.1882Z" fill="white"/>
<path fill-rule="evenodd" clip-rule="evenodd" d="M144.472 16.3762C145.23 17.4152 143.614 18.5872 142.859 17.5492C142.104 16.5072 143.717 15.3362 144.472 16.3762Z" fill="white"/>
<path fill-rule="evenodd" clip-rule="evenodd" d="M142.787 13.4913C143.542 14.5303 141.93 15.7013 141.176 14.6633C140.42 13.6233 142.032 12.4513 142.787 13.4913Z" fill="white"/>
<path fill-rule="evenodd" clip-rule="evenodd" d="M141.43 10.7782C142.185 11.8162 140.572 12.9882 139.818 11.9502C139.062 10.9102 140.675 9.73819 141.43 10.7782Z" fill="white"/>
<path fill-rule="evenodd" clip-rule="evenodd" d="M140.076 8.06213C140.831 9.10213 139.218 10.2731 138.463 9.23413C137.707 8.19513 139.322 7.02513 140.076 8.06213Z" fill="white"/>
<path d="M162.636 153.474C165.069 153.967 167.91 154.614 170.017 152.963C172.075 151.354 170.269 149.195 168.449 151.158C167.288 152.412 165.204 150.756 166.372 149.5C167.613 148.157 169.314 147.21 171.176 147.814C172.899 148.378 173.693 149.933 173.635 151.662C173.563 153.896 171.23 155.696 169.309 156.317C167.895 156.774 166.381 156.754 164.884 156.564L162.636 153.474Z" fill="white"/>
<path d="M156.406 144.899C160.574 143.676 165.035 143.276 168.812 141.026C169.853 140.403 173.35 137.381 171.126 136.348C170.269 135.951 167.365 135.909 168.013 137.384C168.701 138.955 166.209 139.889 165.524 138.319C163.335 133.327 171.541 132.166 174.033 135.333C175.991 137.822 172.86 141.118 171.159 142.615C167.719 145.644 162.557 146.076 158.087 147.209L156.406 144.899Z" fill="white"/>
<path d="M149.307 135.127C153.238 133.776 157.09 132.289 160.738 130.27C162.856 129.1 164.74 127.607 166.424 125.868C167.261 124.944 167.956 123.912 168.512 122.782C171.212 117.791 163.399 120.315 165.428 121.948C166.771 123.023 165.108 125.099 163.771 124.026C158.706 119.965 169.227 113.701 171.372 119.394C172.86 123.348 168.721 127.505 166.118 129.806C161.938 133.505 156.233 135.59 150.945 137.38L149.307 135.127Z" fill="white"/>
<path d="M141.443 124.3C148.121 124.031 155.324 117.832 159.938 113.818C163.268 110.922 165.482 108.145 165.461 103.561C165.423 94.5281 156.915 105.062 160.158 105.941C161.798 106.388 161.398 109.019 159.744 108.567C149.647 105.826 165.158 90.0241 167.891 101.628C169.468 108.335 164.986 112.938 160.34 116.977C155.996 120.758 149.507 125.656 143.208 126.729L141.443 124.3Z" fill="white"/>
<path fill-rule="evenodd" clip-rule="evenodd" d="M170.427 163.824C175.694 164.605 180.597 168.283 177.822 174.374L170.144 163.808C170.235 163.803 170.329 163.807 170.427 163.824Z" fill="white"/>
<path fill-rule="evenodd" clip-rule="evenodd" d="M114.288 86.9251C122.875 83.1441 128.81 92.3401 123.219 99.2181L114.288 86.9251Z" fill="white"/>
<path fill-rule="evenodd" clip-rule="evenodd" d="M124.598 76.6311C128.917 78.8151 131.368 84.0491 129.231 88.3381C126.862 83.6191 121.558 80.7311 116.225 81.2771C114.407 81.4631 112.721 81.9221 111.139 82.5931L109.831 80.7891C113.773 77.0201 119.418 74.0131 124.598 76.6311Z" fill="white"/>
<path fill-rule="evenodd" clip-rule="evenodd" d="M123.241 64.5463C129.507 65.1863 134.922 70.4033 134.319 76.6133C129.247 71.9833 121.456 70.9463 115.228 74.0883C112.637 75.4013 110.469 77.1183 108.622 79.1263L107.022 76.9263C110.014 70.3553 115.551 63.7573 123.241 64.5463Z" fill="white"/>
<path fill-rule="evenodd" clip-rule="evenodd" d="M115.144 50.6801C122.87 48.3131 132.112 51.4611 134.815 58.6611C126.298 56.0041 116.554 58.6731 110.95 65.2311C108.389 68.2311 106.698 71.5291 105.632 75.0121L102.85 71.1851C103.04 62.7171 106.095 53.4431 115.144 50.6801Z" fill="white"/>
<path fill-rule="evenodd" clip-rule="evenodd" d="M101.304 64.2462C102.353 65.6932 101.691 67.2342 100.529 67.9852L97.5059 63.8322C98.5819 62.9552 100.253 62.7992 101.304 64.2462Z" fill="white"/>
<path fill-rule="evenodd" clip-rule="evenodd" d="M103.312 57.5852C105.328 60.3562 101.024 63.4842 99.0079 60.7112C96.9909 57.9342 101.296 54.8072 103.312 57.5852Z" fill="white"/>
<path fill-rule="evenodd" clip-rule="evenodd" d="M106.425 50.9362C108.445 53.7092 104.14 56.8372 102.125 54.0602C100.108 51.2862 104.41 48.1602 106.425 50.9362Z" fill="white"/>
<path fill-rule="evenodd" clip-rule="evenodd" d="M111.091 44.5342C113.106 47.3082 108.802 50.4352 106.786 47.6602C104.77 44.8852 109.075 41.7592 111.091 44.5342Z" fill="white"/>
<path fill-rule="evenodd" clip-rule="evenodd" d="M118.8 41.9453C120.816 44.7203 116.515 47.8483 114.499 45.0713C112.481 42.2953 116.783 39.1703 118.8 41.9453Z" fill="white"/>
<path fill-rule="evenodd" clip-rule="evenodd" d="M126.688 42.2442C128.703 45.0182 124.399 48.1452 122.384 45.3722C120.368 42.5962 124.671 39.4682 126.688 42.2442Z" fill="white"/>
<path fill-rule="evenodd" clip-rule="evenodd" d="M133.154 45.4883C135.171 48.2653 130.866 51.3922 128.852 48.6162C126.834 45.8412 131.138 42.7143 133.154 45.4883Z" fill="white"/>
<path fill-rule="evenodd" clip-rule="evenodd" d="M109.703 38.6303C103.223 44.9153 99.2517 52.7623 95.1727 60.6193L93.4297 58.2193C97.3747 50.6023 101.333 43.0683 107.625 36.9723C108.842 35.7943 110.934 37.4433 109.703 38.6303Z" fill="white"/>
<path fill-rule="evenodd" clip-rule="evenodd" d="M100.627 40.8432C96.956 45.1662 93.89 49.8992 90.834 54.6452L89.167 52.3492C92.086 47.8162 95.042 43.3122 98.549 39.1862C99.659 37.8802 101.736 39.5392 100.627 40.8432Z" fill="white"/>
<path fill-rule="evenodd" clip-rule="evenodd" d="M51.6228 136.267C51.4378 135.37 51.1378 134.314 50.7028 133.079C47.4428 123.561 29.3678 100.539 24.2998 96.3833C38.1938 119.266 40.8918 128.232 43.3168 133.566L51.6228 136.267Z" fill="white"/>
<path fill-rule="evenodd" clip-rule="evenodd" d="M37.839 131.787C33.384 120.038 25.447 104.765 22.396 101.005C27.193 114.428 29.673 123.342 31.144 129.611L37.839 131.787Z" fill="white"/>
<path fill-rule="evenodd" clip-rule="evenodd" d="M23.003 126.965C21.904 117.741 20.278 108.997 19.117 105.939C19.31 113.987 19.254 120.438 19.064 125.684L23.003 126.965Z" fill="white"/>
<path d="M26.3708 86.7942C38.6158 98.4412 48.1228 109.924 55.0108 125.471C57.0188 130.003 58.8678 134.6 60.6818 139.208L63.8698 140.247C61.2008 133.47 58.5248 126.697 55.4898 120.075C49.0338 105.996 39.1368 95.2812 28.0308 84.7182C26.7898 83.5372 25.1368 85.6232 26.3708 86.7942Z" fill="white"/>
<path d="M22.409 89.6793C34.748 101.411 44.315 112.973 51.254 128.638C52.531 131.516 53.741 134.42 54.919 137.336L56.48 137.843C54.58 133.091 52.622 128.362 50.488 123.707C44.083 109.744 34.253 99.1093 23.238 88.6363C22.617 88.0453 21.792 89.0893 22.409 89.6793Z" fill="white"/>
<path d="M125.4 102.224C108.438 106.081 85.8411 107.83 71.6281 97.8943C54.0311 85.5923 71.7401 61.1133 84.8391 46.3963L83.2251 44.1743C69.7131 59.1183 52.4491 82.7803 68.1291 98.4453C75.4121 105.721 88.1111 107.075 97.7961 107.294C107.588 107.516 117.497 106.679 127.071 104.525L125.4 102.224Z" fill="white"/>
<path fill-rule="evenodd" clip-rule="evenodd" d="M124.737 109.14C125.745 110.526 127.897 108.965 126.888 107.577C125.88 106.187 123.728 107.753 124.737 109.14Z" fill="white"/>
<path fill-rule="evenodd" clip-rule="evenodd" d="M117.891 110.28C118.898 111.669 121.051 110.103 120.043 108.715C119.035 107.328 116.882 108.893 117.891 110.28Z" fill="white"/>
<path fill-rule="evenodd" clip-rule="evenodd" d="M112.285 111.612C113.293 113.001 115.444 111.438 114.437 110.049C113.426 108.66 111.275 110.223 112.285 111.612Z" fill="white"/>
<path fill-rule="evenodd" clip-rule="evenodd" d="M105.636 111.511C106.644 112.898 108.796 111.336 107.788 109.947C106.778 108.56 104.626 110.121 105.636 111.511Z" fill="white"/>
<path fill-rule="evenodd" clip-rule="evenodd" d="M99.8669 111.867C100.877 113.255 103.029 111.693 102.019 110.304C101.013 108.914 98.8609 110.48 99.8669 111.867Z" fill="white"/>
<path fill-rule="evenodd" clip-rule="evenodd" d="M93.8369 111.863C94.8469 113.25 96.9979 111.688 95.9889 110.299C94.9819 108.911 92.8289 110.476 93.8369 111.863Z" fill="white"/>
<path fill-rule="evenodd" clip-rule="evenodd" d="M89.2429 110.819C90.2529 112.206 92.4029 110.642 91.3969 109.255C90.3869 107.865 88.2359 109.43 89.2429 110.819Z" fill="white"/>
<path fill-rule="evenodd" clip-rule="evenodd" d="M84.0289 109.674C85.0379 111.063 87.1889 109.5 86.1809 108.111C85.1729 106.722 83.0209 108.288 84.0289 109.674Z" fill="white"/>
<path fill-rule="evenodd" clip-rule="evenodd" d="M79.436 108.631C80.444 110.019 82.597 108.455 81.589 107.068C80.578 105.681 78.426 107.244 79.436 108.631Z" fill="white"/>
<path fill-rule="evenodd" clip-rule="evenodd" d="M74.6769 106.606C75.6839 107.995 77.8359 106.432 76.8289 105.043C75.8199 103.655 73.6689 105.218 74.6769 106.606Z" fill="white"/>
<path fill-rule="evenodd" clip-rule="evenodd" d="M69.9171 104.585C70.9271 105.97 73.0801 104.406 72.0721 103.02C71.0621 101.631 68.9101 103.196 69.9171 104.585Z" fill="white"/>
<path fill-rule="evenodd" clip-rule="evenodd" d="M65.615 101.681C66.625 103.071 68.777 101.507 67.77 100.119C66.761 98.7313 64.61 100.295 65.615 101.681Z" fill="white"/>
<path fill-rule="evenodd" clip-rule="evenodd" d="M61.676 98.5182C62.683 99.9072 64.836 98.3452 63.828 96.9562C62.818 95.5682 60.668 97.1322 61.676 98.5182Z" fill="white"/>
<path fill-rule="evenodd" clip-rule="evenodd" d="M58.6979 55.2003C59.0709 55.7133 59.4789 56.1403 59.8899 56.5393C51.3049 51.6923 39.0449 62.4673 46.0929 72.1673C54.1569 83.2673 71.3739 70.7593 63.3099 59.6583C62.8419 59.0173 62.3409 58.4723 61.8199 57.9853C69.3269 62.0493 79.8939 52.6973 73.7609 44.2553C66.7029 34.5433 51.6409 45.4863 58.6979 55.2003ZM60.8469 61.6293C58.3499 58.1933 53.5419 57.4323 50.1039 59.9293C46.6709 62.4253 45.9079 67.2313 48.4039 70.6653C50.9009 74.1013 55.7079 74.8633 59.1429 72.3663C62.5799 69.8723 63.3409 65.0643 60.8469 61.6293ZM71.2029 46.1073C69.1749 43.3203 65.2729 42.7013 62.4859 44.7273C59.6959 46.7533 59.0789 50.6543 61.1049 53.4413C63.1289 56.2303 67.0329 56.8503 69.8219 54.8223C72.6089 52.7983 73.2259 48.8963 71.2029 46.1073Z" fill="white"/>
<path fill-rule="evenodd" clip-rule="evenodd" d="M71.1057 40.9791C74.2837 45.3531 79.0857 45.5381 82.7607 43.5341L81.2097 41.4002L81.0447 41.5262C78.7347 43.2062 75.2207 42.3062 73.1937 39.5182C71.1697 36.7292 71.3977 33.1102 73.7087 31.4312L73.8807 31.3121L72.2777 29.1082C69.2357 31.9832 67.9277 36.6051 71.1057 40.9791Z" fill="white"/>
<path fill-rule="evenodd" clip-rule="evenodd" d="M45.0499 91.2843C52.1079 100.996 67.1699 90.0533 60.1099 80.3393C53.0539 70.6243 37.9909 81.5693 45.0499 91.2843ZM57.5219 82.3253C55.4969 79.5383 51.5949 78.9183 48.8079 80.9463C46.0199 82.9703 45.401 86.8733 47.428 89.6613C49.453 92.4483 53.3549 93.0673 56.1419 91.0413C58.9279 89.0153 59.5479 85.1143 57.5219 82.3253Z" fill="white"/>
<path d="M162.332 167.385C163.331 164.515 165.528 162.499 167.779 160.554L167.397 160.03C165.062 162.053 162.766 164.13 161.722 167.118C161.584 167.521 162.194 167.791 162.332 167.385Z" fill="white"/>
<path fill-rule="evenodd" clip-rule="evenodd" d="M127.303 120.496C129.823 123.964 135.201 120.056 132.683 116.588C130.163 113.117 124.782 117.026 127.303 120.496Z" fill="white"/>
<path fill-rule="evenodd" clip-rule="evenodd" d="M118.382 123.487C120.901 126.956 126.281 123.047 123.76 119.577C121.238 116.106 115.858 120.015 118.382 123.487Z" fill="white"/>
<path fill-rule="evenodd" clip-rule="evenodd" d="M106.888 126.903C110.166 131.412 117.158 126.33 113.883 121.822C110.605 117.313 103.613 122.393 106.888 126.903Z" fill="white"/>
<path fill-rule="evenodd" clip-rule="evenodd" d="M92.7828 129.546C97.0698 135.445 106.214 128.801 101.928 122.902C97.6438 117.004 88.4988 123.648 92.7828 129.546Z" fill="white"/>
<path fill-rule="evenodd" clip-rule="evenodd" d="M76.8088 128.21C82.1028 135.494 93.3998 127.286 88.1068 120.002C82.8138 112.714 71.5168 120.923 76.8088 128.21Z" fill="white"/>
<path fill-rule="evenodd" clip-rule="evenodd" d="M60.1768 124.267C65.9758 132.243 78.3488 123.255 72.5508 115.277C66.7538 107.295 54.3808 116.287 60.1768 124.267Z" fill="white"/>
<path fill-rule="evenodd" clip-rule="evenodd" d="M53.5339 112.858C57.0629 117.713 64.5939 112.244 61.0649 107.384C57.5359 102.529 50.0059 108.001 53.5339 112.858Z" fill="white"/>
<path fill-rule="evenodd" clip-rule="evenodd" d="M49.651 105.815C51.415 108.244 55.18 105.508 53.417 103.08C51.654 100.653 47.888 103.39 49.651 105.815Z" fill="white"/>
<path fill-rule="evenodd" clip-rule="evenodd" d="M46.12 101.805C47.379 103.541 50.07 101.587 48.809 99.8512C47.549 98.1162 44.86 100.072 46.12 101.805Z" fill="white"/>
<path fill-rule="evenodd" clip-rule="evenodd" d="M42.6151 98.3951C43.6241 99.7811 45.7761 98.2181 44.7671 96.8311C43.7601 95.4431 41.6061 97.0061 42.6151 98.3951Z" fill="white"/>
<path fill-rule="evenodd" clip-rule="evenodd" d="M40.1581 95.8622C40.9131 96.9012 42.5281 95.7302 41.7721 94.6922C41.0171 93.6502 39.4021 94.8242 40.1581 95.8622Z" fill="white"/>
<path fill-rule="evenodd" clip-rule="evenodd" d="M37.8611 93.8321C38.6171 94.8721 40.2301 93.7001 39.4751 92.6591C38.7181 91.6221 37.1071 92.7931 37.8611 93.8321Z" fill="white"/>
<path fill-rule="evenodd" clip-rule="evenodd" d="M35.6387 91.3401C36.3917 92.3781 38.0067 91.2061 37.2507 90.1671C36.4957 89.1271 34.8827 90.2991 35.6387 91.3401Z" fill="white"/>
<path fill-rule="evenodd" clip-rule="evenodd" d="M33.476 89.2092C34.231 90.2492 35.845 89.0772 35.089 88.0392C34.336 86.9972 32.721 88.1722 33.476 89.2092Z" fill="white"/>
<path fill-rule="evenodd" clip-rule="evenodd" d="M31.314 87.0832C32.07 88.1222 33.684 86.9522 32.928 85.9112C32.172 84.8712 30.559 86.0422 31.314 87.0832Z" fill="white"/>
<path d="M162.636 153.474C162.355 155.941 162.094 158.843 159.871 160.335C157.703 161.797 156.21 159.411 158.639 158.285C160.191 157.569 159.26 155.075 157.703 155.798C156.044 156.564 154.615 157.89 154.617 159.846C154.618 161.657 155.853 162.893 157.514 163.372C159.662 163.994 162.094 162.333 163.279 160.697C164.149 159.492 164.599 158.047 164.881 156.565L162.636 153.474Z" fill="white"/>
<path d="M156.406 144.899C153.956 148.484 152.196 152.604 148.89 155.502C147.973 156.301 144.02 158.69 143.724 156.255C143.611 155.317 144.47 152.545 145.672 153.615C146.954 154.755 148.61 152.673 147.331 151.536C143.257 147.912 139.619 155.358 141.861 158.704C143.624 161.338 147.724 159.38 149.675 158.224C153.617 155.887 155.623 151.11 158.084 147.208L156.406 144.899Z" fill="white"/>
<path d="M149.307 135.129C146.808 138.449 144.204 141.652 141.155 144.497C139.388 146.15 137.386 147.48 135.212 148.544C134.072 149.055 132.876 149.398 131.631 149.576C126.048 150.604 130.866 143.951 131.79 146.387C132.396 147.993 134.886 147.054 134.281 145.453C131.983 139.379 122.773 147.451 127.524 151.25C130.824 153.887 136.058 151.234 139.05 149.471C143.859 146.638 147.606 141.857 150.945 137.382L149.307 135.129Z" fill="white"/>
<path d="M141.44 124.302C139.122 130.57 131.001 135.505 125.758 138.653C121.973 140.923 118.648 142.172 114.294 140.736C105.714 137.905 118.362 133.072 118.196 136.429C118.113 138.125 120.738 138.557 120.825 136.844C121.335 126.393 101.514 136.263 111.706 142.45C117.595 146.022 123.359 143.181 128.636 140.012C133.575 137.048 140.238 132.391 143.208 126.73L141.44 124.302Z" fill="white"/>
<path fill-rule="evenodd" clip-rule="evenodd" d="M170.07 164.082C169.188 169.331 171.168 175.131 177.821 174.376L170.144 163.81C170.112 163.894 170.089 163.984 170.07 164.082Z" fill="white"/>
<path fill-rule="evenodd" clip-rule="evenodd" d="M114.284 86.9253C108.036 93.9243 114.949 102.413 123.217 99.2203L114.284 86.9253Z" fill="white"/>
<path fill-rule="evenodd" clip-rule="evenodd" d="M101.309 93.5523C102.052 98.3323 106.273 102.282 111.012 101.575C107.255 97.8643 106.149 91.9293 108.314 87.0243C109.052 85.3523 110.012 83.8903 111.138 82.5933L109.827 80.7893C105.023 83.3773 100.418 87.8173 101.309 93.5523Z" fill="white"/>
<path fill-rule="evenodd" clip-rule="evenodd" d="M90.2338 88.5263C88.9028 94.6843 92.1978 101.445 98.2888 102.793C95.4498 96.5373 96.8728 88.8073 101.786 83.8553C103.836 81.7953 106.141 80.2643 108.619 79.1263L107.02 76.9263C99.8468 77.7423 91.8608 80.9693 90.2338 88.5263Z" fill="white"/>
<path fill-rule="evenodd" clip-rule="evenodd" d="M79.5499 76.5411C74.9079 83.1581 75.0489 92.9211 81.0619 97.7151C81.1659 88.7941 86.7169 80.3521 94.6849 77.0481C98.3309 75.5391 101.989 74.9491 105.632 75.0141L102.848 71.1851C94.7369 68.7511 84.9749 68.7891 79.5499 76.5411Z" fill="white"/>
<path fill-rule="evenodd" clip-rule="evenodd" d="M96.729 67.5713C97.781 69.0173 99.452 68.8603 100.526 67.9863L97.506 63.8313C96.342 64.5843 95.679 66.1263 96.729 67.5713Z" fill="white"/>
<path fill-rule="evenodd" clip-rule="evenodd" d="M89.7741 67.4222C91.7871 70.1952 96.0911 67.0672 94.0781 64.2942C92.0591 61.5192 87.7561 64.6452 89.7741 67.4222Z" fill="white"/>
<path fill-rule="evenodd" clip-rule="evenodd" d="M82.4857 68.3303C84.5037 71.1043 88.8057 67.9803 86.7887 65.2023C84.7717 62.4263 80.4697 65.5553 82.4857 68.3303Z" fill="white"/>
<path fill-rule="evenodd" clip-rule="evenodd" d="M74.9567 70.7873C76.9727 73.5623 81.2767 70.4343 79.2607 67.6593C77.2447 64.8853 72.9407 68.0113 74.9567 70.7873Z" fill="white"/>
<path fill-rule="evenodd" clip-rule="evenodd" d="M70.1109 77.3182C72.1269 80.0952 76.4319 76.9682 74.4159 74.1912C72.3979 71.4172 68.0969 74.5412 70.1109 77.3182Z" fill="white"/>
<path fill-rule="evenodd" clip-rule="evenodd" d="M67.9601 84.9142C69.9761 87.6872 74.2781 84.5592 72.2641 81.7862C70.2461 79.0102 65.9421 82.1362 67.9601 84.9142Z" fill="white"/>
<path fill-rule="evenodd" clip-rule="evenodd" d="M69.0481 92.0642C71.0641 94.8422 75.3661 91.7132 73.3531 88.9382C71.3341 86.1642 67.0311 89.2902 69.0481 92.0642Z" fill="white"/>
<path fill-rule="evenodd" clip-rule="evenodd" d="M69.7741 67.6432C77.7501 63.4202 86.4421 62.0702 95.1741 60.6192L93.4291 58.2192C84.9701 59.6172 76.5791 61.0552 68.8391 65.1542C67.3411 65.9452 68.2611 68.4462 69.7741 67.6432Z" fill="white"/>
<path fill-rule="evenodd" clip-rule="evenodd" d="M74.6827 59.6933C79.9247 57.5393 85.3727 56.0863 90.8317 54.6453L89.1647 52.3513C83.9507 53.7263 78.7547 55.1473 73.7457 57.2063C72.1597 57.8553 73.0947 60.3463 74.6827 59.6933Z" fill="white"/>
<path fill-rule="evenodd" clip-rule="evenodd" d="M51.6241 136.263C50.9481 136.88 50.0861 137.557 49.0061 138.3C40.7741 144.086 12.6211 152.087 6.07812 152.47C30.7671 142.124 38.2211 136.458 43.3171 133.566L51.6241 136.263Z" fill="white"/>
<path fill-rule="evenodd" clip-rule="evenodd" d="M37.841 131.785C27.33 138.672 11.931 146.365 7.25195 147.611C19.023 139.574 26.271 133.819 31.146 129.612L37.841 131.785Z" fill="white"/>
<path fill-rule="evenodd" clip-rule="evenodd" d="M23.0049 126.965C16.6939 133.78 10.2389 139.902 7.50391 141.691C12.3899 135.295 16.1339 130.041 19.0639 125.684L23.0049 126.965Z" fill="white"/>
<path d="M2.11591 161.443C18.8699 159.218 33.3079 155.517 48.0199 146.989C52.3099 144.502 56.5059 141.869 60.6819 139.208L63.8719 140.245C57.7299 144.156 51.5829 148.064 45.2349 151.636C31.7359 159.233 17.4309 162.082 2.23891 164.102C0.539915 164.327 0.427914 161.668 2.11591 161.443Z" fill="white"/>
<path d="M0.603885 156.782C17.4859 154.544 32.0229 150.811 46.8439 142.218C49.5669 140.639 52.2519 139.002 54.9209 137.335L56.4829 137.842C52.1509 140.569 47.7899 143.244 43.3249 145.757C29.9379 153.289 15.7329 156.112 0.665882 158.112C-0.183118 158.227 -0.238115 156.896 0.603885 156.782Z" fill="white"/>
<path d="M91.3027 207.17C79.8467 194.08 62.5918 179.379 45.2527 179.066C23.7857 178.675 23.7287 208.889 25.6707 228.492L23.0627 229.342C20.9147 209.313 20.8568 180.022 42.7468 176.566C52.9178 174.959 63.9847 181.329 71.9497 186.843C80.0047 192.416 87.5267 198.921 94.0087 206.291L91.3027 207.17Z" fill="white"/>
<path fill-rule="evenodd" clip-rule="evenodd" d="M57.881 174.969C59.513 174.438 60.336 176.968 58.702 177.497C57.072 178.029 56.248 175.5 57.881 174.969Z" fill="white"/>
<path fill-rule="evenodd" clip-rule="evenodd" d="M52.8427 173.81C54.4747 173.279 55.2957 175.808 53.6647 176.339C52.0307 176.868 51.2097 174.34 52.8427 173.81Z" fill="white"/>
<path fill-rule="evenodd" clip-rule="evenodd" d="M47.8038 172.651C49.4348 172.12 50.2558 174.648 48.6278 175.18C46.9948 175.71 46.1728 173.18 47.8038 172.651Z" fill="white"/>
<path fill-rule="evenodd" clip-rule="evenodd" d="M42.617 172.468C44.248 171.939 45.07 174.468 43.441 174.998C41.809 175.528 40.986 172.999 42.617 172.468Z" fill="white"/>
<path fill-rule="evenodd" clip-rule="evenodd" d="M37.57 172.71C39.202 172.182 40.025 174.711 38.393 175.242C36.761 175.771 35.94 173.239 37.57 172.71Z" fill="white"/>
<path fill-rule="evenodd" clip-rule="evenodd" d="M19.866 168.793C31.286 165.082 37.04 182.788 25.619 186.5C14.199 190.21 8.44404 172.504 19.866 168.793ZM20.814 171.713C17.536 172.776 15.742 176.297 16.809 179.575C17.873 182.851 21.394 184.642 24.67 183.579C27.947 182.515 29.741 178.995 28.677 175.719C27.611 172.44 24.093 170.646 20.814 171.713Z" fill="white"/>
<path fill-rule="evenodd" clip-rule="evenodd" d="M90.8318 176.323C96.1338 174.602 98.8048 182.824 93.5048 184.545C88.2018 186.268 85.5288 178.047 90.8318 176.323Z" fill="white"/>
<path fill-rule="evenodd" clip-rule="evenodd" d="M80.9748 165.893C87.9078 163.639 91.4008 174.391 84.4698 176.643C77.5348 178.898 74.0388 168.145 80.9748 165.893Z" fill="white"/>
<path fill-rule="evenodd" clip-rule="evenodd" d="M67.2647 157.587C75.8287 154.804 80.1437 168.086 71.5807 170.867C63.0137 173.651 58.6997 160.371 67.2647 157.587Z" fill="white"/>
<path fill-rule="evenodd" clip-rule="evenodd" d="M51.493 151.001C60.872 147.954 65.598 162.499 56.218 165.547C46.838 168.595 42.111 154.049 51.493 151.001Z" fill="white"/>
<path fill-rule="evenodd" clip-rule="evenodd" d="M39.4111 156.325C45.1211 154.47 47.9981 163.323 42.2871 165.18C36.5781 167.034 33.7031 158.181 39.4111 156.325Z" fill="white"/>
<path fill-rule="evenodd" clip-rule="evenodd" d="M32.132 159.739C34.985 158.812 36.422 163.241 33.569 164.165C30.715 165.094 29.278 160.667 32.132 159.739Z" fill="white"/>
<path fill-rule="evenodd" clip-rule="evenodd" d="M26.918 160.909C28.958 160.245 29.983 163.409 27.944 164.071C25.906 164.733 24.877 161.569 26.918 160.909Z" fill="white"/>
<path fill-rule="evenodd" clip-rule="evenodd" d="M22.077 161.607C23.708 161.078 24.53 163.607 22.9 164.138C21.267 164.667 20.445 162.139 22.077 161.607Z" fill="white"/>
<path fill-rule="evenodd" clip-rule="evenodd" d="M18.6017 162.211C19.8227 161.816 20.4387 163.711 19.2167 164.108C17.9947 164.507 17.3777 162.609 18.6017 162.211Z" fill="white"/>
<path fill-rule="evenodd" clip-rule="evenodd" d="M15.5499 162.505C16.7699 162.109 17.3879 164.006 16.1679 164.401C14.9429 164.797 14.3279 162.902 15.5499 162.505Z" fill="white"/>
<path fill-rule="evenodd" clip-rule="evenodd" d="M12.2846 163.215C13.5056 162.818 14.1226 164.716 12.8996 165.113C11.6806 165.509 11.0636 163.613 12.2846 163.215Z" fill="white"/>
<path fill-rule="evenodd" clip-rule="evenodd" d="M9.28708 163.666C10.5091 163.27 11.1241 165.167 9.90208 165.562C8.67908 165.96 8.06408 164.064 9.28708 163.666Z" fill="white"/>
<path fill-rule="evenodd" clip-rule="evenodd" d="M6.28365 164.116C7.50565 163.72 8.12365 165.615 6.90065 166.012C5.67965 166.411 5.06465 164.513 6.28365 164.116Z" fill="white"/>
<path d="M141.47 190.871C141.596 186.531 142.595 182.163 141.622 177.876C141.351 176.69 139.556 172.431 137.885 174.229C137.243 174.921 136.308 177.67 137.907 177.509C139.616 177.341 139.733 179.998 138.029 180.166C132.603 180.701 134.035 172.542 137.817 171.152C140.79 170.059 142.957 174.053 143.855 176.135C145.672 180.343 144.488 185.383 144.185 189.986L141.47 190.871Z" fill="white"/>
<path d="M129.982 194.6C129.915 190.449 129.688 186.323 128.899 182.229C128.438 179.854 127.6 177.6 126.466 175.464C125.847 174.379 125.08 173.4 124.177 172.524C120.264 168.411 120.253 176.624 122.432 175.197C123.868 174.254 125.327 176.478 123.895 177.418C118.467 180.981 115.762 169.039 121.839 168.758C126.057 168.564 128.732 173.785 130.115 176.969C132.344 182.089 132.562 188.159 132.632 193.743L129.982 194.6Z" fill="white"/>
<path d="M117.257 198.736C119.063 192.301 115.394 183.535 113.004 177.908C111.278 173.847 109.321 170.883 104.955 169.485C96.3498 166.732 103.738 178.077 105.58 175.264C106.513 173.844 108.89 175.037 107.949 176.472C102.222 185.227 91.9868 165.591 103.866 166.577C110.734 167.148 113.725 172.835 116.131 178.5C118.384 183.798 121.039 191.484 120.113 197.809L117.257 198.736Z" fill="white"/>
<path fill-rule="evenodd" clip-rule="evenodd" d="M161.649 170.268C162.112 170.905 162.199 171.56 162.04 172.144L164.968 173.094C165.501 171.671 165.395 170.004 164.227 168.397C161.396 164.5 156.307 166.422 154.925 169.833L157.626 170.709C158.342 169.324 160.45 168.621 161.649 170.268Z" fill="white"/>
<path fill-rule="evenodd" clip-rule="evenodd" d="M150.107 165.503C150.826 166.497 150.86 167.529 150.491 168.39L153.813 169.47C154.55 167.657 154.456 165.509 152.951 163.434C149.369 158.503 142.897 161.027 141.264 165.392L144.586 166.471C145.326 164.389 148.406 163.165 150.107 165.503Z" fill="white"/>
<path fill-rule="evenodd" clip-rule="evenodd" d="M135.497 160.226C136.362 161.421 136.483 162.653 136.139 163.727L139.739 164.895C140.485 162.795 140.298 160.348 138.581 157.985C134.373 152.192 126.845 154.973 124.688 160.006L128.289 161.176C129.469 158.613 133.329 157.243 135.497 160.226Z" fill="white"/>
<path fill-rule="evenodd" clip-rule="evenodd" d="M116.54 152.905C117.711 154.516 117.859 156.186 117.372 157.629L122.296 159.231C123.392 156.373 123.192 153.017 120.838 149.781C115.162 141.968 104.952 145.85 102.215 152.705L106.916 154.232C108.455 150.783 113.635 148.907 116.54 152.905Z" fill="white"/>
<path fill-rule="evenodd" clip-rule="evenodd" d="M93.619 141.61C95.781 144.587 95.777 147.682 94.554 150.216L99.938 151.965C101.761 147.89 101.657 142.986 98.225 138.263C90.222 127.251 75.673 133.135 72.356 143.003L77.743 144.754C79.605 138.58 88.668 134.792 93.619 141.61Z" fill="white"/>
<path fill-rule="evenodd" clip-rule="evenodd" d="M160.623 173.428C161.37 173.183 161.826 172.702 162.041 172.141L164.967 173.092C164.565 174.558 163.498 175.843 161.607 176.458C157.026 177.945 154.041 173.402 154.925 169.828L157.625 170.708C157.392 172.247 158.685 174.058 160.623 173.428Z" fill="white"/>
<path fill-rule="evenodd" clip-rule="evenodd" d="M148.485 170.497C149.651 170.117 150.283 169.301 150.494 168.388L153.814 169.467C153.346 171.369 152.006 173.051 149.572 173.844C143.773 175.728 140.023 169.881 141.266 165.391L144.588 166.47C143.963 168.589 145.734 171.391 148.485 170.497Z" fill="white"/>
<path fill-rule="evenodd" clip-rule="evenodd" d="M133.563 166.178C134.966 165.723 135.789 164.795 136.143 163.725L139.743 164.893C139.109 167.034 137.519 168.902 134.742 169.803C127.933 172.017 123.476 165.342 124.691 160.004L128.292 161.175C127.74 163.942 130.055 167.321 133.563 166.178Z" fill="white"/>
<path fill-rule="evenodd" clip-rule="evenodd" d="M113.924 160.96C115.818 160.345 116.917 159.082 117.372 157.628L122.3 159.228C121.505 162.181 119.37 164.779 115.565 166.016C106.38 168.999 100.402 159.858 102.218 152.702L106.919 154.23C106.137 157.924 109.225 162.488 113.924 160.96Z" fill="white"/>
<path fill-rule="evenodd" clip-rule="evenodd" d="M88.7407 156.626C92.2407 155.49 94.0547 152.981 94.5567 150.214L99.9377 151.963C99.0187 156.33 96.0517 160.234 90.5007 162.038C77.5537 166.247 69.2407 152.933 72.3567 143.002L77.7447 144.751C75.6227 150.839 80.7257 159.231 88.7407 156.626Z" fill="white"/>
<path fill-rule="evenodd" clip-rule="evenodd" d="M182.234 157.723C181.773 158.36 181.174 158.644 180.576 158.677V161.752C182.094 161.82 183.643 161.205 184.813 159.596C187.642 155.699 184.247 151.455 180.576 151.194V154.033C182.113 154.287 183.432 156.075 182.234 157.723Z" fill="white"/>
<path fill-rule="evenodd" clip-rule="evenodd" d="M183.201 145.272C182.476 146.266 181.506 146.615 180.575 146.532V150.023C182.528 150.168 184.542 149.413 186.046 147.34C189.628 142.409 185.228 137.034 180.575 136.83V140.323C182.782 140.383 184.9 142.932 183.201 145.272Z" fill="white"/>
<path fill-rule="evenodd" clip-rule="evenodd" d="M183.703 129.749C182.837 130.942 181.703 131.438 180.575 131.442V135.228C182.801 135.288 185.071 134.352 186.786 131.989C190.997 126.199 186.026 119.894 180.575 119.4V123.187C183.376 123.518 185.875 126.763 183.703 129.749Z" fill="white"/>
<path fill-rule="evenodd" clip-rule="evenodd" d="M184.809 109.456C183.638 111.067 182.098 111.725 180.576 111.708V116.886C183.628 117.042 186.76 115.818 189.112 112.579C194.787 104.767 187.942 96.2532 180.576 95.7712V100.712C184.327 101.112 187.714 105.458 184.809 109.456Z" fill="white"/>
<path fill-rule="evenodd" clip-rule="evenodd" d="M188.468 84.1682C186.304 87.1462 183.361 88.0972 180.575 87.7162V93.3782C185.013 93.8512 189.642 92.2382 193.075 87.5142C201.078 76.5002 190.98 64.4832 180.575 64.3772V70.0392C187.022 69.9022 193.424 77.3512 188.468 84.1682Z" fill="white"/>
<path fill-rule="evenodd" clip-rule="evenodd" d="M178.913 157.724C179.376 158.359 179.976 158.646 180.575 158.676V161.751C179.057 161.819 177.507 161.204 176.337 159.598C173.505 155.698 176.903 151.456 180.575 151.193V154.032C179.037 154.287 177.718 156.077 178.913 157.724Z" fill="white"/>
<path fill-rule="evenodd" clip-rule="evenodd" d="M177.949 145.274C178.671 146.266 179.642 146.615 180.575 146.532V150.025C178.625 150.167 176.608 149.413 175.104 147.342C171.519 142.411 175.921 137.034 180.575 136.83V140.325C178.366 140.383 176.25 142.934 177.949 145.274Z" fill="white"/>
<path fill-rule="evenodd" clip-rule="evenodd" d="M177.447 129.75C178.312 130.942 179.452 131.438 180.576 131.441V135.229C178.347 135.287 176.079 134.351 174.363 131.988C170.155 126.198 175.125 119.896 180.576 119.4V123.186C177.774 123.52 175.277 126.765 177.447 129.75Z" fill="white"/>
<path fill-rule="evenodd" clip-rule="evenodd" d="M176.341 109.456C177.511 111.069 179.052 111.725 180.575 111.708V116.888C177.523 117.044 174.39 115.818 172.04 112.579C166.363 104.767 173.21 96.2562 180.575 95.7712V100.714C176.819 101.114 173.435 105.458 176.341 109.456Z" fill="white"/>
<path fill-rule="evenodd" clip-rule="evenodd" d="M172.682 84.1682C174.844 87.1462 177.787 88.0972 180.576 87.7162V93.3782C176.138 93.8512 171.507 92.2382 168.076 87.5142C160.074 76.5002 170.168 64.4852 180.576 64.3772V70.0422C174.13 69.9052 167.728 77.3512 172.682 84.1682Z" fill="white"/>
</svg>
