<svg width="419" height="350" viewBox="0 0 419 350" fill="none" xmlns="http://www.w3.org/2000/svg">
<path d="M28.612 159.183C20.707 159.183 14.306 165.584 14.306 173.489C14.306 165.584 7.905 159.183 0 159.183C7.905 159.183 14.306 152.767 14.306 144.862C14.306 152.766 20.707 159.183 28.612 159.183Z" fill="#D85B1D"/>
<path d="M104.79 267.052C96.514 267.052 89.811 273.754 89.811 282.031C89.811 273.754 83.109 267.052 74.833 267.052C83.109 267.052 89.811 260.334 89.811 252.057C89.811 260.334 96.514 267.052 104.79 267.052Z" fill="#E7B23E"/>
<path d="M45.7918 141.671C41.0448 141.671 37.2018 145.515 37.2018 150.262C37.2018 145.515 33.3578 141.671 28.6118 141.671C33.3578 141.671 37.2018 137.818 37.2018 133.071C37.2018 137.818 41.0458 141.671 45.7918 141.671Z" fill="#027367"/>
<path d="M357.131 288.76C352.384 288.76 348.541 292.604 348.541 297.351C348.541 292.604 344.697 288.76 339.951 288.76C344.698 288.76 348.541 284.907 348.541 280.16C348.541 284.908 352.384 288.76 357.131 288.76Z" fill="#027367"/>
<path d="M91.5308 45.1189C87.3058 45.1189 83.8838 48.5409 83.8838 52.7659C83.8838 48.5409 80.4618 45.1189 76.2368 45.1189C80.4618 45.1189 83.8838 41.6889 83.8838 37.4639C83.8828 41.6889 87.3048 45.1189 91.5308 45.1189Z" fill="#641213"/>
<path d="M181.13 91.379C175.488 91.379 170.92 95.948 170.92 101.589C170.92 95.947 166.352 91.379 160.71 91.379C166.351 91.379 170.92 86.8 170.92 81.158C170.92 86.8 175.489 91.379 181.13 91.379Z" fill="#E7B23E"/>
<path d="M360.195 46.7329C349.329 46.7329 340.53 55.5329 340.53 66.3989C340.53 55.5329 331.731 46.7329 320.865 46.7329C331.731 46.7329 340.53 37.9129 340.53 27.0469C340.53 37.9129 349.329 46.7329 360.195 46.7329Z" fill="#641213"/>
<path d="M375.331 62.963C369.919 62.963 365.536 67.346 365.536 72.758C365.536 67.346 361.153 62.963 355.741 62.963C361.153 62.963 365.536 58.57 365.536 53.158C365.536 58.57 369.919 62.963 375.331 62.963Z" fill="#027367"/>
<path d="M216.838 349.477C303.062 349.477 372.96 343.311 372.96 335.705C372.96 328.099 303.062 321.933 216.838 321.933C130.614 321.933 60.7158 328.099 60.7158 335.705C60.7158 343.311 130.614 349.477 216.838 349.477Z" fill="#641213"/>
<path d="M272.608 252.373L266.144 236.624C273.138 229.617 277.463 219.946 277.463 209.264C277.463 187.875 260.124 170.535 238.734 170.535C217.345 170.535 200.005 187.874 200.005 209.264C200.005 220.249 204.586 230.158 211.932 237.206L211.944 237.218C212.206 237.469 212.464 237.723 212.732 237.966L245.486 269.052L230.067 312.542C230.067 312.542 218.945 318.406 217.896 328.892H221.565L221.613 330.434H248.69C248.69 330.434 248.518 322.717 248.297 312.542L271.559 266.875C271.892 266.309 272.19 265.721 272.454 265.118L272.48 265.067H272.476C274.151 261.208 274.372 256.67 272.608 252.373Z" fill="#027367"/>
<path d="M163.535 273.419C165.828 270.638 167.138 266.998 166.907 263.089L165.022 198.094L108.21 194.984L139.02 269.651C140.266 272.643 142.436 275.108 145.139 276.704L136.783 313.309C136.783 313.309 126.137 318.921 125.134 328.958H128.646L128.692 330.434H154.608C154.608 330.434 154.443 323.048 154.232 313.309L163.535 273.419Z" fill="#027367"/>
<path d="M338.12 123.402C334.564 119.288 331.025 115.175 328.263 110.67C321.108 99.0009 311.746 87.9249 300.168 80.4399C281.618 68.4469 256.566 76.2219 248.33 96.7189C247.855 97.9009 247.646 98.6089 247.646 98.6089C218.825 79.6059 203.353 103.353 199.914 109.652C198.754 111.761 197.463 113.803 196 115.714C188.053 126.085 179.053 129.485 171.976 130.263L165.018 234.253C180.555 239.656 195.803 242.832 207.4 244.677C214.579 245.819 221.821 246.501 229.069 246.688C229.093 246.688 229.115 246.688 229.139 246.689C232.489 246.773 235.841 246.752 239.187 246.618C308.98 244.424 338.289 206.514 350.24 180.346C355.395 169.059 356.079 155.969 352.034 144.229C349.296 136.283 343.687 129.842 338.12 123.402Z" fill="#D85B1D"/>
<path d="M247.643 98.605L247.622 130.265L247.591 170.806L247.539 246.155C244.818 246.374 242.035 246.52 239.189 246.614C235.843 246.749 232.486 246.77 229.14 246.687H229.067C221.822 246.499 214.577 245.822 207.405 244.675C195.802 242.83 180.562 239.661 165.018 234.25L169.271 170.806L171.981 130.265C179.049 129.483 188.056 126.085 195.999 115.712C197.458 113.804 198.751 111.761 199.919 109.655C203.349 103.348 218.829 79.601 247.643 98.605Z" fill="#E7B23E"/>
<mask id="mask0_66_6698" style="mask-type:luminance" maskUnits="userSpaceOnUse" x="165" y="91" width="83" height="156">
<path d="M247.643 98.605L247.622 130.265L247.591 170.806L247.539 246.155C244.818 246.374 242.035 246.52 239.189 246.614C235.843 246.749 232.486 246.77 229.14 246.687H229.067C221.822 246.499 214.577 245.822 207.405 244.675C195.802 242.83 180.562 239.661 165.018 234.25L169.271 170.806L171.981 130.265C179.049 129.483 188.056 126.085 195.999 115.712C197.458 113.804 198.751 111.761 199.919 109.655C203.349 103.348 218.829 79.601 247.643 98.605Z" fill="white"/>
</mask>
<g mask="url(#mask0_66_6698)">
<path d="M247.622 90.8159V130.265H208.173C208.173 108.478 225.835 90.8159 247.622 90.8159Z" fill="#641213"/>
<path d="M214.842 130.265C214.842 112.161 229.518 97.4849 247.622 97.4849" stroke="white" stroke-width="0.4734" stroke-miterlimit="10"/>
<path d="M220.89 130.265C220.89 115.501 232.858 103.533 247.622 103.533" stroke="white" stroke-width="0.4734" stroke-miterlimit="10"/>
<path d="M226.938 130.265C226.938 118.841 236.199 109.581 247.623 109.581" stroke="white" stroke-width="0.4734" stroke-miterlimit="10"/>
<path d="M232.985 130.265C232.985 122.181 239.538 115.628 247.622 115.628" stroke="white" stroke-width="0.4734" stroke-miterlimit="10"/>
<path d="M239.033 130.265C239.033 125.521 242.879 121.676 247.622 121.676" stroke="white" stroke-width="0.4734" stroke-miterlimit="10"/>
</g>
<path d="M247.622 130.265L247.591 170.806L247.539 246.155C244.818 246.374 242.035 246.52 239.189 246.614C235.843 246.749 232.486 246.77 229.14 246.687H229.067C221.822 246.499 214.577 245.822 207.405 244.675C195.802 242.83 180.562 239.661 165.018 234.25L169.271 170.806L171.981 130.265H247.622Z" fill="#027367"/>
<path d="M247.624 130.265H208.187V170.811H247.624V130.265Z" fill="#E7B23E"/>
<path d="M232.614 134.959H208.187V139.884H232.614V134.959Z" fill="#D85B1D"/>
<path d="M208.185 134.959H183.758V139.884H208.185V134.959Z" fill="#EBD8AE"/>
<path d="M232.614 161.191H208.187V166.116H232.614V161.191Z" fill="#D85B1D"/>
<path d="M208.185 161.191H183.758V166.116H208.185V161.191Z" fill="#EBD8AE"/>
<path d="M232.614 148.077H208.187V152.998H232.614V148.077Z" fill="#D85B1D"/>
<path d="M208.185 148.077H183.758V152.998H208.185V148.077Z" fill="#EBD8AE"/>
<path d="M343.883 130.265H247.622L247.643 98.605C247.643 98.605 247.851 97.896 248.331 96.718C256.566 76.223 281.617 68.446 300.173 80.435C311.744 87.93 321.106 99.001 328.267 110.666C331.03 115.169 334.564 119.287 338.118 123.405C340.078 125.668 342.038 127.93 343.883 130.265Z" fill="#027367"/>
<mask id="mask1_66_6698" style="mask-type:luminance" maskUnits="userSpaceOnUse" x="247" y="74" width="97" height="57">
<path d="M343.883 130.265H247.622L247.643 98.605C247.643 98.605 247.851 97.896 248.331 96.718C256.566 76.223 281.617 68.446 300.173 80.435C311.744 87.93 321.106 99.001 328.267 110.666C331.03 115.169 334.564 119.287 338.118 123.405C340.078 125.668 342.038 127.93 343.883 130.265Z" fill="white"/>
</mask>
<g mask="url(#mask1_66_6698)">
<path d="M292.231 121.028C308.609 121.028 321.885 107.751 321.885 91.374C321.885 74.9965 308.609 61.72 292.231 61.72C275.854 61.72 262.577 74.9965 262.577 91.374C262.577 107.751 275.854 121.028 292.231 121.028Z" fill="#F0BB3E"/>
<path d="M292.231 61.72V121.028" stroke="white" stroke-width="0.7117" stroke-miterlimit="10"/>
<path d="M321.884 91.374H262.577" stroke="white" stroke-width="0.7117" stroke-miterlimit="10"/>
<path d="M313.199 70.406L271.263 112.342" stroke="white" stroke-width="0.7117" stroke-miterlimit="10"/>
<path d="M313.199 112.342L271.263 70.406" stroke="white" stroke-width="0.7117" stroke-miterlimit="10"/>
</g>
<path d="M253.727 136.827V164.249L272.809 150.538L253.727 136.827Z" fill="#F0BB3E"/>
<path d="M272.809 136.827V164.249L291.89 150.538L272.809 136.827Z" fill="white"/>
<path d="M291.89 136.827V164.249L310.971 150.538L291.89 136.827Z" fill="#027367"/>
<path d="M310.971 136.827V164.249L330.053 150.538L310.971 136.827Z" fill="#641213"/>
<path d="M330.053 136.827V164.249L349.134 150.538L330.053 136.827Z" fill="#F0BB3E"/>
<path d="M353.505 170.535H169.281L165.017 234.25C180.56 239.66 195.801 242.829 207.404 244.675C214.576 245.822 221.821 246.499 229.066 246.687H229.139C232.485 246.77 235.842 246.75 239.188 246.614C245.941 246.402 252.311 245.852 258.327 245.015L258.326 245.018C270.022 247.727 280.92 247.636 289.653 246.608C302.023 245.153 313.258 238.736 321.073 229.038C330.717 217.072 344.197 198.004 351.525 177.245H351.515C352.336 175.055 353.011 172.814 353.505 170.535Z" fill="#E7B23E"/>
<mask id="mask2_66_6698" style="mask-type:luminance" maskUnits="userSpaceOnUse" x="165" y="170" width="189" height="78">
<path d="M353.505 170.535H169.281L165.017 234.25C180.56 239.66 195.801 242.829 207.404 244.675C214.576 245.822 221.821 246.499 229.066 246.687H229.139C232.485 246.77 235.842 246.75 239.188 246.614C245.941 246.402 252.311 245.852 258.327 245.015L258.326 245.018C270.022 247.727 280.92 247.636 289.653 246.608C302.023 245.153 313.258 238.736 321.073 229.038C330.717 217.072 344.197 198.004 351.525 177.245H351.515C352.336 175.055 353.011 172.814 353.505 170.535Z" fill="white"/>
</mask>
<g mask="url(#mask2_66_6698)">
<path d="M282.525 113.428L301.254 295.685" stroke="#641213" stroke-width="1.0425" stroke-miterlimit="10"/>
<path d="M383.018 195.192L200.761 213.921" stroke="#641213" stroke-width="1.0425" stroke-miterlimit="10"/>
<path d="M349.706 133.497L234.074 275.616" stroke="#641213" stroke-width="1.0425" stroke-miterlimit="10"/>
<path d="M362.949 262.372L220.831 146.74" stroke="#641213" stroke-width="1.0425" stroke-miterlimit="10"/>
</g>
<mask id="mask3_66_6698" style="mask-type:luminance" maskUnits="userSpaceOnUse" x="165" y="170" width="189" height="78">
<path d="M353.505 170.535H169.281L165.017 234.25C180.56 239.66 195.801 242.829 207.404 244.675C214.576 245.822 221.821 246.499 229.066 246.687H229.139C232.485 246.77 235.842 246.75 239.188 246.614C245.941 246.402 252.311 245.852 258.327 245.015L258.326 245.018C270.022 247.727 280.92 247.636 289.653 246.608C302.023 245.153 313.258 238.736 321.073 229.038C330.717 217.072 344.197 198.004 351.525 177.245H351.515C352.336 175.055 353.011 172.814 353.505 170.535Z" fill="white"/>
</mask>
<g mask="url(#mask3_66_6698)">
<path d="M248.365 123.948L335.415 285.165" stroke="#641213" stroke-width="1.0425" stroke-miterlimit="10"/>
<path d="M372.498 161.031L211.282 248.081" stroke="#641213" stroke-width="1.0425" stroke-miterlimit="10"/>
<path d="M318.112 116.781L265.668 292.332" stroke="#641213" stroke-width="1.0425" stroke-miterlimit="10"/>
<path d="M379.665 230.778L204.114 178.334" stroke="#641213" stroke-width="1.0425" stroke-miterlimit="10"/>
</g>
<path d="M247.591 170.806L247.539 246.155C244.818 246.374 242.035 246.52 239.189 246.614C235.843 246.749 232.486 246.77 229.14 246.687H229.067C221.822 246.499 214.577 245.822 207.405 244.675C195.802 242.83 180.562 239.661 165.018 234.25L169.271 170.806H247.591Z" fill="#641213"/>
<mask id="mask4_66_6698" style="mask-type:luminance" maskUnits="userSpaceOnUse" x="165" y="170" width="83" height="77">
<path d="M247.591 170.806L247.539 246.155C244.818 246.374 242.035 246.52 239.189 246.614C235.843 246.749 232.486 246.77 229.14 246.687H229.067C221.822 246.499 214.577 245.822 207.405 244.675C195.802 242.83 180.562 239.661 165.018 234.25L169.271 170.806H247.591Z" fill="white"/>
</mask>
<g mask="url(#mask4_66_6698)">
<path d="M288.108 199.418L207.226 280.3" stroke="#E4D1A7" stroke-width="0.5212" stroke-miterlimit="10"/>
<path d="M275.864 187.173L194.981 268.055" stroke="#E4D1A7" stroke-width="0.5212" stroke-miterlimit="10"/>
<path d="M263.619 174.928L182.737 255.81" stroke="#E4D1A7" stroke-width="0.5212" stroke-miterlimit="10"/>
<path d="M251.374 162.683L170.492 243.566" stroke="#E4D1A7" stroke-width="0.5212" stroke-miterlimit="10"/>
<path d="M239.129 150.438L158.247 231.321" stroke="#E4D1A7" stroke-width="0.5212" stroke-miterlimit="10"/>
<path d="M226.885 138.194L146.003 219.076" stroke="#E4D1A7" stroke-width="0.5212" stroke-miterlimit="10"/>
<path d="M214.64 125.949L133.758 206.831" stroke="#E4D1A7" stroke-width="0.5212" stroke-miterlimit="10"/>
<path d="M214.64 280.3L133.758 199.418" stroke="#E4D1A7" stroke-width="0.5212" stroke-miterlimit="10"/>
<path d="M226.885 268.055L146.003 187.173" stroke="#E4D1A7" stroke-width="0.5212" stroke-miterlimit="10"/>
<path d="M239.129 255.81L158.247 174.928" stroke="#E4D1A7" stroke-width="0.5212" stroke-miterlimit="10"/>
<path d="M251.374 243.566L170.492 162.683" stroke="#E4D1A7" stroke-width="0.5212" stroke-miterlimit="10"/>
<path d="M263.619 231.321L182.737 150.438" stroke="#E4D1A7" stroke-width="0.5212" stroke-miterlimit="10"/>
<path d="M275.864 219.076L194.981 138.194" stroke="#E4D1A7" stroke-width="0.5212" stroke-miterlimit="10"/>
<path d="M288.108 206.831L207.226 125.949" stroke="#E4D1A7" stroke-width="0.5212" stroke-miterlimit="10"/>
</g>
<mask id="mask5_66_6698" style="mask-type:luminance" maskUnits="userSpaceOnUse" x="75" y="80" width="66" height="45">
<path d="M140.561 124.239H75.897C82.485 97.8021 95.902 80.5391 95.902 80.5391L134.473 81.8421C127.843 105.329 132.545 117.766 140.561 124.239Z" fill="white"/>
</mask>
<g mask="url(#mask5_66_6698)">
<path d="M132.901 96.3711L123.068 86.5371L113.234 96.3711L103.4 86.5371V86.5451L93.5738 96.3711L83.7398 86.5371L73.9068 96.3711L64.0728 86.5371V97.9881L73.9068 107.821L83.7398 97.9881L93.5738 107.821L103.4 97.9951V97.9881L113.234 107.821L123.068 97.9881L132.901 107.821L142.727 97.9951V86.5451L132.901 96.3711Z" fill="#027367"/>
<path d="M123.068 97.988L113.234 107.821L103.4 97.988V97.995L93.5738 107.821L83.7398 97.988L73.9068 107.821L64.0728 97.988V109.515L73.9068 119.349L83.7398 109.515L93.5738 119.349L103.4 109.523V109.515L113.234 119.349L123.068 109.515L132.901 119.349L142.727 109.523V97.995L132.901 107.821L123.068 97.988Z" fill="#E2CFA5"/>
<path d="M123.068 109.515L113.234 119.349L103.4 109.515V109.523L93.5738 119.349L83.7398 109.515L73.9068 119.349L64.0728 109.515V109.569V120.966L73.9068 130.8L83.7398 120.966L93.5738 130.8L103.4 120.974V120.966L113.234 130.8L123.068 120.966L132.901 130.8L142.727 120.974V109.577V109.523L132.901 119.349L123.068 109.515Z" fill="#027367"/>
<path d="M123.068 120.966L113.234 130.8L103.4 120.966V120.974L93.5738 130.8L83.7398 120.966L73.9068 130.8L64.0728 120.966V132.548L73.9068 142.382L83.7398 132.548L93.5738 142.382L103.4 132.556V132.548L113.234 142.382L123.068 132.548L132.901 142.382L142.727 132.556V120.974L132.901 130.8L123.068 120.966Z" fill="#E2CFA5"/>
<path d="M123.068 63.5391L113.234 73.3721L103.4 63.5391V63.5461L93.5738 73.3721L83.7398 63.5391L73.9068 73.3721L64.0728 63.5391V63.5931V74.9891L73.9068 84.8231L83.7398 74.9891L93.5738 84.8231L103.4 74.9971V74.9891L113.234 84.8231L123.068 74.9891L132.901 84.8231L142.727 74.9971V63.6011V63.5461L132.901 73.3721L123.068 63.5391Z" fill="#027367"/>
<path d="M123.068 74.989L113.234 84.823L103.4 74.989V74.997L93.5738 84.823L83.7398 74.989L73.9068 84.823L64.0728 74.989V86.571L73.9068 96.405L83.7398 86.571L93.5738 96.405L103.4 86.579V86.571L113.234 96.405L123.068 86.571L132.901 96.405L142.727 86.579V74.997L132.901 84.823L123.068 74.989Z" fill="#E2CFA5"/>
</g>
<path d="M140.561 124.239L108.213 194.981C107.587 194.877 106.983 194.762 106.389 194.637C86.1971 190.405 72.1131 172.057 72.3421 151.427C72.4461 141.638 73.8431 132.496 75.8971 124.24L140.561 124.239Z" fill="#641213"/>
<path d="M75.897 124.239L123.864 160.754L140.561 124.239H75.897Z" fill="#D85B1D"/>
<path d="M120.21 142.819C120.834 147.477 119.511 151.953 116.864 155.413L113.297 152.694L89.811 134.757C92.452 131.287 96.422 128.833 101.08 128.209C110.396 126.96 118.962 133.503 120.21 142.819Z" fill="#EBD8AE"/>
<path d="M116.864 155.412C114.223 158.876 110.258 161.33 105.6 161.954C96.284 163.202 87.7179 156.659 86.4689 147.338C85.8449 142.68 87.1699 138.215 89.8109 134.756L113.297 152.693L116.864 155.412Z" fill="white"/>
<path d="M114.836 143.539C115.262 146.717 114.358 149.77 112.551 152.124L94.1191 138.046C95.9191 135.682 98.6221 134.008 101.8 133.582C108.15 132.731 113.985 137.188 114.836 143.539Z" fill="#641213"/>
<path d="M112.551 152.123C110.751 154.486 108.053 156.155 104.88 156.58C98.5301 157.43 92.6891 152.974 91.8381 146.619C91.4131 143.446 92.3181 140.404 94.1191 138.046L112.551 152.123Z" fill="#D85B1D"/>
<path d="M92.312 178.902L108.792 175.687" stroke="white" stroke-width="0.692" stroke-miterlimit="10"/>
<path d="M98.9448 169.055L102.159 185.535" stroke="white" stroke-width="0.692" stroke-miterlimit="10"/>
<path d="M93.5889 172.605L107.515 181.984" stroke="white" stroke-width="0.692" stroke-miterlimit="10"/>
<path d="M105.242 170.332L95.8618 184.258" stroke="white" stroke-width="0.692" stroke-miterlimit="10"/>
<path d="M121.829 133.793L133.003 131.614" stroke="white" stroke-width="0.692" stroke-miterlimit="10"/>
<path d="M126.327 127.117L128.506 138.29" stroke="white" stroke-width="0.692" stroke-miterlimit="10"/>
<path d="M122.695 129.524L132.138 135.883" stroke="white" stroke-width="0.692" stroke-miterlimit="10"/>
<path d="M130.596 127.982L124.236 137.424" stroke="white" stroke-width="0.692" stroke-miterlimit="10"/>
<path d="M76.8931 164.429L89.5791 161.954" stroke="white" stroke-width="0.692" stroke-miterlimit="10"/>
<path d="M81.999 156.849L84.474 169.534" stroke="white" stroke-width="0.692" stroke-miterlimit="10"/>
<path d="M77.876 159.582L88.596 166.801" stroke="white" stroke-width="0.692" stroke-miterlimit="10"/>
<path d="M86.847 157.832L79.626 168.551" stroke="white" stroke-width="0.692" stroke-miterlimit="10"/>
<path d="M75.6733 137.942L84.4403 136.231" stroke="white" stroke-width="0.692" stroke-miterlimit="10"/>
<path d="M79.2012 132.703L80.9112 141.47" stroke="white" stroke-width="0.692" stroke-miterlimit="10"/>
<path d="M76.3525 134.592L83.7615 139.581" stroke="white" stroke-width="0.692" stroke-miterlimit="10"/>
<path d="M82.5515 133.382L77.5615 140.791" stroke="white" stroke-width="0.692" stroke-miterlimit="10"/>
<path d="M171.981 130.265L169.281 170.535V170.556L165.017 234.251C122.234 220.417 108.213 194.981 108.213 194.981L123.86 160.757L140.56 124.239C152.549 133.934 171.981 130.265 171.981 130.265Z" fill="#E7B23E"/>
<path d="M169.281 170.535V170.556L165.017 234.251C122.234 220.417 108.213 194.981 108.213 194.981L123.86 160.757L169.281 170.535Z" fill="#E2CFA5"/>
<mask id="mask6_66_6698" style="mask-type:luminance" maskUnits="userSpaceOnUse" x="108" y="160" width="62" height="75">
<path d="M169.281 170.535V170.556L165.017 234.251C122.234 220.417 108.213 194.981 108.213 194.981L123.86 160.757L169.281 170.535Z" fill="white"/>
</mask>
<g mask="url(#mask6_66_6698)">
<path d="M100.556 140.894L99.6929 144.912L204.888 167.507L205.752 163.488L100.556 140.894Z" fill="#E7B23E"/>
<path d="M98.5784 150.321L97.7153 154.34L202.911 176.935L203.774 172.916L98.5784 150.321Z" fill="#E7B23E"/>
<path d="M96.5989 159.743L95.7358 163.761L200.931 186.356L201.795 182.338L96.5989 159.743Z" fill="#E7B23E"/>
<path d="M94.6224 169.171L93.7593 173.19L198.955 195.785L199.818 191.766L94.6224 169.171Z" fill="#E7B23E"/>
<path d="M92.6502 178.608L91.7871 182.626L196.983 205.221L197.846 201.203L92.6502 178.608Z" fill="#E7B23E"/>
<path d="M90.6736 188.038L89.8105 192.056L195.006 214.651L195.869 210.633L90.6736 188.038Z" fill="#E7B23E"/>
<path d="M88.6942 197.458L87.8311 201.477L193.027 224.072L193.89 220.053L88.6942 197.458Z" fill="#E7B23E"/>
<path d="M86.7171 206.885L85.854 210.903L191.05 233.498L191.913 229.48L86.7171 206.885Z" fill="#E7B23E"/>
</g>
<path d="M171.981 130.265L169.281 170.556L123.861 160.757L142.25 149.102L154.655 141.242L171.981 130.265Z" fill="#641213"/>
<path d="M170.92 145.932L141.514 164.565L169.27 170.556L170.92 145.932Z" fill="#D85B1D"/>
<path d="M154.655 141.242L142.25 149.102C141.604 148.018 141.239 146.756 141.239 145.401C141.239 141.335 144.533 138.041 148.588 138.041C151.111 138.041 153.331 139.303 154.655 141.242Z" fill="#D85B1D"/>
<path d="M155.948 145.401C155.948 149.467 152.654 152.761 148.588 152.761C145.878 152.761 143.511 151.291 142.25 149.102L154.655 141.242C155.468 142.43 155.948 143.858 155.948 145.401Z" fill="white"/>
<path d="M399.832 176.748L399.542 179.368C384.742 177.738 370.192 168.908 357.442 153.828C352.802 148.338 349.192 142.988 346.702 138.898L348.632 136.928C355.992 149.088 374.012 173.898 399.832 176.748Z" fill="#D85B1D"/>
<path d="M416.25 162.143C414.848 165.831 411.9 168.896 407.953 170.34C405.358 165.239 399.392 162.575 393.732 164.298C392.952 164.536 392.225 164.841 391.537 165.208C386.581 167.864 384.024 173.734 385.724 179.318C386.249 181.041 387.12 182.554 388.252 183.819C388.27 183.845 388.301 183.878 388.329 183.901C389.254 184.934 390.355 185.788 391.573 186.437C391.586 186.444 391.611 186.457 391.623 186.464C395.81 188.987 401.013 189.801 406.057 188.265C415.491 185.392 420.807 175.421 417.937 165.996C417.519 164.618 416.948 163.329 416.25 162.143Z" fill="#641213"/>
<path d="M113.972 33.065C113.972 33.065 116.759 15.646 128.676 11.541C135.753 9.104 143.415 14.18 143.594 21.663C143.728 27.247 140.692 34.565 128.64 42.188L113.972 33.065Z" fill="#027367"/>
<path d="M62.893 48.2239C67.395 40.8739 73.831 34.6269 80.807 30.9059C95.652 22.9869 115.515 23.9359 128.154 35.5779C139.265 45.8129 143.43 62.2239 138.119 76.4239C136.475 80.8199 133.946 85.0899 130.185 88.8679C126.013 93.0589 120.722 95.9319 115.054 97.6179C107.222 99.9479 93.8 102.268 78.496 97.7659C71.654 95.7529 65.566 91.5959 61.522 85.7219C61.274 85.3619 61.03 84.9919 60.789 84.6109C53.643 73.2929 56.006 59.4669 62.893 48.2239Z" fill="#D85B1D"/>
<path d="M58.347 59.5799C58.347 59.5799 51.342 58.4349 43.639 60.0289C23.3291 64.2319 21.062 91.8399 40.292 99.6099C49.733 103.424 62.6251 103.382 77.3561 89.2069L58.347 59.5799Z" fill="#D85B1D"/>
<path d="M106.744 54.56C106.277 59.733 101.705 63.548 96.5309 63.081C91.3579 62.614 87.5429 58.042 88.0099 52.868C88.4769 47.695 93.0489 43.88 98.2229 44.347C103.396 44.814 107.212 49.387 106.744 54.56Z" fill="#641213"/>
<path d="M98.5201 51.2911C98.3541 53.1261 96.7331 54.4791 94.8981 54.3131C93.0631 54.1471 91.7101 52.5261 91.8761 50.6911C92.0421 48.8561 93.6631 47.5031 95.4981 47.6691C97.3321 47.8341 98.6851 49.4561 98.5201 51.2911Z" fill="white"/>
<path d="M119.965 68.3441C119.591 72.4891 115.927 75.5461 111.782 75.1711C107.637 74.7971 104.581 71.1331 104.955 66.9881C105.329 62.8431 108.993 59.7871 113.137 60.1611C117.283 60.5361 120.34 64.1991 119.965 68.3441Z" fill="#E7B23E"/>
<path d="M40.937 77.2411C40.761 79.1921 39.036 80.6311 37.085 80.4551C35.134 80.2791 33.695 78.5541 33.871 76.6031C34.047 74.6521 35.772 73.2131 37.723 73.3891C39.675 73.5661 41.114 75.2901 40.937 77.2411Z" fill="#641213"/>
<path d="M127.37 43.537C127.37 43.537 139.343 24.697 154.205 30.708C161.9 33.82 164.536 43.63 159.378 50.134C155.429 55.112 148.071 59.294 134.371 57.076L127.37 43.537Z" fill="#D85B1D"/>
<path d="M149.675 36.1069L144.509 51.6009" stroke="#641213" stroke-width="3.0461" stroke-miterlimit="10" stroke-linecap="round" stroke-linejoin="round"/>
<path d="M154.839 46.437L139.345 41.271" stroke="#641213" stroke-width="3.0461" stroke-miterlimit="10" stroke-linecap="round" stroke-linejoin="round"/>
<path d="M194.612 269.477L183.339 317.813H165.109L176.143 269.477H194.612Z" fill="#D85B1D"/>
<path d="M183.732 335.705C183.732 335.705 183.56 327.988 183.339 317.813H165.11C165.11 317.813 153.988 323.677 152.939 334.163H156.608L156.656 335.705H183.732Z" fill="#D85B1D"/>
<path d="M219.09 217.383C223.852 196.966 211.159 176.554 190.742 171.793C170.324 167.032 149.913 179.724 145.152 200.142C140.391 220.559 153.083 240.971 173.501 245.732C193.918 250.493 214.329 237.801 219.09 217.383Z" fill="#D85B1D"/>
<path d="M147.736 224.873L167.446 272.2C169.554 277.261 174.184 280.884 179.628 281.535C179.735 281.548 179.842 281.56 179.951 281.571C189.259 282.561 197.136 274.688 196.582 265.344L194.186 224.872H147.736V224.873Z" fill="#D85B1D"/>
<path d="M209.046 215.206C212.602 200.331 203.427 185.391 188.552 181.835C173.678 178.28 158.738 187.455 155.182 202.329C151.626 217.204 160.802 232.144 175.676 235.7C190.55 239.256 205.491 230.08 209.046 215.206Z" fill="#641213"/>
<path d="M182.114 189.447V228.094" stroke="#EFBA3E" stroke-width="4.3523" stroke-miterlimit="10"/>
<path d="M201.438 208.77H162.791" stroke="#EFBA3E" stroke-width="4.3523" stroke-miterlimit="10"/>
<path d="M195.778 195.106L168.45 222.434" stroke="#EFBA3E" stroke-width="4.3523" stroke-miterlimit="10"/>
<path d="M195.778 222.434L168.45 195.106" stroke="#EFBA3E" stroke-width="4.3523" stroke-miterlimit="10"/>
<path d="M184.773 249.721C184.773 253.201 181.952 256.021 178.473 256.021C174.994 256.021 172.173 253.2 172.173 249.721C172.173 246.241 174.994 243.421 178.473 243.421C181.952 243.421 184.773 246.242 184.773 249.721Z" fill="#027367"/>
<path d="M186.674 267.044C186.674 269.944 184.323 272.295 181.423 272.295C178.523 272.295 176.172 269.944 176.172 267.044C176.172 264.144 178.523 261.793 181.423 261.793C184.323 261.793 186.674 264.143 186.674 267.044Z" fill="#EAD7AD"/>
<path d="M316.197 270.338L292.015 317.813H273.785L290.922 269.477L316.197 270.338Z" fill="#D85B1D"/>
<path d="M292.408 335.705C292.408 335.705 292.236 327.988 292.015 317.813H273.786C273.786 317.813 262.664 323.677 261.615 334.163H265.284L265.332 335.705H292.408Z" fill="#D85B1D"/>
<path d="M255.65 242.478L290.496 275.549C293.774 278.66 298.202 280.332 302.706 279.976C302.813 279.968 302.92 279.958 303.027 279.949C313.8 278.972 320.432 267.651 316.325 257.644L305.807 232.02L255.65 242.478Z" fill="#D85B1D"/>
<path d="M282.451 253.265C303.841 253.265 321.18 235.926 321.18 214.536C321.18 193.147 303.841 175.807 282.451 175.807C261.062 175.807 243.722 193.147 243.722 214.536C243.722 235.926 261.062 253.265 282.451 253.265Z" fill="#D85B1D"/>
<path d="M282.45 240.935C297.03 240.935 308.849 229.116 308.849 214.536C308.849 199.956 297.03 188.137 282.45 188.137C267.871 188.137 256.051 199.956 256.051 214.536C256.051 229.116 267.871 240.935 282.45 240.935Z" fill="#EAD7AD"/>
<path d="M308.851 214.539H282.449V188.137C297.028 188.137 308.851 199.953 308.851 214.539Z" fill="#027367"/>
<path d="M282.449 214.539V240.935C267.87 240.935 256.053 229.119 256.053 214.539H282.449Z" fill="#027367"/>
<path d="M293.729 225.819C299.96 219.588 299.96 209.485 293.729 203.254C287.498 197.023 277.395 197.023 271.164 203.254C264.933 209.485 264.933 219.588 271.164 225.819C277.395 232.05 287.498 232.05 293.729 225.819Z" fill="#641213"/>
<path d="M282.45 205.529C287.425 205.529 291.457 209.562 291.457 214.536C291.457 219.511 287.424 223.543 282.45 223.543C277.475 223.543 273.443 219.51 273.443 214.536C273.443 209.561 277.476 205.529 282.45 205.529ZM282.45 204.895C277.134 204.895 272.809 209.22 272.809 214.536C272.809 219.852 277.134 224.177 282.45 224.177C287.766 224.177 292.091 219.852 292.091 214.536C292.091 209.22 287.766 204.895 282.45 204.895Z" fill="#EFBA3E"/>
<path d="M300.679 253.264C300.679 256.405 298.132 258.952 294.991 258.952C291.85 258.952 289.303 256.406 289.303 253.264C289.303 250.123 291.85 247.576 294.991 247.576C298.133 247.577 300.679 250.123 300.679 253.264Z" fill="#641213"/>
<path d="M308.24 268.904C308.24 271.61 306.047 273.803 303.341 273.803C300.635 273.803 298.442 271.609 298.442 268.904C298.442 266.198 300.635 264.005 303.341 264.005C306.046 264.005 308.24 266.198 308.24 268.904Z" fill="#EFBA3E"/>
<path d="M397.223 247.379C397.223 249.229 396.945 251.007 396.431 252.693H361.616C361.102 251.007 360.825 249.229 360.825 247.379C360.825 245.231 361.195 243.165 361.884 241.242C364.402 234.211 371.125 229.175 379.029 229.175C388.239 229.175 395.866 236.041 397.058 244.933C397.171 245.734 397.223 246.547 397.223 247.379Z" fill="#641213"/>
<path d="M372.96 250.744C372.96 251.413 372.903 252.059 372.79 252.693H350.625C350.512 252.058 350.455 251.412 350.455 250.744C350.455 244.534 355.498 239.491 361.708 239.491C362.943 239.491 364.133 239.695 365.243 240.069C369.73 241.543 372.96 245.769 372.96 250.744Z" fill="#641213"/>
<path d="M408.838 252.693H387.695C387.695 248.331 390.333 244.599 394.091 242.977C395.378 242.424 396.794 242.115 398.273 242.115C404.102 242.115 408.838 246.851 408.838 252.693Z" fill="#027367"/>
<path d="M67.6129 222.382C67.6129 224.941 67.2289 227.4 66.5179 229.731H18.3709C17.6599 227.4 17.2759 224.941 17.2759 222.382C17.2759 219.411 17.7879 216.554 18.7399 213.895C22.2229 204.172 31.5189 197.206 42.4509 197.206C55.1879 197.206 65.7359 206.702 67.3849 218.998C67.5419 220.108 67.6129 221.231 67.6129 222.382Z" fill="#E7B23E"/>
<path d="M28.4219 227.286C28.4219 228.125 28.3509 228.935 28.2089 229.731H0.402939C0.260939 228.935 0.189941 228.125 0.189941 227.286C0.189941 219.496 6.51594 213.17 14.3059 213.17C15.8549 213.17 17.3479 213.426 18.7409 213.895C24.3699 215.743 28.4219 221.046 28.4219 227.286Z" fill="#E7B23E"/>
<mask id="mask7_66_6698" style="mask-type:luminance" maskUnits="userSpaceOnUse" x="0" y="197" width="68" height="33">
<path d="M67.3859 218.999C65.7369 206.703 55.1889 197.207 42.4519 197.207C31.5199 197.207 22.2239 204.173 18.7409 213.896C17.3479 213.427 15.8549 213.171 14.3059 213.171C6.51594 213.171 0.189941 219.497 0.189941 227.287C0.189941 228.126 0.260939 228.936 0.402939 229.732H18.3709H28.2079H66.5179C67.2289 227.401 67.6129 224.942 67.6129 222.383C67.6129 221.231 67.5419 220.108 67.3859 218.999Z" fill="white"/>
</mask>
<g mask="url(#mask7_66_6698)">
<path d="M59.115 216.132L50.711 209.622L42.306 216.132L33.902 209.622V209.627L25.504 216.132L17.099 209.622L8.69404 216.132L0.290039 209.622V217.202L8.69404 223.712L17.099 217.202L25.504 223.712L33.902 217.207V217.202L42.306 223.712L50.711 217.202L59.115 223.712L67.513 217.207V209.627L59.115 216.132Z" fill="#641213"/>
<path d="M50.711 224.834L42.306 231.344L33.902 224.834V224.839L25.504 231.344L17.099 224.834L8.69404 231.344L0.290039 224.834V224.87V232.415L8.69404 238.925L17.099 232.415L25.504 238.925L33.902 232.42V232.415L42.306 238.925L50.711 232.415L59.115 238.925L67.513 232.42V224.875V224.839L59.115 231.344L50.711 224.834Z" fill="#641213"/>
<path d="M50.711 194.396L42.306 200.906L33.902 194.396V194.401L25.504 200.906L17.099 194.396L8.69404 200.906L0.290039 194.396V194.432V201.977L8.69404 208.487L17.099 201.977L25.504 208.487L33.902 201.982V201.977L42.306 208.487L50.711 201.977L59.115 208.487L67.513 201.982V194.437V194.401L59.115 200.906L50.711 194.396Z" fill="#641213"/>
</g>
<path d="M82.843 229.731H51.665C51.665 223.298 55.555 217.795 61.096 215.404C62.994 214.588 65.081 214.132 67.263 214.132C75.86 214.133 82.843 221.116 82.843 229.731Z" fill="#027367"/>
<path d="M93.589 229.731H75.415C75.415 225.981 77.683 222.773 80.913 221.379C82.019 220.903 83.236 220.638 84.508 220.638C89.518 220.639 93.589 224.709 93.589 229.731Z" fill="#027367"/>
<path d="M279.366 28.849C279.366 31.781 278.926 34.599 278.112 37.271H222.938C222.123 34.599 221.684 31.781 221.684 28.849C221.684 25.444 222.271 22.17 223.362 19.124C227.353 7.982 238.007 0 250.533 0C265.129 0 277.216 10.882 279.105 24.972C279.285 26.243 279.366 27.53 279.366 28.849Z" fill="#D85B1D"/>
<mask id="mask8_66_6698" style="mask-type:luminance" maskUnits="userSpaceOnUse" x="221" y="0" width="59" height="38">
<path d="M279.366 28.849C279.366 31.781 278.926 34.599 278.112 37.271H222.938C222.123 34.599 221.684 31.781 221.684 28.849C221.684 25.444 222.271 22.17 223.362 19.124C227.353 7.982 238.007 0 250.533 0C265.129 0 277.216 10.882 279.105 24.972C279.285 26.243 279.366 27.53 279.366 28.849Z" fill="white"/>
</mask>
<g mask="url(#mask8_66_6698)">
<path d="M295.651 26.3462L245.427 76.5702" stroke="#F0BB3E" stroke-width="0.5212" stroke-miterlimit="10"/>
<path d="M288.048 18.7432L237.823 68.9672" stroke="#F0BB3E" stroke-width="0.5212" stroke-miterlimit="10"/>
<path d="M280.444 11.1392L230.22 61.3632" stroke="#F0BB3E" stroke-width="0.5212" stroke-miterlimit="10"/>
<path d="M272.841 3.53613L222.617 53.7601" stroke="#F0BB3E" stroke-width="0.5212" stroke-miterlimit="10"/>
<path d="M265.237 -4.06787L215.013 46.1571" stroke="#F0BB3E" stroke-width="0.5212" stroke-miterlimit="10"/>
<path d="M257.634 -11.6709L207.41 38.5531" stroke="#F0BB3E" stroke-width="0.5212" stroke-miterlimit="10"/>
<path d="M250.031 -19.2749L199.806 30.9501" stroke="#F0BB3E" stroke-width="0.5212" stroke-miterlimit="10"/>
<path d="M250.031 76.5702L199.806 26.3462" stroke="#F0BB3E" stroke-width="0.5212" stroke-miterlimit="10"/>
<path d="M257.634 68.9672L207.41 18.7432" stroke="#F0BB3E" stroke-width="0.5212" stroke-miterlimit="10"/>
<path d="M265.237 61.3632L215.013 11.1392" stroke="#F0BB3E" stroke-width="0.5212" stroke-miterlimit="10"/>
<path d="M272.841 53.7601L222.617 3.53613" stroke="#F0BB3E" stroke-width="0.5212" stroke-miterlimit="10"/>
<path d="M280.444 46.1571L230.22 -4.06787" stroke="#F0BB3E" stroke-width="0.5212" stroke-miterlimit="10"/>
<path d="M288.048 38.5531L237.823 -11.6709" stroke="#F0BB3E" stroke-width="0.5212" stroke-miterlimit="10"/>
<path d="M295.651 30.9501L245.427 -19.2749" stroke="#F0BB3E" stroke-width="0.5212" stroke-miterlimit="10"/>
</g>
<path d="M234.455 34.469C234.455 35.43 234.373 36.359 234.211 37.271H202.348C202.185 36.359 202.103 35.43 202.103 34.469C202.103 25.542 209.352 18.293 218.279 18.293C220.055 18.293 221.765 18.586 223.361 19.124C229.812 21.242 234.455 27.318 234.455 34.469Z" fill="#641213"/>
</svg>
