<svg width="203" height="134" viewBox="0 0 203 134" fill="none" xmlns="http://www.w3.org/2000/svg">
<path d="M103.422 133.779C158.062 133.779 202.357 130.465 202.357 126.378C202.357 122.29 158.062 118.977 103.422 118.977C48.7816 118.977 4.48682 122.29 4.48682 126.378C4.48682 130.465 48.7816 133.779 103.422 133.779Z" fill="#3E3C39"/>
<path d="M48.2646 93.7752C47.4964 93.7425 46.7376 93.7706 45.9928 93.8455C38.3529 94.6418 32.2634 100.942 31.9496 108.844C31.631 116.882 37.4113 123.745 45.159 124.977C45.768 125.07 46.3863 125.131 47.014 125.159C58.7947 126.059 64.1535 117.59 64.4486 110.137C64.7249 103.312 60.2515 94.253 48.2646 93.7752Z" fill="#12172E"/>
<path d="M9.26904 94.8901C9.26904 94.8901 10.2246 101.649 14.6325 102.76C19.0403 103.87 52.9024 105.027 52.9024 105.027L52.3075 91.199L9.26904 94.8901Z" fill="#12172E"/>
<path d="M153.173 98.1644L50.4065 93.7566L48.7202 104.853C48.7202 104.853 131.453 108.606 145.608 107.523C159.759 106.446 153.173 98.1644 153.173 98.1644Z" fill="#415D82"/>
<path d="M79.6609 58.2037C79.7171 58.2084 79.778 58.2131 79.8342 58.2177L79.8248 58.2271C79.8248 58.2271 62.1326 57.6744 47.4383 56.5127C44.3888 56.2691 41.9062 55.44 39.2222 53.1729C39.7 40.8768 40.8851 28.6042 42.7634 16.4393C42.9695 15.1231 43.26 13.6663 44.328 12.8653C45.0962 12.2891 46.1079 12.1814 47.0635 12.0877C58.0246 11.0619 68.9856 10.036 82.167 12.5842C80.1527 25.7422 79.0004 43.6827 79.6609 58.2037Z" fill="#3B1C21"/>
<path d="M84.9444 62.3024C84.9023 60.1148 83.1644 58.3348 80.9769 58.2693C80.6303 58.2599 80.2649 58.2552 79.834 58.2177L79.8246 58.2271C79.8246 58.2271 62.1324 57.6744 47.438 56.5127C44.3886 56.2691 41.906 55.44 39.2219 53.1729C38.7113 66.2043 38.9877 79.2732 40.0557 92.2766C54.4081 93.7896 67.4396 94.5391 83.4642 95.1761C84.4385 82.0275 85.1459 72.2329 84.9444 62.3024Z" fill="#E0771B"/>
<path d="M78.1047 96.5018C78.1047 96.5018 57.513 104.371 53.2035 104.203C49.9667 104.076 49.339 86.9507 49.2313 78.4255C49.1891 75.5915 49.2125 73.7085 49.2125 73.7085C49.2125 73.7085 76.4324 73.8537 78.1375 76.1021C78.2359 76.2333 78.3202 76.4207 78.3998 76.6596C79.6411 80.5568 78.1047 96.5018 78.1047 96.5018Z" fill="#A12848"/>
<path d="M78.3951 76.6596C77.73 76.1302 76.765 76.2052 75.8938 76.1724C73.4252 76.074 56.0796 77.751 49.2313 78.4255C49.1891 75.5915 49.2125 73.7085 49.2125 73.7085C49.2125 73.7085 76.4324 73.8537 78.1375 76.1021C78.2359 76.2333 78.3202 76.4207 78.3951 76.6596Z" fill="#DE5D66"/>
<path d="M197.214 114.011C196.919 121.469 191.56 129.933 179.779 129.034C179.152 129.01 178.529 128.949 177.925 128.851C170.172 127.619 164.392 120.757 164.715 112.718C165.029 104.821 171.123 98.5206 178.758 97.7196C179.503 97.64 180.262 97.6166 181.03 97.6494C193.012 98.1318 197.486 107.191 197.214 114.011Z" fill="#212D4A"/>
<path d="M193.321 113.866C193.054 120.625 187.635 128.171 177.92 128.855C170.167 127.623 164.387 120.761 164.71 112.723C165.024 104.825 171.118 98.5251 178.753 97.7241C188.801 99.3589 193.574 107.584 193.321 113.866Z" fill="#2B3B59"/>
<path d="M178.87 124.729C185.19 124.729 190.314 119.605 190.314 113.285C190.314 106.965 185.19 101.842 178.87 101.842C172.55 101.842 167.427 106.965 167.427 113.285C167.427 119.605 172.55 124.729 178.87 124.729Z" fill="#82A1B8"/>
<path d="M177.97 119.534C181.44 119.534 184.252 116.722 184.252 113.252C184.252 109.783 181.44 106.971 177.97 106.971C174.501 106.971 171.689 109.783 171.689 113.252C171.689 116.722 174.501 119.534 177.97 119.534Z" fill="#AECAD6"/>
<path d="M169.943 95.8226L175.662 114.11C176.009 115.225 177.255 115.782 178.318 115.299C179.194 114.901 179.649 113.927 179.386 113L174.473 95.5649" fill="#131C3B"/>
<path d="M197.199 101.308C191.067 96.5532 182.256 96.6562 175.502 98.7266C174.64 98.9936 173.848 99.2887 173.118 99.6166C168.138 101.846 166.049 105.477 163.538 110.086C160.62 105.945 160.704 98.1505 166.466 92.7964C170.963 88.6134 177.432 86.4587 183.46 87.611C183.493 87.6157 183.521 87.6251 183.554 87.6297C183.891 87.6906 184.224 87.7703 184.552 87.8499C189.498 89.1287 193.775 92.7168 195.925 97.2792C195.925 97.2839 195.93 97.2839 195.93 97.2839C196.534 98.558 196.97 99.907 197.199 101.308Z" fill="#FDBF4C"/>
<path d="M183.461 87.611C180.913 88.0607 178.496 89.1896 176.683 90.9087C174.266 93.1946 173.011 96.4407 173.118 99.6213C168.139 101.846 166.055 105.481 163.539 110.086C160.621 105.945 160.701 98.1505 166.462 92.7964C170.964 88.6134 177.432 86.4634 183.461 87.611Z" fill="#F7AA45"/>
<path d="M195.925 97.2792C194.745 96.3095 193.373 95.5366 191.949 95.0167C188.342 93.6864 184.421 93.5974 180.603 93.1102C179.746 93.0025 178.702 92.7074 178.524 91.8548C178.388 91.199 178.875 90.5901 179.362 90.1264C180.561 89.0022 182.004 88.159 183.559 87.625C183.896 87.6859 184.229 87.7655 184.557 87.8452C189.499 89.1286 193.78 92.7167 195.925 97.2792Z" fill="#FFD363"/>
<path d="M123.92 9.72705L121.711 65.321L124.187 65.4194L126.396 9.82542L123.92 9.72705Z" fill="#131C3B"/>
<path d="M121.429 56.4705L119.649 100.708L139.426 100.858C139.426 100.858 140.278 70.0593 139.852 68.8742C139.665 68.3543 125.284 67.8531 125.284 67.8531L125.368 56.5501L121.429 56.4705Z" fill="#CC6A14"/>
<path d="M95.4922 68.7711L93.834 62.7519L121.813 60.3677L123.04 74.9824L96.2042 76.5141L95.4922 68.7711Z" fill="#E0771B"/>
<path d="M133.091 99.9821L110.321 105.5L96.7138 104.91L96.2126 81.1188L95.5615 78.163C95.5615 78.163 98.4517 77.7836 102.105 77.3386C107.586 76.6688 114.804 75.8397 116.594 75.9099C119.573 76.027 133.522 76.1114 133.799 77.1747C133.827 77.2777 133.841 77.5541 133.855 77.9757C133.981 81.8823 133.091 99.9821 133.091 99.9821Z" fill="#A12848"/>
<path d="M133.883 80.1117L109.403 82.079L104.991 82.3788L102.11 77.3386C107.59 76.6688 114.809 75.8397 116.598 75.9099C119.577 76.027 133.527 76.1114 133.803 77.1747C133.831 77.2777 133.869 79.6854 133.883 80.1117Z" fill="#DE5D66"/>
<path d="M128.68 80.6502C125.5 81.025 122.586 83.1609 121.275 86.0792C121.228 85.1986 120.633 84.435 119.94 83.8964C119.246 83.3577 118.445 82.7768 117.724 82.2709C115.855 80.9547 114.651 78.9358 114.59 76.6499C116.712 77.9755 119.307 78.2472 121.79 78.5564C124.273 78.8655 126.877 79.2918 128.68 80.6502Z" fill="#383C80"/>
<path d="M135.375 54.3531C135.375 54.3531 142.561 58.0771 147.765 59.5948L147.296 66.4197C147.296 66.4197 139.984 65.1502 132.532 61.9463L135.375 54.3531Z" fill="#E1915A"/>
<path d="M124.016 54.6905C124.883 52.4748 125.754 50.2639 127.122 47.6548C127.318 47.725 127.511 47.7906 127.707 47.8609C129.07 48.334 130.316 49.0741 131.408 50.0203C133.197 51.5755 135.118 53.0229 137.137 54.4984C135.806 57.1216 134.64 60.1991 133.221 63.0705C131.516 62.4662 128.312 61.4217 125.187 60.3115C125.164 58.2645 124.737 57.1918 124.016 54.6905Z" fill="#707DC4"/>
<path d="M135.988 95.7241C135.988 95.7241 134.732 99.4668 135.084 100.066C135.435 100.666 143.951 101.439 144.396 100.577C144.841 99.7151 142.166 97.7664 141.941 97.5275C141.712 97.2886 141.342 96.394 141.342 96.394L135.988 95.7241Z" fill="#E1915A"/>
<path d="M134.887 99.6213C134.878 100.099 134.864 100.577 134.854 101.05C137.913 101.992 141.202 102.188 144.349 101.617C144.377 101.186 144.41 100.755 144.438 100.347C141.272 100.666 138.044 100.361 134.887 99.6213Z" fill="#66253F"/>
<path d="M137.422 100.708C137.586 99.7245 138.12 98.8111 138.897 98.1834C139.675 97.5557 140.677 97.2278 141.877 97.1716C142.298 97.5323 142.715 97.8977 143.254 98.4083C142.181 98.502 141.174 99.1718 140.673 100.123C140.518 100.413 140.378 100.76 140.064 100.867C139.905 100.919 139.736 100.896 139.572 100.872C138.832 100.774 138.096 100.671 137.422 100.708Z" fill="#66253F"/>
<path d="M129.257 96.792C129.257 96.792 128.001 100.535 128.353 101.134C128.704 101.734 137.22 102.507 137.665 101.645C138.11 100.783 135.435 98.8343 135.21 98.5954C134.981 98.3565 134.611 97.4618 134.611 97.4618L129.257 96.792Z" fill="#E1915A"/>
<path d="M128.155 100.685C128.146 101.162 128.132 101.64 128.123 102.113C131.181 103.055 134.47 103.252 137.617 102.68C137.646 102.249 137.678 101.818 137.706 101.411C134.54 101.734 131.313 101.429 128.155 100.685Z" fill="#66253F"/>
<path d="M130.69 101.776C130.854 100.792 131.388 99.879 132.165 99.2513C132.943 98.6236 133.945 98.2957 135.145 98.2395C135.566 98.6002 135.983 98.9656 136.522 99.4761C135.449 99.5698 134.442 100.24 133.941 101.191C133.786 101.481 133.646 101.828 133.332 101.935C133.173 101.987 133.004 101.963 132.84 101.94C132.1 101.837 131.364 101.734 130.69 101.776Z" fill="#66253F"/>
<path d="M127.992 68.6025C127.992 68.6025 141.047 70.6261 142.148 72.3265C143.249 74.0269 141.197 96.8342 141.197 96.8342L134.574 95.8084L132.353 81.634L119.312 71.3662" fill="#9D3E52"/>
<path d="M110.562 72.022C110.562 72.022 110.567 77.8258 114.764 79.7744C118.652 81.5778 128.639 83.1704 128.639 83.1704L128.292 97.3542L135.942 98.5206C135.942 98.5206 139.708 79.4559 137.895 76.7905C136.082 74.1206 121.8 70.6355 121.8 70.6355L110.562 72.022Z" fill="#9D3E52"/>
<path d="M136.458 95.7428C137.188 90 137.802 84.4632 138.401 78.1114C138.509 76.9685 138.303 75.6382 137.202 75.1932C134.425 74.0643 131.656 73.3476 128.972 72.6731" stroke="#66253F" stroke-width="0.46842" stroke-miterlimit="10" stroke-linecap="round"/>
<path d="M130.901 81.114C130.133 81.1281 129.388 81.5684 129.009 82.2335" stroke="#66253F" stroke-width="0.46842" stroke-miterlimit="10" stroke-linecap="round"/>
<path d="M129.393 83.0954C130.1 82.7347 130.957 82.6644 131.711 82.9127" stroke="#66253F" stroke-width="0.46842" stroke-miterlimit="10" stroke-linecap="round"/>
<path d="M98.4781 57.0933L97.5928 55.2712C97.5928 55.2712 102.68 51.7206 106.91 50.6292L108.989 57.899L98.4781 57.0933Z" fill="#E1915A"/>
<path d="M140.031 71.2069C136.748 70.6542 136.687 72.926 135.609 73.3007C133.342 74.0924 128.18 72.9026 127.033 79.3949C126.222 79.3902 125.314 79.3621 124.353 79.2965C120.77 79.0436 116.451 78.2285 113.842 75.9801C114.353 79.0483 118.044 81.6527 120.789 84.2571C121.632 85.0534 122.381 85.8497 122.925 86.6648C122.344 86.6835 121.697 86.3884 121.182 86.1402C120.85 85.4937 120.451 84.9363 120.011 84.4351C116.784 80.772 111.149 80.3177 110.207 73.1602C109.551 68.1341 110.657 58.8172 110.657 58.8172L105.902 58.7235C107.706 53.6646 102.169 52.3811 102.169 52.3811C110.095 47.8515 118.714 46.6804 118.714 46.6804C121.946 47.3831 127.3 46.0246 129.019 50.6245C129.567 54.1751 125.431 65.7779 128.953 67.4174C130.836 68.2933 133.628 69.0288 135.942 69.6705C138.036 70.256 139.746 70.7572 140.031 71.2069Z" fill="#707DC4"/>
<path d="M129.525 51.5238C129.268 54.6716 128.687 57.7913 127.797 60.8219" stroke="#444594" stroke-width="0.46842" stroke-miterlimit="10" stroke-linecap="round"/>
<path d="M131.333 55.599C130.771 57.2853 129.647 58.7796 128.181 59.7867" stroke="#444594" stroke-width="0.46842" stroke-miterlimit="10" stroke-linecap="round"/>
<path d="M115.683 50.9758C116.217 53.9831 115.233 57.2058 113.093 59.4496" stroke="#444594" stroke-width="0.46842" stroke-miterlimit="10" stroke-linecap="round"/>
<path d="M121.613 68.0918C124.072 69.38 126.929 69.8905 129.679 69.5392" stroke="#444594" stroke-width="0.46842" stroke-miterlimit="10" stroke-linecap="round"/>
<path d="M122.924 86.6601C122.343 86.6789 121.697 86.3837 121.181 86.1355C120.849 85.4891 120.451 84.9317 120.01 84.4304C120.273 84.4023 120.535 84.3368 120.788 84.2524C121.631 85.0534 122.38 85.8497 122.924 86.6601Z" fill="#E3D2BB"/>
<path d="M140.031 71.207C136.747 70.6543 136.686 72.9261 135.609 73.3009C133.342 74.0925 128.18 72.9027 127.032 79.395C126.222 79.3903 125.313 79.3622 124.353 79.2966C124.671 78.0834 124.905 76.8421 125.341 75.6711C125.847 74.3033 126.699 72.9776 128.002 72.3125C129.36 71.6192 130.981 71.7363 132.442 71.3054C133.679 70.9353 134.761 70.1952 135.932 69.6753C138.035 70.2561 139.745 70.7573 140.031 71.207Z" fill="#E3D2BB"/>
<path d="M117.743 47.7529C117.743 47.7529 120.146 53.0976 122.31 53.1819C124.474 53.2662 126.216 48.5165 126.216 48.5165L117.743 47.7529Z" fill="#D47248"/>
<path d="M116.324 62.3256C116.886 58.2128 116.839 54.0205 116.417 49.9171C118.099 51.0554 119.654 52.3857 121.078 54.2125C121.298 59.3183 121.514 64.4288 121.734 69.5346C121.429 68.8975 120.572 68.7195 119.888 68.9022C119.204 69.0849 118.624 69.5205 117.991 69.8344C117.359 70.1482 116.577 70.3215 115.963 69.9702C116.132 67.6234 115.925 65.2532 116.324 62.3256Z" fill="#FDBF4C"/>
<path d="M128.307 47.561C129.506 47.5048 130.7 48.3011 131.108 49.43C131.431 51.7065 130.691 54.147 129.243 56.0675C127.791 57.9834 125.585 60.6159 123.294 59.8805C120.02 58.8312 118.502 55.126 116.577 52.7043C115.313 51.1163 114.572 49.2661 112.825 48.2309C111.963 48.2309 111.261 48.4557 110.535 48.704C111.078 47.2144 112.994 46.5446 114.451 47.1769C114.957 46.4509 115.884 46.0387 117.004 46.2354C119.346 48.0201 120.456 51.3833 123.196 52.5169C124.245 52.9479 125.365 51.73 126.049 50.8259C126.733 49.9219 127.051 48.7508 126.915 47.6266C127.061 47.636 127.206 47.6125 128.307 47.561Z" fill="#FDBF4C"/>
<path d="M114.806 47.8093C116.145 48.3527 117.162 49.4675 118.014 50.6386C118.867 51.805 119.598 53.0697 120.605 54.1049C121.612 55.1401 122.966 55.9505 124.413 55.8943" stroke="#D17B26" stroke-width="0.46842" stroke-miterlimit="10" stroke-linecap="round" stroke-linejoin="round"/>
<path d="M128.877 48.1887C129.275 49.2989 129.233 50.5589 128.764 51.641C128.296 52.723 127.401 53.613 126.319 54.0815" stroke="#D17B26" stroke-width="0.46842" stroke-miterlimit="10" stroke-linecap="round" stroke-linejoin="round"/>
<path d="M117.03 53.2289C118.08 55.0651 119.419 56.7327 120.979 58.1613" stroke="#D17B26" stroke-width="0.46842" stroke-miterlimit="10" stroke-linecap="round" stroke-linejoin="round"/>
<path d="M115.307 57.4916C112.852 56.8358 105.184 55.9786 100.214 54.6483C98.9356 54.3063 97.5397 54.8778 96.987 56.0957C96.5467 57.0653 96.4296 58.2457 96.6404 59.309C96.8933 60.6159 97.8442 61.8291 99.1464 61.9884C103.76 62.5505 110.641 62.3257 113.892 62.068C114.478 60.4707 115.002 58.939 115.307 57.4916Z" fill="#E1915A"/>
<path d="M110.984 58.911C111.72 58.4379 112.488 58.0069 113.308 57.5947C113.837 57.3277 114.446 57.2621 115.017 57.4167C115.388 57.5151 115.758 57.6228 116.137 57.7446C116.348 57.8102 116.545 57.9179 116.718 58.0538C117.917 59.0047 119.032 60.1054 119.739 61.4639C120.498 62.916 120.737 64.7147 120.062 66.2089C119.908 66.5462 119.599 66.9163 119.243 66.8179C119.004 66.7523 118.873 66.5041 118.784 66.2745C118.479 65.4689 118.418 64.5695 118.62 63.7263C119.172 64.7194 119.215 65.9794 118.727 67.0053C118.606 67.2676 118.437 67.5252 118.189 67.6704C117.94 67.8203 117.589 67.825 117.378 67.6236C117.172 67.4222 117.163 67.0943 117.182 66.8039C117.238 65.8108 117.392 64.8177 117.641 63.8528C118.043 65.066 117.847 66.4619 117.116 67.5112C116.938 67.7688 116.718 68.0124 116.427 68.1295C116.137 68.2466 115.762 68.1951 115.575 67.9421C115.439 67.7641 115.425 67.5252 115.425 67.3004C115.42 66.1855 115.636 65.0707 116.057 64.0402C116.273 65.1972 116.011 66.4385 115.345 67.4081C115.153 67.6845 114.919 67.9562 114.601 68.0686C114.282 68.181 113.875 68.092 113.715 67.7922C113.575 67.5252 113.673 67.202 113.781 66.921C114.043 66.2324 114.371 65.4548 114.657 64.5367C113.074 63.019 112.01 61.328 110.984 58.911Z" fill="#E1915A"/>
<path d="M115.575 67.23C115.982 66.3963 116.202 65.4641 116.207 64.5366" stroke="#B54D3E" stroke-width="0.46842" stroke-miterlimit="10" stroke-linecap="round"/>
<path d="M117.256 67.0004C117.635 66.0636 117.832 65.0518 117.832 64.04" stroke="#B54D3E" stroke-width="0.46842" stroke-miterlimit="10" stroke-linecap="round"/>
<path d="M118.901 66.34C119.294 65.3656 119.416 64.2789 119.248 63.239" stroke="#B54D3E" stroke-width="0.46842" stroke-miterlimit="10" stroke-linecap="round"/>
<path d="M106.009 55.6273C105.011 55.4118 104.004 55.2385 102.987 55.1121" stroke="#B54D3E" stroke-width="0.46842" stroke-miterlimit="10" stroke-linecap="round"/>
<path d="M129.593 41.9775C129.888 41.2467 130.202 40.4879 130.806 39.9445C131.411 39.4011 132.39 39.1388 133.13 39.5417C133.87 39.9445 134.123 40.8392 134.071 41.6215C134.001 42.7503 133.453 43.8324 132.568 44.5866C131.682 45.3407 130.469 45.7529 129.247 45.7201" fill="#D47248"/>
<path d="M114.206 42.0337C110.796 37.9256 112.262 25.2221 122.459 25.0441C130.98 25.5593 134.329 34.2673 130.811 41.6777C133.35 52.8636 116.328 53.4631 114.206 42.0337Z" fill="#E1915A"/>
<path d="M121.915 44.6381C121.915 44.6381 121.311 47.369 123.606 47.992C125.841 48.6009 126.721 45.411 126.721 45.411C126.721 45.411 123.906 43.9542 121.915 44.6381Z" fill="white"/>
<path d="M120.426 40.9422C120.747 40.9422 121.007 40.6821 121.007 40.3614C121.007 40.0406 120.747 39.7805 120.426 39.7805C120.105 39.7805 119.845 40.0406 119.845 40.3614C119.845 40.6821 120.105 40.9422 120.426 40.9422Z" fill="#1C233D"/>
<path d="M127.349 41.0171C127.67 41.0171 127.93 40.7571 127.93 40.4363C127.93 40.1155 127.67 39.8555 127.349 39.8555C127.029 39.8555 126.769 40.1155 126.769 40.4363C126.769 40.7571 127.029 41.0171 127.349 41.0171Z" fill="#1C233D"/>
<path d="M124.192 43.2188C123.559 42.5255 122.468 42.296 121.611 42.6801C121.147 42.8909 120.763 43.2515 120.299 43.4577C119.836 43.6684 119.203 43.6684 118.903 43.2609C118.59 43.8886 118.814 44.6943 119.311 45.1908C119.807 45.6873 120.51 45.9309 121.208 46.0293C122.023 46.1464 122.899 46.0761 123.588 45.6218C124.267 45.1721 124.965 44.0713 124.192 43.2188Z" fill="#54231D"/>
<path d="M124.422 43.2281C125.106 42.5864 126.216 42.4458 127.04 42.8955C127.485 43.1391 127.841 43.5326 128.286 43.7762C128.731 44.0197 129.359 44.0759 129.696 43.6918C129.963 44.3429 129.668 45.1252 129.139 45.5843C128.609 46.0433 127.883 46.226 127.185 46.2682C126.366 46.3197 125.494 46.1838 124.848 45.6733C124.192 45.1721 123.583 44.0151 124.422 43.2281Z" fill="#54231D"/>
<path d="M126.15 40.9891C126.272 41.6309 126.361 42.3616 125.949 42.8675C125.658 43.2282 125.171 43.3828 124.712 43.3828C124.248 43.3828 123.799 43.2422 123.358 43.1017C123.11 43.0221 122.857 42.9424 122.637 42.8066C122.417 42.6661 122.229 42.46 122.168 42.207C123.574 41.8182 124.96 41.3498 126.15 40.9891Z" fill="#E1915A"/>
<path d="M122.309 42.2867C122.815 42.9472 123.7 43.2095 124.534 43.2142C124.927 43.2189 125.344 43.1626 125.654 42.9191C126.061 42.5959 126.173 42.015 126.122 41.4951C126.07 40.9751 125.888 40.4786 125.775 39.9305C126.094 40.4833 126.422 41.0501 126.515 41.6824C126.609 42.3148 126.412 43.0315 125.874 43.3734C125.476 43.6264 124.974 43.6404 124.501 43.617C123.991 43.5889 123.471 43.528 123.016 43.2985C122.557 43.0643 122.178 42.6286 122.309 42.2867Z" fill="#D47248"/>
<path d="M126.974 35.3541C127.311 34.7451 127.822 34.2486 128.431 34.0378C129.04 33.8317 129.742 33.9394 130.258 34.3891C130.773 34.8388 131.054 35.6398 130.89 36.3424C129.85 35.1854 128.178 34.8529 126.974 35.3541Z" fill="#54231D"/>
<path d="M122.014 35.3166C121.733 34.5952 121.194 33.9863 120.506 33.7146C119.822 33.4476 118.997 33.5413 118.393 34.0237C117.789 34.5062 117.452 35.3775 117.63 36.141C118.637 34.97 120.318 34.539 122.014 35.3166Z" fill="#54231D"/>
<path d="M115.611 30.1732C114.871 31.9017 115.405 34.1829 115.817 35.7428C115.639 37.223 115.283 39.9632 114.608 42.2538C113.695 41.9868 113.976 42.2913 113.283 41.865C111.943 38.216 110.421 33.8503 110.884 30.0421C111.615 28.4588 113.114 27.6719 114.59 27.2128C115.044 25.5078 116.445 24.1634 118.061 23.4608C119.677 22.7582 121.489 22.627 123.246 22.7347C126.787 22.9549 130.268 24.1306 133.134 26.379C133.265 27.3206 133.205 28.2855 132.984 29.2411C133.369 29.85 133.659 30.5199 133.968 31.7097C133.556 34.6794 132.731 37.5883 131.546 39.9211C131.856 37.9256 132.296 35.6163 132.019 33.6723C131.612 30.8056 129.851 27.9717 127.457 26.8334C119.995 23.2781 116.192 28.8242 115.611 30.1732Z" fill="#54231D"/>
<path d="M115.086 41.6918C114.758 41.0594 114.411 40.4036 113.812 39.9446C113.212 39.4855 112.294 39.2841 111.643 39.6635C110.992 40.0429 110.833 40.8346 110.936 41.5231C111.085 42.5115 111.676 43.4484 112.552 44.0807C113.428 44.7131 114.575 45.041 115.695 44.9707" fill="#E1915A"/>
<path d="M96.1058 16.0039L93.897 71.5979L96.3729 71.6963L98.5818 16.1023L96.1058 16.0039Z" fill="#2B3B59"/>
<path d="M93.6152 62.7473L92.1162 106.062C96.0416 106.371 107.129 106.947 111.631 106.648C111.631 106.648 112.464 76.3362 112.033 75.1558C111.846 74.6358 97.4656 74.1346 97.4656 74.1346L97.5499 62.8316L93.6152 62.7473Z" fill="#FDBF4C"/>
<path d="M181.51 73.0574C181.44 78.5707 181.276 82.9786 181.276 82.9786C181.276 82.9786 172.329 87.5129 166.844 95.4854C161.354 103.449 160.708 107.079 157.564 108.334C157.03 108.545 155.344 108.709 152.843 108.817C140.622 109.369 108.905 108.84 96.637 108.353C81.8584 107.767 47.2046 105.725 44.2067 105.205C41.2089 104.69 41.0355 94.5017 25.1795 93.1714C12.5087 92.1081 7.684 101.303 6.80337 104.015L2.00206 102.39C2.00206 102.39 2.11917 100.568 2.69533 98.3943C2.25501 97.0125 1.81938 94.7453 1.68822 91.0729C1.59454 88.4638 2.1988 81.0534 3.23869 71.7786C3.7118 67.5629 4.2739 62.9536 4.8969 58.2413C25.662 60.5131 49.8699 60.8223 56.6292 60.8551C56.6292 60.8551 56.6293 60.8551 56.6339 60.8551C57.819 60.8644 58.4655 60.8644 58.4655 60.8644L58.5357 60.7848C59.0182 60.827 61.8662 61.2111 62.9529 64.3027C63.8617 66.8883 63.07 88.7073 62.6391 98.8814C62.611 99.5138 62.5876 100.099 62.5688 100.633C62.4751 102.769 62.4096 104.072 62.4096 104.072C81.2494 106.231 118.367 107.088 141.235 106.854C141.872 103.936 142.425 100.835 142.889 97.6214C144.73 85.0958 145.404 70.6966 145.545 57.6839C145.549 57.2248 145.554 56.7798 145.554 56.3348C145.713 35.9117 144.575 19.2406 144.575 19.2406L144.229 19.2266L144.491 18.9877C145.067 17.9525 145.798 16.8985 146.632 15.9055C148.805 13.3291 151.681 11.1791 154.309 10.8512C156.389 11.9614 157.616 13.1324 158.534 14.2894C158.731 14.5377 158.909 14.7766 159.082 15.0248C159.185 15.17 159.279 15.3106 159.377 15.4511C159.921 16.2568 160.403 17.0531 161.017 17.7979C163.012 20.2477 172.577 35.1154 177.796 46.2685C177.922 46.5308 178.039 46.7884 178.156 47.046C178.227 47.2053 178.297 47.3646 178.367 47.5191C179.73 50.5545 180.723 53.2432 181.074 55.2481C181.126 55.5479 181.168 55.8336 181.196 56.11C181.196 56.1615 181.206 56.2177 181.206 56.2692C181.22 56.4004 181.229 56.5316 181.243 56.6627C181.365 58.246 181.435 60.1056 181.487 62.0777C181.566 65.6142 181.552 69.5536 181.51 73.0574Z" fill="#FDBF4C"/>
<path d="M62.6391 98.8812C62.611 99.5136 62.5876 100.099 62.5689 100.633C61.8381 100.399 61.1121 100.165 60.386 99.9352C61.4775 90.5715 61.8053 81.1187 61.3604 71.7035C61.2198 68.7993 60.9575 65.7452 59.2946 63.3609C58.5826 62.3398 57.6692 61.52 56.6387 60.8596C57.8238 60.8689 58.4702 60.8689 58.4702 60.8689L58.5405 60.7893C59.0229 60.8315 61.8709 61.2156 62.9577 64.3071C63.8617 66.8881 63.0701 88.7072 62.6391 98.8812Z" fill="#FFD363"/>
<path opacity="0.6" d="M181.277 82.9783C181.277 82.9783 172.33 87.5126 166.84 95.4804C161.35 103.448 160.704 107.079 157.565 108.329C157.031 108.54 155.345 108.704 152.843 108.816C140.622 109.369 108.906 108.84 96.6377 108.353C81.8544 107.767 47.2053 105.725 44.2075 105.205C41.2096 104.69 41.0363 94.5015 25.1802 93.1711C12.5095 92.1078 7.68472 101.298 6.79941 104.01L2.00278 102.39C2.00278 102.39 2.1152 100.567 2.69136 98.394C2.25105 97.0122 1.81541 94.745 1.68426 91.0726C1.59057 88.4635 2.19952 81.0531 3.23473 71.7784C4.11536 72.6918 5.09904 73.5115 6.1483 74.1954C10.8512 77.2636 16.5894 78.2238 22.1542 78.992C27.7191 79.7603 33.4432 80.4488 38.4037 83.0954C44.4089 86.2994 48.6902 92.0563 54.5127 95.5788C57.089 97.1387 59.8105 98.1973 62.6398 98.8812C62.5086 102.034 62.4103 104.067 62.4103 104.067C81.2501 106.226 118.368 107.079 141.236 106.849C141.873 103.931 142.421 100.834 142.89 97.6164C147.115 96.8576 151.227 95.6584 155.2 93.7988C168.058 87.7843 176.859 75.6944 181.478 62.0774C181.703 71.2022 181.277 82.9783 181.277 82.9783Z" fill="#F7AA45"/>
<path d="M181.512 73.0573C177.385 80.2147 171.553 86.3979 164.564 90.801C167.089 85.0395 169.618 79.2732 172.148 73.507C168.063 72.7903 165.262 72.1673 162.695 71.0103C161.829 70.6262 160.84 69.8345 161.163 68.9399C161.393 68.3122 162.147 68.0873 162.798 67.9421C165.496 67.3519 168.185 66.7617 170.883 66.1715C171.511 62.0681 171.722 58.6018 171.469 55.1777C169.127 39.9025 161.22 25.1191 149.439 14.5703C148.474 14.767 147.528 15.2448 146.638 15.8959C148.811 13.3196 151.687 11.1696 154.315 10.8417C156.395 11.9518 157.622 13.1229 158.54 14.2799C158.737 14.5281 158.915 14.767 159.088 15.0153C159.191 15.1605 159.285 15.301 159.383 15.4416C159.927 16.2472 160.409 17.0436 161.023 17.7884C163.018 20.2382 172.583 35.1059 177.802 46.2589C177.928 46.5213 178.045 46.7789 178.162 47.0365C178.233 47.1958 178.303 47.355 178.373 47.5096C179.736 50.545 180.729 53.2337 181.081 55.2386C181.132 55.5383 181.174 55.8241 181.202 56.1004C181.202 56.152 181.212 56.2082 181.212 56.2597C181.226 56.3909 181.235 56.522 181.249 56.6532C181.371 58.2364 181.441 60.0961 181.493 62.0681C181.568 65.6141 181.554 69.5535 181.512 73.0573Z" fill="#FFD363"/>
<path d="M181.277 82.9783C181.277 82.9783 172.331 87.5126 166.841 95.4804C161.351 103.448 160.704 107.079 157.566 108.329C157.032 108.54 155.346 108.704 152.844 108.816C163.876 101.973 178.996 77.0247 179.254 56.9248C179.811 56.8264 180.481 56.6015 181.207 56.2643C181.933 65.0003 181.277 82.9783 181.277 82.9783Z" fill="#2B3B59"/>
<path d="M181.241 56.6625C179.077 57.6321 176.5 57.8101 174.13 57.885C165.277 58.1567 156.311 58.1099 147.449 57.7586C146.816 57.7352 146.184 57.707 145.552 57.6789C145.556 57.2246 145.561 56.7749 145.561 56.3299C155.023 56.7562 164.621 56.8264 174.088 56.5407C176.467 56.4704 179.058 56.2831 181.077 55.2432C181.133 55.5476 181.17 55.8334 181.194 56.1051C181.199 56.1613 181.203 56.2128 181.203 56.269C181.217 56.3955 181.227 56.5266 181.241 56.6625Z" fill="#131C3B"/>
<path d="M172.324 60.021C172.193 59.9367 172.048 59.8196 171.889 59.6885C171.458 59.3371 170.905 59.1685 170.348 59.22C167.017 59.5105 163.466 59.5573 160 59.576C159.012 59.5807 158.173 60.3349 158.094 61.3186C158.014 62.3304 158.042 63.3749 158.164 64.3727C158.276 65.2674 158.998 65.9606 159.892 66.0496C163.911 66.4478 167.823 66.4525 171.776 65.6749C172.296 65.5718 172.732 65.2018 172.915 64.7006C173.491 63.1407 173.912 61.0188 172.324 60.021Z" fill="#2B3B59"/>
<path d="M158.643 63.5998C158.643 63.0517 158.657 62.4896 158.694 61.8947C158.76 60.8174 159.65 59.9695 160.732 59.9883C164.203 60.0445 167.692 59.904 171.252 59.6604C172.367 59.5854 173.342 60.4333 173.403 61.5528C173.431 62.0962 173.449 62.6489 173.454 63.2016C173.468 64.1947 172.77 65.0613 171.791 65.2299C168.568 65.7732 163.678 65.8857 160.498 65.6234C159.448 65.5297 158.638 64.649 158.643 63.5998Z" fill="#E85C20"/>
<path d="M159.375 63.4452C159.352 63.0704 159.342 62.6863 159.347 62.3069C159.356 61.2295 160.26 60.4941 161.338 60.5129C162.991 60.541 164.649 60.4613 166.289 60.5456C165.361 63.3749 167.071 64.4569 168.594 65.0331C166.27 65.3048 163.816 65.4078 161.52 65.3516C160.391 65.3235 159.45 64.5694 159.375 63.4452Z" fill="#CC2E0E"/>
<path d="M171.08 60.302C168.822 60.4191 166.569 60.5362 164.312 60.6486C164.171 60.658 164.026 60.6674 163.909 60.7423C163.628 60.9297 163.721 61.3981 163.993 61.5948C164.265 61.7916 164.63 61.7916 164.963 61.7822C166.808 61.7447 168.649 61.7073 170.495 61.6651C170.78 61.6604 171.08 61.6511 171.343 61.5339C171.605 61.4168 171.83 61.1639 171.816 60.8735C171.806 60.5971 171.478 60.3442 171.08 60.302Z" fill="#FFAD7A"/>
<path d="M178.159 47.0411C177.648 47.1769 177.128 47.3034 176.608 47.4252C175.526 47.6781 174.435 47.903 173.339 48.0903C168.753 48.896 164.074 49.149 159.427 48.8445C159.09 48.8211 158.762 48.8023 158.424 48.7695H158.42L158.082 48.7414C157.385 48.5166 156.79 48.2168 156.27 47.8608C155.455 47.3128 154.827 46.6335 154.288 45.8841C153.81 44.1603 153.365 42.4224 152.967 40.6799C151.557 34.6186 150.625 28.4869 150.204 22.3085C150.536 20.7346 151.244 19.4511 152.218 18.4253C152.822 17.4791 153.712 16.8139 154.738 16.3221C155.628 15.8958 156.607 15.5913 157.586 15.3571C157.633 15.3477 157.67 15.3384 157.717 15.3243C158.167 15.2213 158.621 15.1229 159.08 15.0245C159.183 15.1697 159.277 15.3103 159.371 15.4555C159.661 15.8864 159.933 16.3127 160.218 16.7296C160.467 17.095 160.724 17.4556 161.01 17.8023C161.211 18.0505 161.488 18.4206 161.83 18.9031V18.9077C164.209 22.2523 169.699 30.8712 174.234 39.2559C175.25 41.139 176.22 43.0033 177.096 44.7973C177.335 45.2939 177.569 45.781 177.798 46.2682C177.925 46.5258 178.047 46.7834 178.159 47.0411Z" fill="#3C5B7D"/>
<path d="M156.275 47.8609C155.459 47.3128 154.832 46.6336 154.293 45.8841C153.815 44.1603 153.37 42.4225 152.972 40.68C154.232 32.7309 154.822 24.6272 154.743 16.3174C155.633 15.8912 156.612 15.5867 157.591 15.3525C157.638 15.3431 157.675 15.3338 157.722 15.3197C158.069 26.1824 157.581 37.0731 156.275 47.8609Z" fill="#6C9DBA"/>
<path d="M159.433 48.8446C159.095 48.8211 158.767 48.8024 158.43 48.7696C160.276 38.2067 160.88 27.4284 160.229 16.725C160.477 17.0903 160.735 17.451 161.021 17.7977C161.222 18.0459 161.498 18.416 161.84 18.8984V18.9031C161.733 28.9273 160.927 38.9375 159.433 48.8446Z" fill="#6C9DBA"/>
<path d="M177.1 44.7928C176.95 45.6734 176.786 46.5494 176.608 47.4206C175.526 47.6736 174.434 47.8984 173.338 48.0858C173.947 45.1816 174.247 42.2165 174.238 39.2467C175.254 41.1344 176.224 42.9987 177.1 44.7928Z" fill="#6C9DBA"/>
<path d="M178.369 47.5143C171.839 48.9758 164.827 49.7112 159.201 49.5004H159.183C156.339 49.388 153.88 47.3784 153.196 44.6054C151.702 38.5347 150.47 31.6723 149.529 24.2104C149.116 20.9361 150.779 17.7321 153.674 16.2238C155.243 15.4041 156.873 14.7577 158.532 14.2845C158.845 14.6733 159.117 15.0621 159.375 15.4509C157.637 15.9053 155.932 16.5658 154.292 17.4183C151.899 18.6643 150.522 21.3296 150.864 24.0464C151.796 31.4568 153.014 38.263 154.499 44.2869C155.042 46.4791 156.986 48.067 159.23 48.156H159.244C164.682 48.3574 171.455 47.6595 177.793 46.2683C177.999 46.6852 178.191 47.1068 178.369 47.5143Z" fill="#131C3B"/>
<path d="M154.311 10.851C152.587 11.0665 150.765 12.0595 149.098 13.4414C147.238 14.9825 145.58 17.0154 144.488 18.9875L144.231 19.2264L60.2993 16.2238C60.2946 16.2472 60.2946 16.2706 60.2899 16.2894C60.2712 16.4346 60.2478 16.5892 60.229 16.7344C56.7018 40.3381 58.4631 60.7799 58.4631 60.7799C58.4631 60.7799 58.4912 60.7799 58.5333 60.7893L58.4631 60.8736C58.4631 60.8736 29.3039 60.9205 4.89453 58.2458C7.25069 40.4036 10.5109 21.0204 13.2512 15.1183C13.3074 15.0059 13.3542 14.8982 13.4057 14.7904C13.4338 14.7389 13.4573 14.6827 13.49 14.6312C14.2489 13.1556 15.1248 11.8019 16.0991 10.5512C20.4976 4.92549 26.8775 1.57629 33.3042 0.269392C41.2112 -1.33729 129.077 4.64913 143.608 7.48307C148.695 8.47144 152.021 9.62374 154.311 10.851Z" fill="#2B3B59"/>
<path d="M154.311 10.851C152.587 11.0665 150.765 12.0595 149.097 13.4414C147.701 12.1954 145.294 11.8206 143.279 11.6145C112.443 8.4808 82.5769 7.53459 51.9094 5.70775C43.9837 5.23465 35.332 5.19249 27.5281 6.63991C23.5699 7.37065 19.6446 8.64943 16.0986 10.5512C20.4971 4.92549 26.877 1.57629 33.3037 0.269392C41.2106 -1.33729 129.077 4.64913 143.607 7.48307C148.694 8.47144 152.02 9.62374 154.311 10.851Z" fill="#3C5B7D"/>
<path d="M13.4904 14.6264C16.2821 14.2985 19.2051 14.4156 22.0765 14.5234L22.6573 14.5515C26.1611 14.692 29.96 14.8091 33.6371 14.9262C43.4599 15.2401 53.5825 15.5633 60.2902 16.2846C60.2715 16.4298 60.2481 16.5844 60.2293 16.7296C53.5403 16.0036 43.4318 15.6851 33.6231 15.3712C29.9506 15.2588 26.1471 15.137 22.6386 14.9965L22.0578 14.9684C19.1067 14.8513 16.0995 14.7295 13.2515 15.1089" fill="#131C3B"/>
<path d="M42.0598 113.566C41.7647 121.023 36.4059 129.488 24.6252 128.588C23.9975 128.565 23.3745 128.504 22.7702 128.406C15.0179 127.174 9.23756 120.311 9.56077 112.273C9.87461 104.376 15.9688 98.0755 23.604 97.2745C24.3488 97.1949 25.1076 97.1715 25.8758 97.2043C37.858 97.6821 42.3315 106.741 42.0598 113.566Z" fill="#212D4A"/>
<path d="M38.1675 113.421C37.9005 120.18 32.4809 127.727 22.7658 128.411C15.0135 127.179 9.23316 120.316 9.55637 112.278C9.87021 104.381 15.9644 98.0803 23.5996 97.2793C33.6472 98.9094 38.4157 107.14 38.1675 113.421Z" fill="#2B3B59"/>
<path d="M23.7121 124.279C30.0321 124.279 35.1556 119.156 35.1556 112.836C35.1556 106.516 30.0321 101.392 23.7121 101.392C17.392 101.392 12.2686 106.516 12.2686 112.836C12.2686 119.156 17.392 124.279 23.7121 124.279Z" fill="#82A1B8"/>
<path d="M22.8172 119.084C26.2863 119.084 29.0987 116.272 29.0987 112.803C29.0987 109.334 26.2863 106.521 22.8172 106.521C19.348 106.521 16.5356 109.334 16.5356 112.803C16.5356 116.272 19.348 119.084 22.8172 119.084Z" fill="#AECAD6"/>
<path d="M51.0625 107.308C49.957 107.346 48.8562 107.374 47.7461 107.406C47.2917 107.42 46.8374 107.435 46.383 107.449C43.9331 107.514 41.7503 106.1 40.9493 103.987C40.2514 102.123 39.3567 100.3 38.3168 98.4924C30.8923 96.6749 23.14 95.977 14.952 96.2018C12.029 98.2956 10.235 100.909 8.67046 103.87C8.10367 104.938 6.81552 105.523 5.53204 105.303C3.35389 104.924 1.53173 104.53 0 104.137C1.26473 100.127 3.15715 96.2814 5.62573 92.698C6.96073 90.7541 8.70325 89.1193 10.7128 87.8499C13.7481 85.9293 17.4065 84.852 21.2382 84.8379C26.1332 84.8239 31.0844 85.3298 36.0122 86.3743C40.9868 87.4236 45.1604 90.4964 47.3105 94.7169C49.3012 98.6142 50.5613 102.881 51.0625 107.308Z" fill="#FDBF4C"/>
<path d="M51.0621 107.308C49.9567 107.345 48.8559 107.373 47.7457 107.406C47.0009 102.286 45.7081 97.1385 42.0076 93.6722C38.3117 90.2152 33.0092 89.2175 28.0159 88.3978C22.3152 87.4656 16.2491 86.6412 10.7124 87.8404C13.7478 85.9198 17.4061 84.8425 21.2378 84.8284C26.1328 84.8144 31.084 85.3203 36.0118 86.3648C40.9864 87.4141 45.16 90.4869 47.3101 94.7074C49.3009 98.614 50.5609 102.881 51.0621 107.308Z" fill="#FFD363"/>
</svg>
