<svg width="1440" height="28" viewBox="0 0 1440 28" fill="none" xmlns="http://www.w3.org/2000/svg">
<path d="M325.881 0H-81V2.45133H325.881V0Z" fill="#90EA35"/>
<path d="M325.881 25.1116H-81V27.563H325.881V25.1116Z" fill="#90EA35"/>
<path d="M313.028 20.3648L313.028 11.1066H318.378V12.5482H314.469V18.9232H324.753V4.73161H294.928L294.928 18.9232H305.211V12.5482H301.303V11.1066H306.653V20.3648L294.207 20.3647H281.76V11.1066H287.11V12.5482H283.202V18.9232H293.486V4.73161H263.661V18.9232H273.944V12.5482H270.036V11.1066H275.385V20.3647H262.94H250.493V11.1066H255.843V12.5482H251.935V18.9232H262.219L262.219 4.73161H232.393V18.9232H242.677V12.5482H238.768V11.1066H244.118V20.3647H231.673H219.226V11.1066H224.576V12.5482H220.668V18.9232H230.952V4.73161L201.126 4.73151V18.9232H211.41V12.5482H207.501V11.1066H212.851V20.3647H200.405H187.959V11.1066H193.309V12.5482H189.401V18.9232H199.685V4.73151H169.859L169.859 18.9232H180.142V12.5482H176.234V11.1066H181.584V20.3647H169.138H156.692V11.1065L162.042 11.1066V12.5482H158.133V18.9232H168.418V4.73151H138.592V18.9232H148.875V12.5482H144.967V11.1065H150.317L150.317 20.3647H137.871H125.425L125.425 11.1065H130.775V12.5482H126.866V18.9232H137.15V4.73151H107.325V18.9232H117.608V12.5482L113.7 12.5481V11.1065H119.05V20.3647H106.604H94.1575V11.1065H99.5074V12.5481H95.5991L95.599 18.9232H105.883V4.73151H76.0577V18.9232H86.3409V12.5481H82.4327V11.1065H87.7826L87.7825 20.3647H75.3369H62.8903L62.8904 11.1065H68.2403V12.5481H64.3319V18.9232H74.616V4.73151H44.7905L44.7904 18.923L55.0737 18.9232V12.5481H51.1655V11.1065H56.5154V20.3647H44.0697H31.623L31.6231 11.1065H36.9731V12.5481H33.0648V18.923H43.3489V4.73151H13.5231V18.923H23.8064V12.5481H19.8981V11.1065H25.2481V20.3647H12.8023H0.355843V11.1065H5.70576V12.5481H1.79749V18.923H12.0815V4.73151H-17.7444L-17.7445 18.923H-7.46081V12.5481H-11.3691V11.1065H-6.01916V20.3647L-18.4653 20.3646H-30.9114V11.1065H-25.5614V12.5481H-29.4697V18.923H-19.186V4.73151H-49.0118V18.923H-38.7283V12.5481H-42.6366V11.1065H-37.2865L-37.2866 20.3646H-49.7327H-62.1788L-62.1787 11.1065H-56.8286V12.5481H-60.7368L-60.7369 18.923H-50.4535V4.73151H-80.2791L-80.2792 18.923H-69.9957V12.5481H-73.904L-73.9039 11.1065H-68.5539V20.3646H-81V22.8312H-66.0873L-66.0872 8.63979H-76.3706L-76.3707 15.0147H-72.4624V16.4563H-77.8125V7.19825H-52.9201V16.4563H-58.2702V15.0147H-54.3619V8.63979H-64.6454V22.8312H-49.7327H-34.8199V8.63979H-45.1033V15.0147H-41.1951V16.4563H-46.5452L-46.5451 7.19825H-21.6528V16.4563H-27.0031V15.0147H-23.0947V8.63979H-33.378L-33.3781 22.8312H-18.4653L-3.55254 22.8313L-3.55244 8.63979H-13.8357V15.0147H-9.92744V16.4563H-15.2778V7.19825H9.61485V16.4563H4.26411V15.0147H8.17239V8.63979H-2.11089V22.8313H12.8023H27.7147V8.63979H17.4314V15.0147H21.3398V16.4563H15.9899V7.19825H40.8822V16.4563H35.5314L35.5315 15.0147H39.4398V8.63979H29.1563L29.1562 22.8313H44.0697H58.9821V8.63979H48.6988V15.0147H52.6071L52.607 16.4564L47.2572 16.4563V7.19825H72.1494L72.1493 16.4564H66.7986V15.0147H70.7069V8.63979H60.4238L60.4236 22.8313H75.3369H90.2492V8.63979H79.9659V15.0147H83.8742V16.4564H78.5243V7.19825H103.416V16.4564H98.0658L98.0659 15.0147H101.974V8.63979H91.6909V22.8313H106.604H121.516V8.63979H111.233V15.0147L115.141 15.0149V16.4564H109.791V7.19825H134.684V16.4564H129.333V15.0149H133.241V8.63979H122.958V22.8313H137.871H152.784V8.63979H142.5V15.0149H146.409V16.4564H141.059V7.19825H165.951V16.4564H160.6V15.0149H164.508V8.63989L154.225 8.63979V22.8313H169.138H184.051V8.63989H173.767V15.0149H177.676V16.4564H172.326L172.326 7.19825H197.218V16.4564H191.867V15.0149H195.776V8.63989H185.492V22.8313H200.405H215.318V8.63989H205.034V15.0149H208.943V16.4564H203.593V7.19825L228.485 7.19835V16.4564H223.134V15.0149H227.043V8.63989H216.759V22.8313H231.673H246.585V8.63989H236.302V15.0149H240.21V16.4564H234.86V7.19835H259.752L259.752 16.4564H254.402V15.0149H258.31V8.63989H248.027V22.8313H262.94H277.852V8.63989H267.569V15.0149H271.477V16.4564H266.127V7.19835H291.019V16.4564H285.669V15.0149H289.577V8.63989H279.294V22.8313H294.207L309.119 22.8315V8.63989H298.836V15.0149H302.744V16.4564H297.394L297.394 7.19835H322.287V16.4564H316.936V15.0149H320.844V8.63989H310.561L310.561 22.8315H325.474V20.3648H313.028Z" fill="#FFF200"/>
<path d="M731.741 0H324.86V2.45133H731.741V0Z" fill="#90EA35"/>
<path d="M731.741 25.1116H324.86V27.563H731.741V25.1116Z" fill="#90EA35"/>
<path d="M718.887 20.3648L718.888 11.1066H724.237V12.5482H720.329V18.9232H730.613V4.73161H700.788L700.788 18.9232H711.071V12.5482H707.163V11.1066H712.513V20.3648L700.067 20.3647H687.62V11.1066H692.97V12.5482H689.062V18.9232H699.346V4.73161H669.521V18.9232H679.804V12.5482H675.896V11.1066H681.245V20.3647H668.8H656.353V11.1066H661.703V12.5482H657.795V18.9232H668.079L668.079 4.73161H638.253V18.9232H648.537V12.5482H644.628V11.1066H649.978V20.3647H637.533H625.086V11.1066H630.436V12.5482H626.528V18.9232H636.812V4.73161L606.986 4.73151V18.9232H617.269V12.5482H613.361V11.1066H618.711V20.3647H606.265H593.819V11.1066H599.169V12.5482H595.261V18.9232H605.545V4.73151H575.719L575.719 18.9232H586.002V12.5482H582.094V11.1066H587.444V20.3647H574.998H562.552V11.1065L567.902 11.1066V12.5482H563.993V18.9232H574.277V4.73151H544.452V18.9232H554.735V12.5482H550.827V11.1065H556.177L556.177 20.3647H543.731H531.284L531.285 11.1065H536.634V12.5482H532.726V18.9232H543.01V4.73151H513.185V18.9232H523.468V12.5482L519.56 12.5481V11.1065H524.91V20.3647H512.464H500.017V11.1065H505.367V12.5481H501.459L501.459 18.9232H511.743V4.73151H481.918V18.9232H492.201V12.5481H488.293V11.1065H493.642L493.642 20.3647H481.197H468.75L468.75 11.1065H474.1V12.5481H470.192V18.9232H480.476V4.73151H450.65L450.65 18.923L460.934 18.9232V12.5481H457.025V11.1065H462.375V20.3647H449.93H437.483L437.483 11.1065H442.833V12.5481H438.925V18.923H449.209V4.73151H419.383V18.923H429.666V12.5481H425.758V11.1065H431.108V20.3647H418.662H406.216V11.1065H411.566V12.5481H407.657V18.923H417.941V4.73151H388.115L388.115 18.923H398.399V12.5481H394.491V11.1065H399.841V20.3647L387.395 20.3646H374.948V11.1065H380.298V12.5481H376.39V18.923H386.674V4.73151H356.848V18.923H367.132V12.5481H363.223V11.1065H368.573L368.573 20.3646H356.127H343.681L343.681 11.1065H349.031V12.5481H345.123L345.123 18.923H355.406V4.73151H325.581L325.581 18.923H335.864V12.5481H331.956L331.956 11.1065H337.306V20.3646H324.86V22.8312H339.773L339.773 8.63979H329.489L329.489 15.0147H333.397V16.4563H328.047V7.19825H352.94V16.4563H347.59V15.0147H351.498V8.63979H341.214V22.8312H356.127H371.04V8.63979H360.757V15.0147H364.665V16.4563H359.315L359.315 7.19825H384.207V16.4563H378.857V15.0147H382.765V8.63979H372.482L372.482 22.8312H387.395L402.307 22.8313L402.307 8.63979H392.024V15.0147H395.932V16.4563H390.582V7.19825H415.475V16.4563H410.124V15.0147H414.032V8.63979H403.749V22.8313H418.662H433.575V8.63979H423.291V15.0147H427.2V16.4563H421.85V7.19825H446.742V16.4563H441.391L441.391 15.0147H445.3V8.63979H435.016L435.016 22.8313H449.93H464.842V8.63979H454.559V15.0147H458.467L458.467 16.4564L453.117 16.4563V7.19825H478.009L478.009 16.4564H472.659V15.0147H476.567V8.63979H466.284L466.284 22.8313H481.197H496.109V8.63979H485.826V15.0147H489.734V16.4564H484.384V7.19825H509.276V16.4564H503.926L503.926 15.0147H507.834V8.63979H497.551V22.8313H512.464H527.376V8.63979H517.093V15.0147L521.001 15.0149V16.4564H515.651V7.19825H540.544V16.4564H535.193V15.0149H539.101V8.63979H528.818V22.8313H543.731H558.643V8.63979H548.36V15.0149H552.268V16.4564H546.918V7.19825H571.811V16.4564H566.46V15.0149H570.368V8.63989L560.085 8.63979V22.8313H574.998H589.91V8.63989H579.627V15.0149H583.536V16.4564H578.186L578.186 7.19825H603.078V16.4564H597.727V15.0149H601.635V8.63989H591.352V22.8313H606.265H621.178V8.63989H610.894V15.0149H614.803V16.4564H609.453V7.19825L634.345 7.19835V16.4564H628.994V15.0149H632.903V8.63989H622.619V22.8313H637.533H652.445V8.63989H642.162V15.0149H646.07V16.4564H640.72V7.19835H665.612L665.612 16.4564H660.261V15.0149H664.17V8.63989H653.886V22.8313H668.8H683.712V8.63989H673.429V15.0149H677.337V16.4564H671.987V7.19835H696.879V16.4564H691.529V15.0149H695.437V8.63989H685.154V22.8313H700.067L714.979 22.8315V8.63989H704.696V15.0149H708.604V16.4564H703.254L703.254 7.19835H728.147V16.4564H722.796V15.0149H726.704V8.63989H716.421L716.421 22.8315H731.334V20.3648H718.887Z" fill="#FFF200"/>
<path d="M1137.6 0H730.72V2.45133H1137.6V0Z" fill="#90EA35"/>
<path d="M1137.6 25.1116H730.72V27.563H1137.6V25.1116Z" fill="#90EA35"/>
<path d="M1124.75 20.3648L1124.75 11.1066H1130.1V12.5482H1126.19V18.9232H1136.47V4.73161H1106.65L1106.65 18.9232H1116.93V12.5482H1113.02V11.1066H1118.37V20.3648L1105.93 20.3647H1093.48V11.1066H1098.83V12.5482H1094.92V18.9232H1105.21V4.73161H1075.38V18.9232H1085.66V12.5482H1081.76V11.1066H1087.11V20.3647H1074.66H1062.21V11.1066H1067.56V12.5482H1063.65V18.9232H1073.94L1073.94 4.73161H1044.11V18.9232H1054.4V12.5482H1050.49V11.1066H1055.84V20.3647H1043.39H1030.95V11.1066H1036.3V12.5482H1032.39V18.9232H1042.67V4.73161L1012.85 4.73151V18.9232H1023.13V12.5482H1019.22V11.1066H1024.57V20.3647H1012.13H999.679V11.1066H1005.03V12.5482H1001.12V18.9232H1011.4V4.73151H981.579L981.579 18.9232H991.862V12.5482H987.954V11.1066H993.304V20.3647H980.858H968.412V11.1065L973.762 11.1066V12.5482H969.853V18.9232H980.138V4.73151H950.312V18.9232H960.595V12.5482H956.687V11.1065H962.037L962.037 20.3647H949.591H937.145L937.145 11.1065H942.495V12.5482H938.586V18.9232H948.87V4.73151H919.045V18.9232H929.328V12.5482L925.42 12.5481V11.1065H930.77V20.3647H918.324H905.877V11.1065H911.227V12.5481H907.319L907.319 18.9232H917.603V4.73151H887.778V18.9232H898.061V12.5481H894.153V11.1065H899.503L899.502 20.3647H887.057H874.61L874.61 11.1065H879.96V12.5481H876.052V18.9232H886.336V4.73151H856.511L856.51 18.923L866.794 18.9232V12.5481H862.885V11.1065H868.235V20.3647H855.79H843.343L843.343 11.1065H848.693V12.5481H844.785V18.923H855.069V4.73151H825.243V18.923H835.526V12.5481H831.618V11.1065H836.968V20.3647H824.522H812.076V11.1065H817.426V12.5481H813.517V18.923H823.801V4.73151H793.976L793.975 18.923H804.259V12.5481H800.351V11.1065H805.701V20.3647L793.255 20.3646H780.809V11.1065H786.159V12.5481H782.25V18.923H792.534V4.73151H762.708V18.923H772.992V12.5481H769.083V11.1065H774.433L774.433 20.3646H761.987H749.541L749.541 11.1065H754.891V12.5481H750.983L750.983 18.923H761.267V4.73151H731.441L731.441 18.923H741.724V12.5481H737.816L737.816 11.1065H743.166V20.3646H730.72V22.8312H745.633L745.633 8.63979H735.349L735.349 15.0147H739.258V16.4563H733.907V7.19825H758.8V16.4563H753.45V15.0147H757.358V8.63979H747.075V22.8312H761.987H776.9V8.63979H766.617V15.0147H770.525V16.4563H765.175L765.175 7.19825H790.067V16.4563H784.717V15.0147H788.625V8.63979H778.342L778.342 22.8312H793.255L808.167 22.8313L808.168 8.63979H797.884V15.0147H801.793V16.4563H796.442V7.19825H821.335V16.4563H815.984V15.0147H819.892V8.63979H809.609V22.8313H824.522H839.435V8.63979H829.151V15.0147H833.06V16.4563H827.71V7.19825H852.602V16.4563H847.251L847.252 15.0147H851.16V8.63979H840.876L840.876 22.8313H855.79H870.702V8.63979H860.419V15.0147H864.327L864.327 16.4564L858.977 16.4563V7.19825H883.869L883.869 16.4564H878.519V15.0147H882.427V8.63979H872.144L872.144 22.8313H887.057H901.969V8.63979H891.686V15.0147H895.594V16.4564H890.244V7.19825H915.136V16.4564H909.786L909.786 15.0147H913.694V8.63979H903.411V22.8313H918.324H933.236V8.63979H922.953V15.0147L926.861 15.0149V16.4564H921.511V7.19825H946.404V16.4564H941.053V15.0149H944.961V8.63979H934.678V22.8313H949.591H964.504V8.63979H954.22V15.0149H958.129V16.4564H952.779V7.19825H977.671V16.4564H972.32V15.0149H976.228V8.63989L965.945 8.63979V22.8313H980.858H995.771V8.63989H985.487V15.0149H989.396V16.4564H984.046L984.046 7.19825H1008.94V16.4564H1003.59V15.0149H1007.5V8.63989H997.212V22.8313H1012.13H1027.04V8.63989H1016.75V15.0149H1020.66V16.4564H1015.31V7.19825L1040.21 7.19835V16.4564H1034.85V15.0149H1038.76V8.63989H1028.48V22.8313H1043.39H1058.31V8.63989H1048.02V15.0149H1051.93V16.4564H1046.58V7.19835H1071.47L1071.47 16.4564H1066.12V15.0149H1070.03V8.63989H1059.75V22.8313H1074.66H1089.57V8.63989H1079.29V15.0149H1083.2V16.4564H1077.85V7.19835H1102.74V16.4564H1097.39V15.0149H1101.3V8.63989H1091.01V22.8313H1105.93L1120.84 22.8315V8.63989H1110.56V15.0149H1114.46V16.4564H1109.11L1109.11 7.19835H1134.01V16.4564H1128.66V15.0149H1132.56V8.63989H1122.28L1122.28 22.8315H1137.19V20.3648H1124.75Z" fill="#FFF200"/>
<path d="M1543.46 0H1136.58V2.45133H1543.46V0Z" fill="#90EA35"/>
<path d="M1543.46 25.1116H1136.58V27.563H1543.46V25.1116Z" fill="#90EA35"/>
<path d="M1530.61 20.3648L1530.61 11.1066H1535.96V12.5482H1532.05V18.9232H1542.33V4.73161H1512.51L1512.51 18.9232H1522.79V12.5482H1518.88V11.1066H1524.23V20.3648L1511.79 20.3647H1499.34V11.1066H1504.69V12.5482H1500.78V18.9232H1511.07V4.73161H1481.24V18.9232H1491.52V12.5482H1487.62V11.1066H1492.97V20.3647H1480.52H1468.07V11.1066H1473.42V12.5482H1469.51V18.9232H1479.8L1479.8 4.73161H1449.97V18.9232H1460.26V12.5482H1456.35V11.1066H1461.7V20.3647H1449.25H1436.81V11.1066H1442.16V12.5482H1438.25V18.9232H1448.53V4.73161L1418.71 4.73151V18.9232H1428.99V12.5482H1425.08V11.1066H1430.43V20.3647H1417.99H1405.54V11.1066H1410.89V12.5482H1406.98V18.9232H1417.26V4.73151H1387.44L1387.44 18.9232H1397.72V12.5482H1393.81V11.1066H1399.16V20.3647H1386.72H1374.27V11.1065L1379.62 11.1066V12.5482H1375.71V18.9232H1386V4.73151H1356.17V18.9232H1366.46V12.5482H1362.55V11.1065H1367.9L1367.9 20.3647H1355.45H1343L1343 11.1065H1348.35V12.5482H1344.45V18.9232H1354.73V4.73151H1324.9V18.9232H1335.19V12.5482L1331.28 12.5481V11.1065H1336.63V20.3647H1324.18H1311.74V11.1065H1317.09V12.5481H1313.18L1313.18 18.9232H1323.46V4.73151H1293.64V18.9232H1303.92V12.5481H1300.01V11.1065H1305.36L1305.36 20.3647H1292.92H1280.47L1280.47 11.1065H1285.82V12.5481H1281.91V18.9232H1292.2V4.73151H1262.37L1262.37 18.923L1272.65 18.9232V12.5481H1268.75V11.1065H1274.1V20.3647H1261.65H1249.2L1249.2 11.1065H1254.55V12.5481H1250.64V18.923H1260.93V4.73151H1231.1V18.923H1241.39V12.5481H1237.48V11.1065H1242.83V20.3647H1230.38H1217.94V11.1065H1223.29V12.5481H1219.38V18.923H1229.66V4.73151H1199.84L1199.84 18.923H1210.12V12.5481H1206.21V11.1065H1211.56V20.3647L1199.11 20.3646H1186.67V11.1065H1192.02V12.5481H1188.11V18.923H1198.39V4.73151H1168.57V18.923H1178.85V12.5481H1174.94V11.1065H1180.29L1180.29 20.3646H1167.85H1155.4L1155.4 11.1065H1160.75V12.5481H1156.84L1156.84 18.923H1167.13V4.73151H1137.3L1137.3 18.923H1147.58V12.5481H1143.68L1143.68 11.1065H1149.03V20.3646H1136.58V22.8312H1151.49L1151.49 8.63979H1141.21L1141.21 15.0147H1145.12V16.4563H1139.77V7.19825H1164.66V16.4563H1159.31V15.0147H1163.22V8.63979H1152.93V22.8312H1167.85H1182.76V8.63979H1172.48V15.0147H1176.39V16.4563H1171.03L1171.03 7.19825H1195.93V16.4563H1190.58V15.0147H1194.49V8.63979H1184.2L1184.2 22.8312H1199.11L1214.03 22.8313L1214.03 8.63979H1203.74V15.0147H1207.65V16.4563H1202.3V7.19825H1227.19V16.4563H1221.84V15.0147H1225.75V8.63979H1215.47V22.8313H1230.38H1245.29V8.63979H1235.01V15.0147H1238.92V16.4563H1233.57V7.19825H1258.46V16.4563H1253.11L1253.11 15.0147H1257.02V8.63979H1246.74L1246.74 22.8313H1261.65H1276.56V8.63979H1266.28V15.0147H1270.19L1270.19 16.4564L1264.84 16.4563V7.19825H1289.73L1289.73 16.4564H1284.38V15.0147H1288.29V8.63979H1278L1278 22.8313H1292.92H1307.83V8.63979H1297.55V15.0147H1301.45V16.4564H1296.1V7.19825H1321V16.4564H1315.65L1315.65 15.0147H1319.55V8.63979H1309.27V22.8313H1324.18H1339.1V8.63979H1328.81V15.0147L1332.72 15.0149V16.4564H1327.37V7.19825H1352.26V16.4564H1346.91V15.0149H1350.82V8.63979H1340.54V22.8313H1355.45H1370.36V8.63979H1360.08V15.0149H1363.99V16.4564H1358.64V7.19825H1383.53V16.4564H1378.18V15.0149H1382.09V8.63989L1371.81 8.63979V22.8313H1386.72H1401.63V8.63989H1391.35V15.0149H1395.26V16.4564H1389.91L1389.91 7.19825H1414.8V16.4564H1409.45V15.0149H1413.36V8.63989H1403.07V22.8313H1417.99H1432.9V8.63989H1422.61V15.0149H1426.52V16.4564H1421.17V7.19825L1446.07 7.19835V16.4564H1440.71V15.0149H1444.62V8.63989H1434.34V22.8313H1449.25H1464.17V8.63989H1453.88V15.0149H1457.79V16.4564H1452.44V7.19835H1477.33L1477.33 16.4564H1471.98V15.0149H1475.89V8.63989H1465.61V22.8313H1480.52H1495.43V8.63989H1485.15V15.0149H1489.06V16.4564H1483.71V7.19835H1508.6V16.4564H1503.25V15.0149H1507.16V8.63989H1496.87V22.8313H1511.79L1526.7 22.8315V8.63989H1516.42V15.0149H1520.32V16.4564H1514.97L1514.97 7.19835H1539.87V16.4564H1534.52V15.0149H1538.42V8.63989H1528.14L1528.14 22.8315H1543.05V20.3648H1530.61Z" fill="#FFF200"/>
</svg>
